<svg width="24" height="28" viewBox="0 0 24 28" fill="none" xmlns="http://www.w3.org/2000/svg">
<path d="M3.7903 4.09056C8.32418 -0.443315 15.6751 -0.443315 20.209 4.09056C24.7428 8.62444 24.7428 15.9754 20.209 20.5092L18.6263 22.0744C17.4598 23.2192 15.9463 24.6912 14.0851 26.4906C12.9222 27.6151 11.0771 27.615 9.91431 26.4903L5.25946 21.9624C4.67445 21.388 4.18476 20.9036 3.7903 20.5092C-0.743577 15.9754 -0.743577 8.62444 3.7903 4.09056ZM18.7947 5.50478C15.0419 1.75194 8.95734 1.75194 5.20452 5.50478C1.45168 9.2576 1.45168 15.3422 5.20452 19.095L7.18728 21.0516C8.27916 22.1202 9.65178 23.454 11.3047 25.0527C11.6923 25.4275 12.3072 25.4276 12.695 25.0528L17.2215 20.6508C17.8467 20.0371 18.3712 19.5184 18.7947 19.095C22.5475 15.3422 22.5475 9.2576 18.7947 5.50478ZM11.9996 8.66476C14.2099 8.66476 16.0016 10.4566 16.0016 12.6668C16.0016 14.8771 14.2099 16.6688 11.9996 16.6688C9.78938 16.6688 7.99755 14.8771 7.99755 12.6668C7.99755 10.4566 9.78938 8.66476 11.9996 8.66476ZM11.9996 10.6648C10.8939 10.6648 9.99752 11.5611 9.99752 12.6668C9.99752 13.7726 10.8939 14.6688 11.9996 14.6688C13.1054 14.6688 14.0016 13.7726 14.0016 12.6668C14.0016 11.5611 13.1054 10.6648 11.9996 10.6648Z" fill="#D8D892"/>
</svg>
