<svg width="45" height="45" viewBox="0 0 45 45" fill="none" xmlns="http://www.w3.org/2000/svg">
<g clip-path="url(#clip0_44_2091)">
<path d="M32.2672 25.9704C32.068 25.9704 31.8769 25.8597 31.7847 25.6726L26.4519 14.8223C26.4404 14.7979 26.4305 14.7735 26.4223 14.7491C26.4157 14.7295 25.7899 12.7446 25.1986 10.745C23.9354 6.47746 24.0359 6.3229 24.2039 6.06584C24.3027 5.9129 24.5085 5.59238 29.7128 3.41385C29.7804 3.38619 29.8512 3.37155 29.922 3.37155C30.0356 3.37155 30.1493 3.40735 30.2432 3.47731C30.3963 3.59119 30.4754 3.77504 30.454 3.96377C30.449 4.00608 29.9681 8.27691 32.0284 10.6035C32.8881 11.5748 34.0953 12.0792 35.6171 12.1052C35.7933 12.1085 35.958 12.1963 36.0552 12.3427C36.1523 12.4875 36.1721 12.6714 36.1046 12.8341C36.0338 13.0147 34.4231 17.3799 42.498 20.9414C42.6939 21.0276 42.8191 21.2212 42.8158 21.4343C42.8125 21.6458 42.6808 21.8362 42.4815 21.9159L32.4682 25.9346C32.4023 25.9606 32.3331 25.9736 32.2672 25.9736V25.9704Z" fill="#9C662B"/>
<path d="M29.9221 3.89871C29.9221 3.89871 28.8845 12.5201 35.6089 12.6324C35.6089 12.6324 33.5799 17.5849 42.2806 21.4213L32.2673 25.44L26.9345 14.5896C26.9345 14.5896 24.4378 6.6841 24.6552 6.34894C24.8709 6.01378 29.9221 3.89871 29.9221 3.89871ZM29.9221 2.83954C29.7804 2.83954 29.6388 2.8672 29.5037 2.92414C24.1446 5.16775 23.9454 5.48013 23.751 5.78113C23.4546 6.23994 23.5451 6.73617 23.8828 8.03938C24.0656 8.74874 24.3357 9.70867 24.6865 10.8915C25.2794 12.8959 25.9068 14.8841 25.9134 14.9053C25.9299 14.9557 25.9497 15.0045 25.9727 15.0517L31.3055 25.902C31.4899 26.2762 31.8704 26.4991 32.2706 26.4991C32.4056 26.4991 32.5423 26.4731 32.6741 26.421L42.6874 22.4024C43.086 22.243 43.3478 21.8639 43.3561 21.4392C43.3627 21.0146 43.114 20.6274 42.722 20.4549C35.0555 17.074 36.5905 13.07 36.6069 13.0293C36.7387 12.7056 36.7025 12.3395 36.5065 12.0483C36.3121 11.757 35.9844 11.5797 35.6303 11.5748C34.2452 11.552 33.1994 11.1193 32.4336 10.2521C31.4603 9.15224 31.1177 7.53176 31.0008 6.36847C30.869 5.05386 30.9876 4.03537 30.9893 4.02561C31.0337 3.6514 30.874 3.28045 30.5693 3.0543C30.3799 2.91438 30.1543 2.84279 29.9254 2.84279L29.9221 2.83954Z" fill="#9C662B"/>
<path d="M22.7629 42.6225C21.7352 42.6225 20.7075 42.5282 19.7095 42.3411C18.4199 42.167 17.1485 41.8497 15.9298 41.3974C14.324 40.8019 12.7841 40.0308 11.3513 39.1034C9.82462 38.1142 8.46425 36.9737 7.30811 35.716C6.5077 34.8309 5.79293 33.8759 5.18192 32.8753C4.5528 31.8438 4.02413 30.7488 3.60911 29.6181C1.50268 24.0587 2.13016 17.8533 5.33344 12.5998C8.50872 7.39345 13.657 3.9833 19.4592 3.24302C20.9793 3.02826 22.557 2.80536 24.12 2.80536C25.4112 2.80536 26.5624 2.95667 27.6427 3.26742C28.346 3.45127 29.0772 3.69532 29.8085 3.9898C29.9237 4.03699 30.0094 4.13623 30.0374 4.25663C30.0654 4.37703 30.0308 4.5023 29.9484 4.59504L29.68 4.88627C29.1513 5.64445 28.8368 6.4921 28.7412 7.40647V7.57568L28.8038 9.06437C28.9784 9.99825 29.3803 10.8394 29.9995 11.565C30.9053 12.6177 32.2196 13.2945 33.6063 13.4247C33.6195 13.4247 33.6343 13.4247 33.6491 13.4263C33.6771 13.4263 33.7034 13.4263 33.7314 13.4296C33.8517 13.4393 33.962 13.5044 34.0262 13.6053C34.0905 13.7062 34.1037 13.8314 34.0592 13.9437C33.8764 14.409 33.7594 14.8857 33.715 15.3608C33.5799 16.7779 34.0328 18.2113 34.9584 19.2948L36.0141 20.245C36.7799 20.7673 37.638 21.078 38.5652 21.1724H38.7365L40.2434 21.1106C40.7803 21.0129 41.2958 20.8389 41.7767 20.5915C41.8327 20.5623 41.8936 20.5492 41.9529 20.5492C42.0122 20.5492 42.0781 20.5639 42.1357 20.5948C42.2477 20.655 42.3218 20.7656 42.335 20.8893C42.3992 21.5238 42.4338 22.1063 42.4421 22.6708C42.6199 27.529 40.558 32.5369 36.7816 36.4058C32.9244 40.3578 27.8157 42.6242 22.7662 42.6242H22.7645L22.7629 42.6225Z" fill="#D4A97E"/>
<path d="M24.12 3.18445C25.2596 3.18445 26.3977 3.30322 27.534 3.63187C28.2521 3.81898 28.9619 4.05814 29.6635 4.34124C29.5697 4.44374 29.4741 4.54787 29.3786 4.65037C28.7989 5.47525 28.458 6.38636 28.3575 7.38695V7.57568C28.3789 8.08656 28.4003 8.5958 28.4217 9.10668C28.6062 10.1219 29.0344 11.0216 29.7064 11.8091C30.6764 12.9366 32.0779 13.6622 33.57 13.8005C33.6145 13.8038 33.659 13.8022 33.7034 13.807C33.5124 14.2919 33.3839 14.8027 33.3345 15.3266C33.1896 16.8479 33.6804 18.3951 34.6817 19.56C35.0457 19.8871 35.4097 20.2157 35.7753 20.5427C36.6103 21.1154 37.5342 21.4522 38.5454 21.5515H38.7365C39.2536 21.5303 39.7691 21.5092 40.2846 21.488C40.8791 21.3823 41.4341 21.1935 41.9513 20.9267C42.0089 21.5027 42.0484 22.0851 42.0567 22.6757C42.4305 32.8672 32.9376 42.2451 22.7612 42.2451C21.7681 42.2451 20.7668 42.1556 19.7688 41.9685C18.527 41.8009 17.2869 41.4983 16.0632 41.0444C14.5332 40.4766 13.0015 39.7216 11.5605 38.7878C10.1194 37.8539 8.76564 36.741 7.58973 35.4622C6.81568 34.6064 6.11573 33.679 5.50801 32.6801C4.89865 31.6827 4.38151 30.617 3.96813 29.4879C-0.391288 17.9835 7.64408 5.13033 19.5086 3.61723C21.0468 3.40084 22.585 3.18283 24.1216 3.18283M24.1216 2.42628C22.5323 2.42628 20.943 2.6508 19.4065 2.86719C16.4025 3.25116 13.5862 4.32172 11.0368 6.0512C8.63224 7.68306 6.54723 9.87787 5.00899 12.4029C1.74313 17.7574 1.10248 24.0782 3.25172 29.7499C3.67498 30.9018 4.21353 32.0195 4.85418 33.0705C5.47672 34.0923 6.20631 35.0652 7.01989 35.9649C8.20074 37.2502 9.58581 38.4119 11.1405 39.4174C12.5964 40.361 14.1626 41.1452 15.7947 41.7505C17.0365 42.2109 18.3327 42.5347 19.6469 42.712C20.6664 42.9024 21.7154 42.9984 22.7629 42.9984C27.9161 42.9984 33.127 40.6897 37.0566 36.6629C40.9005 32.724 43.0037 27.6185 42.8225 22.6546C42.8143 22.0835 42.778 21.4929 42.7138 20.8502C42.6891 20.5997 42.5392 20.3801 42.3169 20.2597C42.2033 20.1995 42.0781 20.1685 41.9529 20.1685C41.8278 20.1685 41.7108 20.1978 41.5988 20.2548C41.1607 20.4809 40.6897 20.642 40.1989 20.7331L38.9061 20.7852L38.72 20.7933H38.5833C37.7269 20.7038 36.9627 20.4272 36.2512 19.9473L35.744 19.4901L35.2351 19.0329C34.3869 18.0274 33.9719 16.7047 34.0971 15.395C34.1399 14.9557 34.2469 14.5131 34.4182 14.0787C34.5055 13.8558 34.4824 13.6037 34.3523 13.4019C34.2239 13.1985 34.0048 13.0684 33.7627 13.0505C33.7282 13.0472 33.6936 13.0472 33.6606 13.0456H33.6359C32.3546 12.9252 31.1326 12.2956 30.291 11.3161C29.7146 10.6409 29.3523 9.88763 29.1859 9.01882L29.1662 8.56164C29.153 8.22648 29.1382 7.89132 29.125 7.55616V7.42112C29.2156 6.57509 29.4955 5.82017 29.9814 5.11731L30.0341 5.06037L30.2334 4.84398C30.4014 4.66176 30.4672 4.40957 30.4129 4.16878C30.3569 3.92799 30.1873 3.72949 29.955 3.63676C29.2123 3.33739 28.4679 3.08846 27.7416 2.8981C26.6299 2.57922 25.4457 2.42465 24.1216 2.42465V2.42628Z" fill="#D4A97E"/>
<path d="M41.9513 20.9251C41.4341 21.1919 40.8791 21.3806 40.2846 21.4864C40.0227 21.4978 39.7609 21.5075 39.499 21.5189C39.0066 32.1692 27.9968 41.5048 17.2243 39.4873C15.9825 39.3198 14.7424 39.0171 13.5187 38.5632C11.987 37.9954 10.457 37.2405 9.01433 36.3066C8.3638 35.8852 7.73302 35.4215 7.12695 34.9269C7.27847 35.1075 7.43164 35.2881 7.58974 35.4622C8.76565 36.741 10.1178 37.8538 11.5605 38.7877C13.0016 39.7216 14.5332 40.4782 16.0632 41.0444C17.2885 41.4983 18.5286 41.8009 19.7688 41.9685C30.9877 44.0689 42.4668 33.8612 42.0567 22.6757C42.0485 22.0851 42.0089 21.5027 41.9513 20.9267V20.9251Z" fill="#D4A97E"/>
<path d="M28.3953 8.82844C28.3311 8.82844 28.2669 8.81217 28.2092 8.78126C27.9507 8.63808 27.7333 8.48352 27.562 8.32245C26.4948 7.31209 26.368 5.40689 27.2853 4.16062C27.7333 3.55213 28.3163 3.24463 29.0179 3.24463C29.3785 3.24463 29.7705 3.32272 30.2481 3.48868C30.37 3.53098 30.4606 3.63022 30.4919 3.75225C30.5232 3.8759 30.4919 4.00606 30.4029 4.0988L29.6783 4.88463C29.1496 5.6428 28.8351 6.49046 28.7395 7.40483V7.56753L28.7758 8.43634C28.7824 8.573 28.7115 8.70153 28.5946 8.77475C28.5337 8.81217 28.4645 8.83006 28.3937 8.83006L28.3953 8.82844Z" fill="#725739"/>
<path d="M29.0179 3.6221C29.3687 3.6221 29.7392 3.71158 30.1213 3.84337C29.8743 4.11182 29.6256 4.38027 29.3785 4.64872C28.7988 5.4736 28.4579 6.38472 28.3574 7.38531V7.57404C28.3706 7.8669 28.3822 8.15813 28.3937 8.45099C28.1763 8.33059 27.9819 8.1988 27.8238 8.04912C26.8456 7.12337 26.8192 5.4313 27.5916 4.38353C28.005 3.82384 28.4892 3.6221 29.0162 3.6221M29.0162 2.86555C28.1862 2.86555 27.4977 3.22674 26.974 3.93773C25.9315 5.35158 26.0748 7.44226 27.2952 8.59579C27.4928 8.78289 27.73 8.95047 28.0215 9.11154C28.1368 9.17499 28.2669 9.20753 28.3937 9.20753C28.5337 9.20753 28.672 9.17011 28.7955 9.09527C29.031 8.9521 29.171 8.69341 29.1595 8.42007L29.1513 8.1988C29.143 7.98567 29.1332 7.77253 29.1233 7.55777V7.42436C29.2139 6.57833 29.4938 5.82341 29.9797 5.12055L30.4556 4.60317L30.6862 4.35261C30.8591 4.16551 30.925 3.90519 30.8624 3.65789C30.7998 3.41222 30.6154 3.21372 30.3733 3.12912C29.8529 2.94853 29.4214 2.86392 29.0162 2.86392V2.86555Z" fill="#725739"/>
<path d="M9.47045 17.336C8.50205 17.336 7.79222 16.7275 7.57318 15.7106C7.40684 14.9361 7.56824 14.2008 8.02938 13.6394C8.47076 13.1025 9.14271 12.7804 9.82783 12.7804C10.7863 12.7804 11.5505 13.4035 11.8223 14.4074C12.01 15.1037 11.8733 15.7968 11.4369 16.3598C10.9692 16.9617 10.2149 17.336 9.47045 17.336Z" fill="#725739"/>
<path d="M9.82787 13.1579C10.5229 13.1579 11.1998 13.5662 11.4534 14.5034C11.8338 15.9058 10.592 16.9569 9.47049 16.9569C8.78866 16.9569 8.14965 16.5664 7.94873 15.6309C7.62758 14.134 8.75243 13.1579 9.82787 13.1579ZM9.82787 12.4013C9.02911 12.4013 8.24517 12.7739 7.73298 13.4003C7.19773 14.0511 7.00998 14.9004 7.19937 15.7871C7.45465 16.9748 8.32423 17.7118 9.47049 17.7118C10.3318 17.7118 11.2014 17.2806 11.74 16.5875C12.2505 15.9302 12.4119 15.12 12.1912 14.3081C11.8734 13.1318 10.9675 12.4013 9.82623 12.4013H9.82787Z" fill="#725739"/>
<path d="M5.63964 31.6924C4.85735 31.6924 4.04376 31.3134 3.4064 30.6544C2.72951 29.9532 2.36554 29.0519 2.40671 28.1798C2.48741 26.4828 4.22987 25.2984 5.74175 25.2984C6.66403 25.2984 7.41997 25.7051 7.86958 26.4438C8.46906 27.4314 8.41307 29.0388 7.73453 30.2688C7.24375 31.1588 6.52569 31.6648 5.7154 31.6892C5.68905 31.6892 5.66434 31.6892 5.63964 31.6892V31.6924Z" fill="#725739"/>
<path d="M5.74178 25.658C6.46313 25.658 7.14496 25.9508 7.55669 26.6293C8.48556 28.1586 7.54187 31.2727 5.70225 31.3313C5.68084 31.3313 5.65943 31.3313 5.63802 31.3313C4.19366 31.3313 2.69166 29.8052 2.76907 28.1944C2.83989 26.7236 4.36165 25.6563 5.74013 25.6563M5.74013 24.9388C4.88867 24.9388 4.00097 25.2594 3.30597 25.8174C2.53356 26.4373 2.08559 27.2687 2.04277 28.1619C1.99666 29.1316 2.39686 30.1289 3.14127 30.9001C3.84616 31.6306 4.75527 32.0488 5.63637 32.0488C5.66602 32.0488 5.69566 32.0488 5.72531 32.0488C6.65582 32.0195 7.50399 31.4321 8.05077 30.4413C8.78695 29.1072 8.83965 27.3484 8.17759 26.26C7.66704 25.4204 6.77934 24.9405 5.73848 24.9405L5.74013 24.9388Z" fill="#725739"/>
<path d="M16.2328 40.8068C15.3353 40.8068 14.5777 40.5351 14.1577 40.0617C13.8431 39.707 13.7147 39.2465 13.7838 38.7259C13.9667 37.3576 15.0586 36.3277 16.3234 36.3277C17.0876 36.3277 17.7809 36.7133 18.2717 37.4113C18.7477 38.0881 18.8547 38.8886 18.5616 39.554C18.2717 40.2113 17.6393 40.6523 16.829 40.7661C16.6347 40.7938 16.4338 40.8068 16.2345 40.8068H16.2328Z" fill="#725739"/>
<path d="M16.3234 36.7068C16.9097 36.7068 17.5059 36.9867 17.9588 37.6277C18.7855 38.8024 18.2338 40.1902 16.7763 40.3919C16.6017 40.4163 16.4189 40.4294 16.2344 40.4294C15.1491 40.4294 14.0029 39.9836 14.1643 38.7763C14.3289 37.5382 15.3122 36.7068 16.325 36.7068M16.325 35.9503C14.8691 35.9503 13.6142 37.1233 13.4067 38.6771C13.3227 39.3084 13.4841 39.8729 13.8727 40.3106C14.548 41.072 15.6432 41.1843 16.2361 41.1843C16.4535 41.1843 16.6725 41.1696 16.885 41.1403C17.8303 41.0086 18.5698 40.4863 18.9156 39.7053C19.2631 38.9179 19.1413 37.9807 18.5896 37.1949C18.023 36.3912 17.2193 35.9486 16.3267 35.9486L16.325 35.9503Z" fill="#725739"/>
<path d="M32.4535 38.189C31.3978 38.189 30.5019 37.7286 30.1181 36.9883C29.7492 36.2789 29.7871 35.4703 30.2186 34.7724C30.7242 33.9556 31.6926 33.4073 32.6313 33.4073C32.9904 33.4073 33.3296 33.4838 33.6409 33.6367C34.6126 34.1102 35.2071 34.9123 35.2318 35.786C35.2549 36.6109 34.7608 37.3658 33.8764 37.8571C33.4877 38.0735 32.9821 38.1923 32.4518 38.1923L32.4535 38.189Z" fill="#725739"/>
<path d="M32.6313 33.7848C32.9179 33.7848 33.2044 33.8433 33.4729 33.9751C35.1429 34.787 35.3899 36.5816 33.6886 37.5252C33.3543 37.7107 32.9096 37.8116 32.4518 37.8116C31.653 37.8116 30.8147 37.5057 30.4574 36.8175C29.6833 35.3255 31.1672 33.7864 32.6313 33.7864M32.6313 33.0298C31.5476 33.0298 30.4722 33.6367 29.8925 34.5755C29.3885 35.389 29.3473 36.3326 29.7772 37.1624C30.2268 38.0296 31.2512 38.5681 32.4518 38.5681C33.0463 38.5681 33.6195 38.4331 34.0641 38.1858C35.077 37.6244 35.6419 36.7459 35.6155 35.7746C35.5875 34.7593 34.9139 33.8336 33.8105 33.2967C33.4465 33.1193 33.0496 33.0298 32.6313 33.0298Z" fill="#725739"/>
<path d="M17.7595 8.42009C16.2295 8.42009 14.9086 7.67005 14.3981 6.51001C13.7607 5.06362 15.2018 3.47081 16.3266 2.75331C16.712 2.50763 17.2077 2.37747 17.7595 2.37747C18.8333 2.37747 19.9943 2.84604 20.6498 3.54402C21.0945 4.01747 21.2888 4.652 21.2131 5.38251C21.1159 6.32616 20.5576 7.30723 19.8247 7.82299C19.2779 8.20696 18.545 8.41846 17.7611 8.41846L17.7595 8.42009Z" fill="#725739"/>
<path d="M17.7594 2.75655C18.7229 2.75655 19.795 3.19095 20.3682 3.8027C21.3646 4.86349 20.6465 6.78171 19.6007 7.5171C19.1 7.86853 18.438 8.04262 17.7594 8.04262C16.5275 8.04262 15.238 7.47155 14.7488 6.36032C14.2103 5.13683 15.5262 3.71647 16.5341 3.07218C16.8767 2.85254 17.3065 2.75655 17.7594 2.75655ZM17.7594 2C17.132 2 16.5654 2.15131 16.1174 2.43603C15.4455 2.86393 14.8279 3.46591 14.4195 4.08579C13.8282 4.98226 13.6998 5.87385 14.0473 6.66131C14.6204 7.95964 16.0763 8.79917 17.7594 8.79917C18.6224 8.79917 19.4344 8.56325 20.0454 8.13373C20.8754 7.54964 21.4831 6.48722 21.5935 5.4248C21.6791 4.59504 21.4436 3.83686 20.9298 3.2902C20.2068 2.51901 18.932 2.00163 17.7594 2.00163V2Z" fill="#725739"/>
<path d="M40.446 26.081C39.0346 26.081 37.8208 25.3309 37.3531 24.1693C36.8294 22.8726 37.8801 21.5921 38.3561 21.1024C38.4252 21.0308 38.5208 20.9918 38.6196 20.9918C38.636 20.9918 38.6542 20.9918 38.6706 20.995L38.7118 21.0015C38.7711 21.0097 38.8304 21.0178 38.8913 21.0243H39.0642L40.5728 20.9625C41.0406 20.8779 41.4902 20.7363 41.9068 20.5444C41.9562 20.5216 42.009 20.5102 42.0617 20.5102C42.1242 20.5102 42.1852 20.5248 42.2412 20.5557C42.5887 20.7494 42.8901 20.9869 43.1107 21.244C43.5175 21.719 43.6921 22.3552 43.6164 23.0857C43.5192 24.0098 43.0119 24.9714 42.3548 25.4757C41.8492 25.8646 41.1723 26.0777 40.446 26.0777V26.081Z" fill="#725739"/>
<path d="M42.0633 20.873C42.3647 21.0406 42.6331 21.2472 42.8324 21.4799C43.7431 22.5407 43.086 24.4589 42.1308 25.1943C41.6729 25.5473 41.0669 25.7198 40.446 25.7198C39.3195 25.7198 38.1403 25.1487 37.694 24.0375C37.3218 23.1166 37.913 22.0835 38.6212 21.3546C38.7052 21.366 38.7892 21.379 38.8748 21.3871H39.0659C39.583 21.366 40.0985 21.3448 40.614 21.3237C41.1262 21.2326 41.6087 21.0829 42.0616 20.873M42.0616 20.1506C41.9562 20.1506 41.8492 20.1734 41.752 20.219C41.3699 20.3947 40.9598 20.5248 40.5316 20.6046L39.2404 20.6566L39.0494 20.6648H38.911C38.8616 20.6599 38.8122 20.6517 38.7645 20.6452L38.7217 20.6387C38.6871 20.6338 38.6525 20.6322 38.6195 20.6322C38.4219 20.6322 38.2309 20.7119 38.0909 20.8551C36.9808 21.9973 36.5889 23.2549 37.0121 24.306C37.5359 25.6043 38.883 26.4438 40.4443 26.4438C41.2513 26.4438 42.0089 26.203 42.5788 25.7654C43.3215 25.1943 43.8716 24.1579 43.9803 23.1264C44.0676 22.295 43.8634 21.5645 43.3907 21.0129C43.1371 20.7185 42.811 20.4598 42.4207 20.2434C42.3103 20.1815 42.1868 20.1506 42.0616 20.1506Z" fill="#725739"/>
<path d="M16.2691 24.9405C16.2691 25.357 15.3501 25.6938 14.217 25.6938C13.0839 25.6938 12.1649 25.357 12.1649 24.9405C12.1649 24.524 13.0839 24.1888 14.217 24.1888C15.3501 24.1888 16.2691 24.5256 16.2691 24.9405Z" fill="#FD5E8C"/>
<path d="M31.9182 24.9405C31.9182 25.357 30.9992 25.6938 29.8662 25.6938C28.7331 25.6938 27.8141 25.357 27.8141 24.9405C27.8141 24.524 28.7331 24.1888 29.8662 24.1888C30.9992 24.1888 31.9182 24.5256 31.9182 24.9405Z" fill="#FD5E8C"/>
<path d="M17.738 23.4583C18.4948 23.4583 19.1083 22.3504 19.1083 20.9836C19.1083 19.6169 18.4948 18.509 17.738 18.509C16.9813 18.509 16.3678 19.6169 16.3678 20.9836C16.3678 22.3504 16.9813 23.4583 17.738 23.4583Z" fill="black"/>
<path d="M26.671 23.4583C27.4278 23.4583 28.0413 22.3504 28.0413 20.9836C28.0413 19.6169 27.4278 18.509 26.671 18.509C25.9143 18.509 25.3008 19.6169 25.3008 20.9836C25.3008 22.3504 25.9143 23.4583 26.671 23.4583Z" fill="black"/>
<path d="M26.671 24.8738C26.671 26.3429 24.6288 27.5323 22.1106 27.5323C19.5925 27.5323 17.5503 26.3413 17.5503 24.8738" stroke="black" stroke-miterlimit="10"/>
</g>
<defs>
<clipPath id="clip0_44_2091">
<rect width="42" height="41" fill="white" transform="translate(2 2)"/>
</clipPath>
</defs>
</svg>
