<svg width="98" height="73" viewBox="0 0 98 73" fill="none" xmlns="http://www.w3.org/2000/svg">
<path d="M71.9645 57.9714C71.829 58.2503 71.6613 58.5082 71.5524 58.7814C70.3589 61.6751 68.0479 63.3598 65.277 64.4468C64.4065 64.7979 63.3887 64.8466 62.4241 64.8841C58.7154 65.0854 55.4293 64.002 52.4555 61.7682C51.5249 61.0478 50.5315 60.4241 49.4244 59.6577C49.2977 60.2405 49.217 60.6468 49.1153 61.0854C48.7158 63.0047 48.0754 64.8361 46.9097 66.4173C45.2714 68.6545 43.0606 69.762 40.2505 69.7453C37.1366 69.7374 34.2389 69.0443 31.5711 67.4685C29.9822 66.5261 28.4142 65.5515 26.7706 64.4817C26.7699 63.9537 26.8982 63.5095 26.8935 63.0935C26.874 60.9014 26.8545 58.7094 26.8084 56.5229C26.7742 54.9178 26.6812 53.2973 26.6414 51.6655C26.5863 50.0926 26.5578 48.514 26.5292 46.9355C26.4894 45.3037 26.4021 43.7098 26.4477 42.0878C26.478 40.5246 25.4372 39.0213 26.2992 37.4488C26.3201 37.4166 26.2823 37.369 26.2976 37.3102C26.1491 32.6712 26.0006 28.0323 25.8787 23.3877C25.7583 18.8818 25.638 14.3759 25.5708 9.85877C25.5646 9.3041 25.2745 9.11531 24.8724 8.92244C25.2738 8.58725 25.7188 8.32625 26.0235 7.92814C27.4843 6.03427 29.1554 4.34608 31.2808 3.22889C34.6572 1.45767 38.2758 0.830557 41.9873 1.82395C44.3193 2.47002 46.4183 3.72143 48.3858 5.13966C48.7081 5.34943 49.0304 5.55919 49.4228 5.83752C49.4315 6.14146 49.2961 6.42034 49.3621 6.60096C49.6753 7.42424 50.0361 8.20965 50.376 9.0273C53.0352 15.0251 55.6944 21.0228 58.3592 27.0472C61.5169 34.2182 64.648 41.3949 67.8057 48.5659C69.1748 51.7511 70.5857 54.8717 71.9645 57.9714ZM33.4229 40.7778C33.0459 40.4406 32.5696 40.2913 32.3084 40.7636C32.1407 41.0215 32.147 41.5761 32.3363 41.8141C32.7431 42.4229 33.2562 43.0093 33.8001 43.4779C34.8176 44.3467 36.0392 44.8665 37.3487 45.1452C42.0458 46.069 46.2351 44.9874 49.8842 41.8797C50.9668 40.9555 51.8069 39.8046 52.2658 38.4286C52.3634 38.1022 52.5086 37.7378 52.4676 37.4129C52.4435 37.1678 52.2148 36.7437 52.0117 36.7033C51.7232 36.6531 51.3412 36.8174 51.13 37.0011C50.8768 37.2493 50.7905 37.629 50.6187 37.999C50.166 37.5666 49.8421 37.2182 49.4707 36.9076C48.5764 36.0962 47.5564 35.4781 46.3702 35.2567C44.1686 34.8332 42.6427 36.157 42.6944 38.3701C42.7367 39.7511 43.315 40.9075 44.0795 42.0244C44.2857 42.3422 44.4862 42.6333 44.7569 42.993C42.9475 43.7653 41.1471 43.924 39.3436 43.8055C37.0122 43.6875 34.9139 42.9641 33.4229 40.7778ZM31.4243 30.0254C31.4162 30.2495 31.3815 30.4793 31.4266 30.6921C31.6663 32.087 32.6951 33.0089 34.0127 33.0636C35.2715 33.1029 36.4395 32.1884 36.8033 30.8882C37.1671 29.5879 36.597 28.2075 35.4706 27.6119C34.3119 26.9955 32.9023 27.2939 32.0566 28.4181C31.7462 28.7896 31.6405 29.3402 31.4243 30.0254ZM46.139 29.4398C47.4967 30.2088 48.6209 30.1376 49.4472 29.1842C50.3211 28.193 50.3191 26.6088 49.4273 25.5467C48.7515 24.7168 47.8844 24.4277 46.8375 24.7328C45.8438 25.0266 45.2915 25.6995 45.1107 26.683C44.9356 27.693 45.2335 28.5752 46.139 29.4398Z" fill="#B87C66"/>
<path d="M72.0555 58.0077C70.5858 54.8717 69.2014 51.7454 67.817 48.6191C64.6593 41.4481 61.5282 34.2715 58.3705 27.1004C55.7379 21.097 53.0521 15.1049 50.3872 9.08051C50.0264 8.2951 49.66 7.48308 49.3734 6.65417C49.3073 6.47355 49.4428 6.19468 49.5404 5.86821C51.5109 2.83784 55.5361 0.456636 58.7549 0.303379C60.0765 0.245962 61.3215 0.482771 62.4326 1.13713C63.8926 1.99562 65.438 2.86382 66.6771 3.99148C72.1733 9.08282 77.0093 14.7309 81.3125 20.8811C83.833 24.5174 86.4808 28.099 89.3399 31.4969C91.9395 34.5883 94.0886 37.9141 95.9999 41.4292C98.2929 45.6975 98.0112 50.0105 95.7495 54.1589C94.386 56.6438 92.1226 58.2906 89.5015 59.4293C86.4187 60.7492 83.2225 61.0089 79.958 60.4212C77.223 59.9717 74.6848 59.0079 72.0555 58.0077Z" fill="#6E341D"/>
<path d="M24.7717 8.97157C25.2858 9.16852 25.5758 9.35731 25.5821 9.91198C25.6758 14.4235 25.7696 18.935 25.8899 23.4409C26.0118 28.0855 26.1603 32.7245 26.3089 37.3634C26.3201 37.4166 26.3314 37.4698 26.3104 37.5021C25.4485 39.0745 26.4892 40.5778 26.4589 42.141C26.4133 43.763 26.5063 45.3835 26.5405 46.9887C26.569 48.5673 26.5976 50.1458 26.6527 51.7187C26.6925 53.3505 26.7799 54.9444 26.8197 56.5761C26.8658 58.7626 26.8853 60.9546 26.9047 63.1467C26.9095 63.5627 26.7812 64.0069 26.6964 64.5252C25.2976 66.7118 23.8649 68.7387 21.7217 70.1654C17.631 72.8941 11.5806 72.5349 7.7657 69.4783C3.47705 66.0217 1.2816 61.427 0.629622 56.1162C0.131957 52.1906 0.407137 48.2404 0.623491 44.2748C0.9224 39.1241 1.85711 34.0891 2.93043 29.0524C4.15141 23.4008 6.90091 18.5375 10.6971 14.2866C11.8184 13.0206 13.1654 11.9014 14.5727 10.9363C17.6462 8.78436 21.0801 8.33533 24.7717 8.97157Z" fill="#6E341D"/>
<path d="M33.4664 40.852C34.9139 42.9641 36.9856 43.6931 39.3226 43.8377C41.1262 43.9563 42.9056 43.8297 44.736 43.0252C44.4919 42.6599 44.2857 42.3422 44.0585 42.0567C43.2997 40.9663 42.7158 39.7833 42.6735 38.4023C42.6218 36.1893 44.1477 34.8654 46.3492 35.2889C47.562 35.5047 48.5611 36.155 49.4497 36.9399C49.8211 37.2504 50.145 37.5989 50.5978 38.0312C50.7695 37.6612 50.8768 37.2493 51.109 37.0334C51.3146 36.8231 51.7288 36.6797 51.9907 36.7355C52.1938 36.7759 52.4169 37.1735 52.4466 37.4452C52.4876 37.7701 52.3425 38.1344 52.2449 38.4609C51.7859 39.8368 50.9458 40.9877 49.8633 41.9119C46.2141 45.0197 42.0249 46.1012 37.3277 45.1775C36.0239 44.9253 34.7967 44.3789 33.7791 43.5102C33.2087 43.0472 32.7221 42.4552 32.3153 41.8463C32.1526 41.6027 32.1463 41.0481 32.2874 40.7958C32.5696 40.2913 33.0459 40.4406 33.4664 40.852ZM48.5782 40.9608C48.9684 40.5724 49.3529 40.1574 49.764 39.7367C48.9489 38.3803 47.9088 37.4051 46.4744 36.9304C44.8636 36.4096 43.9125 37.167 44.2352 38.8223C44.5127 40.2647 45.2465 41.4993 46.5469 42.3916C47.2297 41.9413 47.8326 41.5078 48.5782 40.9608Z" fill="#0B0606"/>
<path d="M31.4284 29.9133C31.6405 29.3402 31.7462 28.7896 32.051 28.3915C32.8967 27.2673 34.3119 26.9955 35.4649 27.5853C36.5914 28.1808 37.1615 29.5613 36.7977 30.8616C36.4338 32.1618 35.2392 33.0819 34.0071 33.037C32.6895 32.9823 31.6607 32.0603 31.4209 30.6655C31.3815 30.4793 31.4162 30.2495 31.4284 29.9133Z" fill="#0B0606"/>
<path d="M46.0423 29.3769C45.2335 28.5752 44.909 27.6987 45.1107 26.683C45.2915 25.6995 45.8381 25 46.8375 24.7328C47.8844 24.4277 48.7571 24.7434 49.4273 25.5467C50.3191 26.6088 50.3211 28.193 49.4472 29.1842C48.6209 30.1376 47.5023 30.2354 46.0423 29.3769Z" fill="#0B0606"/>
<path d="M48.5097 41.0309C47.8326 41.5078 47.2297 41.9413 46.5735 42.386C45.2731 41.4937 44.5393 40.2591 44.2617 38.8166C43.9447 37.188 44.9168 36.3984 46.501 36.9248C47.9354 37.3995 48.9489 38.3803 49.7906 39.7311C49.3795 40.1517 48.9949 40.5667 48.5097 41.0309Z" fill="#FD528C"/>
<path d="M57.7418 32.7935C57.7418 32.7935 57.6283 32.6508 57.5316 32.5878C57.3964 31.9493 57.6044 31.4882 58.2242 31.1346C58.9448 30.7318 59.6976 30.35 60.452 30.1069C61.3925 29.8244 62.3935 29.6959 63.3678 29.573C63.5806 29.528 63.8481 29.6103 64.0512 29.6507C64.4517 29.7049 64.774 29.9147 64.8262 30.2928C64.835 30.5968 64.6802 31.0465 64.4577 31.177C63.8072 31.6484 63.0979 32.1043 62.3435 32.3474C61.2813 32.7113 60.153 32.8946 59.0038 33.1101C58.6314 33.189 58.2616 33.0171 57.8345 32.9685C57.8345 32.9685 57.813 32.9545 57.77 32.9265C57.77 32.9265 57.7531 32.8467 57.6886 32.8048L57.7418 32.7935Z" fill="#FD528C"/>
<path d="M29.7112 37.4214C30.1334 37.9715 30.1534 38.3286 29.6512 38.7129C28.9951 39.1577 28.2914 39.6402 27.5258 39.8301C26.3193 40.169 25.0411 40.3006 23.7686 40.4588C23.4382 40.4731 23.0853 40.3811 22.7589 40.2834C21.9829 40.0307 21.8042 39.3179 22.3903 38.8046C22.8868 38.3937 23.4591 38.0779 24.0539 37.8686C25.4925 37.3138 26.9819 36.9985 28.5557 37.0823C28.945 37.0833 29.2616 37.2664 29.6847 37.4271L29.7112 37.4214Z" fill="#FD528C"/>
</svg>
