<svg width="109" height="107" viewBox="0 0 109 107" fill="none" xmlns="http://www.w3.org/2000/svg">
<g clip-path="url(#clip0_287_2954)">
<path d="M78.5504 62.2107C78.0332 62.2107 77.5375 61.9237 77.2982 61.4381L63.4583 33.2787C63.4285 33.2154 63.4028 33.1521 63.3815 33.0888C63.3644 33.0382 61.74 27.8869 60.2057 22.6975C56.9274 11.6221 57.1882 11.2209 57.624 10.5538C57.8806 10.1569 58.4148 9.32507 71.9212 3.67127C72.0963 3.59948 72.2803 3.56146 72.4641 3.56146C72.7589 3.56146 73.054 3.65437 73.2974 3.83593C73.695 4.13151 73.9003 4.60864 73.8445 5.09844C73.8318 5.20822 72.5837 16.292 77.9307 22.3301C80.1618 24.8509 83.2948 26.1597 87.2442 26.2275C87.7015 26.2358 88.1289 26.4639 88.3809 26.8438C88.6332 27.2196 88.6846 27.6969 88.5094 28.1191C88.3254 28.5876 84.1452 39.9163 105.102 49.1593C105.61 49.383 105.935 49.8857 105.927 50.4387C105.918 50.9876 105.576 51.4817 105.059 51.6886L79.0718 62.1178C78.901 62.1855 78.7215 62.2193 78.5504 62.2193V62.2107Z" fill="#9C662B"/>
<path d="M72.464 4.92964C72.464 4.92964 69.7715 27.3042 87.2229 27.5954C87.2229 27.5954 81.9572 40.4486 104.538 50.405L78.5507 60.8344L64.7108 32.6751C64.7108 32.6751 58.2312 12.1584 58.7954 11.2886C59.3552 10.4188 72.464 4.92964 72.464 4.92964ZM72.464 2.18085C72.0966 2.18085 71.7291 2.25263 71.3785 2.40041C57.4703 8.22313 56.9531 9.03383 56.4488 9.81497C55.6793 11.0057 55.9145 12.2935 56.7906 15.6757C57.2653 17.5166 57.9663 20.0079 58.8764 23.0776C60.4151 28.2795 62.0436 33.4394 62.0608 33.4941C62.1036 33.6252 62.1547 33.7518 62.2147 33.8743L76.0546 62.0334C76.5331 63.0046 77.5206 63.5831 78.5592 63.5831C78.9096 63.5831 79.2643 63.5156 79.6064 63.3804L105.593 52.9511C106.627 52.5372 107.307 51.5536 107.328 50.4514C107.346 49.3495 106.7 48.3446 105.683 47.8969C85.7867 39.1227 89.7704 28.7313 89.8129 28.6257C90.155 27.7856 90.0608 26.8355 89.5524 26.0798C89.0479 25.3239 88.1974 24.8636 87.2784 24.851C83.6838 24.7919 80.9697 23.6687 78.9822 21.4181C76.4563 18.5638 75.5672 14.3583 75.2638 11.3393C74.9217 7.92755 75.2295 5.28433 75.2337 5.25898C75.3492 4.28784 74.9347 3.32511 74.1439 2.7382C73.6524 2.37508 73.0669 2.18929 72.4726 2.18929L72.464 2.18085Z" fill="#9C662B"/>
<path d="M53.8845 105.428C51.2173 105.428 48.5502 105.183 45.9602 104.697C42.6134 104.245 39.3138 103.422 36.151 102.248C31.9835 100.703 27.9871 98.7013 24.2687 96.2945C20.3065 93.7273 16.776 90.7674 13.7756 87.5034C11.6983 85.2063 9.84331 82.7279 8.25759 80.1311C6.62485 77.4541 5.25285 74.6123 4.17575 71.6779C-1.29091 57.2499 0.33755 41.1454 8.65082 27.5113C16.8914 13.9997 30.2525 5.14949 45.3103 3.22829C49.2553 2.67094 53.3501 2.09247 57.4062 2.09247C60.7572 2.09247 63.7448 2.48515 66.5487 3.29164C68.3739 3.76877 70.2716 4.40212 72.1692 5.16639C72.4685 5.28883 72.6909 5.54641 72.7635 5.85885C72.8362 6.17132 72.7464 6.49645 72.5326 6.73713L71.836 7.49294C70.4639 9.46057 69.6474 11.6605 69.3996 14.0334V14.4726L69.562 18.3361C70.0152 20.7597 71.0579 22.9427 72.6652 24.8259C75.0159 27.5578 78.4266 29.3142 82.0257 29.6521C82.0597 29.6521 82.0983 29.6521 82.1367 29.6563C82.2094 29.6563 82.2777 29.6563 82.3503 29.6649C82.6623 29.69 82.9488 29.859 83.1154 30.1208C83.2823 30.3827 83.3163 30.7076 83.2011 30.9991C82.7267 32.2066 82.423 33.4438 82.3078 34.6768C81.9572 38.3545 83.1325 42.0745 85.5347 44.8867L88.2745 47.3524C90.2619 48.7079 92.4886 49.5143 94.8952 49.7593H95.3395L99.2505 49.5989C100.644 49.3456 101.982 48.8938 103.23 48.252C103.375 48.1759 103.533 48.1422 103.687 48.1422C103.841 48.1422 104.012 48.1801 104.161 48.2603C104.452 48.4165 104.644 48.7038 104.679 49.0246C104.845 50.6712 104.935 52.183 104.956 53.6482C105.418 66.2562 100.067 79.2529 90.2661 89.2936C80.256 99.55 66.9977 105.432 53.893 105.432H53.8886L53.8845 105.428Z" fill="#D4A97E"/>
<path d="M57.4062 3.07624C60.364 3.07624 63.3174 3.38448 66.2666 4.2374C68.1303 4.72297 69.9724 5.34367 71.7932 6.07836C71.5495 6.34437 71.3017 6.61461 71.0538 6.88062C69.5494 9.02138 68.6647 11.3859 68.4038 13.9827V14.4725C68.4594 15.7984 68.5149 17.12 68.5704 18.4458C69.0493 21.0806 70.1605 23.4156 71.9043 25.4592C74.4219 28.3854 78.0592 30.2685 81.9315 30.6274C82.047 30.636 82.1625 30.6316 82.2777 30.6443C81.782 31.9027 81.4485 33.2284 81.3203 34.588C80.9443 38.5362 82.218 42.5515 84.8166 45.5747C85.7613 46.4236 86.7057 47.2764 87.6548 48.1251C89.8218 49.6113 92.2196 50.4854 94.8439 50.7431H95.3396C96.6818 50.6881 98.0197 50.6334 99.3575 50.5783C100.9 50.304 102.341 49.814 103.683 49.1216C103.832 50.6165 103.935 52.1279 103.957 53.6607C104.927 80.1098 80.2903 104.448 53.8801 104.448C51.3028 104.448 48.7042 104.216 46.1141 103.73C42.8913 103.295 39.6727 102.51 36.4972 101.332C32.5265 99.858 28.5514 97.8989 24.8115 95.4752C21.0716 93.0515 17.5582 90.1635 14.5065 86.8447C12.4976 84.6237 10.6811 82.2169 9.10391 79.6242C7.52247 77.036 6.18037 74.2703 5.10755 71.34C-6.20618 41.4833 14.6475 8.12624 45.4386 4.19941C49.4308 3.63782 53.4228 3.07201 57.4107 3.07201M57.4107 1.10859C53.286 1.10859 49.1614 1.69129 45.1736 2.25287C37.3775 3.24937 30.0688 6.0277 23.4523 10.5161C17.212 14.7512 11.8009 20.4472 7.80883 27.0003C-0.66685 40.8963 -2.3295 57.3005 3.2483 72.0197C4.34676 75.0091 5.7444 77.9101 7.40706 80.6377C9.0227 83.2895 10.9162 85.8144 13.0276 88.1493C16.0922 91.485 19.6868 94.4999 23.7216 97.1094C27.5 99.5583 31.5647 101.593 35.8004 103.164C39.0231 104.359 42.3868 105.2 45.7977 105.66C48.4433 106.154 51.166 106.403 53.8845 106.403C67.2583 106.403 80.7818 100.411 90.9801 89.9608C100.956 79.7384 106.414 66.4884 105.944 53.6059C105.922 52.1238 105.828 50.5911 105.662 48.9231C105.598 48.273 105.209 47.7028 104.632 47.3903C104.337 47.2341 104.012 47.1539 103.687 47.1539C103.362 47.1539 103.059 47.23 102.768 47.3779C101.631 47.9647 100.409 48.3828 99.1351 48.6192L95.78 48.7544L95.297 48.7754H94.9422C92.7197 48.5432 90.7364 47.8253 88.8899 46.5798L87.5736 45.3933L86.2528 44.2068C84.0516 41.5973 82.9745 38.1645 83.2992 34.7655C83.4105 33.6255 83.6882 32.4768 84.1328 31.3494C84.3594 30.771 84.2994 30.1164 83.9618 29.593C83.6285 29.0651 83.0599 28.7275 82.4316 28.681C82.3418 28.6724 82.252 28.6724 82.1666 28.6683H82.1025C78.7773 28.3558 75.6059 26.7216 73.4217 24.1799C71.9258 22.4276 70.9853 20.4726 70.5537 18.2178L70.5023 17.0313C70.4683 16.1615 70.4297 15.2917 70.3957 14.4219V14.0714C70.6305 11.8757 71.3572 9.91653 72.6182 8.09247L72.755 7.94467L73.272 7.38309C73.708 6.91018 73.879 6.25572 73.7381 5.63078C73.5928 5.00588 73.1523 4.49075 72.5497 4.25007C70.6222 3.47316 68.6901 2.82712 66.8052 2.33309C63.9203 1.5055 60.847 1.10437 57.4107 1.10437V1.10859Z" fill="#D4A97E"/>
<path d="M103.683 49.1172C102.341 49.8096 100.9 50.2996 99.3575 50.5739C98.6778 50.6035 97.9981 50.6289 97.3187 50.6585C96.0405 78.2983 67.4677 102.526 39.5105 97.2908C36.2877 96.8559 33.0691 96.0705 29.8936 94.8923C25.9185 93.4187 21.9478 91.4596 18.2036 89.0359C16.5153 87.9422 14.8783 86.7388 13.3054 85.4552C13.6987 85.9239 14.0961 86.3926 14.5065 86.8445C17.5582 90.1632 21.0673 93.0515 24.8115 95.4752C28.5513 97.8989 32.5265 99.8622 36.4972 101.332C39.6771 102.51 42.8955 103.295 46.1141 103.73C75.2295 109.181 105.021 82.6897 103.956 53.6604C103.935 52.1277 103.832 50.6162 103.683 49.1214V49.1172Z" fill="#D4A97E"/>
<path d="M68.5019 17.7236C68.3353 17.7236 68.1684 17.6814 68.019 17.6012C67.3478 17.2296 66.7836 16.8285 66.3393 16.4105C63.5694 13.7884 63.2403 8.84394 65.6212 5.60957C66.7836 4.03037 68.2969 3.23233 70.1175 3.23233C71.0536 3.23233 72.0709 3.43502 73.3104 3.8657C73.6267 3.97548 73.8619 4.23305 73.9428 4.54973C74.0241 4.87063 73.9429 5.20842 73.7121 5.4491L71.8316 7.48852C70.4595 9.45618 69.6431 11.6561 69.3952 14.029V14.4513L69.4892 16.7061C69.5063 17.0607 69.3225 17.3943 69.0192 17.5843C68.8609 17.6814 68.6815 17.7279 68.4978 17.7279L68.5019 17.7236Z" fill="#725739"/>
<path d="M70.1174 4.21187C71.0278 4.21187 71.9896 4.4441 72.9813 4.78612C72.34 5.48281 71.6948 6.17953 71.0535 6.87622C69.5491 9.01698 68.6644 11.3815 68.4035 13.9783V14.4681C68.4378 15.2281 68.4676 15.984 68.4978 16.744C67.9335 16.4315 67.429 16.0895 67.0187 15.701C64.4798 13.2985 64.4115 8.90721 66.4161 6.18797C67.489 4.73546 68.7456 4.21187 70.1133 4.21187M70.1133 2.24845C67.959 2.24845 66.1724 3.18582 64.8133 5.03104C62.1078 8.70029 62.4797 14.1261 65.6469 17.1198C66.1597 17.6054 66.775 18.0403 67.5318 18.4583C67.8308 18.623 68.1684 18.7074 68.4978 18.7074C68.8608 18.7074 69.22 18.6103 69.5405 18.4161C70.1517 18.0445 70.515 17.3731 70.4852 16.6638L70.4636 16.0895C70.4424 15.5364 70.4167 14.9833 70.391 14.4259V14.0796C70.6261 11.884 71.3528 9.9248 72.6138 8.10071L73.8489 6.75798L74.4473 6.10775C74.8961 5.62215 75.0671 4.94659 74.9046 4.30476C74.7422 3.66719 74.2636 3.15206 73.6353 2.93247C72.2845 2.4638 71.1646 2.24423 70.1133 2.24423V2.24845Z" fill="#725739"/>
<path d="M19.3872 39.8027C16.874 39.8027 15.0318 38.2235 14.4634 35.5844C14.0317 33.5746 14.4506 31.6661 15.6473 30.2094C16.7928 28.816 18.5367 27.9798 20.3147 27.9798C22.8023 27.9798 24.7855 29.5971 25.4908 32.2022C25.978 34.0096 25.6232 35.8083 24.4906 37.2692C23.2767 38.8315 21.3192 39.8027 19.3872 39.8027Z" fill="#725739"/>
<path d="M20.3148 28.9597C22.1186 28.9597 23.8752 30.0194 24.5334 32.4516C25.5208 36.0912 22.2981 38.8191 19.3873 38.8191C17.6178 38.8191 15.9595 37.8056 15.438 35.3778C14.6045 31.4932 17.5238 28.9597 20.3148 28.9597ZM20.3148 26.9962C18.2419 26.9962 16.2074 27.9632 14.8781 29.5888C13.489 31.2778 13.0017 33.4819 13.4933 35.7831C14.1558 38.8655 16.4125 40.7782 19.3873 40.7782C21.6227 40.7782 23.8795 39.6591 25.2772 37.8606C26.6022 36.1548 27.0211 34.0519 26.4483 31.9448C25.6234 28.892 23.2726 26.9962 20.3106 26.9962H20.3148Z" fill="#725739"/>
<path d="M9.44551 77.0614C7.41526 77.0614 5.30382 76.0776 3.64972 74.3673C1.89303 72.5475 0.948441 70.2085 1.0553 67.9451C1.26473 63.5413 5.7868 60.4672 9.71051 60.4672C12.104 60.4672 14.0659 61.523 15.2327 63.4398C16.7885 66.0029 16.6432 70.1747 14.8822 73.3669C13.6085 75.6764 11.745 76.9895 9.6421 77.0529C9.57372 77.0529 9.50961 77.0529 9.44551 77.0529V77.0614Z" fill="#725739"/>
<path d="M9.71041 61.4002C11.5825 61.4002 13.352 62.1604 14.4206 63.921C16.8312 67.8901 14.3821 75.9717 9.60785 76.1238C9.55229 76.1238 9.49672 76.1238 9.44116 76.1238C5.6927 76.1238 1.79465 72.1632 1.99554 67.9831C2.17933 64.166 6.12867 61.3961 9.70616 61.3961M9.70616 59.534C7.49639 59.534 5.19262 60.3658 3.38893 61.8142C1.38433 63.4227 0.221758 65.5804 0.110629 67.8987C-0.00904779 70.4151 1.02958 73.0035 2.9615 75.005C4.79086 76.9008 7.15019 77.9859 9.43688 77.9859C9.51383 77.9859 9.59075 77.9859 9.66767 77.9859C12.0826 77.9098 14.2838 76.3857 15.7028 73.8143C17.6134 70.3517 17.7502 65.7875 16.0319 62.9626C14.7069 60.7839 12.4032 59.5381 9.70188 59.5381L9.70616 59.534Z" fill="#725739"/>
<path d="M36.9371 100.715C34.6076 100.715 32.6415 100.01 31.5518 98.781C30.7353 97.8605 30.4021 96.6656 30.5814 95.3145C31.0558 91.7635 33.8895 89.0906 37.1723 89.0906C39.1555 89.0906 40.9548 90.0914 42.2286 91.9028C43.4639 93.6593 43.7416 95.7368 42.9809 97.4637C42.2286 99.1695 40.5873 100.314 38.4844 100.609C37.9802 100.681 37.4585 100.715 36.9415 100.715H36.9371Z" fill="#725739"/>
<path d="M37.1724 90.0745C38.694 90.0745 40.241 90.8009 41.4166 92.4645C43.5621 95.5131 42.1303 99.1148 38.3478 99.6385C37.8946 99.7018 37.4202 99.7355 36.9414 99.7355C34.1248 99.7355 31.1499 98.5786 31.5687 95.4456C31.9962 92.2322 34.5478 90.0745 37.1765 90.0745M37.1765 88.1112C33.3981 88.1112 30.1414 91.1554 29.6026 95.1879C29.3846 96.8263 29.8035 98.2913 30.8122 99.4272C32.5648 101.403 35.4071 101.695 36.9458 101.695C37.51 101.695 38.0784 101.657 38.6299 101.581C41.0831 101.239 43.0023 99.8832 43.8998 97.8566C44.8016 95.8128 44.4852 93.3808 43.0534 91.3412C41.5832 89.2555 39.4975 88.1071 37.1807 88.1071L37.1765 88.1112Z" fill="#725739"/>
<path d="M79.0339 93.9212C76.2941 93.9212 73.9688 92.7263 72.973 90.8051C72.0156 88.964 72.1139 86.8655 73.2338 85.054C74.5459 82.9345 77.0592 81.5115 79.4953 81.5115C80.4273 81.5115 81.3076 81.7098 82.1155 82.1069C84.6373 83.3354 86.1801 85.4171 86.2442 87.6845C86.3042 89.8254 85.0219 91.7845 82.7267 93.0598C81.7179 93.6214 80.4057 93.9295 79.0295 93.9295L79.0339 93.9212Z" fill="#725739"/>
<path d="M79.4953 82.4912C80.2388 82.4912 80.9826 82.643 81.6794 82.9851C86.0132 85.0922 86.6545 89.7493 82.2392 92.1984C81.3716 92.6799 80.2175 92.9415 79.0294 92.9415C76.9564 92.9415 74.7808 92.1478 73.8532 90.3618C71.8445 86.4897 75.6956 82.4954 79.4953 82.4954M79.4953 80.5318C76.6828 80.5318 73.8919 82.1069 72.3872 84.5433C71.0795 86.6545 70.9725 89.1034 72.088 91.2569C73.255 93.5075 75.9133 94.905 79.0294 94.905C80.5723 94.905 82.0596 94.5546 83.2137 93.9128C85.8425 92.4559 87.3085 90.176 87.24 87.6552C87.1673 85.0203 85.4192 82.6179 82.5556 81.2245C81.6109 80.7641 80.5809 80.5318 79.4953 80.5318Z" fill="#725739"/>
<path d="M40.8992 16.6638C36.9284 16.6638 33.5007 14.7173 32.1758 11.7067C30.5216 7.95299 34.2616 3.81924 37.1807 1.95716C38.1809 1.31957 39.4674 0.981781 40.8992 0.981781C43.6859 0.981781 46.6993 2.19783 48.4004 4.00924C49.5545 5.23798 50.0588 6.88471 49.8621 8.78059C49.6101 11.2296 48.1612 13.7757 46.2591 15.1142C44.84 16.1107 42.938 16.6596 40.9036 16.6596L40.8992 16.6638Z" fill="#725739"/>
<path d="M40.8991 1.96565C43.3996 1.96565 46.1819 3.09304 47.6693 4.68065C50.2551 7.43368 48.3918 12.4119 45.6777 14.3204C44.3782 15.2325 42.6599 15.6843 40.8991 15.6843C37.702 15.6843 34.3554 14.2022 33.0858 11.3183C31.6883 8.14304 35.1034 4.45686 37.7191 2.7848C38.6082 2.21477 39.7237 1.96565 40.8991 1.96565ZM40.8991 0.00222778C39.2705 0.00222778 37.8003 0.394912 36.6377 1.13383C34.8939 2.24433 33.2911 3.80663 32.231 5.41536C30.6967 7.74192 30.3632 10.0558 31.265 12.0994C32.7526 15.4689 36.5308 17.6477 40.8991 17.6477C43.1387 17.6477 45.2458 17.0354 46.8315 15.9207C48.9858 14.4049 50.5629 11.6476 50.8495 8.89041C51.0716 6.73696 50.4604 4.76933 49.127 3.35059C47.2504 1.34918 43.9422 0.0064502 40.8991 0.0064502V0.00222778Z" fill="#725739"/>
<path d="M99.7763 62.4983C96.1134 62.4983 92.9633 60.5518 91.7495 57.5369C90.3901 54.1717 93.1172 50.8488 94.3522 49.5776C94.5318 49.3918 94.7797 49.2906 95.0361 49.2906C95.0789 49.2906 95.1259 49.2906 95.1687 49.2991L95.2756 49.316C95.4295 49.337 95.5834 49.3581 95.7415 49.3749H96.1902L100.105 49.2145C101.319 48.995 102.486 48.6278 103.567 48.1295C103.696 48.0703 103.832 48.0407 103.969 48.0407C104.132 48.0407 104.29 48.0789 104.435 48.1591C105.337 48.6615 106.119 49.2779 106.692 49.9451C107.748 51.1781 108.201 52.8289 108.004 54.7247C107.752 57.1233 106.435 59.6186 104.73 60.9276C103.418 61.9367 101.661 62.4897 99.7763 62.4897V62.4983Z" fill="#725739"/>
<path d="M103.973 48.9823C104.756 49.417 105.452 49.9534 105.97 50.5571C108.333 53.3101 106.628 58.2883 104.149 60.1968C102.96 61.1132 101.388 61.5609 99.7763 61.5609C96.8528 61.5609 93.7925 60.0787 92.634 57.1949C91.668 54.805 93.2026 52.1236 95.0406 50.2321C95.2586 50.2615 95.4765 50.2955 95.6987 50.3165H96.1944C97.5367 50.2615 98.8745 50.2067 100.212 50.1517C101.541 49.9153 102.794 49.527 103.969 48.9823M103.969 47.1075C103.696 47.1075 103.418 47.1667 103.166 47.2847C102.174 47.7407 101.11 48.0786 99.9985 48.2855L96.6475 48.4207L96.1518 48.4417H95.7927C95.6644 48.429 95.5362 48.408 95.4122 48.3911L95.3011 48.3742C95.2113 48.3615 95.1218 48.3573 95.0361 48.3573C94.5233 48.3573 94.0274 48.5642 93.6643 48.9358C90.7833 51.8999 89.7663 55.1639 90.8646 57.8915C92.2237 61.2609 95.72 63.4398 99.7719 63.4398C101.866 63.4398 103.832 62.8149 105.311 61.679C107.239 60.1968 108.667 57.5074 108.949 54.8301C109.175 52.6727 108.645 50.7766 107.419 49.3454C106.76 48.5811 105.914 47.9097 104.901 47.3481C104.615 47.1877 104.294 47.1075 103.969 47.1075Z" fill="#725739"/>
<path d="M37.0312 59.5384C37.0312 60.6193 34.6465 61.4934 31.7058 61.4934C28.7652 61.4934 26.3801 60.6193 26.3801 59.5384C26.3801 58.4575 28.7652 57.5876 31.7058 57.5876C34.6465 57.5876 37.0312 58.4616 37.0312 59.5384Z" fill="#ED6F81"/>
<path d="M77.6445 59.5384C77.6445 60.6193 75.2595 61.4934 72.3188 61.4934C69.3784 61.4934 66.9934 60.6193 66.9934 59.5384C66.9934 58.4575 69.3784 57.5876 72.3188 57.5876C75.2595 57.5876 77.6445 58.4616 77.6445 59.5384Z" fill="#ED6F81"/>
<path d="M40.8436 55.6917C42.8077 55.6917 44.3998 52.8162 44.3998 49.2693C44.3998 45.7224 42.8077 42.8471 40.8436 42.8471C38.8798 42.8471 37.2876 45.7224 37.2876 49.2693C37.2876 52.8162 38.8798 55.6917 40.8436 55.6917Z" fill="black"/>
<path d="M64.0269 55.6917C65.991 55.6917 67.5829 52.8162 67.5829 49.2693C67.5829 45.7224 65.991 42.8471 64.0269 42.8471C62.0629 42.8471 60.4709 45.7224 60.4709 49.2693C60.4709 52.8162 62.0629 55.6917 64.0269 55.6917Z" fill="black"/>
<path d="M64.0268 59.365C64.0268 63.1779 58.7268 66.2645 52.1915 66.2645C45.6564 66.2645 40.3564 63.1738 40.3564 59.365" stroke="#1D1D1B" stroke-miterlimit="10"/>
</g>
<defs>
<clipPath id="clip0_287_2954">
<rect width="109" height="106.405" fill="white"/>
</clipPath>
</defs>
</svg>
