<svg width="132" height="112" viewBox="0 0 132 112" fill="none" xmlns="http://www.w3.org/2000/svg">
<g clip-path="url(#clip0_48_1380)">
<path d="M86.4824 68.1116C85.9568 69.5079 85.2624 70.708 84.4407 71.8489C82.7594 74.1193 80.7537 76.0221 78.2302 77.3745C75.5086 78.8329 72.5705 79.2928 69.5421 79.2278C68.9642 79.2191 68.4225 79.1591 67.7801 79.0894C66.5243 78.6477 65.5964 77.8074 64.5005 77.2482C64.2328 77.1051 64.0012 76.9107 63.7334 76.7676C59.815 74.9822 56.3294 72.519 52.699 70.2609C50.1927 68.6741 47.8065 66.8956 45.3594 65.1816C44.7956 64.7832 44.1937 64.3732 43.5822 64.064C41.25 62.8617 39.2191 61.2113 37.2739 59.4831C35.8829 58.2541 34.3239 57.3061 32.8966 56.1284C31.9059 55.2899 30.8905 54.4647 30.1286 53.2807C30.0756 53.1817 30.087 53.1437 30.072 53.0562C30.0817 52.9555 30.0685 52.9307 30.0782 52.83C30.0648 51.9136 30.0152 51.0485 29.9903 50.1702C29.975 48.2994 30.6305 46.6106 31.681 45.1242C33.3473 42.7663 35.4006 40.7742 37.492 38.7936C38.2501 38.0689 39.0347 37.3937 39.9634 36.9279C40.2735 36.7935 40.4794 36.5239 40.7233 36.2659C42.5981 34.1784 44.64 32.2243 46.8392 30.5044C48.7928 28.9798 50.826 27.6036 53.1473 26.6463C55.0214 25.8649 56.8143 24.8723 58.6601 23.9786C61.4974 22.6174 64.3762 21.3931 67.4442 20.6407C69.39 20.1712 71.335 20.1161 73.3171 20.487C74.1628 20.6389 75.1154 20.5742 75.856 21.0054C76.9536 21.6273 78.189 21.7933 79.4412 22.1095C80.3577 22.9877 80.7166 24.1329 81.0985 25.2021C82.9417 30.4243 84.161 35.7898 84.7317 41.3118C85.0264 44.1793 85.1328 47.0521 85.051 49.9302C84.9427 52.7589 85.4733 55.5318 85.9031 58.295C86.3763 61.2578 86.4995 64.2809 86.7103 67.2889C86.8199 67.6123 86.8022 67.8765 86.5071 68.0983L86.4824 68.1116Z" fill="#E78D3D"/>
<path d="M86.509 68.1611C86.4409 67.9746 86.5611 67.7829 86.5407 67.5072C86.2682 64.9781 86.2846 62.4535 85.9246 59.9395C85.7203 58.4885 85.516 57.0375 85.2489 55.5884C84.9013 53.5135 84.8542 51.4051 84.8698 49.2949C84.8908 47.3729 84.8605 45.4147 84.6552 43.4866C84.5508 42.4597 84.5966 41.4161 84.4294 40.3911C83.8386 36.3766 83.1223 32.3657 81.9076 28.4945C81.3842 26.8642 81.0588 25.1279 80.0751 23.6487C79.8629 23.2529 79.8735 22.7377 79.5588 22.2694C80.3038 22.4116 80.9585 22.0288 81.5903 21.7221C82.6179 21.2033 83.7154 20.9336 84.858 20.9264C88.185 20.895 91.5138 20.9264 94.8321 21.4729C97.7969 21.9541 100.332 23.2386 102.488 25.2999C102.681 25.4828 102.875 25.6657 103.108 25.9228C103.389 26.0907 103.41 26.3664 103.641 26.5608L103.717 26.5837C104.55 27.6025 104.918 28.6469 104.682 30.0476C103.936 34.3008 103.794 38.6123 103.187 42.8867C102.473 47.8548 101.684 52.7999 100.794 57.7353C100.74 58.0508 100.699 58.391 100.522 58.7728C99.1003 60.4582 97.5328 61.8714 95.8363 63.1626C95.1851 63.6708 94.4827 64.1428 93.896 64.712C92.2066 66.2542 90.1708 67.0905 88.0041 67.742C87.5419 67.8304 87.0568 67.9949 86.509 68.1611Z" fill="#F09948"/>
<path d="M30.0677 53.3452C30.0677 53.3452 30.3186 53.3381 30.3832 53.3991C31.7619 55.0805 33.4702 56.4261 35.2378 57.6444C37.0185 58.8875 38.5934 60.4002 40.2885 61.721C41.1997 62.411 42.17 62.9738 43.1404 63.5366C44.8133 64.519 46.3775 65.6552 47.9533 66.7534C50.7592 68.7209 53.6014 70.6372 56.5274 72.413C57.9971 73.3133 59.3961 74.3788 60.9744 75.1253C63.2783 76.2154 65.4488 77.4726 67.5371 78.933C67.5751 78.9445 67.5884 78.9692 67.6414 79.0682C66.6165 80.127 65.7074 81.2829 64.4889 82.1588C61.8081 84.1686 58.8736 85.6457 55.7138 86.7021C55.1792 86.893 54.6012 86.8843 54.0251 86.9383C53.4357 86.9675 52.8215 87.01 52.1694 87.041C50.2049 86.4059 48.222 86.4495 46.2893 86.0521C45.0009 85.7872 43.7584 85.3703 42.6228 84.7368C39.7913 83.197 36.807 82.0256 33.8933 80.689C30.7384 79.2588 27.5932 77.7278 24.5302 75.9936C24.0138 73.7226 23.25 71.5842 23.4352 69.2557C23.5314 67.7712 23.9315 66.3784 24.5711 65.0166C25.602 62.84 26.709 60.6863 28.0342 58.7023C29.1041 57.0143 29.733 55.2761 30.0677 53.3452Z" fill="#F09948"/>
<path d="M100.584 58.771C100.319 58.2762 100.543 57.7424 100.654 57.237C101.09 54.9013 101.426 52.556 101.837 50.2337C102.28 47.6719 102.621 45.1003 103.001 42.5403C103.242 40.8507 103.42 39.1628 103.598 37.475C103.931 34.5898 104.062 31.6851 104.635 28.8308C104.7 28.4773 104.642 28.1901 104.469 27.8685C104.27 27.4974 104.058 27.1015 103.806 26.6314C103.943 26.5899 104.072 26.7118 104.152 26.8602C104.49 27.7297 105.178 28.0619 106.062 28.2253C107.451 28.4999 108.737 29.1165 109.889 29.9002C113.115 32.0568 116.34 34.2134 119.13 36.9223C121.054 38.7893 122.757 40.8383 124.264 43.0561C125.469 44.8303 126.403 46.7504 127.386 48.644C128.115 50.0048 128.559 51.4866 128.915 52.9835C129.345 54.8551 128.534 56.3724 127.214 57.6531C126.273 58.5713 125.118 59.031 123.845 59.3307C122.111 59.7189 120.318 59.8199 118.571 59.7689C117.402 59.7266 116.251 59.8973 115.057 59.8683C112.681 59.7723 110.344 59.2734 107.989 59.0386C105.961 58.8198 103.946 58.6256 101.893 58.42C101.49 58.3812 101.053 58.4564 100.609 58.7578L100.584 58.771Z" fill="#F9BA81"/>
<path d="M24.4655 75.9326C24.9789 75.8804 25.389 76.1702 25.784 76.3725C28.2929 77.6075 30.7904 78.8806 33.2993 80.1156C34.5851 80.7322 35.9186 81.2596 37.2522 81.787C39.412 82.6677 41.4419 83.8409 43.5293 84.8242C45.2349 85.6299 47.065 85.9548 48.9278 86.103C49.998 86.1983 51.0319 86.3448 52.0402 86.9191C51.9025 87.3751 51.6489 87.7339 51.5606 88.1634C51.2002 89.6303 50.3936 90.8587 49.5225 92.0262C48.3713 93.5029 47.2845 95.0407 46.3764 96.6738C45.6245 98.0639 44.5784 99.2615 43.5438 100.421C42.5702 101.516 41.7123 102.708 40.8164 103.889C39.7756 105.275 38.6456 106.613 37.0356 107.412C36.5656 107.664 36.0557 107.841 35.5008 107.757C35.286 107.712 35.1243 107.767 34.9246 107.811C32.393 108.435 30.2367 107.68 28.356 106.012C25.3671 103.347 23.8759 99.9103 23.376 96.0063C22.9249 92.4902 22.9377 88.9484 23.2394 85.4111C23.407 83.3468 23.6374 81.2807 23.881 79.2394C24.0143 78.1807 24.2598 77.0938 24.4655 75.9326Z" fill="#F9BA81"/>
<path d="M103.715 26.521C103.453 26.5661 103.383 26.3169 103.212 26.058C103.45 26.0262 103.569 26.2488 103.715 26.521Z" fill="#F9BA81"/>
<path d="M30.0914 52.8547C30.0914 52.8547 30.1312 52.929 30.1082 53.005C30.0702 52.9935 30.0437 52.944 30.0914 52.8547Z" fill="#F09948"/>
<path d="M74.9486 55.5032C74.8735 55.0658 74.8169 54.8413 74.3866 55.1674C72.334 56.7451 70.0313 57.9154 67.7003 58.9735C67.0058 59.2819 66.2998 59.6284 65.5523 59.838C65.1034 59.9511 64.833 60.1597 65.0487 60.6811C65.1415 60.8543 65.1353 61.0805 65.1654 61.2554C65.2008 61.6186 65.0974 61.9606 64.6848 62.0225C64.2721 62.0844 64.052 61.8521 63.9787 61.4774C63.8867 60.8898 63.6842 60.3932 63.3811 59.8869C63.1309 59.4795 62.8446 59.1235 62.4478 58.8584C62.1022 58.6296 61.9299 58.308 62.2329 57.9226C62.5245 57.5753 62.8912 57.6654 63.212 57.9075C63.4436 58.1018 63.6999 58.283 63.8819 58.5039C64.1701 58.9227 64.5085 58.9005 64.9441 58.7626C67.952 57.6603 70.7363 56.2001 73.4109 54.4165C73.5461 54.3122 73.6813 54.2079 73.7785 54.0921C74.0718 53.8075 74.0762 53.5186 73.7174 53.265C73.5123 53.1201 73.2693 52.9637 73.0643 52.8188C72.846 52.6492 72.8027 52.4495 72.883 52.1835C72.9749 51.8795 73.2108 51.7849 73.513 51.814C73.7773 51.8317 74.0203 51.988 74.2501 52.1197C75.4272 52.8901 76.0239 54.0034 76.1751 55.3554C76.2442 56.0191 76.0913 56.3876 75.6902 56.4115C75.0893 56.4787 75.0256 56.0033 74.9486 55.5032Z" fill="#080402"/>
<path d="M59.9821 56.0398C59.0436 55.7148 58.5124 55.1396 58.4478 54.187C58.3964 53.2591 58.7666 52.5831 59.5433 52.0713C60.0858 51.7169 60.6619 51.6629 61.2717 51.9094C62.25 52.3087 62.7971 53.4485 62.5269 54.5487C62.2451 55.6869 61.3562 56.227 59.9821 56.0398Z" fill="#080402"/>
<path d="M70.8877 46.0237C71.7802 45.6091 72.5252 45.7513 73.1588 46.3989C73.7545 47.0351 73.8766 47.7977 73.586 48.6222C73.3068 49.4087 72.5681 49.9319 71.764 49.917C70.9351 49.9154 70.2838 49.532 69.9108 48.7765C69.5245 47.9962 69.6861 47.0498 70.2595 46.4559C70.4062 46.3136 70.6289 46.1943 70.8877 46.0237Z" fill="#080402"/>
<path d="M80.2079 46.5385C81.2507 46.9987 81.4037 47.5218 80.8108 48.3172C80.2542 49.0614 79.4378 49.4989 78.6045 49.7862C78.1689 49.9241 77.7483 50.1495 77.2711 50.1504C76.7807 50.1267 76.2752 50.0154 76.0993 49.5683C75.8986 49.1344 76.0364 48.6784 76.4022 48.2913C77.4139 47.2078 78.6925 46.6818 80.2079 46.5385Z" fill="#FD5E8C"/>
<path d="M55.6847 62.1643C55.4452 62.1334 55.2817 62.1254 55.1297 62.0795C54.3432 61.8004 54.1921 61.34 54.6497 60.6489C55.0234 60.0983 55.5642 59.6812 56.1712 59.3877C56.8772 59.0412 57.5886 58.8829 58.3794 58.8731C58.8186 58.8607 59.0272 59.1311 59.2128 59.4774C59.3984 59.8238 59.3561 60.1013 59.1387 60.4088C58.5706 61.191 57.7409 61.6037 56.8467 61.9556C56.4853 62.0537 56.1088 62.0644 55.6847 62.1643Z" fill="#FD5E8C"/>
</g>
<defs>
<clipPath id="clip0_48_1380">
<rect width="115.282" height="63.69" fill="white" transform="translate(0 55) rotate(-28.1864)"/>
</clipPath>
</defs>
</svg>
