<svg width="115" height="89" viewBox="0 0 115 89" fill="none" xmlns="http://www.w3.org/2000/svg">
<g clip-path="url(#clip0_36_1821)">
<path d="M86.0754 33.4277C91.8636 35.0124 97.0848 37.6318 101.548 41.6399C104.258 44.1028 106.304 47.0134 107.163 50.5676C107.9 53.6428 107.373 56.5528 105.293 59.0646C104.095 60.5261 102.701 61.7183 100.72 62.4983C98.4322 63.1262 96.3696 63.8885 94.2705 64.3033C89.006 65.3508 83.842 64.2711 78.6694 63.3592C76.4936 62.9653 74.3383 62.3497 72.1329 62.0907C68.2852 61.5834 64.4715 61.5644 61.1725 64.0908C60.8973 64.313 60.5261 64.4576 60.203 64.641C54.6191 67.6545 48.429 65.8399 45.1781 61.3351C43.2733 58.6818 40.633 56.7999 37.8466 55.197C33.4045 52.6359 28.4352 51.5708 23.6268 50.032C22.0919 49.5528 20.5511 49.1007 19.0999 48.4986C14.8061 46.6771 10.7303 44.5077 8.06749 40.415C7.98333 40.2833 7.73462 40.2569 7.59058 40.1404C5.40414 36.0676 7.51316 31.7523 10.9655 29.4293C14.8186 26.8269 19.078 25.0775 23.6206 24.0974C26.591 23.4501 29.5259 22.9646 32.5838 22.5628C31.8932 24.6733 31.0822 26.5593 30.964 28.7675C31.3778 28.9433 31.7047 29.1284 32.0613 29.1786C34.8187 29.757 37.603 30.3414 40.3781 30.8389C44.0553 31.4783 47.7891 31.9888 51.4663 32.6282C53.8908 33.0485 56.2915 33.5768 58.7101 34.0241C60.3944 34.3381 62.0846 34.6252 63.7748 34.9123C67.4579 35.5247 71.1858 36.0622 74.8689 36.6746C78.0066 37.1953 81.1594 37.7759 84.3181 38.3295C85.5978 38.5545 85.9447 38.2632 85.9658 36.8821C86.0473 35.7406 86.0538 34.5542 86.0274 33.3889L86.0754 33.4277Z" fill="#FDF4E2"/>
<path d="M7.57585 40.3351C7.76144 40.2628 7.98317 40.2833 8.08837 40.4479C10.7571 44.5136 14.827 46.71 19.1208 48.5315C20.593 49.1665 22.1398 49.5917 23.6476 50.0649C28.4831 51.6096 33.4523 52.6747 37.8675 55.2299C40.6809 56.8388 43.2882 58.7417 45.199 61.368C48.4499 65.8729 54.64 67.6874 60.2239 64.6739C60.547 64.4905 60.8912 64.34 61.1933 64.1237C64.4984 61.5704 68.3121 61.5894 72.1538 62.1236C74.3474 62.4366 76.5086 63.0252 78.6903 63.3921C83.83 64.3251 89.0269 65.3837 94.2913 64.3362C96.3905 63.9214 98.4471 63.1861 100.627 62.5345C99.9085 65.7984 99.0377 69.1136 98.1997 72.4077C96.744 78.2526 92.1096 82.6061 86.126 83.5803C83.1912 84.0657 80.2342 84.009 77.3058 83.3081C72.3873 82.141 67.424 81.0489 62.4876 79.9628C55.9058 78.5145 49.3451 77.0992 42.7574 75.678C36.0137 74.1942 29.2431 72.7044 22.4995 71.2206C21.3665 70.9713 20.1948 70.77 19.044 70.6017C12.2772 69.4804 6.38875 64.3669 6.61239 55.2532C6.71395 50.8072 7.07016 46.3607 7.31253 41.9175C7.35355 41.474 7.46038 40.9884 7.57585 40.3351Z" fill="#E99A70"/>
<path d="M86.0781 33.2869C86.0749 34.5871 86.1013 35.7524 86.0678 36.9328C86.0197 38.308 85.6998 38.6053 84.4201 38.3803C81.2824 37.8595 78.1356 37.252 74.9709 36.7253C71.2878 36.1129 67.5658 35.5485 63.8768 34.963C62.1806 34.7029 60.4963 34.3889 58.8121 34.0748C56.3935 33.6275 53.9928 33.0993 51.5683 32.6789C47.8911 32.0395 44.1573 31.529 40.4801 30.8896C37.705 30.3921 34.9207 29.8077 32.1633 29.2293C31.8126 29.1522 31.4857 28.9671 31.066 28.8182C31.1842 26.61 31.9951 24.724 32.7937 22.6372C35.0084 17.3271 38.7607 13.7692 43.9151 11.6794C48.5457 9.78535 53.3888 9.23899 58.405 9.83368C66.0641 10.7554 72.763 13.7282 78.394 18.9831C82.4973 22.8271 85.3559 27.4436 86.1051 33.2929L86.0781 33.2869ZM58.8801 30.8093C59.7163 30.9932 60.5498 31.318 61.4157 31.3672C62.86 31.487 64.37 31.5647 65.8078 31.4569C66.6375 31.4132 67.1031 30.5824 66.8863 30.0256C66.6451 29.3221 66.0911 29.3982 65.4771 29.4893C62.0928 29.9607 59.0226 28.7478 55.9022 27.8916C55.2278 27.7432 54.9182 27.2226 54.9376 26.4916C54.949 26.183 55.0472 25.8652 55.0256 25.5776C54.9884 24.9756 54.6906 24.401 54.0438 24.5132C53.7114 24.6098 53.1913 25.1741 53.2339 25.4945C53.3078 26.444 52.8719 27.14 52.3221 27.8391C51.9008 28.3403 51.1708 28.8301 51.8613 29.5477C52.4769 30.2205 53.0811 29.7878 53.6314 29.3433C53.7302 29.2802 53.8499 29.25 53.7841 29.292C55.4598 29.7739 57.0005 30.226 58.8861 30.7823L58.8801 30.8093ZM69.5447 19.1004C68.176 19.28 67.3926 20.0126 67.1708 21.4061C66.9577 22.6318 66.9393 23.8721 68.0706 24.7715C68.6738 25.2436 69.2607 25.1465 69.7873 24.8099C70.9661 24.0794 71.2931 22.8505 71.3384 21.6161C71.3962 20.5824 71.0914 19.5256 69.5447 19.1004ZM52.9352 21.5826C53.657 21.5152 54.4059 21.4537 55.1336 21.3593C56.2418 21.2072 56.654 20.6192 56.053 19.7517C55.1817 18.5702 54.1848 17.4458 53.2089 16.3544C52.8275 15.9028 52.2578 15.6643 51.7344 16.1148C51.1874 16.6732 51.4312 17.2359 51.8817 17.7592C52.3861 18.2944 52.8695 18.7967 53.3949 19.3648C52.8052 19.6027 52.3742 19.7624 52.0181 19.9668C51.3718 20.3336 50.7195 20.7275 50.1692 21.172C49.6459 21.6224 49.3896 22.2731 50.0197 22.7511C50.2598 22.9453 50.9185 22.7792 51.3226 22.6135C51.7866 22.4328 52.2171 22.0185 52.9293 21.6096L52.9352 21.5826ZM69.7985 27.3293C68.3796 27.8655 68.0279 28.6931 68.8894 29.5331C70.1081 30.678 73.0742 30.8216 74.5072 29.836C74.3659 28.1646 74.3777 28.1106 73.002 27.8079C72.0369 27.5673 71.0572 27.5214 69.7926 27.3563L69.7985 27.3293ZM49.6862 26.5804C50.3374 25.6773 50.3989 25.0121 49.6641 24.6242C48.4524 23.9617 47.1604 23.536 45.7712 23.9373C45.4059 24.0549 44.9516 24.5771 44.9284 24.9396C44.9052 25.3022 45.326 25.9604 45.6497 26.0316C46.8787 26.3586 48.1551 26.4698 49.7191 26.5594L49.6862 26.5804Z" fill="#FCD58E"/>
<path d="M58.7242 30.7467C57.0216 30.2589 55.4808 29.8068 53.7782 29.319C53.871 29.2829 53.7242 29.3071 53.6255 29.3703C53.0542 29.7819 52.465 30.2744 51.8554 29.5747C51.1978 28.8361 51.8949 28.3673 52.3162 27.8661C52.887 27.1998 53.296 26.498 53.228 25.5215C53.1854 25.201 53.7114 24.6098 54.0378 24.5402C54.6906 24.401 54.9944 24.9486 55.0197 25.6046C55.0353 25.9191 54.9431 26.2099 54.9317 26.5185C54.8912 27.2166 55.2279 27.7432 55.8963 27.9185C59.0437 28.7808 62.1139 29.9936 65.4712 29.5163C66.0253 29.4402 66.6063 29.3701 66.8803 30.0526C67.0913 30.6363 66.6316 31.4402 65.8018 31.4838C64.3371 31.5858 62.86 31.487 61.4098 31.3941C60.5768 31.324 59.7374 31.0262 58.7124 30.8006L58.7242 30.7467Z" fill="black"/>
<path d="M69.7393 19.115C71.1512 19.5105 71.4619 20.5404 71.3923 21.628C71.3199 22.8564 71.014 24.1183 69.8411 24.8217C69.2935 25.1255 68.6736 25.2436 68.1244 24.7834C66.9662 23.8781 66.9845 22.6378 67.2247 21.418C67.4524 19.9975 68.2568 19.2978 69.7663 19.1209L69.7393 19.115Z" fill="black"/>
<path d="M52.8364 21.6457C52.2499 21.9975 51.8464 22.4177 51.3495 22.6195C50.9665 22.818 50.3077 22.9842 50.0466 22.757C49.4494 22.258 49.6787 21.6014 50.1961 21.1779C50.7793 20.7124 51.3987 20.3396 52.045 19.9727C52.407 19.7413 52.8262 19.6356 53.4218 19.3707C52.8964 18.8026 52.3919 18.2674 51.9086 17.7651C51.3982 17.2569 51.1873 16.6732 51.7613 16.1207C52.2696 15.6104 52.8544 15.9088 53.2358 16.3603C54.2058 17.4787 55.2415 18.5551 56.0799 19.7576C56.6868 20.5982 56.2627 21.2402 55.1605 21.3653C54.4657 21.4386 53.7168 21.5001 52.8423 21.6188L52.8364 21.6457Z" fill="black"/>
<path d="M69.9664 27.338C71.0691 27.4675 72.0369 27.5673 73.008 27.781C74.3837 28.0837 74.3659 28.1646 74.5132 29.809C73.0802 30.7946 70.12 30.624 68.8954 29.5061C68.049 28.726 68.4067 27.8715 69.9664 27.338Z" fill="#FD528C"/>
<path d="M49.5873 26.6435C48.2089 26.4816 46.9324 26.3705 45.6976 26.0705C45.3739 25.9992 44.9531 25.341 44.9763 24.9785C44.9995 24.616 45.4597 24.0668 45.819 23.9761C47.2082 23.5748 48.5213 24.0334 49.712 24.663C50.4138 25.072 50.3583 25.7102 49.5873 26.6435Z" fill="#FD528C"/>
</g>
<defs>
<clipPath id="clip0_36_1821">
<rect width="102.359" height="68" fill="white" transform="translate(14.6128) rotate(12.4092)"/>
</clipPath>
</defs>
</svg>
