<svg width="109" height="81" viewBox="0 0 109 81" fill="none" xmlns="http://www.w3.org/2000/svg">
<path d="M108.008 28.2685C108.219 27.0842 108.066 25.924 107.835 24.7876C107.156 21.1442 105.234 18.1944 102.689 15.6349C100.919 13.8454 98.8458 12.464 96.7905 11.0485C95.7117 10.3131 94.4858 9.93848 93.2237 9.63228C90.0473 8.84443 86.8889 8.02236 83.6394 7.74507C81.6484 7.57402 79.645 7.55033 77.6518 7.46611C76.4956 7.415 75.3858 7.2349 74.2803 6.88113C70.9819 5.78559 67.6575 4.69798 64.3431 3.54983C61.5423 2.59046 58.7496 1.6574 55.8176 1.11131C54.2784 0.831779 52.7371 0.639086 51.1769 0.854262C49.643 1.06151 48.289 1.67373 47.2492 2.85127C46.8852 3.24906 46.4994 3.48112 45.9954 3.60545C45.413 3.75356 44.7965 3.8833 44.2061 4.00511C41.6256 4.61631 39.8105 6.05799 39.1136 8.74015C39.0571 8.92967 39.0006 9.1192 38.952 9.33502C37.36 9.44499 35.9799 10.0651 34.6978 10.9141C33.6528 11.6048 33.051 12.5345 32.8302 13.7793C32.7491 14.2636 32.6158 14.7637 32.4745 15.2375C32.1274 16.3484 31.4756 17.207 30.4589 17.803C29.7576 18.217 29.0905 18.6494 28.4393 19.1344C27.5067 19.8198 27.1298 20.7386 27.2564 21.9067C27.4717 24.0246 28.6196 25.4571 30.3281 26.5758C30.4725 26.6756 30.6089 26.7491 30.7452 26.8226C30.8555 26.904 30.9839 26.9512 31.0942 27.0326C30.8589 28.5117 29.9509 28.9023 28.5134 29.0515C27.5436 29.1449 26.6449 28.8145 25.7743 28.3894C24.7674 27.8908 23.9215 27.1709 23.0857 26.3906C21.0774 24.4724 19.051 22.5884 17.0427 20.6702C16.4014 20.0606 15.6694 19.6222 14.8932 19.2259C13.7419 18.6274 12.645 17.9263 11.4553 17.4832C8.40791 16.3689 5.49658 16.7359 2.94187 18.7468C0.986148 20.2887 -0.229607 22.2953 0.205668 24.9497C0.308881 25.6652 0.472291 26.3912 0.627722 27.091C0.799126 27.8433 1.00463 28.614 1.17603 29.3663C1.4012 30.3895 1.26298 31.437 1.03046 32.4556C0.70302 33.819 0.461917 35.1849 0.495711 36.611C0.533193 38.2371 0.98044 39.71 1.81932 41.064C2.69015 42.5232 3.76402 43.8058 4.83789 45.0885C5.54315 45.9085 6.21217 46.797 6.80286 47.7093C7.79195 49.2762 8.08623 50.9966 7.74805 52.7942C7.54748 53.918 7.28669 55.0314 7.02592 56.1448C6.46167 58.7005 6.4153 61.2713 6.99126 63.8254C7.20259 64.7093 7.65691 65.548 8.051 66.3764C8.49518 67.2757 8.67027 68.228 8.65461 69.2094C8.62605 70.7119 8.57138 72.2223 8.77565 73.7403C8.87088 74.4296 9.08868 75.0529 9.437 75.6366C10.1598 76.796 11.0051 77.8895 12.1723 78.5405C14.2761 79.7402 16.4408 80.5768 18.9967 80.2603C21.8558 79.9092 24.072 78.6617 25.7258 76.4072C26.8706 74.8243 27.8711 73.1417 28.9056 71.4774C29.7067 70.1712 30.4657 68.8204 31.1986 67.4775C31.561 66.7929 31.7871 66.0348 32.0915 65.2529C33.099 65.3779 34.0239 65.7003 34.7494 66.3993C35.1884 66.8118 35.549 67.2481 35.9176 67.7107C37.6583 69.9687 39.791 70.7 42.5143 69.9018C43.0104 69.7512 43.434 69.7375 43.9193 70.021C45.2389 70.7981 46.7121 70.9541 48.114 70.4997C50.1084 69.8366 52.0734 70.0156 54.058 70.4471C55.9744 70.842 57.9111 71.1157 59.8724 71.0947C62.3175 71.0705 64.6289 70.5122 66.7726 69.4017C69.2398 68.1354 71.5669 66.5957 73.8279 64.9324C74.2681 64.5977 74.7221 64.4024 75.2922 64.4016C76.613 64.4315 77.6638 63.8539 78.5506 62.9239C78.9407 62.5182 79.3308 62.1124 79.6527 61.67C80.0189 61.1853 80.4388 60.9716 81.0691 60.9813C81.7777 60.9673 82.5226 60.8847 83.2254 60.7575C84.1712 60.5852 85.003 60.1316 85.7607 59.528C87.7687 57.9703 89.3116 56.008 90.6861 53.867C92.1412 51.6154 93.6303 49.3821 95.0933 47.1568C95.8742 45.9717 97.0177 45.1361 98.0931 44.2637C100.447 42.3425 102.624 40.2162 104.608 37.9191C104.883 37.6056 105.116 37.2475 105.318 36.7841C104.34 35.8171 103.579 34.813 103.011 33.6928C102.54 32.8014 102.14 31.86 102.009 30.8655C101.96 30.4209 102.113 30.1734 102.531 30.0465C102.74 29.9831 102.948 29.9197 103.157 29.8562C104.802 29.3568 106.439 28.831 108.102 28.2973L108.008 28.2685ZM57.3473 36.6707C57.5076 36.8231 57.668 36.9755 57.8544 37.12C59.8212 38.6198 60.669 40.6606 60.8598 43.0732C60.9995 44.7544 61.053 46.4331 60.8736 48.0962C60.6067 50.5042 61.2014 52.6505 62.7621 54.5035C63.1148 54.9135 63.4413 55.3315 63.7156 55.7652C64.0639 56.3489 64.2897 56.9986 64.0136 57.6857C63.3504 59.3521 61.4653 59.4362 60.5198 58.2007C60.1853 57.7565 59.8769 57.3043 59.5163 56.868C57.5572 54.3603 56.546 51.5936 56.8503 48.3699C57.0362 46.4462 57.0233 44.5254 56.7514 42.5971C56.6482 41.8815 56.3963 41.2398 55.8471 40.7458C55.2979 40.2519 54.8009 39.7421 54.2698 39.2139C53.2337 38.1496 52.6878 36.8215 52.6983 35.3533C52.7016 34.5192 52.8436 33.6717 52.9071 32.848C52.9968 32.0164 52.9037 31.2403 52.3769 30.5385C51.8001 29.7657 51.2595 28.9244 50.7007 28.1173C49.9758 27.0447 49.4075 25.9245 49.1808 24.6145C48.9185 22.9992 48.9311 21.4441 49.3672 19.8753C49.5368 19.3068 49.6461 18.7277 49.8157 18.1592C49.8642 17.9433 49.973 17.738 50.0897 17.5589C50.5805 16.9215 51.3377 16.6916 52.1001 16.9484C52.8364 17.2132 53.2188 17.8153 53.2437 18.5546C53.2649 19.094 53.2157 19.6835 53.0643 20.2178C52.4847 22.3473 52.877 24.2965 54.1367 26.0973C54.6374 26.807 55.1381 27.5168 55.6387 28.2266C56.54 29.5042 56.9713 30.9245 56.8724 32.4771C56.8211 33.1534 56.7618 33.8034 56.6844 34.4876C56.5968 35.2324 56.6137 35.9454 57.2791 36.6339L57.3473 36.6707ZM65.6637 17.1964C66.8816 17.5448 67.3722 18.3151 67.0831 19.5232C67.0064 19.8338 66.9216 20.1181 66.7766 20.3919C66.3475 21.3266 65.9264 22.2875 65.4291 23.1855C64.8673 24.2466 65.0162 25.2068 65.5526 26.2218C66.0729 27.1841 66.9109 27.8777 67.7952 28.4422C69.8867 29.7893 70.8129 31.8063 71.0819 34.1951C71.2915 36.1998 71.4407 38.1941 71.5639 40.1964C71.6303 41.354 72.1672 41.9953 73.2807 42.3754C75.7485 43.1774 76.7379 45.7784 76.2388 47.7972C75.9983 48.7895 75.1803 49.3826 74.241 49.2944C73.2073 49.1773 72.4578 48.3994 72.3936 47.1549C72.3506 46.4498 72.072 46.1897 71.4641 45.9721C70.128 45.516 69.0774 44.6859 68.3829 43.4317C67.8045 42.3721 67.6257 41.2198 67.4992 40.0517C67.3232 38.439 67.2857 36.8129 67.1699 35.2106C67.07 33.661 66.6286 32.3012 65.1545 31.4848C65.0522 31.4297 64.9761 31.3666 64.8738 31.3115C62.8047 29.7565 61.3585 27.8113 61.114 25.1277C61.0194 24.0648 61.1656 23.0437 61.6549 22.1195C62.3436 20.8187 63.0924 19.5284 63.8072 18.2198C64.1878 17.5009 64.7324 17.1345 65.6637 17.1964ZM43.7117 28.8606C44.0558 29.6179 43.9602 30.3364 43.6058 31.0473C43.3963 31.4844 43.2129 31.9135 43.0295 32.3426C42.7555 32.9429 42.6883 33.5666 42.8618 34.2321C43.0833 35.0554 43.5339 35.6942 44.0447 36.3434C44.4373 36.885 44.8117 37.4607 45.0999 38.0339C45.544 38.9333 45.4341 39.8859 45.2378 40.8361C44.922 42.4257 45.1967 43.8936 46.4373 45.0682C46.8342 45.436 47.205 45.8118 47.6199 46.1454C48.1692 46.6394 48.5697 47.2072 48.8637 47.8936C49.2556 48.8087 49.3183 49.7664 49.415 50.7425C49.4922 51.466 49.6998 52.1499 50.2389 52.7043C50.9884 53.4822 50.9604 54.6111 50.2767 55.3645C49.5929 56.1179 48.3904 56.1958 47.5343 55.5365C46.7123 54.8955 46.1013 54.1043 45.8501 53.089C45.6526 52.3446 45.4732 51.566 45.4062 50.782C45.3334 49.8848 45.0655 49.1905 44.3458 48.6047C43.8627 48.2343 43.4781 47.7191 43.0834 47.2644C41.1396 45.183 40.8727 42.7073 41.2925 40.0518C41.3736 39.5676 41.33 39.2361 41.0275 38.8971C40.8932 38.7367 40.7249 38.558 40.5907 38.3977C38.8398 36.2003 38.372 33.8143 39.4221 31.1686C39.7447 30.3524 40.1615 29.5652 40.4419 28.7044C40.9079 27.3276 42.55 27.2886 43.2973 28.1533C43.4316 28.3137 43.5477 28.5082 43.756 28.8184L43.7117 28.8606ZM11.1777 30.0925C11.4824 30.3447 11.761 30.6049 12.11 30.8149C13.973 31.9729 15.8381 33.044 17.8924 33.7991C19.9468 34.5542 22.0091 35.3356 24.1845 35.738C24.3651 35.7693 24.5798 35.819 24.7423 35.8846C25.1014 36.0341 25.2494 36.3339 25.1886 36.6971C25.1459 37.026 24.9408 37.2894 24.6035 37.3056C24.3003 37.3402 23.9891 37.3485 23.6881 37.2963C21.874 36.9566 20.1244 36.4537 18.3769 35.864C16.1579 35.1301 14.102 34.0882 12.0925 32.9173C11.0116 32.2688 9.993 31.5439 9.11726 30.632C8.61227 30.0959 8.07104 29.6283 7.54793 29.1264C6.95663 28.5877 6.80702 28.0012 7.14491 27.6113C7.50091 27.1872 8.07901 27.2128 8.69642 27.7435C9.51626 28.4712 10.2919 29.2412 11.1697 30.0662L11.1777 30.0925ZM15.9141 51.6074C16.3942 51.4041 16.8743 51.2009 17.3805 50.9897C18.1398 50.673 18.9332 50.3746 19.7005 50.0842C21.3316 49.4453 22.9387 48.7275 24.5596 48.1491C26.0239 47.6183 27.5281 47.219 29.0163 46.7671C29.1991 46.7116 29.3818 46.6561 29.5726 46.6269C30.0143 46.579 30.4554 46.9047 30.5331 47.2545C30.6428 47.7096 30.4093 48.0677 29.8951 48.2526C28.8145 48.6382 27.768 49.0421 26.6714 49.3751C24.2955 50.0966 22.0255 51.0731 19.7475 52.0233C18.028 52.7466 16.3506 53.5145 14.6311 54.2377C14.2996 54.367 13.8761 54.3807 13.4967 54.3523C13.0833 54.3055 12.9192 53.9531 12.8857 53.5611C12.8341 53.2033 13.0473 52.9662 13.3185 52.8264C14.1141 52.4412 14.9176 52.0823 15.8699 51.6495L15.9141 51.6074ZM18.2377 41.1346C18.8579 41.2048 19.452 41.283 20.0722 41.3532C22.019 41.5664 23.9397 41.7875 25.8835 41.4271C26.0401 41.3796 26.2287 41.4372 26.3832 41.4765C26.7104 41.5208 27.0252 41.7124 27.0086 42.0335C26.9841 42.3282 26.8028 42.6705 26.5817 42.8813C26.3786 43.0579 26.0232 43.1083 25.7201 43.1429C25.0615 43.228 24.395 43.2867 23.7204 43.3192C21.6888 43.3903 19.6636 43.2009 17.6588 42.8904C15.3267 42.5356 12.9867 42.1545 10.6467 41.7734C10.44 41.75 10.2173 41.674 10.0127 41.5637C9.67176 41.38 9.44538 41.104 9.54244 40.6723C9.6395 40.2407 9.89691 39.9614 10.3546 39.9661C10.718 39.9419 11.0792 40.0046 11.4324 40.041C13.652 40.4012 15.8977 40.7535 18.2377 41.1346ZM18.9404 69.2749C18.4757 69.9044 18.0109 70.5339 17.5803 71.1817C17.2403 71.6584 16.9423 72.1798 16.6284 72.6486C16.3145 73.1173 15.7843 73.2496 15.4013 73.0212C15.0262 72.8191 14.8825 72.3456 15.068 71.8297C15.205 71.5295 15.3681 71.2214 15.5472 70.966C16.3077 69.902 17.0341 68.8196 17.8629 67.7923C19.0135 66.3225 20.2904 64.9868 21.6696 63.7062C22.9422 62.5442 24.3548 61.6556 25.8437 60.8301C26.3781 60.5241 26.8315 60.7025 27.0072 61.2811C27.167 61.8071 26.9074 62.1732 26.3106 62.5555C25.539 63.0197 24.7514 63.4312 24.064 63.9846C22.1604 65.5106 20.5776 67.3414 18.9484 69.3012L18.9404 69.2749ZM18.776 60.563C17.8653 61.4141 16.9466 62.2389 16.0097 63.0979C15.8589 63.2586 15.7081 63.4193 15.5231 63.5617C15.1352 63.8806 14.5571 63.855 14.2466 63.4897C13.952 63.1769 13.9308 62.6375 14.2767 62.274C15.1011 61.4204 15.9516 60.5588 16.8522 59.7683C18.7057 58.1713 20.8095 56.9292 22.8973 55.6346C23.4941 55.2522 24.1671 54.933 24.814 54.6216C25.2339 54.408 25.7635 54.6493 25.9355 55.028C26.1315 55.4856 25.9582 55.8542 25.46 56.0917C25.0843 56.2632 24.7087 56.4347 24.3569 56.6851C22.5121 57.9348 20.7014 59.2028 18.768 60.5367L18.776 60.563ZM49.166 6.72196C48.8373 6.39085 48.7516 6.0147 49.0213 5.58808C49.2728 5.19569 49.6362 5.17154 50.0497 5.21836C50.2223 5.22339 50.3848 5.28896 50.5393 5.32823C52.7567 5.77527 55.0083 6.24068 57.2257 6.68772C57.4404 6.73743 57.6733 6.75291 57.8779 6.86316C58.271 7.03104 58.483 7.54123 58.3699 7.92028C58.2649 8.32563 57.9676 8.47337 57.4337 8.40565C56.7533 8.32498 56.0468 8.25223 55.3766 8.11102C53.6568 7.80015 51.9289 7.46299 50.2011 7.12582C49.866 7.05521 49.5751 6.94245 49.1478 6.75619L49.166 6.72196ZM49.3107 65.425C49.4477 65.1249 49.4824 64.7696 49.6876 64.5062C50.9246 63.039 52.1956 61.5902 53.4746 60.1676C53.732 59.8884 54.0976 59.7774 54.4726 59.9795C54.8477 60.1816 54.9936 60.5682 54.8102 60.9973C54.7356 61.2211 54.5746 61.4423 54.4057 61.6373C53.2572 63.0202 52.1167 64.4294 50.9421 65.8202C50.3367 66.5499 49.7948 66.4559 49.3107 65.425ZM44.6583 12.2561C44.2129 12.1041 43.7494 11.9863 43.3402 11.7658C42.8027 11.4981 42.7293 10.9746 43.0432 10.5058C43.2948 10.1134 43.5559 10.0342 44.224 10.2622C45.9714 10.852 47.6928 11.4496 49.4142 12.0473C49.6108 12.1312 49.8153 12.2415 49.9496 12.4018C50.2101 12.6962 50.3139 13.0381 50.0804 13.3963C49.847 13.7544 49.5177 13.7969 49.1405 13.6817C47.6839 13.2047 46.2353 12.754 44.6583 12.2561ZM62.62 64.0841C62.0401 65.1794 61.4782 66.2406 60.8983 67.3359C60.5902 67.9178 60.0499 68.1106 59.5987 67.8455C59.1816 67.5987 59.0741 67.0568 59.3379 66.517C59.4749 66.2169 59.646 65.9351 59.8091 65.627C60.4231 64.5501 61.0553 63.4388 61.6693 62.3619C61.7599 62.1907 61.8505 62.0196 61.9411 61.8484C62.1405 61.4719 62.4458 61.3504 62.8571 61.4841C63.2423 61.6257 63.4687 61.9017 63.4238 62.3175C63.4094 62.5517 63.3166 62.8096 63.2159 63.0413C63.0608 63.3757 62.8977 63.6838 62.6621 64.1288L62.62 64.0841ZM98.324 25.8657C97.3745 25.838 96.8573 25.4492 96.5255 24.5445C96.1858 23.6135 96.4023 22.5423 96.9933 22.0469C97.4255 21.6858 97.9796 21.6325 98.473 21.9423C99.2209 22.4334 99.5308 23.1723 99.5275 24.0065C99.5161 24.8143 99.2661 25.4935 98.316 25.8394L98.324 25.8657ZM41.1287 64.1175C41.6174 63.5669 42.1141 63.0427 42.5766 62.5C43.1096 61.9073 43.6686 61.3066 44.1254 60.6509C44.4654 60.1741 44.7025 60.016 45.1378 60.2285C45.5651 60.4148 45.8133 60.8565 45.6198 61.3462C45.4726 61.7068 45.2653 62.0571 45.0079 62.3363C44.2255 63.2346 43.4171 64.1408 42.6267 65.0128C42.2265 65.4791 41.9052 65.5479 41.4518 65.3696C41.0245 65.1833 40.9447 64.9203 41.1026 64.1254L41.1287 64.1175ZM42.2624 16.5745C42.5874 16.7057 42.9646 16.8209 43.2454 16.9942C43.5943 17.2043 43.7199 17.712 43.5829 18.0121C43.4097 18.3807 43.0602 18.5443 42.5966 18.4265C42.5023 18.3977 42.4 18.3425 42.2796 18.3217C41.1139 17.9574 39.9482 17.5932 38.7825 17.229C38.4996 17.1425 38.1906 17.064 37.9258 16.9433C37.5588 16.7675 37.3766 16.4494 37.4555 16.0519C37.5164 15.6888 37.7818 15.4358 38.1531 15.4379C38.5245 15.4401 38.93 15.4606 39.3072 15.5759C40.2502 15.8641 41.2091 16.2049 42.2704 16.6008L42.2624 16.5745ZM93.4769 29.0611C94.6306 28.165 95.918 27.8028 97.3629 28.0535C97.4833 28.0744 97.5776 28.1032 97.6799 28.1584C98.1753 28.3814 98.3793 28.8652 98.0393 29.342C97.8421 29.6317 97.5586 29.9188 97.2532 30.0403C96.3975 30.415 95.4916 30.7188 94.5102 30.5859C94.3035 30.5625 94.0627 30.5207 93.8661 30.4368C93.2582 30.2192 93.1544 29.8772 93.4588 29.0954L93.4769 29.0611ZM36.4475 21.1842C36.7043 21.2786 36.961 21.373 37.2439 21.4594C37.7234 21.6299 38.2131 21.7397 38.6483 21.9523C39.1779 22.1937 39.3797 22.7644 39.1361 23.1831C38.9186 23.5938 38.4146 23.7182 37.9191 23.4952C37.6543 23.3745 37.3555 23.2354 37.0726 23.1489C36.2057 22.9238 35.365 22.6907 34.5062 22.4919C34.1972 22.4133 33.9222 22.3532 33.7923 22.0192C33.4983 21.3328 33.945 20.7375 34.7378 20.8128C35.2897 20.8463 35.8294 21.0271 36.4736 21.1763L36.4475 21.1842ZM71.7499 57.8071C71.9311 57.4648 72.2103 57.3513 72.5795 57.4403C72.9488 57.5292 73.1672 57.7789 73.1927 58.1446C73.2203 58.4235 73.1616 58.6999 73.095 58.9499C72.845 59.6291 72.5949 60.3083 72.3108 60.9691C72.1818 61.2956 72.0006 61.6379 71.8034 61.9276C71.5699 62.2857 71.0659 62.4101 70.6908 62.2079C70.3498 62.0242 70.1858 61.6718 70.3271 61.198C70.43 60.8795 70.567 60.5794 70.704 60.2792C71.0345 59.4894 71.365 58.6996 71.7419 57.7808L71.7499 57.8071Z" fill="#EDAF40"/>
<path d="M105.699 36.0653C105.888 35.7493 106.119 35.478 106.248 35.1515C107.046 33.2718 107.828 31.3394 107.89 29.1949C106.09 29.655 104.393 30.1704 102.696 30.6857C102.716 30.9383 102.693 31.1462 102.749 31.3303C102.909 31.8563 103.077 32.4087 103.341 32.903C103.933 34.1021 104.596 35.2511 105.733 36.0837L105.699 36.0653Z" fill="#F95F8B"/>
<path d="M105.68 36.0995C104.562 35.2327 103.899 34.0837 103.307 32.8846C103.069 32.3824 102.909 31.8563 102.715 31.3119C102.659 31.1278 102.682 30.9199 102.662 30.6673C104.385 30.1441 106.082 29.6287 107.832 29.0976C107.951 28.8317 107.991 28.5895 108.016 28.2948C106.363 28.768 104.726 29.2937 103.055 29.8011C102.846 29.8645 102.637 29.928 102.428 29.9914C102.011 30.1182 101.866 30.3921 101.907 30.8104C102.02 31.8391 102.438 32.7463 102.908 33.6377C103.476 34.7578 104.238 35.762 105.226 36.6685C105.403 36.4998 105.546 36.3128 105.664 36.0469L105.68 36.0995Z" fill="#130C0C"/>
<path d="M57.3052 36.626C56.6899 36.0085 56.665 35.2691 56.7526 34.5244C56.838 33.8664 56.8893 33.1901 56.9405 32.5138C57.0394 30.9613 56.6082 29.541 55.7069 28.2634C55.2062 27.5536 54.7056 26.8438 54.2049 26.134C52.9452 24.3333 52.5268 22.3919 53.1325 20.2546C53.2839 19.7202 53.3411 19.1571 53.3119 18.5914C53.287 17.852 52.9046 17.25 52.1683 16.9852C51.4059 16.7283 50.6487 16.9582 50.1579 17.5956C50.0332 17.7484 49.9324 17.9801 49.8839 18.1959C49.7143 18.7645 49.605 19.3435 49.4354 19.9121C48.9993 21.4809 48.9867 23.036 49.249 24.6512C49.4757 25.9613 50.044 27.0815 50.7689 28.1541C51.3015 28.969 51.8342 29.784 52.4451 30.5752C52.9719 31.2771 53.065 32.0532 52.9753 32.8848C52.8856 33.7164 52.7698 34.5559 52.7665 35.39C52.764 36.8846 53.3019 38.1863 54.338 39.2506C54.8429 39.7867 55.3661 40.2886 55.9153 40.7826C56.4645 41.2765 56.7164 41.9182 56.8196 42.6338C57.0914 44.5622 57.1044 46.483 56.9185 48.4066C56.6142 51.6303 57.6254 54.3971 59.5845 56.9047C59.919 57.349 60.2535 57.7932 60.588 58.2375C61.5335 59.4729 63.4186 59.3889 64.0818 57.7224C64.3579 57.0353 64.1321 56.3857 63.7838 55.802C63.5015 55.3419 63.175 54.924 62.8303 54.5402C61.2696 52.6873 60.6749 50.5409 60.9418 48.133C61.1212 46.4698 61.0677 44.7911 60.928 43.1099C60.7372 40.6973 59.8894 38.6566 57.9226 37.1567C57.7361 37.0122 57.6019 36.8519 57.3734 36.6628L57.3052 36.626Z" fill="#986822"/>
<path d="M65.6035 17.186C64.7324 17.1345 64.1878 17.5009 63.8072 18.2198C63.1185 19.5205 62.3697 20.8108 61.6549 22.1195C61.1656 23.0437 61.0194 24.0648 61.114 25.1277C61.3585 27.8113 62.8047 29.7565 64.8738 31.3115C64.9499 31.3745 65.0602 31.456 65.1545 31.4848C66.6286 32.3012 67.07 33.661 67.1699 35.2106C67.2857 36.8129 67.3232 38.439 67.4992 40.0517C67.6257 41.2198 67.8045 42.3721 68.3829 43.4317C69.0854 44.7122 70.1359 45.5423 71.4641 45.9721C72.064 46.1634 72.3506 46.4498 72.3936 47.1549C72.4658 48.4257 73.2153 49.2036 74.241 49.2944C75.1883 49.4089 75.9903 48.7632 76.2388 47.7972C76.7379 45.7784 75.7405 43.151 73.2807 42.3754C72.1752 42.0217 71.6383 41.3803 71.5639 40.1964C71.4407 38.1941 71.2835 36.1735 71.0819 34.1951C70.839 31.7984 69.9128 29.7814 67.7952 28.4422C66.9109 27.8777 66.0729 27.1841 65.5526 26.2218C65.0242 25.2331 64.8673 24.2466 65.4291 23.1855C65.9264 22.2875 66.3475 21.3266 66.7766 20.3919C66.8955 20.126 66.9984 19.8075 67.0831 19.5232C67.3461 18.323 66.8816 17.5448 65.6035 17.186Z" fill="#986822"/>
<path d="M43.6958 28.808C43.5376 28.5687 43.4214 28.3742 43.2872 28.2139C42.5399 27.3491 40.9239 27.3802 40.4318 28.7649C40.1513 29.6257 39.7265 30.3867 39.412 31.2291C38.3879 33.8669 38.8376 36.2871 40.5805 38.4582C40.7227 38.6449 40.857 38.8052 41.0173 38.9576C41.3199 39.2966 41.3635 39.6281 41.2824 40.1124C40.8625 42.7679 41.1295 45.2435 43.0732 47.3249C43.4941 47.7717 43.8707 48.2606 44.3357 48.6652C45.0554 49.251 45.2972 49.9533 45.3961 50.8425C45.463 51.6265 45.6606 52.3709 45.8399 53.1495C46.0912 54.1649 46.7022 54.9561 47.5242 55.597C48.3541 56.2643 49.5828 56.1785 50.2666 55.425C50.9503 54.6716 50.9783 53.5427 50.2288 52.7649C49.6817 52.1841 49.482 51.5265 49.4049 50.803C49.282 49.8349 49.2455 48.8693 48.8535 47.9541C48.5596 47.2677 48.159 46.6999 47.6098 46.206C47.2209 45.8644 46.8241 45.4966 46.4272 45.1287C45.1865 43.9542 44.9119 42.4863 45.2277 40.8966C45.424 39.9464 45.5339 38.9938 45.0897 38.0945C44.7936 37.4949 44.4453 36.9113 44.0346 36.404C43.5499 35.7468 43.0732 35.1159 42.8517 34.2926C42.652 33.6351 42.7273 33.0377 43.0194 32.4032C43.2028 31.974 43.3861 31.5449 43.5956 31.1078C43.9501 30.3969 44.0456 29.6785 43.6856 28.8685L43.6958 28.808Z" fill="#986822"/>
<path d="M11.1357 30.0479C10.2998 29.2675 9.52424 28.4975 8.70441 27.7698C8.08699 27.2391 7.5089 27.2135 7.1529 27.6376C6.79689 28.0617 6.96462 28.614 7.55592 29.1527C8.10514 29.6466 8.62026 30.1222 9.12524 30.6583C10.001 31.5702 11.0275 32.3214 12.1005 32.9436C14.11 34.1145 16.1659 35.1564 18.3849 35.8903C20.1323 36.48 21.9081 36.975 23.6961 37.3226C23.9971 37.3748 24.3083 37.3665 24.6115 37.3319C24.9407 37.2894 25.1539 37.0523 25.1966 36.7234C25.2313 36.3681 25.0833 36.0683 24.7503 35.9109C24.5798 35.819 24.3731 35.7956 24.1925 35.7643C22.0171 35.3619 19.9548 34.5805 17.9004 33.8254C15.8461 33.0703 13.973 31.9729 12.118 30.8412C11.7951 30.6233 11.4904 30.3711 11.1436 30.0742L11.1357 30.0479Z" fill="#9A6923"/>
<path d="M15.8358 51.6311C14.9619 52.0401 14.1503 52.3727 13.3628 52.7843C13.0915 52.9241 12.8784 53.1612 12.93 53.5189C12.9896 53.903 13.1536 54.2554 13.5409 54.3101C13.8942 54.3465 14.3178 54.3328 14.6753 54.1955C16.3948 53.4723 18.0723 52.7044 19.7918 51.9812C22.0617 51.0046 24.3397 50.0544 26.7156 49.333C27.8122 49 28.8587 48.596 29.9394 48.2105C30.4616 48.0519 30.687 47.6674 30.5773 47.2124C30.4655 46.8441 30.0324 46.5448 29.6168 46.5848C29.4261 46.614 29.2433 46.6694 29.0605 46.7249C27.5723 47.1768 26.0761 47.6024 24.6039 48.1069C22.9568 48.6932 21.3497 49.411 19.7448 50.042C18.9855 50.3588 18.192 50.6571 17.4247 50.9476C16.9446 51.1508 16.4645 51.354 15.9061 51.5811L15.8358 51.6311Z" fill="#9A6923"/>
<path d="M18.1775 41.1241C15.8977 40.7535 13.652 40.4012 11.4324 40.041C11.0712 39.9783 10.718 39.9419 10.3546 39.9661C9.9049 39.9877 9.6395 40.2407 9.54244 40.6723C9.44538 41.104 9.67176 41.38 10.0127 41.5637C10.2173 41.674 10.432 41.7237 10.6467 41.7734C12.9867 42.1545 15.3187 42.5093 17.6588 42.8904C19.6636 43.2009 21.6888 43.3903 23.7204 43.3192C24.395 43.2867 25.0615 43.228 25.7201 43.1429C26.0232 43.1083 26.3786 43.0579 26.5817 42.8813C26.8108 42.6968 26.9841 42.3282 27.0086 42.0335C27.0252 41.7124 26.7104 41.5208 26.3832 41.4765C26.2287 41.4372 26.0481 41.4059 25.8835 41.4271C23.9397 41.7875 22.019 41.5664 20.0722 41.3532C19.452 41.283 18.8579 41.2048 18.1775 41.1241Z" fill="#9A6923"/>
<path d="M18.9767 69.2064C20.5616 67.2888 22.1445 65.458 24.048 63.932C24.7354 63.3786 25.523 62.9671 26.2946 62.5029C26.8994 62.1469 27.151 61.7545 26.9912 61.2285C26.8155 60.6499 26.3622 60.4715 25.8277 60.7774C24.3388 61.603 22.9262 62.4916 21.6536 63.6536C20.2744 64.9342 18.9975 66.2699 17.8469 67.7397C17.0443 68.759 16.2917 69.8494 15.5312 70.9134C15.326 71.1768 15.1629 71.4848 15.052 71.7771C14.8665 72.293 15.0023 72.7402 15.3853 72.9686C15.7683 73.197 16.2985 73.0647 16.6124 72.596C16.9525 72.1193 17.2504 71.5979 17.5643 71.1291C17.995 70.4813 18.4677 69.8781 18.9687 69.1801L18.9767 69.2064Z" fill="#9A6923"/>
<path d="M18.8464 60.5129C20.7275 59.1949 22.5462 57.9532 24.391 56.7035C24.7246 56.4873 25.1264 56.3079 25.4941 56.11C25.9923 55.8726 26.1576 55.4777 25.9696 55.0464C25.7896 54.6414 25.268 54.4263 24.8481 54.64C24.2012 54.9514 23.5543 55.2627 22.9314 55.6529C20.8697 56.9397 18.7398 58.1897 16.8863 59.7867C15.9857 60.5772 15.1613 61.4308 14.3107 62.2924C13.9649 62.6559 13.9781 63.169 14.2806 63.508C14.5832 63.8471 15.1613 63.8726 15.5572 63.58C15.7422 63.4377 15.893 63.277 16.0438 63.1163C16.9545 62.2652 17.8733 61.4404 18.8544 60.5392L18.8464 60.5129Z" fill="#9A6923"/>
<path d="M49.2342 6.75871C49.5932 6.90822 49.9182 7.03936 50.2192 7.09159C51.9471 7.42876 53.6749 7.76592 55.3947 8.07679C56.0911 8.21007 56.7635 8.26444 57.4518 8.37142C57.9857 8.43914 58.2489 8.27302 58.3881 7.88605C58.5011 7.507 58.263 7.00474 57.896 6.82893C57.6994 6.74498 57.4586 6.7032 57.2439 6.65349C55.0184 6.18015 52.7749 5.74104 50.5574 5.294C50.4029 5.25473 50.2223 5.22339 50.0678 5.18413C49.6543 5.13731 49.291 5.16146 49.0394 5.55385C48.7697 5.98047 48.8554 6.35662 49.2262 6.73241L49.2342 6.75871Z" fill="#9A6923"/>
<path d="M49.3006 65.4856C49.8209 66.4479 50.3367 66.5499 50.9421 65.8202C52.0906 64.4373 53.2652 63.0465 54.4057 61.6373C54.5485 61.4502 54.7095 61.229 54.8102 60.9973C54.9675 60.5761 54.8216 60.1895 54.4726 59.9795C54.0976 59.7774 53.732 59.8884 53.4746 60.1676C52.1956 61.5902 50.9246 63.039 49.6876 64.5062C49.4744 64.7433 49.4397 65.0986 49.3006 65.4856Z" fill="#9A6923"/>
<path d="M44.7185 12.2666C46.2353 12.754 47.6839 13.2047 49.1405 13.6817C49.5177 13.7969 49.8731 13.7465 50.0804 13.3963C50.3139 13.0381 50.2362 12.6882 49.9496 12.4018C49.8153 12.2415 49.6028 12.1049 49.4142 12.0473C47.6928 11.4496 45.9373 10.8336 44.224 10.2622C43.5559 10.0342 43.2948 10.1134 43.0432 10.5058C42.7032 10.9825 42.8027 11.4981 43.3402 11.7658C43.7494 11.9863 44.2129 12.1041 44.7265 12.2929L44.7185 12.2666Z" fill="#9A6923"/>
<path d="M62.6642 64.0419C62.8636 63.6654 63.0528 63.3494 63.1818 63.023C63.2825 62.7913 63.3833 62.5596 63.3897 62.2991C63.4346 61.8833 63.2343 61.5994 62.823 61.4657C62.4378 61.3241 62.1064 61.4535 61.907 61.83C61.8164 62.0012 61.7258 62.1723 61.6352 62.3435C61.0212 63.4205 60.389 64.5317 59.775 65.6087C59.6039 65.8904 59.4408 66.1985 59.3038 66.4987C59.04 67.0384 59.1475 67.5803 59.5646 67.8271C60.0158 68.0923 60.5561 67.8995 60.8642 67.3176C61.4521 66.2485 62.0321 65.1531 62.6301 64.0235L62.6642 64.0419Z" fill="#9B6A23"/>
<path d="M98.4023 25.8419C99.3002 25.5118 99.5422 24.8063 99.5616 24.0248C99.557 23.1644 99.247 22.4254 98.507 21.9607C98.0137 21.6508 97.4335 21.7121 97.0274 22.0652C96.4364 22.5607 96.2199 23.6319 96.5596 24.5629C96.8914 25.4676 97.4086 25.8564 98.4103 25.8682L98.4023 25.8419Z" fill="#070502"/>
<path d="M41.0924 64.186C40.9447 64.9203 41.0507 65.1754 41.4518 65.3696C41.9132 65.5742 42.2004 65.487 42.6267 65.0128C43.4352 64.1066 44.2255 63.2346 45.0079 62.3363C45.2653 62.0571 45.4726 61.7068 45.6198 61.3462C45.8133 60.8565 45.5992 60.4332 45.1378 60.2285C44.6844 60.0502 44.4734 60.2005 44.1254 60.6509C43.6345 61.2883 43.1016 61.881 42.5766 62.5C42.0879 63.0506 41.6174 63.5669 41.0844 64.1597L41.0924 64.186Z" fill="#9B6A23"/>
<path d="M42.2022 16.5641C41.2091 16.2049 40.2502 15.8641 39.3072 15.5759C38.9561 15.4527 38.5506 15.4322 38.1531 15.4379C37.7897 15.4621 37.5164 15.6888 37.4555 16.0519C37.3766 16.4494 37.5588 16.7675 37.9258 16.9433C38.1906 17.064 38.4996 17.1425 38.7825 17.229C39.9482 17.5932 41.1139 17.9574 42.2796 18.3217C42.3739 18.3505 42.4762 18.4056 42.5966 18.4265C43.0261 18.5259 43.4097 18.3807 43.5829 18.0121C43.7199 17.712 43.5863 17.178 43.2454 16.9942C42.9305 16.8026 42.5874 16.7057 42.1942 16.5378L42.2022 16.5641Z" fill="#9B6A23"/>
<path d="M93.4327 29.1033C93.1725 29.843 93.3024 30.177 93.8842 30.4025C94.0808 30.4865 94.3136 30.502 94.5284 30.5517C95.5098 30.6846 96.4156 30.3808 97.2714 30.006C97.5767 29.8846 97.8602 29.5974 98.0574 29.3077C98.3713 28.8389 98.2015 28.3734 97.698 28.1241C97.5957 28.069 97.4753 28.0481 97.381 28.0193C95.9361 27.7686 94.6488 28.1308 93.4508 29.069L93.4327 29.1033Z" fill="#FC608A"/>
<path d="M36.3793 21.1475C35.7692 21.0167 35.2295 20.8359 34.7037 20.7944C33.9109 20.7192 33.4722 21.3407 33.7582 22.0008C33.8881 22.3348 34.1892 22.387 34.4721 22.4735C35.3309 22.6723 36.1977 22.8975 37.0385 23.1306C37.3214 23.217 37.6123 23.3298 37.885 23.4768C38.3805 23.6998 38.8845 23.5755 39.102 23.1647C39.3376 22.7197 39.1358 22.149 38.6142 21.9339C38.1529 21.7293 37.6632 21.6194 37.2099 21.4411C36.9531 21.3467 36.6963 21.2523 36.3532 21.1554L36.3793 21.1475Z" fill="#9A6923"/>
<path d="M71.7318 57.8413C71.365 58.6996 71.0345 59.4894 70.704 60.2792C70.567 60.5794 70.43 60.8795 70.3271 61.198C70.1858 61.6718 70.3498 62.0242 70.6908 62.2079C71.0318 62.3917 71.5699 62.2857 71.8034 61.9276C72.0006 61.6379 72.1557 61.3035 72.3108 60.9691C72.5949 60.3083 72.8711 59.6212 73.095 58.9499C73.1877 58.6919 73.2123 58.3972 73.1927 58.1446C73.1672 57.7789 72.9488 57.5292 72.5795 57.4403C72.2103 57.3513 71.9311 57.4648 71.7057 57.8493L71.7318 57.8413Z" fill="#9B6A23"/>
</svg>
