<svg width="157" height="126" viewBox="0 0 157 126" fill="none" xmlns="http://www.w3.org/2000/svg">
<g clip-path="url(#clip0_36_1855)">
<path d="M7.89827 77.3956C7.24214 75.9945 6.51647 74.6129 5.96764 73.1667C5.21667 71.2238 5.26424 69.2358 5.84417 67.2177C6.51575 64.8896 7.54468 62.7602 8.70071 60.6549C10.5034 57.3953 13.0166 54.7287 15.7858 52.2743C18.1594 50.1705 20.7393 48.3678 23.4601 46.6899C27.0753 44.4613 30.9364 42.6721 34.954 41.2728C38.0238 40.1849 41.1411 39.3678 44.3633 38.8654C47.3829 38.39 50.3882 38.3374 53.4548 38.6566C56.3246 38.9713 59.1945 39.286 62.0285 39.7903C63.0771 39.989 64.1855 39.8717 65.2461 40.0072C67.0176 40.2119 68.7335 40.5371 70.3715 41.2731C71.8566 41.9474 73.3177 42.7481 74.906 43.5729C76.4859 44.7889 77.9189 45.9117 79.4095 47.0781C79.5643 47.3038 79.7052 47.4287 79.8341 47.6169C80.4847 48.5259 81.5508 49.1535 81.7621 50.4703C81.1058 51.3281 80.4357 52.085 79.8867 52.8976C77.8478 56.0142 75.3484 58.7817 72.5156 61.224C69.7961 63.5896 66.9735 65.8047 63.8355 67.6C61.1326 69.183 58.416 70.6652 55.5446 71.9217C51.4114 73.7575 47.1156 75.2351 42.7269 76.335C38.205 77.4424 33.6556 78.3481 29.0034 78.5796C26.012 78.7329 23.0126 78.7539 20.0193 78.7432C18.5733 78.7311 17.1453 78.6241 15.7292 78.454C13.6339 78.2206 11.5128 77.9496 9.42946 77.653C8.87731 77.6139 8.3749 77.4859 7.89827 77.3956ZM51.3937 63.0815C51.3794 63.5044 51.22 63.998 51.3885 64.3246C51.7256 64.9777 51.4709 65.4533 51.0435 65.7979C50.314 66.3472 49.5785 66.928 48.7777 67.3328C44.7098 69.3447 40.4044 70.5258 35.8734 70.813C35.6073 70.8281 35.3153 70.8055 35.0371 70.8837C34.8663 70.9168 34.6535 71.1711 34.6673 71.272C34.6949 71.4736 34.9072 71.743 35.0343 71.7671C35.5487 71.8318 36.0751 71.8334 36.5756 71.7973C42.3008 71.1143 47.816 69.8023 52.4416 66.0628C52.6976 66.275 52.9417 66.5505 53.2415 66.7055C53.4519 66.8108 53.742 66.6694 54.0082 66.6543C53.9866 66.4211 53.9967 66.1938 53.9314 66.0178C53.8918 65.8793 53.7071 65.8116 53.598 65.6927C52.9689 65.0169 52.2584 64.424 52.1899 63.3961C52.1821 63.2637 51.781 63.1222 51.67 62.8392C52.2424 62.4239 52.8407 62.0462 53.3298 61.5496C53.5683 61.3329 53.6641 60.8273 53.5969 60.4871C53.4901 60.0086 53.0315 59.8234 52.5567 59.8971C51.2396 60.0732 50.0077 60.4945 49.0037 61.45C48.6021 61.8323 48.3474 62.3078 48.6131 62.8165C48.9046 63.3628 49.431 63.3643 49.9753 63.2711C50.4998 63.1086 51.0064 63.0409 51.3937 63.0815ZM38.5555 63.9552C38.7185 63.7897 38.9391 63.6678 39.0763 63.4646C39.8579 62.4669 39.6784 61.1561 38.6303 60.4337C37.5505 59.7052 36.0703 60.0468 35.3979 61.1634C34.7315 62.2484 35.1316 63.4373 36.3307 64.0574C37.0454 64.4548 37.7228 64.354 38.5555 63.9552ZM46.3731 58.1361C46.1506 58.0939 45.9084 57.9825 45.68 57.972C44.6512 57.8425 43.8402 58.4745 43.579 59.5054C43.3556 60.5107 43.9187 61.5341 44.9116 61.8532C45.8409 62.1602 46.8504 61.6967 47.2902 60.7652C47.6743 59.9541 47.4428 59.0918 46.3731 58.1361ZM37.1161 67.3819C36.8163 67.2268 36.5087 66.9394 36.179 66.9424C34.6377 66.9122 33.3699 67.5231 32.4193 68.718C31.9002 69.3726 32.398 70.2199 33.2601 70.1868C34.6167 70.1493 35.8606 69.6648 36.813 68.6339C37.0258 68.3796 37.0461 67.9251 37.1161 67.3819Z" fill="#C2FEA1"/>
<path d="M74.3318 31.2783C74.3677 31.0887 74.4732 30.8795 74.4773 30.6838C74.3965 27.984 75.8841 26.0397 77.6456 24.2128C80.0096 21.8126 83.0003 20.4478 86.1277 19.4035C91.542 17.5813 97.1419 17.0383 102.85 17.138C105.641 17.1757 108.452 17.2827 111.228 17.7434C114.322 18.2642 117.452 18.5955 120.473 19.3316C126.825 20.8955 132.957 23.1051 138.601 26.499C141.378 28.1711 143.948 30.0659 146.087 32.501C147.006 33.559 147.744 34.8774 148.354 36.1716C149.107 37.7549 149.646 39.4284 150.242 41.1455C149.42 41.317 149.294 41.9807 149.097 42.4999C148.659 43.5955 147.933 44.4728 146.84 44.855C145.034 45.5276 143.234 46.1686 141.343 46.5959C138.319 47.2669 135.258 47.4399 132.157 47.4743C128.562 47.5132 124.991 47.4258 121.41 47.0418C120.381 46.9124 119.346 46.8145 118.311 46.7166C116.248 46.4893 114.172 46.3251 112.127 46.003C108.264 45.3692 104.4 44.5714 100.676 43.3748C99.1236 42.8841 97.515 42.5138 95.9742 41.9599C93.1725 40.9379 90.3828 39.8527 87.6368 38.7103C86.1715 38.1053 84.7302 37.3738 83.3206 36.6483C80.565 35.2095 77.6404 33.9678 75.5212 31.6019C75.1423 31.17 74.7808 31.1669 74.3318 31.2783ZM104.842 36.5035C102.964 35.2964 101.418 33.7267 100.193 31.8575C99.9348 31.4813 99.7548 30.6942 99.0751 31.1547C98.5404 31.5444 99.0723 32.0381 99.3301 32.4143C101.776 36.1843 105.233 38.6074 109.582 39.628C114.873 40.8924 119.77 39.8888 124.309 36.9514C124.643 36.7528 124.983 36.5226 125.285 36.3179C125.605 36.5422 125.803 36.7107 126.045 36.8221C126.587 37.0885 127.135 37.3233 127.695 37.4949C127.88 37.5626 128.15 37.352 128.403 37.2361C128.28 37.0164 128.125 36.7906 127.996 36.6025C127.939 36.5588 127.843 36.5408 127.786 36.4971C126.215 36.1013 125.271 35.0056 124.501 33.6813C124.301 33.3487 124.144 32.9589 123.868 32.6774C123.734 32.5209 123.404 32.5239 123.187 32.4502C123.145 32.6714 123.104 32.8926 123.068 33.0822C123.121 33.3215 123.282 33.5156 123.411 33.7038C123.76 34.2937 124.115 34.8521 124.458 35.4736C124.301 35.6075 124.207 35.7535 124.094 35.8303C118.523 39.5216 112.665 40.212 106.514 37.4095C105.998 37.1808 105.517 36.7624 105.234 36.3485C105.678 36.4328 106.117 36.5487 106.542 36.5638C106.967 36.5788 107.436 36.5367 107.828 36.3817C108.402 36.1304 108.522 35.4984 107.998 35.1372C107.237 34.633 106.396 34.2116 105.402 34.4162C104.618 34.5621 104.401 35.0121 104.726 35.7284C104.811 35.9737 104.89 36.2506 104.81 36.4975L104.842 36.5035ZM109.749 34.0612C110.194 33.6218 110.729 33.2321 111.059 32.7054C111.501 31.9379 111.134 30.919 110.382 30.5473C109.597 30.1695 108.636 30.3801 107.978 31.0739C107.32 31.7676 107.114 32.6781 107.509 33.3749C107.975 34.2161 108.712 34.323 109.749 34.0612ZM115.613 35.0744C116.209 35.0563 116.682 34.8186 117.064 34.3671C117.702 33.6041 117.683 32.4875 117.011 31.8689C116.338 31.2504 115.323 31.2217 114.607 31.8718C114.017 32.382 113.732 33.0155 113.912 33.8026C114.066 34.5521 114.642 34.9885 115.613 35.0744ZM119.885 35.982C119.009 35.3906 118.078 35.4432 117.096 35.5846C116.622 35.6583 116.097 35.8208 116.142 36.4514C116.162 37.0443 116.64 37.2987 117.123 37.3574C117.834 37.4267 118.563 37.4011 119.272 37.3063C119.943 37.2372 120.067 36.9332 119.885 35.982Z" fill="#FEE47C"/>
<path d="M140.693 103.175C140.74 105.705 140.285 108.107 138.927 110.239C137.568 112.372 135.566 113.727 133.133 114.412C132.437 114.608 131.768 114.841 131.072 115.036C125.978 116.559 120.74 117.105 115.426 117.179C112.554 117.224 109.686 117.073 106.81 116.79C103.515 116.46 100.2 116.061 96.9455 115.346C94.8921 114.892 92.8429 114.241 90.7955 113.755C87.5586 112.945 84.4512 111.8 81.3994 110.534C74.8691 107.823 68.844 104.357 63.7262 99.2297C64.5133 98.7241 65.3141 98.3193 66.115 97.9146C67.4584 97.2525 68.7759 96.5527 70.1769 95.9343C71.0384 96.4249 71.8245 96.9668 72.6405 97.3506C76.651 99.2891 80.9323 100.493 85.2992 101.419C90.0475 102.417 94.7778 103.51 99.6279 103.971C101.989 104.189 104.327 104.534 106.645 104.809C108.549 105.006 110.474 105.273 112.365 105.369C115.296 105.532 118.284 105.574 121.233 105.642C125.845 105.796 130.434 105.552 134.979 104.842C137.011 104.54 138.934 104.119 140.693 103.175Z" fill="#FEB8BC"/>
<path d="M8.04717 77.6131C8.6311 77.6582 9.13351 77.7862 9.64789 77.8509C11.7372 78.1159 13.8523 78.4185 15.9476 78.6519C17.3697 78.7904 18.8235 78.9349 20.2377 78.941C23.2311 78.9517 26.2244 78.9624 29.2219 78.7775C33.88 78.5143 38.4234 77.6402 42.9453 76.5328C47.3658 75.439 51.6238 73.9869 55.763 72.1195C58.6026 70.8571 61.357 69.3493 64.0539 67.7978C67.1979 65.971 70.0206 63.7559 72.7341 61.4219C75.5351 58.9735 78.0345 56.2061 80.1051 53.0955C80.6541 52.2829 81.3242 51.5259 82.0758 50.6862C82.902 50.8428 83.2888 51.4071 83.6378 51.9971C84.5757 53.6481 85.2038 55.3712 85.176 57.4285C84.9466 58.4653 84.7351 59.4074 84.4542 60.3691C84.1281 60.7001 83.8716 61.0116 83.615 61.3231C82.3264 62.9123 81.1271 64.5511 79.7234 66.0529C75.0866 71.0671 69.3945 74.7027 63.3671 77.8492C58.7705 80.2192 54.0174 82.1995 49.076 83.7839C42.3027 86.0033 35.4009 87.5109 28.2915 88.0297C23.9511 88.353 19.6431 88.1587 15.4014 87.093C14.0212 86.7332 12.6651 86.2471 11.2969 85.8241C8.82128 84.4711 7.73094 82.2347 7.45344 79.5303C7.39454 78.7989 7.29789 78.0931 8.04717 77.6131Z" fill="#90E264"/>
<path d="M84.5039 60.2803C84.7154 59.3382 84.9208 58.4277 85.2455 57.4089C85.5177 57.3623 85.6826 57.3608 85.8355 57.4225C87.968 58.154 90.1324 58.8915 92.265 59.623C93.1625 59.9241 94.1038 60.1679 95.0132 60.4057C97.3346 61.0093 99.6381 61.7077 101.983 62.1849C104.615 62.7163 107.282 63.058 109.931 63.4946C110.922 63.6497 111.895 63.8995 112.892 64.023C114.467 64.2232 116.06 64.3287 117.647 64.4657C119.552 64.6629 121.45 64.8918 123.367 65.0258C125.353 65.1403 127.351 65.1916 129.318 65.2368C132.273 65.2731 135.223 65.341 138.165 65.2764C140.675 65.2284 143.178 65.0479 145.675 64.8991C145.442 66.1316 145.139 67.3837 144.873 68.6102C144.837 68.7998 144.7 69.003 144.765 69.179C144.929 70.225 144.289 70.8239 143.591 71.3792C142.435 72.273 141.22 73.1233 139.861 74.0442C136.645 75.7265 133.365 76.7091 129.96 77.3079C125.909 78.0135 121.777 78.2781 117.666 78.0883C114.5 77.9467 111.346 77.7418 108.244 77.0885C105.65 76.5316 103.083 76.0122 100.507 75.3605C98.7139 74.9225 96.9764 74.364 95.2509 73.7424C93.3983 73.0967 91.6014 72.3306 89.8106 71.5329L90.2897 69.0046C90.3555 68.657 90.3459 68.3605 89.9628 68.1242C90.0228 65.5493 87.9409 63.6816 85.5472 63.9809C85.5883 62.5483 85.1126 61.4105 84.5357 60.2863L84.5039 60.2803Z" fill="#FFE57C"/>
<path d="M74.2622 31.2978C74.7808 31.1669 75.1423 31.17 75.5272 31.5703C77.6721 33.9738 80.565 35.2095 83.3266 36.6167C84.7362 37.3422 86.1775 38.0736 87.6428 38.6787C90.3888 39.8211 93.1785 40.9063 95.9802 41.9283C97.521 42.4822 99.1295 42.8525 100.682 43.3431C104.437 44.5458 108.27 45.3376 112.133 45.9713C114.178 46.2935 116.254 46.4576 118.317 46.685C119.346 46.8145 120.381 46.9124 121.416 47.0102C124.991 47.4258 128.568 47.4816 132.163 47.4427C135.232 47.4022 138.325 47.2353 141.349 46.5643C143.202 46.1626 145.04 45.496 146.846 44.8234C147.945 44.4096 148.665 43.5638 149.103 42.4683C149.3 41.9491 149.432 41.2538 150.3 41.1892C150.999 41.3216 151.163 41.8438 151.371 42.3089C152.507 44.6521 152.509 47.075 151.883 49.51C151.506 50.9773 150.451 51.8576 148.903 52.3827C148.291 52.6596 147.844 52.935 147.325 53.0659C141.29 54.3448 135.173 55.1827 128.966 55.2832C126.125 55.3342 123.289 55.1896 120.467 55.1458C117.219 55.087 114 54.706 110.798 54.2303C108.302 53.8555 105.797 53.3482 103.331 52.8153C101.716 52.4766 100.102 52.1379 98.5492 51.6472C95.4813 50.6403 92.4194 49.6017 89.3755 48.4683C84.9814 46.8172 80.8222 44.6213 76.8003 42.2222C76.5065 42.0356 76.1689 41.9062 75.8314 41.7767C75.0693 41.1085 74.339 40.4463 73.5709 39.8097C71.1893 37.7869 71.2535 35.0164 72.8645 32.7681C73.2205 32.279 73.7354 31.82 74.2622 31.2978Z" fill="#F6CD6B"/>
<path d="M89.8045 71.5645C91.6133 72.2674 93.442 73.0395 95.2628 73.6792C96.9883 74.3008 98.7575 74.8653 100.519 75.2973C103.095 75.949 105.662 76.4684 108.256 77.0253C111.358 77.6786 114.512 77.8835 117.678 78.0251C121.789 78.2149 125.921 77.9503 129.972 77.2447C133.377 76.6459 136.657 75.6633 139.803 74.0006C139.99 74.2323 140.031 74.5348 140.198 74.6974C141.662 76.3498 142.508 78.3108 143.178 80.3365C143.756 82.1484 143.865 84.0025 143.456 85.9875C142.093 87.1041 140.654 87.7481 139.092 88.1724C136.033 89.0331 132.892 89.4528 129.736 89.6076C125.217 89.8316 120.726 89.7336 116.231 89.3074C113.647 89.047 111.063 88.7865 108.49 88.2987C107.759 88.1603 106.972 88.1422 106.235 88.0353C105.848 87.9946 105.435 87.9163 105.06 87.8125C104.055 87.5566 103.056 87.2691 102.045 87.0448C101.098 86.8326 100.127 86.7467 99.2292 86.4457C96.8622 85.7352 94.5013 84.9932 92.19 84.1624C89.9423 83.3436 87.7683 82.3096 85.8052 80.8572C86.0719 80.3185 86.2631 79.8309 86.5118 79.3869C87.9243 76.9701 88.9537 74.317 89.8045 71.5645Z" fill="#FEB8BC"/>
<path d="M89.8224 71.4697C88.9597 74.2854 87.9302 76.9385 86.4997 79.4501C86.251 79.8941 86.0281 80.3756 85.7177 80.9716C84.5741 82.49 83.5498 83.9001 82.4998 85.2725C81.756 86.2446 80.8971 87.1295 80.046 88.1468C79.0042 89.1279 78.044 90.0263 77.0082 90.9759C75.1776 92.2986 73.4165 93.6018 71.6554 94.905C71.1585 95.2691 70.6676 95.6017 70.2084 95.9403C68.8651 96.6024 67.5475 97.3021 66.2042 97.9642C65.4033 98.369 64.5707 98.7678 63.7261 99.2297C62.5895 99.6691 61.4709 100.014 60.4098 100.402C57.6937 101.36 54.8389 101.834 52.0436 102.516C46.6992 103.795 41.2463 104.431 35.7818 104.607C33.2334 104.68 30.6692 104.489 28.1309 104.336C26.5062 104.224 24.8737 103.98 23.2592 103.642C20.481 103.017 17.8004 102.051 15.5537 100.184C14.472 99.2919 13.5096 98.2911 13.2389 96.7665C17.179 97.5132 21.0261 97.8821 24.9391 97.9034C32.2387 97.9444 39.3803 96.9079 46.4571 95.1715C52.9836 93.5601 59.2822 91.4144 65.3828 88.5764C68.9219 86.9227 72.4275 85.0989 75.6692 82.9305C77.7024 81.5807 79.6325 80.0804 81.5309 78.574C85.1009 75.7148 88.0438 72.3439 90.046 68.2055C90.4471 68.347 90.4567 68.6435 90.3908 68.9911C90.1458 69.7631 89.9901 70.5848 89.8224 71.4697Z" fill="#C2FEA1"/>
<path d="M90.0065 68.0671C87.9864 72.3003 85.0435 75.6712 81.4734 78.5304C79.5691 80.0683 77.645 81.537 75.6117 82.8868C72.3383 85.0493 68.8705 86.8475 65.3254 88.5328C59.2565 91.3768 52.9202 93.5481 46.3997 95.1279C39.3547 96.8702 32.1812 97.9008 24.8816 97.8597C20.9687 97.8385 17.1336 97.4063 13.1995 96.6281C12.173 96.1389 11.3114 95.6483 10.6986 94.7137C9.46499 92.7121 10.4819 90.6459 12.3553 90.3134C12.4506 90.3314 12.5957 90.2607 12.8739 90.1825C13.3427 90.1404 13.6148 90.0937 13.875 90.1103C16.1909 90.2218 18.5008 90.3649 20.8168 90.4764C26.0067 90.7069 31.1276 90.4332 36.2826 89.806C43.5592 88.926 50.6439 87.3221 57.5347 84.8303C64.6341 82.2798 71.2675 78.888 77.086 74.065C79.7815 71.8258 82.1377 69.2932 84.0135 66.3421C84.5247 65.555 85.0677 64.774 85.6107 63.993C87.9847 63.6244 90.0348 65.4861 90.0065 68.0671Z" fill="#90E264"/>
<path d="M70.2342 95.9779C70.6358 95.5957 71.1328 95.2315 71.6237 94.899C73.3848 93.5958 75.1459 92.2926 77.0658 91.0195C79.0455 91.6893 80.8741 92.4615 82.7507 92.9808C86.2178 93.9652 89.6969 94.8864 93.206 95.6495C96.016 96.2802 98.8739 96.6581 101.752 97.1052C104.794 97.5509 107.837 97.9965 110.897 98.3473C114.091 98.6906 117.259 98.9962 120.457 99.1439C123.686 99.2976 126.914 99.2872 130.148 99.2452C131.993 99.2348 133.816 98.9911 135.599 98.4449C136.856 98.0612 137.685 97.3344 137.937 96.007C137.973 95.8174 138.009 95.6278 138.051 95.4066C138.834 95.0966 139.429 95.6023 139.877 96.0146C140.967 97.0396 141.786 98.2751 142.057 99.7996C142.268 101.116 141.951 102.268 140.737 103.118C138.902 104.113 136.985 104.502 135.048 104.823C130.497 105.564 125.915 105.776 121.302 105.623C118.359 105.523 115.403 105.487 112.434 105.35C110.511 105.247 108.613 105.019 106.714 104.79C104.359 104.54 102.021 104.195 99.6972 103.951C94.8472 103.49 90.1169 102.397 85.3686 101.399C81.0334 100.48 76.7461 99.3072 72.7099 97.331C71.8561 96.9728 71.0958 96.4686 70.2025 95.9719L70.2342 95.9779Z" fill="#E07E83"/>
<path d="M145.794 64.7907C143.228 64.9591 140.719 65.1712 138.208 65.2192C135.267 65.2838 132.317 65.2159 129.361 65.1796C127.357 65.16 125.391 65.1147 123.411 64.9686C121.494 64.8346 119.595 64.6058 117.691 64.4085C116.104 64.2715 114.511 64.1661 112.936 63.9658C111.939 63.8424 110.966 63.5925 109.975 63.4374C107.326 63.0009 104.652 62.6907 102.027 62.1277C99.6817 61.6506 97.3783 60.9521 95.0569 60.3486C94.1474 60.1107 93.2061 59.8669 92.3086 59.5658C90.1383 58.8599 88.0117 58.0968 85.8791 57.3653C85.7262 57.3036 85.5613 57.3051 85.3071 57.2569C85.2156 55.308 84.5936 53.5533 83.6497 51.9339C83.3006 51.344 82.9456 50.7856 82.1374 50.5342C81.8129 49.2942 80.7468 48.6666 80.0962 47.7576C79.993 47.6071 79.8263 47.4445 79.7669 47.2368C81.538 47.9653 83.2216 48.8082 84.9669 49.499C87.7188 50.6098 90.4827 51.6574 93.2646 52.6101C95.2443 53.2799 97.26 53.7601 99.2636 54.3035C101.394 54.8709 103.513 55.5016 105.668 55.9427C108.68 56.5463 111.749 57.0295 114.791 57.4752C117.034 57.8019 119.32 58.0714 121.586 58.2716C124.017 58.4704 126.454 58.6376 128.877 58.7039C134.446 58.8427 140.018 58.6217 145.436 57.1276C146.233 56.9185 147.149 56.601 148.004 57.1232C148.888 57.8471 148.766 58.8389 148.624 59.7614C148.414 60.8675 148.103 61.9872 147.798 63.0752C147.543 64.0745 146.665 64.3664 145.794 64.7907Z" fill="#F6CD6B"/>
<path d="M80.0959 88.058C80.8972 87.1295 81.7303 86.207 82.4682 85.2665C83.55 83.9001 84.5743 82.49 85.6681 81.0604C87.7246 82.3668 89.8926 83.4324 92.1463 84.2195C94.4576 85.0504 96.8186 85.7924 99.1856 86.5029C100.089 86.7723 101.086 86.8958 102.002 87.102C103.012 87.3263 104.011 87.6138 105.016 87.8697C105.391 87.9735 105.81 88.0202 106.192 88.0925C106.928 88.1993 107.715 88.2174 108.446 88.3559C111.02 88.8437 113.572 89.0981 116.187 89.3646C120.676 89.8224 125.199 89.9264 129.692 89.6648C132.848 89.51 135.989 89.0903 139.049 88.2296C140.61 87.8053 142.049 87.1613 143.395 86.1395C144.562 86.7536 144.694 87.7935 144.598 88.8228C144.477 90.5023 143.84 91.953 142.135 92.6121C140.645 93.1809 139.129 93.7121 137.474 94.2823C136.924 94.4072 136.518 94.4614 136.139 94.5532C131.722 95.4514 127.275 95.8199 122.792 95.8542C118.67 95.8916 114.572 95.8026 110.451 95.3163C107.2 94.9294 103.931 94.6373 100.704 94.1239C96.1996 93.4013 91.7553 92.3627 87.4146 90.9508C84.9385 90.1215 82.4426 89.2229 80.0959 88.058Z" fill="#E07E83"/>
<path d="M85.5909 63.9238C85.0935 64.8116 84.5188 65.5866 84.0393 66.3797C82.1634 69.3308 79.8073 71.8635 77.1118 74.1027C71.2873 78.9572 64.6599 82.3174 57.5605 84.8679C50.6696 87.3597 43.585 88.9636 36.3084 89.8436C31.1912 90.4453 26.0325 90.7445 20.8425 90.514C18.5266 90.4025 16.2167 90.2594 13.9008 90.1479C13.6148 90.0937 13.3367 90.172 12.9692 90.2005C12.7371 89.8619 12.6759 89.4902 12.4954 89.2268C11.8627 88.223 11.4824 87.1033 11.2909 85.8557C12.677 86.1839 14.0272 86.7016 15.4133 87.0298C19.655 88.0955 23.9631 88.2899 28.3035 87.9665C35.4129 87.4477 42.3147 85.9401 49.088 83.7207C54.0037 82.0986 58.7825 80.156 63.379 77.786C69.4064 74.6395 75.0986 71.0039 79.7354 65.9897C81.1074 64.4819 82.3384 62.8491 83.627 61.2599C83.8836 60.9484 84.1401 60.6369 84.4662 60.3059C85.0809 61.4045 85.5565 62.5422 85.5909 63.9238Z" fill="#E2F8B1"/>
<path d="M148.048 57.066C147.181 56.607 146.296 56.9305 145.462 57.1652C140.018 58.6217 134.472 58.8803 128.903 58.7415C126.48 58.6752 124.037 58.5396 121.611 58.3092C119.345 58.109 117.059 57.8395 114.817 57.5128C111.775 57.0672 108.706 56.5839 105.694 55.9803C103.539 55.5392 101.42 54.9085 99.2894 54.3411C97.2857 53.7977 95.2383 53.3115 93.2904 52.6477C90.4767 51.6889 87.7128 50.6414 84.9926 49.5366C83.2474 48.8458 81.5698 47.9713 79.7471 47.1676C78.187 46.0207 76.748 44.9296 75.2634 43.7316C76.0642 43.3268 75.898 42.6406 75.8073 41.9031C76.1251 41.9634 76.4626 42.0928 76.7942 42.2538C80.8161 44.6529 84.9753 46.8488 89.3694 48.4999C92.4133 49.6333 95.4752 50.6719 98.5431 51.6788C100.096 52.1695 101.704 52.5398 103.325 52.8469C105.797 53.3482 108.302 53.8555 110.792 54.2619C113.987 54.7692 117.207 55.1502 120.46 55.1774C123.283 55.2212 126.125 55.3342 128.96 55.3148C135.135 55.2083 141.246 54.402 147.319 53.0975C147.8 52.9922 148.285 52.6912 148.821 52.4655C149.201 54.1089 148.888 55.5882 148.048 57.066Z" fill="#FFF3C5"/>
<path d="M80.0143 88.1407C82.4366 89.2545 84.9007 90.1471 87.4146 90.9508C91.7553 92.3627 96.1996 93.4013 100.704 94.1239C103.931 94.6373 107.2 94.9294 110.451 95.3163C114.541 95.7966 118.67 95.8916 122.792 95.8542C127.275 95.8198 131.754 95.4574 136.139 94.5532C136.518 94.4614 136.923 94.4072 137.404 94.3019C137.636 94.6405 137.773 94.9611 137.961 95.3569C137.983 95.5901 137.884 95.7677 137.842 95.9889C137.59 97.3163 136.761 98.0431 135.503 98.4268C133.721 98.973 131.898 99.2167 130.052 99.2271C126.819 99.2691 123.591 99.2795 120.361 99.1258C117.164 98.9782 113.996 98.6725 110.802 98.3292C107.742 97.9784 104.693 97.5644 101.656 97.0872C98.8105 96.6461 95.9526 96.2682 93.1108 95.6315C89.6017 94.8683 86.1226 93.9471 82.6555 92.9627C80.779 92.4434 78.9503 91.6713 77.0402 90.9819C77.9866 89.9827 78.9786 89.0903 79.9826 88.1347L80.0143 88.1407Z" fill="#FBD6D8"/>
<path d="M51.8387 63.1259C52.0432 63.2629 52.4502 63.3727 52.4521 63.5368C52.5206 64.5646 53.2311 65.1576 53.8602 65.8334C53.9693 65.9523 54.148 66.0516 54.1935 66.1584C54.2529 66.3661 54.2428 66.5934 54.2704 66.795C54.0042 66.8101 53.7201 66.9199 53.5037 66.8462C53.2039 66.6911 52.9598 66.4157 52.7038 66.2035C48.0524 69.9054 42.563 71.255 36.8378 71.938C36.3313 72.0057 35.8109 71.9725 35.2965 71.9078C35.1376 71.8777 34.9571 71.6143 34.9295 71.4126C34.9157 71.3118 35.1543 71.0951 35.2993 71.0244C35.5457 70.9401 35.8377 70.9627 36.1356 70.9537C40.6666 70.6665 44.972 69.4854 49.0399 67.4735C49.8407 67.0687 50.602 66.5255 51.3057 65.9386C51.7331 65.594 51.9878 65.1184 51.6507 64.4653C51.4822 64.1387 51.6416 63.6451 51.7254 63.2026C51.7949 63.1831 51.8387 63.1259 51.8387 63.1259Z" fill="#151009"/>
<path d="M38.7362 64.1787C37.9791 64.5263 37.3017 64.6271 36.581 64.2613C35.4136 63.6473 35.0135 62.4584 35.6482 61.3673C36.3206 60.2507 37.8007 59.9092 38.8806 60.6376C39.8969 61.354 40.1082 62.6708 39.3266 63.6685C39.1953 63.8401 38.9748 63.962 38.7362 64.1787Z" fill="#151009"/>
<path d="M46.7186 58.358C47.6612 59.2896 47.9305 60.1264 47.5464 60.9375C47.1383 61.8751 46.0971 62.3325 45.1678 62.0255C44.181 61.6748 43.6118 60.683 43.8352 59.6777C44.0647 58.6408 44.9074 58.0148 45.9362 58.1443C46.1646 58.1548 46.4128 58.2346 46.7186 58.358Z" fill="#151009"/>
<path d="M51.8885 63.0371L51.8009 63.1515C51.2944 63.2192 50.7878 63.2869 50.2753 63.3862C49.7309 63.4794 49.2046 63.4779 48.9131 62.9316C48.6474 62.4229 48.9021 61.9474 49.3037 61.5652C50.3017 60.6412 51.5078 60.1822 52.8567 60.0123C53.3255 59.9701 53.7901 60.1237 53.8969 60.6022C53.9641 60.9423 53.8683 61.448 53.6297 61.6647C53.1089 62.1553 52.4789 62.527 51.8885 63.0371Z" fill="#FA658D"/>
<path d="M37.392 67.6234C37.3081 68.0658 37.2878 68.5203 37.0373 68.8002C36.0909 69.7994 34.8788 70.29 33.4843 70.3531C32.5905 70.3802 32.1305 69.5073 32.6436 68.8843C33.5881 67.721 34.862 67.0785 36.4033 67.1086C36.733 67.1057 37.0406 67.3931 37.392 67.6234Z" fill="#FA658D"/>
<path d="M105.039 36.508C105.537 36.8316 105.992 37.2124 106.534 37.4788C112.684 40.2813 118.543 39.5908 124.114 35.8995C124.227 35.8228 124.352 35.6828 124.478 35.5429L123.43 33.773C123.307 33.5533 123.147 33.3591 123.087 33.1515C123.06 32.9498 123.165 32.7406 123.207 32.5194C123.455 32.5992 123.753 32.5902 123.888 32.7467C124.164 33.0281 124.321 33.4179 124.521 33.7505C125.29 35.0749 126.235 36.1705 127.806 36.5664C127.869 36.5784 127.996 36.6025 128.016 36.6717C128.177 36.8659 128.3 37.0856 128.423 37.3053C128.176 37.3896 127.906 37.6003 127.715 37.5642C127.155 37.3926 126.575 37.1517 126.065 36.8914C125.823 36.78 125.599 36.5738 125.305 36.3872C125.003 36.5918 124.669 36.7905 124.329 37.0207C119.79 39.9581 114.898 40.93 109.602 39.6972C105.221 38.6706 101.801 36.2219 99.3499 32.4835C99.1238 32.1133 98.5602 31.6137 99.0949 31.2239C99.7746 30.7634 99.9546 31.5505 100.212 31.9268C101.438 33.796 102.952 35.3597 104.963 36.5592C105.077 36.4824 105.071 36.514 105.071 36.514L105.039 36.508Z" fill="#151009"/>
<path d="M109.647 34.0748C108.712 34.323 107.975 34.2161 107.471 33.4005C107.076 32.7036 107.282 31.7932 107.94 31.0994C108.598 30.4057 109.56 30.1951 110.344 30.5728C111.096 30.9446 111.469 31.9318 111.021 32.7309C110.729 33.2321 110.194 33.6218 109.647 34.0748Z" fill="#151009"/>
<path d="M115.512 35.0879C114.642 34.9885 114.06 34.5837 113.918 33.771C113.77 32.9899 114.023 32.3503 114.613 31.8402C115.355 31.2277 116.376 31.2248 117.017 31.8373C117.689 32.4559 117.708 33.5725 117.07 34.3355C116.682 34.8186 116.209 35.0563 115.512 35.0879Z" fill="#151009"/>
<path d="M105.045 36.4764C104.928 36.2251 104.843 35.9798 104.726 35.7284C104.401 35.0121 104.618 34.5621 105.402 34.4162C106.396 34.2115 107.237 34.633 107.998 35.1372C108.522 35.4984 108.402 36.1304 107.828 36.3817C107.436 36.5367 106.967 36.5788 106.542 36.5638C106.117 36.5487 105.678 36.4328 105.126 36.3936C105.039 36.508 105.045 36.4764 105.045 36.4764Z" fill="#FA658D"/>
<path d="M119.968 36.0633C120.098 36.9392 119.975 37.2432 119.303 37.3124C118.594 37.4072 117.865 37.4327 117.154 37.3634C116.672 37.3047 116.193 37.0504 116.174 36.4574C116.129 35.8269 116.653 35.6644 117.128 35.5906C118.078 35.4432 119.041 35.3966 119.968 36.0633Z" fill="#FA658D"/>
</g>
<defs>
<clipPath id="clip0_36_1855">
<rect width="140.163" height="101" fill="white" transform="translate(18.8049) rotate(10.7303)"/>
</clipPath>
</defs>
</svg>
