<svg width="92" height="78" viewBox="0 0 92 78" fill="none" xmlns="http://www.w3.org/2000/svg">
<path d="M15.9969 11.836C19.7781 8.30622 24.0851 5.71746 28.6734 3.62882C31.271 2.44131 34.0541 1.91427 36.8797 1.46787C39.684 1.02673 42.4934 0.789363 45.3557 0.857893C54.799 1.05722 63.3403 4.00781 71.0329 9.55981C76.8275 13.7347 81.4665 18.992 85.312 24.9689C87.102 27.7396 88.365 30.7541 89.3884 33.8961C91.0163 38.9393 91.6333 44.0952 91.0796 49.3576C90.6926 53.007 89.6674 56.4493 87.7009 59.5542C86.0541 62.1247 83.8282 63.9951 81.0284 65.1869C80.7197 65.3086 80.3791 65.3926 80.0385 65.4766C77.1648 66.1855 74.3123 66.8891 71.4545 67.6624C67.0214 68.8243 62.5936 70.0076 58.1818 71.1642C54.1106 72.2368 50.066 73.3257 45.9948 74.3983C42.924 75.2241 39.8533 76.0499 36.7826 76.8757C24.0261 80.2729 9.59834 74.4231 3.51016 61.1853C2.14603 58.2185 1.33006 55.0937 1.04626 51.8376C0.44709 45.0142 1.47573 38.3817 3.51507 31.9099C5.50103 25.588 8.63022 19.8725 13.0354 14.9358C13.9464 13.8682 14.9689 12.887 15.9969 11.836ZM25.6845 61.9121C26.3759 62.1516 27.03 62.4231 27.7321 62.6144C31.3861 63.6039 35.0096 63.2796 38.6177 62.4352C44.2533 61.1134 49.8731 59.7271 55.4982 58.3624L56.0516 58.2259C59.1859 57.6577 62.2936 57.0734 65.2796 55.904C69.0214 54.4115 72.0352 52.0734 73.7365 48.2593C75.1925 45.0069 75.1162 41.6768 74.242 38.3158C73.9771 37.242 73.4834 36.2475 73.0908 35.2053C71.3243 30.4241 68.674 26.1798 65.092 22.5527C59.9528 17.3732 53.8807 13.9958 46.6301 12.9822C40.502 12.1245 34.808 13.3013 29.6542 16.7596C24.149 20.4413 20.7064 25.7101 18.5822 31.9294C17.2639 35.8313 16.818 39.8825 16.5795 43.9509C16.3786 47.7138 16.8375 51.4051 18.4565 54.8558C19.9746 58.0808 22.2971 60.4467 25.6845 61.9121Z" fill="#C2FEA1"/>
<path d="M25.6101 61.8849C22.2758 60.452 19.9746 58.0808 18.4618 54.8773C16.8162 51.4104 16.3573 47.719 16.5848 43.9723C16.802 39.9092 17.2479 35.858 18.5875 31.9509C20.7117 25.7316 24.1543 20.4628 29.6595 16.7811C34.8133 13.3228 40.5126 12.1675 46.6354 13.0037C53.886 14.0173 59.9528 17.3732 65.0973 22.5741C68.6793 26.2013 71.3243 30.4241 73.0961 35.2268C73.4887 36.269 73.9611 37.2687 74.2473 38.3372C75.1428 41.693 75.2031 45.0498 73.7418 48.2807C72.0352 52.0734 69.0267 54.433 65.2849 55.9255C62.3202 57.0896 59.1912 57.6792 56.0569 58.2473C55.8654 58.2946 55.6951 58.3366 55.5035 58.3839C49.8837 59.7701 44.2639 61.1563 38.623 62.4567C35.0149 63.3011 31.3861 63.6039 27.7374 62.6359C27.0513 62.4178 26.3759 62.1516 25.6101 61.8849ZM40.3589 46.2409C40.2846 46.1226 40.2261 46.0686 40.2102 46.0042C40.1733 45.6716 40.1524 45.3122 40.1368 44.9744C40.1073 42.7491 40.5139 40.644 41.7715 38.7847C43.4927 36.2414 46.2814 35.4624 48.977 37.1439C50.3647 38.0091 51.4381 39.1567 52.1814 40.6136C52.5212 41.2588 53.0952 41.8462 52.9826 42.6714C52.6951 42.879 52.3864 43.0007 52.2424 43.2412C52.0773 43.487 51.9278 43.8884 51.9914 44.1461C52.0391 44.3393 52.4592 44.4863 52.7412 44.5307C52.9805 44.5855 53.252 44.4958 53.6084 44.4762C54.4402 47.7566 53.8464 50.7507 52.3164 53.6113C52.9117 54.1935 53.428 53.9067 53.8752 53.7052C56.4888 52.491 58.4647 50.5228 59.8826 48.0316C60.7302 46.524 61.2853 44.8379 61.58 42.9199C61.8376 40.8516 61.6535 38.8239 61.0917 36.821C60.4346 34.4316 59.293 32.3667 57.4645 30.7218C56.1623 29.5623 54.7695 28.4934 53.4726 27.3553C51.9152 25.9853 50.2139 24.8558 48.3047 24.0738C45.3958 22.9004 42.5386 23.0357 39.7333 24.3883C37.2315 25.5978 35.4417 27.5884 33.9709 29.8649C33.0755 31.2704 32.3716 32.8109 31.4975 34.2111C30.3197 36.1192 29.5833 38.1689 29.2244 40.3761C28.9673 41.9886 28.7155 43.6227 29.0064 45.2595C29.5617 48.3347 31.2617 50.6492 33.8723 52.2606C37.089 54.2237 40.6578 55.2342 44.3548 55.8486C44.6367 55.893 44.9453 55.8624 45.1954 55.8691C45.4993 55.2701 45.1697 55.0325 44.7922 54.7839C43.5428 53.9302 42.5651 52.8045 41.8962 51.4659C41.4078 50.4929 41.0418 49.4669 40.6066 48.4352M51.1549 50.1845C51.6988 49.0935 51.7745 47.9357 51.547 46.7389C51.4042 45.9767 51.0108 45.6637 50.3935 45.816C48.2222 46.3516 46.0776 46.9034 43.9169 47.4819C43.241 47.6714 43.113 47.9764 43.3357 48.696C43.6432 49.6681 44.1797 50.4698 44.9557 51.1441C47.1669 53.0591 49.9341 52.4676 51.1549 50.1845ZM41.7753 45.117C43.4244 45.3025 44.5218 43.9838 44.0447 42.4157C43.7213 41.3792 42.7055 41.0147 41.7845 41.5836C40.528 42.3491 40.4571 43.9841 41.7753 45.117ZM48.0535 39.9916C47.7018 40.4884 47.6587 41.0458 47.823 41.6204C48.0669 42.4259 48.8112 42.8802 49.5775 42.6912C50.6685 42.4449 51.2873 40.9253 50.7031 39.9303C50.1295 38.9783 49.1932 38.9359 48.0535 39.9916Z" fill="#FED8D4"/>
<path d="M40.5906 48.4619C41.0258 49.4936 41.3918 50.5197 41.8802 51.4927C42.5704 52.826 43.5481 53.9517 44.7762 54.8106C45.1324 55.0645 45.462 55.3021 45.1794 55.8958C44.908 55.8944 44.6207 55.9197 44.3388 55.8754C40.6471 55.2824 37.0783 54.2719 33.8563 52.2873C31.251 50.6974 29.5457 48.3615 28.9904 45.2863C28.6995 43.6494 28.9513 42.0154 29.2085 40.4028C29.5673 38.1956 30.3037 36.1459 31.4816 34.2379C32.3503 32.8161 33.0542 31.2756 33.9549 29.8916C35.4204 27.5937 37.2102 25.603 39.7174 24.4151C42.5226 23.0624 45.3798 22.9272 48.2888 24.1005C50.1979 24.8825 51.8992 26.012 53.4566 27.382C54.7801 28.5363 56.1676 29.5837 57.4485 30.7486C59.277 32.3934 60.4186 34.4583 61.0758 36.8477C61.6535 38.8239 61.8376 40.8516 61.5586 43.0163C61.2693 44.8646 60.7302 46.524 59.8666 48.0583C58.4487 50.5495 56.4941 52.5125 53.8592 53.732C53.4121 53.9334 52.8957 54.2202 52.3004 53.6381C53.8357 50.799 54.4029 47.7886 53.5925 44.5029C53.236 44.5225 52.9645 44.6123 52.7252 44.5574C52.4592 44.4863 52.0391 44.3394 51.9754 44.1728C51.9119 43.9151 52.0613 43.5138 52.2265 43.268C52.3916 43.0222 52.7004 42.9005 52.9666 42.6981C53.0792 41.873 52.5105 41.307 52.1654 40.6404C51.4222 39.1835 50.3434 38.0143 48.961 37.1707C46.2654 35.4891 43.4767 36.2681 41.7555 38.8114C40.4979 40.6707 40.0913 42.7758 40.1208 45.0011C40.1364 45.339 40.152 45.6769 40.1942 46.031C40.2101 46.0954 40.2686 46.1493 40.3429 46.2676" fill="#EF8193"/>
<path d="M51.107 50.2646C49.9341 52.4676 47.1669 53.0591 44.9557 51.1441C44.185 50.4913 43.6432 49.6681 43.3357 48.696C43.113 47.9764 43.241 47.6714 43.9169 47.4819C46.0776 46.9034 48.2222 46.3516 50.3935 45.816C51.0108 45.6637 51.4042 45.9767 51.547 46.7389C51.7745 47.9357 51.6988 49.0935 51.107 50.2646ZM48.9449 47.1757C47.3963 47.5805 45.8476 47.9853 44.3043 48.4115C45.0946 50.6086 47.0672 51.8307 48.7065 51.2441C50.2819 50.6732 51.0821 48.6989 50.4563 46.8029L48.9449 47.1757Z" fill="#120A0C"/>
<path d="M41.6956 45.0683C40.4571 43.9841 40.528 42.3491 41.7632 41.5888C42.6842 41.0199 43.7 41.3844 44.0234 42.421C44.5218 43.9838 43.4031 45.3077 41.6956 45.0683Z" fill="#120A0C"/>
<path d="M48.1015 39.9114C49.1932 38.9359 50.1242 38.9568 50.7031 39.9303C51.2873 40.9253 50.6898 42.4396 49.5775 42.6912C48.8325 42.875 48.0669 42.4259 47.823 41.6204C47.6587 41.0458 47.7018 40.4884 48.1015 39.9114Z" fill="#120A0C"/>
<path d="M49.0514 47.1494L50.435 46.8081C51.0821 48.6989 50.2606 50.6784 48.6852 51.2493C47.0459 51.8359 45.0733 50.6139 44.283 48.4168C45.8476 47.9853 47.3963 47.5805 49.0514 47.1494Z" fill="#FD528C"/>
<path d="M51.4324 44.5346C51.4324 44.5346 51.342 44.443 51.2835 44.389C51.1723 43.9381 51.3003 43.6331 51.7316 43.3673C52.2001 43.0694 52.7217 42.8041 53.2167 42.6136C53.8607 42.3864 54.5365 42.2881 55.191 42.195C55.3188 42.1635 55.5102 42.2074 55.6698 42.2135C55.9465 42.2364 56.1857 42.3824 56.2014 42.6292C56.2278 42.8277 56.1264 43.1489 55.9667 43.2338C55.5301 43.5694 55.0668 43.8886 54.5506 44.0843C53.8267 44.354 53.0764 44.5163 52.2994 44.6624C52.044 44.7254 51.7888 44.6061 51.4908 44.5885C51.4908 44.5885 51.482 44.5831 51.4642 44.5723C51.4642 44.5723 51.4484 44.5078 51.4218 44.4916L51.4324 44.5346Z" fill="#FD528C"/>
<path d="M37.5473 48.5747C37.5473 48.5747 37.4569 48.4831 37.3984 48.4292C37.2872 47.9782 37.4152 47.6733 37.8465 47.4074C38.315 47.1096 38.8366 46.8442 39.3316 46.6538C39.9756 46.4266 40.6514 46.3282 41.3059 46.2351C41.4337 46.2036 41.6251 46.2475 41.7847 46.2537C42.0614 46.2766 42.3006 46.4226 42.3163 46.6693C42.3427 46.8679 42.2413 47.189 42.0816 47.274C41.645 47.6095 41.1817 47.9288 40.6655 48.1245C39.9416 48.3942 39.1913 48.5565 38.4143 48.7026C38.1589 48.7656 37.9037 48.6463 37.6057 48.6287C37.6057 48.6287 37.5969 48.6232 37.5791 48.6124C37.5791 48.6124 37.5633 48.548 37.5367 48.5318L37.5473 48.5747Z" fill="#FD528C"/>
</svg>
