<svg width="113" height="104" viewBox="0 0 113 104" fill="none" xmlns="http://www.w3.org/2000/svg">
<g clip-path="url(#clip0_36_1839)">
<path d="M19.5297 68.37C18.5651 68.1541 17.5668 68.032 16.6292 67.6955C15.2026 67.2243 14.0918 66.1906 13.1352 65.0902C11.4695 63.198 10.1728 61.0718 9.12419 58.7986C8.01548 56.3979 7.69104 53.831 7.72184 51.2042C7.77963 48.4569 8.53407 45.8782 9.81095 43.4543C11.948 39.4504 14.7944 36.0104 18.1027 32.9397C19.7467 31.4211 21.103 29.6608 22.3923 27.8602C23.8361 25.8789 25.5073 24.1258 27.2588 22.4666C31.2516 18.7134 35.7793 15.7384 40.8284 13.6017C42.1426 13.0475 43.5103 12.594 44.878 12.1404C45.877 11.8068 46.8961 11.4398 47.915 11.1867C49.0948 10.8937 50.3214 10.6744 51.5412 10.5423C57.8077 9.8683 63.7899 11.03 69.5962 13.3172C71.7392 14.1513 73.9429 14.7712 76.2612 14.9355C79.0686 15.1207 81.8151 15.7481 84.5346 16.4961C86.7584 17.0824 88.6932 18.2245 90.3661 19.8018C92.407 21.7147 94.4948 23.5875 96.5424 25.5272C98.1015 26.9904 99.1643 28.7476 99.9386 30.7189C100.332 31.7313 100.833 32.7172 101.2 33.7363C101.868 35.5063 102.327 37.3565 102.03 39.2524C101.881 40.1435 101.685 41.0746 101.262 41.8915C100.099 44.2015 98.6618 46.3236 96.642 48.1633C95.5485 48.9188 94.5959 49.6679 93.6165 50.3097C92.8049 50.8244 91.9399 51.2386 91.0748 51.6527C88.1444 53.0354 85.2474 54.4382 82.2768 55.7738C79.9701 56.8023 77.6568 57.8039 75.3234 58.7251C73.1979 59.5662 71.0325 60.2464 68.8602 61.0137C67.9685 61.3206 67.0433 61.6073 66.1516 61.9142C64.4956 62.4679 62.8798 63.0685 61.1971 63.5149C57.1615 64.5742 53.1059 65.5531 49.057 66.5588C48.7889 66.6254 48.5207 66.692 48.2459 66.7318C46.0005 67.0902 43.7284 67.4553 41.483 67.8137C40.0285 68.0327 38.5807 68.2784 37.1331 68.4102C35.27 68.5883 33.3935 68.7128 31.5305 68.7769C28.2133 68.9461 24.9165 68.854 21.6135 68.5072C20.9971 68.4326 20.3872 68.4986 19.7908 68.5044L19.7775 68.4508C19.7775 68.4508 19.6101 68.35 19.5297 68.37ZM74.5228 43.2379C72.3366 44.2933 71.4225 46.1146 71.3788 48.4599C71.3646 48.9758 71.5111 49.5657 71.7651 50.0151C72.0456 50.5717 72.5343 50.9343 73.2782 50.8349C74.7125 50.6495 76.1337 50.2965 77.2407 49.3667C78.3478 48.437 79.4348 47.5407 80.729 46.9061C81.5404 46.5052 81.8967 45.762 81.8445 44.864C81.8184 44.415 81.7922 43.9659 81.6857 43.5369C81.3527 42.1962 80.2952 41.3771 78.9348 41.4018C78.1374 41.4006 77.3866 41.5871 76.6891 41.9881C76.0452 42.3758 75.3477 42.7768 74.5228 43.2379ZM37.7031 59.358C36.1588 61.3928 37.1346 63.0293 38.8621 63.9098C40.0942 64.5147 41.5017 64.336 41.9333 62.5206C42.0008 62.2192 42.0414 61.9244 42.0754 61.6028C42.1911 60.4638 42.6683 59.5197 43.5338 58.7638C43.7687 58.5632 43.9701 58.3423 44.1648 58.0947C44.6011 57.5593 44.8298 56.99 44.5159 56.2994C44.2087 55.6355 43.6665 55.2862 42.9695 55.3455C42.0513 55.4312 41.093 55.4699 40.2549 55.7635C38.9677 56.1971 37.9747 57.0131 38.0862 58.6081C38.0792 58.8091 37.9046 59.0233 37.7031 59.358ZM34.412 29.145C33.5956 28.3798 32.778 28.4121 31.906 29.0272C31.1278 29.5621 31.0131 30.1315 31.3061 31.3114C31.466 31.9549 31.646 32.565 31.8594 33.1952C32.193 34.1941 32.6013 34.4628 33.6734 34.5381C34.4573 34.5996 35.2479 34.688 36.0183 34.8097C37.0567 34.9788 37.975 34.7792 38.8136 34.1439C39.934 33.2678 40.2572 32.2765 39.7971 30.7681C39.4504 29.6016 38.4858 29.3857 37.4742 29.2099C36.9115 29.122 36.3953 29.2217 35.9057 29.5426C35.6843 29.683 35.4563 29.7965 35.1814 29.9502C34.974 29.6886 34.7465 29.4604 34.412 29.145ZM60.0651 19.1861C60.0651 19.1861 60.0185 18.9984 59.9651 18.8978C59.6378 18.1535 59.2905 17.4427 59.5532 16.5518C59.6273 16.2772 59.3532 15.8613 59.1392 15.5729C58.3032 14.4994 57.1504 14.6719 56.031 14.8645C54.5229 15.0968 53.9383 16.1814 54.4453 17.6497C54.6188 18.1191 54.6918 18.6419 54.7848 19.1312C54.8781 19.5066 54.911 19.8685 55.0311 20.2372C55.4715 21.4374 56.5897 22.0422 57.9034 21.8297C59.4584 21.5573 60.0827 20.8614 60.0651 19.1861ZM88.9142 27.1372C88.8888 26.2325 88.488 25.4211 87.8186 24.9041C86.9753 24.2595 86.1791 23.4609 85.0604 23.1978C84.8461 23.1372 84.558 23.1234 84.3501 23.2035C83.4919 23.5305 82.6002 23.8374 81.8289 24.2852C81.1314 24.6862 80.8888 25.5435 81.1558 26.2744C81.3959 27.0118 81.9716 27.3813 82.7289 27.3355C83.6269 27.2833 84.3435 27.5323 84.7577 28.3974C84.7777 28.4778 84.8847 28.5651 84.9583 28.6322C85.594 29.243 86.3038 29.5791 87.1888 29.2454C88.0874 28.8514 88.8921 28.4238 88.9142 27.1372ZM23.6747 52.6223C24.633 52.5835 25.1833 52.0483 25.4527 51.1843C25.6008 50.749 25.7221 50.3203 25.8165 49.8983C26.0324 48.9336 25.7921 48.3101 24.9083 47.8464C24.4798 47.6112 24.0041 47.53 23.5823 47.3217C22.3972 46.6766 21.3849 46.9565 20.4119 47.8529C19.4859 48.7092 19.4442 49.6875 19.7977 50.7669C20.1312 51.7659 20.7937 52.37 21.8791 52.4989C22.4285 52.5333 22.9779 52.5676 23.6747 52.6223ZM95.4903 43.1827C96.7107 42.5948 97.4228 41.4501 97.1429 40.4378C96.9098 39.4993 96.5091 38.5739 96.1419 37.6688C95.935 37.1793 95.4863 36.9776 95.0504 37.1712C94.5073 37.3915 93.9709 37.6386 93.5213 38.0065C92.9309 38.4948 92.5145 39.1106 92.7276 39.9687C92.8142 40.3173 92.7734 40.726 92.7527 41.1012C92.7105 42.4212 93.8278 43.5956 95.4903 43.1827ZM54.9669 36.0247C55.5909 35.4426 55.6651 35.168 55.3377 34.5376C54.8299 33.525 53.5507 33.0741 52.5248 33.5282C51.2172 34.1092 50.4109 35.5621 50.6165 36.9629C50.7092 37.68 51.0438 37.9955 51.7607 38.0167C52.6519 38.0515 53.3359 37.7108 53.9066 37.0282C54.1952 36.7003 54.5173 36.3925 54.9669 36.0247Z" fill="#FFB667"/>
<path d="M19.8394 68.5806C20.4426 68.4877 21.0525 68.4216 21.6622 68.4694C24.972 68.843 28.262 68.9083 31.5793 68.7392C33.4356 68.6482 35.3187 68.5505 37.1819 68.3724C38.6295 68.2406 40.0773 67.9949 41.5317 67.776C43.7771 67.4175 46.0493 67.0524 48.2947 66.694C48.5695 66.6542 48.8376 66.5876 49.1058 66.521C53.1547 65.5153 57.2103 64.5364 61.2459 63.4771C62.9285 63.0307 64.5444 62.4301 66.2004 61.8764C67.0921 61.5695 68.0172 61.2828 68.9089 60.9759C71.0611 60.2421 73.2467 59.5284 75.3722 58.6873C77.7055 57.7661 80.0256 56.7913 82.3256 55.7361C85.2694 54.407 88.1931 52.9976 91.1236 51.6149C91.9886 51.2008 92.8537 50.7866 93.6653 50.2719C94.6714 49.6234 95.604 48.9079 96.6437 48.1656C96.8751 50.2433 97.026 52.3409 97.2038 54.4319C97.5325 58.6205 97.5462 62.802 97.3321 66.9831C97.2768 68.1355 97.3353 69.2882 97.367 70.4475C97.3781 71.9821 97.416 73.51 96.8776 75.0102C96.5143 75.9544 96.0038 76.7645 95.1921 77.3931C92.5689 79.4397 89.8454 81.3118 86.9348 82.8888C84.6009 84.1517 82.2269 85.3677 79.8263 86.4764C77.8615 87.3915 75.7964 88.1321 73.7715 88.9198C72.0551 89.5738 70.3253 90.1743 68.6022 90.8016C68.495 90.8282 68.4145 90.8482 68.3073 90.8748C65.9073 91.5279 63.5273 92.2614 61.1141 92.8608C59.1566 93.347 57.1794 93.6388 55.182 93.9641C53.2651 94.2694 51.3414 94.548 49.4247 94.7394C45.1957 95.135 40.9943 95.0683 36.8346 94.0233C34.9792 93.5447 33.4795 92.6646 32.2018 91.1884C29.2986 87.867 27.0662 84.1513 25.2228 80.1681C23.8736 77.2578 22.4506 74.3943 21.0813 71.5175C20.627 70.6055 20.2399 69.6198 19.8327 68.5538L19.8394 68.5806ZM55.1078 76.7022C55.1078 76.7022 55.2348 76.87 55.3084 76.9371C56.5126 78.2322 57.8868 77.9194 58.3786 76.2315C58.5806 75.555 58.6488 74.7979 58.5627 74.1075C58.4574 72.8811 58.1309 71.6811 57.1941 70.775C56.2239 69.8488 55.0777 70.0481 54.5263 71.2669C54.318 71.6887 54.21 72.171 54.1557 72.64C54.0196 74.0403 54.3191 75.3608 55.1078 76.7022ZM68.639 66.6513C67.6337 66.7301 67.1502 67.4196 66.9411 68.2971C66.5165 69.9114 66.8626 71.4197 67.8993 72.7279C68.3541 73.2982 68.9633 73.6878 69.7542 73.5483C70.5988 73.3954 71.0553 72.8265 71.2642 72.0629C71.709 70.4152 71.4165 68.8936 70.3397 67.5384C69.9585 67.0352 69.443 66.6793 68.639 66.6513ZM62.8464 77.3707C62.6049 77.5446 62.3366 77.7251 62.1352 77.9459C61.7863 78.2603 61.5444 78.662 61.6911 79.138C61.8177 79.6475 62.273 79.876 62.7755 79.9505C62.9228 79.9708 63.0434 79.9978 63.1908 80.0181C64.8861 80.081 66.4346 79.6679 67.8633 78.7722C68.1316 78.5916 68.4134 78.3508 68.6015 78.0764C69.0245 77.4873 68.8647 76.8438 68.1682 76.5613C67.7597 76.4066 67.3175 76.3456 66.8887 76.3382C65.4614 76.3226 64.1876 76.696 62.8464 77.3707ZM53.0734 79.2857C52.785 79.4997 52.4295 79.6734 52.1879 79.9612C51.8791 80.3226 51.9117 80.9123 52.2531 81.1407C52.5878 81.3422 53.0431 81.5707 53.3649 81.4908C54.2296 81.3045 55.0342 80.9908 55.859 80.6436C56.2211 80.4967 56.5097 80.1688 56.41 79.6527C56.2834 79.1432 55.9354 78.888 55.473 78.8605C54.7024 78.8526 53.9052 78.7375 53.0734 79.2857ZM73.2804 72.6155C72.8847 72.8561 72.3885 73.0363 72.073 73.3709C71.8449 73.5984 71.7034 74.0605 71.7499 74.3621C71.8097 74.7174 72.1779 74.9391 72.6269 74.9129C73.7058 74.9012 74.7314 74.6749 75.6502 74.1335C75.7776 74.0734 75.8716 73.9931 75.9588 73.8861C76.5629 73.2236 76.4029 72.694 75.5456 72.4514C74.8423 72.256 74.1251 72.3487 73.2804 72.6155Z" fill="#FEDFBE"/>
<path d="M19.5715 68.4194C19.5715 68.4194 19.6721 68.3659 19.7524 68.4598C19.7657 68.5135 19.672 68.4798 19.5715 68.4194Z" fill="#FEDFBE"/>
<path d="M74.6049 43.2202C75.3494 42.7791 76.0536 42.4049 76.7243 42.0106C77.4218 41.6096 78.1726 41.4231 78.97 41.4243C80.337 41.4264 81.3878 42.2187 81.7208 43.5594C81.8274 43.9884 81.8535 44.4375 81.8797 44.8865C81.9051 45.7911 81.5421 46.5076 80.7642 46.9286C79.4766 47.59 78.383 48.4595 77.2759 49.3892C76.1688 50.319 74.7477 50.672 73.3134 50.8574C72.5694 50.9568 72.0875 50.621 71.8002 50.0376C71.5664 49.5548 71.4266 48.9917 71.4139 48.4824C71.4309 46.1437 72.3383 44.2957 74.6049 43.2202Z" fill="#4F3519"/>
<path d="M37.7453 59.2934C37.8797 59.0323 38.0811 58.8115 38.0613 58.6171C37.9498 57.0221 38.9428 56.2061 40.23 55.7725C41.0949 55.4723 42.0264 55.4402 42.9446 55.3545C43.6416 55.2952 44.1838 55.6445 44.491 56.3084C44.8049 56.999 44.5762 57.5683 44.1399 58.1037C43.9452 58.3513 43.7438 58.5722 43.509 58.7728C42.6099 59.5086 42.1662 60.4728 42.0505 61.6118C42.0099 61.9066 41.9759 62.2282 41.9084 62.5296C41.4768 64.345 40.0693 64.5237 38.8372 63.9188C37.1365 63.0317 36.1607 61.3951 37.7453 59.2934Z" fill="#4F3519"/>
<path d="M34.4874 29.2144C34.755 29.4896 34.9758 29.6909 35.21 29.9459C35.4581 29.7989 35.7129 29.6787 35.9343 29.5383C36.4173 29.1906 36.9334 29.0908 37.5028 29.2056C38.5144 29.3814 39.479 29.5973 39.8257 30.7638C40.2589 32.2789 39.9626 33.2635 38.8422 34.1396C38.0036 34.7749 37.0853 34.9745 36.0469 34.8054C35.2765 34.6836 34.4859 34.5953 33.7019 34.5338C32.6567 34.4518 32.2215 34.1898 31.888 33.1909C31.6812 32.5875 31.5214 31.9439 31.3347 31.307C31.0148 30.1339 31.1564 29.5578 31.9346 29.0229C32.8066 28.4077 33.6041 28.409 34.4874 29.2144Z" fill="#4F3519"/>
<path d="M60.0936 19.2957C60.0845 20.8638 59.4669 21.5865 57.932 21.8254C56.625 22.0647 55.5002 21.4331 55.0329 20.2396C54.9195 19.8976 54.8799 19.5089 54.7866 19.1335C54.6668 18.6509 54.6207 18.1214 54.4472 17.6521C53.9401 16.1838 54.5247 15.0991 56.0328 14.8669C57.132 14.7077 58.305 14.5018 59.141 15.5752C59.355 15.8637 59.6291 16.2796 59.555 16.5542C59.2923 17.445 59.6397 18.1559 59.9669 18.9002C60.0203 19.0008 60.047 19.108 60.0936 19.2957Z" fill="#4F3519"/>
<path d="M88.936 27.22C88.894 28.4261 88.0959 28.8805 87.2109 29.2143C86.3258 29.548 85.6094 29.185 84.9804 28.6011C84.9067 28.5339 84.8331 28.4668 84.7797 28.3662C84.3454 27.5346 83.6556 27.279 82.7509 27.3044C81.9936 27.3501 81.4447 26.974 81.1778 26.2432C80.9377 25.5058 81.1534 24.6551 81.8509 24.2541C82.649 23.7996 83.5139 23.4994 84.3721 23.1723C84.58 23.0922 84.8413 23.1127 85.0824 23.1667C86.1743 23.4364 86.9705 24.235 87.8407 24.873C88.4898 25.4234 88.8906 26.2349 88.936 27.22Z" fill="#4F3519"/>
<path d="M23.5895 52.6178C22.953 52.5767 22.4304 52.5357 21.8743 52.4745C20.7956 52.3723 20.1264 51.7414 19.7929 50.7425C19.4394 49.6631 19.4811 48.6848 20.4071 47.8285C21.3533 46.9387 22.3656 46.6588 23.5775 47.2972C23.9993 47.5056 24.4816 47.6136 24.9035 47.8219C25.7672 48.3191 26.0276 48.9092 25.8117 49.8738C25.7172 50.2958 25.596 50.7245 25.4479 51.1598C25.1852 52.0507 24.6349 52.5859 23.5895 52.6178Z" fill="#4F3519"/>
<path d="M95.4117 43.205C93.8297 43.598 92.7124 42.4236 92.7546 41.1036C92.7753 40.7283 92.796 40.3531 92.7295 39.9711C92.5164 39.113 92.9261 38.4703 93.5232 38.0089C93.9728 37.641 94.5159 37.4207 95.0523 37.1736C95.4882 36.9799 95.9369 37.1816 96.1438 37.6711C96.511 38.5763 96.8849 39.5083 97.1448 40.4402C97.3979 41.4591 96.7126 42.5972 95.4117 43.205Z" fill="#4F3519"/>
<path d="M54.8881 36.047C54.5191 36.3949 54.1903 36.6758 53.9083 37.0306C53.3712 37.7333 52.6603 38.0807 51.7625 38.019C51.0388 37.971 50.7043 37.6556 50.6182 36.9652C50.4126 35.5644 51.219 34.1115 52.5265 33.5305C53.5525 33.0764 54.8317 33.5273 55.3394 34.54C55.6601 35.1435 55.5927 35.445 54.8881 36.047Z" fill="#4F3519"/>
<path d="M55.061 76.6285C54.3124 75.334 54.0129 74.0135 54.149 72.6132C54.2034 72.1442 54.3113 71.6619 54.5197 71.24C55.071 70.0213 56.2172 69.822 57.1874 70.7482C58.1242 71.6543 58.4507 72.8543 58.5561 74.0807C58.6153 74.7777 58.5471 75.5348 58.3719 76.2046C57.8801 77.8925 56.4993 78.1786 55.3018 76.9103C55.2348 76.87 55.1814 76.7694 55.061 76.6285Z" fill="#060504"/>
<path d="M68.6926 66.6379C69.443 66.6793 69.9518 67.0084 70.333 67.5115C71.383 68.8734 71.7023 70.3884 71.2575 72.0361C71.0486 72.7997 70.5988 73.3954 69.7476 73.5214C68.9566 73.661 68.3474 73.2714 67.8926 72.7011C66.856 71.3928 66.5165 69.9114 66.9344 68.2703C67.1502 67.4196 67.6069 66.7368 68.6926 66.6379Z" fill="#060504"/>
<path d="M62.9203 77.3239C64.2146 76.6893 65.4883 76.316 66.8285 76.3247C67.2574 76.3321 67.7263 76.3864 68.1081 76.5478C68.8045 76.8303 68.9577 77.447 68.5413 78.0629C68.3533 78.3374 68.0983 78.5715 67.8031 78.7587C66.3745 79.6544 64.8259 80.0675 63.1307 80.0047C62.9899 80.0111 62.8627 79.9573 62.7153 79.937C62.2128 79.8625 61.7843 79.6274 61.631 79.1245C61.5111 78.6419 61.7596 78.267 62.0751 77.9324C62.3367 77.7251 62.605 77.5446 62.9203 77.3239Z" fill="#060504"/>
<path d="M53.154 79.2657C53.9388 78.7577 54.736 78.8728 55.4864 78.9141C55.9488 78.9416 56.3237 79.1902 56.4234 79.7063C56.5499 80.2157 56.2613 80.5437 55.8724 80.6972C55.0745 81.0377 54.2364 81.3313 53.3783 81.5444C53.0298 81.631 52.5744 81.4025 52.2665 81.1943C51.8983 80.9726 51.8858 80.3494 52.2013 80.0148C52.4363 79.7002 52.7582 79.5064 53.154 79.2657Z" fill="#FD528C"/>
<path d="M73.3608 72.5955C74.1519 72.3421 74.8489 72.2828 75.5723 72.4448C76.423 72.6605 76.5897 73.2169 75.9856 73.8794C75.8983 73.9865 75.7776 74.0734 75.677 74.1269C74.7247 74.6481 73.7325 74.8945 72.6537 74.9063C72.2248 74.8989 71.8364 74.7107 71.7767 74.3555C71.7302 74.0538 71.8716 73.5917 72.0998 73.3642C72.3885 73.0363 72.8578 72.8628 73.3608 72.5955Z" fill="#FD528C"/>
</g>
<defs>
<clipPath id="clip0_36_1839">
<rect width="95.7893" height="82.4722" fill="white" transform="translate(0 23.0909) rotate(-13.949)"/>
</clipPath>
</defs>
</svg>
