<svg width="114" height="91" viewBox="0 0 114 91" fill="none" xmlns="http://www.w3.org/2000/svg">
<path d="M103.162 73.7121C102.942 74.1141 102.693 74.5048 102.503 74.9181C102.389 75.2214 102.264 75.5551 102.127 75.919C101.79 76.4501 101.525 76.9734 101.211 77.4438C100.03 79.2152 98.4579 80.5629 96.5286 81.3959C95.46 81.86 94.3466 82.1687 93.1139 81.879C91.9642 81.5513 91.1394 80.9994 90.6515 79.9166C90.5014 79.5834 90.3627 79.2199 90.224 78.8563C90.2741 78.3561 90.1923 77.8409 90.3517 77.4163C90.6933 76.5063 91.3136 75.7702 91.9942 75.0568C92.3988 74.6204 92.8034 74.1839 93.1966 73.7779C93.1966 73.7779 93.208 73.7475 93.2911 73.7095C93.76 73.1934 94.2476 72.719 94.6864 72.1916C95.3067 71.4555 95.5953 70.5949 95.9369 69.6849C96.3554 68.1118 96.4872 66.5694 96.2116 65.0126C96.0776 64.2701 95.8718 63.5354 95.7377 62.793C95.7719 62.702 95.7946 62.6413 95.7571 62.558C95.552 61.5467 95.3468 60.5353 95.1832 59.505C95.0827 58.9481 95.0652 58.3533 95.0062 57.7775C95.2204 56.4737 95.3931 55.1889 95.5959 53.9154C95.6876 53.3962 95.7492 52.8656 95.8523 52.316C95.9139 51.7855 96.0056 51.2662 96.0256 50.7546C96.0288 49.3716 96.0018 47.9773 95.9749 46.583C95.954 45.8138 95.9633 45.056 95.8406 44.2832C95.6622 43.1089 95.2045 42.0374 94.6637 41.0039C93.8676 39.4592 92.5913 38.4611 91.0275 37.7702C89.995 37.3135 88.9505 37.1636 87.8531 37.0632C86.9179 36.9889 85.9974 37.0587 85.0876 37.3747C83.4945 37.9532 81.8827 38.4902 80.2373 38.8415C80.1656 38.8492 80.037 39.0085 80.0142 39.0692C80.0037 40.3802 79.963 41.6799 80.0127 43.0136C80.0692 44.6959 79.9636 46.3519 79.3414 47.9178C79.0453 48.7064 78.7078 49.514 78.3515 50.28C77.9878 50.974 77.6241 51.668 77.2905 52.3733C76.7259 53.511 76.1914 54.6599 75.6154 55.8279C75.4031 56.3019 75.2021 56.7456 74.971 57.1779C74.4178 58.2852 74.2907 59.4487 74.3859 60.661C74.4034 61.2559 74.3606 61.8281 74.4197 62.4039C74.582 63.9875 74.4803 65.5412 73.8695 67.0767C73.7711 67.2474 73.7141 67.3991 73.6271 67.5394C73.2788 68.1008 72.9908 68.6848 72.5935 69.1931C71.992 69.9709 71.1499 70.3815 70.1771 70.224C68.5973 69.9424 67.1173 68.937 66.8464 67.0012C66.7686 66.3837 66.6908 65.7663 66.5942 65.1071C66.8152 64.1519 66.9832 63.246 67.4454 62.3814C67.7977 61.7177 68.1614 61.0237 68.4836 60.3487C68.639 60.0264 68.8848 59.738 68.7689 59.3138C68.8311 58.5067 68.9837 57.7334 68.9629 56.9643C68.95 55.9905 68.7938 55.0322 68.7206 54.0358C68.8579 53.3952 68.8632 52.7397 69.1284 52.2163C69.7801 50.9383 70.5826 49.7169 71.3247 48.4729C71.7005 47.472 72.1439 46.5656 72.4177 45.5611C72.6802 44.5869 72.8335 43.537 72.9339 42.5366C73.0075 41.6991 72.919 40.8353 72.9021 39.9638C73.1393 40.1567 73.3537 40.4102 73.6137 40.5424C74.4465 40.8896 75.2793 41.2368 76.1274 41.4514C76.7231 41.6057 77.387 41.5781 78.0094 41.5695C78.2244 41.5464 78.5078 41.3413 78.6176 41.1403C78.7502 40.8787 78.6189 40.5871 78.3817 40.3943C78.2537 40.277 78.1258 40.1598 77.9563 40.0616C77.2441 39.7596 76.5432 39.4273 75.8083 39.1861C75.1825 39.0204 74.5527 38.957 73.9116 38.924C73.312 38.8719 72.9871 39.096 72.8163 39.551C72.764 39.3237 72.7117 39.0965 72.6594 38.8692C72.4986 38.2897 72.3565 37.7519 72.2258 37.1838C73.1343 37.421 73.9382 37.2037 74.596 36.5509C75.2424 35.9284 75.3991 35.0529 75.0312 34.2919C74.682 33.5725 73.8646 33.0927 73.0232 33.2267C71.9064 33.3612 71.207 34.033 70.899 35.1285C70.365 34.4436 69.7552 33.8687 68.8843 33.7148C68.164 33.6174 67.4211 33.5808 66.6968 33.5858C65.3087 33.6184 63.9319 33.6207 62.59 33.2554C61.0859 32.8638 59.6802 32.3015 58.2974 31.6786C57.1858 31.1576 56.1085 30.5456 55.0499 29.9752C55.3975 29.6904 55.7526 29.4776 56.0098 29.1589C56.4827 28.5405 56.5711 27.847 56.2106 27.158C55.85 26.469 55.2283 26.201 54.4625 26.225C53.3913 26.2381 52.5218 27.0883 52.2513 28.2671C51.7615 28.0141 51.2489 27.8217 50.8007 27.5496C49.7723 26.9906 48.6862 26.8597 47.5581 27.0245C45.7204 27.3383 44.0704 28.0685 42.5403 29.1206C40.8328 30.2791 39.4374 31.7971 37.9141 33.1977C37.8197 33.2661 37.7627 33.4178 37.6569 33.5165C36.0914 35.2128 34.8764 37.0752 34.0868 39.2704C33.912 39.8277 33.76 40.3243 33.5965 40.8512C33.3876 41.4995 33.2202 42.1288 32.9811 42.7657C32.7762 43.3117 32.5411 43.8463 32.306 44.381C31.7487 45.5906 31.0749 46.6527 30.2201 47.6468C30.0272 47.8858 29.8343 48.1249 29.5999 48.3829C28.5528 49.3395 27.5172 50.2657 26.5305 51.2449C26.1486 51.6207 25.8345 52.0911 25.46 52.5388C25.1191 53.1721 24.7293 53.7525 24.5203 54.4008C24.2431 55.231 24.0676 56.0649 23.8393 56.9482C23.7737 57.581 23.6592 58.161 23.6767 58.7558C23.6501 60.4761 23.6651 62.1773 23.6573 63.9393C23.5963 64.1932 23.5883 64.3979 23.5388 64.6215C23.279 66.0466 23.5137 67.3459 24.2916 68.5722C24.7051 69.2119 25.0241 69.9199 25.0751 70.7004C25.108 71.1626 24.8769 71.5949 24.4314 71.7738C24.1935 71.8575 23.9483 71.8693 23.7105 71.953C23.3595 72.0635 22.9971 72.2043 22.6159 72.3034C22.4611 72.3492 22.3177 72.3646 22.1442 72.3686C21.3871 71.9114 20.5885 71.4732 19.8314 71.016C19.4923 70.8195 19.1647 70.5927 18.7768 70.3433C18.6756 70.0631 18.6233 69.8358 18.5824 69.5782C18.4938 68.7145 18.477 67.843 18.3583 66.9679C18.2993 66.3921 18.2101 65.8049 17.9548 65.2938C17.5755 64.5632 17.2793 63.7945 17.0963 62.9991C16.8724 61.9461 16.8635 60.87 17.2319 59.7971C17.5011 59.1715 17.7704 58.5458 17.9981 57.9392C18.2827 57.1809 18.5673 56.4226 18.7917 55.6417C18.9933 54.9215 19.1044 54.1673 19.2456 53.4244L19.314 53.2424C19.5322 51.8363 19.8824 50.4451 20.4249 49.0915C20.8341 48.2762 21.1717 47.4686 21.66 46.7175C22.224 45.8565 22.8972 45.071 23.5403 44.2742C23.9636 43.8795 24.3642 43.5454 24.6971 43.1167C25.3703 42.3312 26.0248 41.5041 26.6906 40.6467C27.258 39.9599 27.8327 39.3451 28.3699 38.6471C28.9072 37.949 29.4256 37.2093 30.0044 36.4922C30.3031 36.1545 30.5604 35.8357 30.829 35.4867C32.0468 34.0752 32.545 32.2897 33.3936 30.6704C33.6395 30.382 33.8364 30.0406 34.101 29.7939C35.0194 28.9967 35.9264 28.2298 36.8824 27.5159C38.0801 26.6159 39.3643 25.8521 40.5923 24.9635C41.1476 24.5836 41.6467 24.0789 42.1343 23.6044C42.6448 23.0693 42.6387 22.4441 42.108 21.9335C41.9613 21.7746 41.773 21.6347 41.5733 21.5252C40.9556 21.1549 40.2963 20.8036 39.6786 20.4333C38.4243 19.651 37.079 19.1114 35.7336 18.5718C34.539 18.0888 33.3284 18.015 32.0609 18.0929C29.5445 18.2903 27.1629 18.9535 24.9723 20.2076C24.1905 20.6408 23.4087 21.0741 22.627 21.5073C22.5439 21.5453 22.5097 21.6363 22.4153 21.7047C22.1661 21.8188 21.9169 21.9329 21.6864 22.0886C20.6099 22.7573 19.7591 23.6491 19.2548 24.8094C18.9059 25.6473 18.5455 26.5156 18.4679 27.4554C18.2778 28.1454 18.1291 28.8163 17.9088 29.4949C17.6201 30.3555 17.2712 31.1934 16.941 32.0731C16.8687 32.3574 16.7776 32.6 16.6564 32.8313C16.2699 33.586 15.925 34.3216 15.5385 35.0763C15.2277 35.721 14.8982 36.324 14.5572 36.9573C14.5043 37.0067 14.4929 37.037 14.4816 37.0673C13.872 38.0497 13.2511 39.0624 12.6114 40.0335C12.2745 40.5645 11.9188 41.0539 11.5517 41.5736C10.8477 42.6243 10.4151 43.7769 10.0012 44.9711C9.44395 46.1808 8.92823 47.3714 8.32207 48.5281C8.03406 49.1121 7.70451 49.7151 7.00243 49.936C6.69292 50.0274 6.31573 50.0243 5.92716 50.0514C4.97376 49.659 4.19052 49.0881 3.84201 48.0922C3.69591 47.6567 3.71594 47.1451 3.6643 46.6413C3.72586 46.1107 3.8062 45.6218 3.7847 45.1292C3.7417 44.1441 3.95128 43.2193 4.35315 42.332C4.77778 41.384 5.14211 40.4134 5.5366 39.4541C5.77907 38.9914 5.99138 38.5174 6.16217 38.0625C6.32156 37.6378 6.36036 37.1679 6.51976 36.7433C6.67915 36.3187 6.929 35.928 7.16008 35.4956C7.34562 35.1846 7.54992 34.9153 7.70531 34.5929C8.35766 33.0383 9.25858 31.6463 10.3779 30.4054C10.5594 30.1967 10.6807 29.9653 10.8435 29.715C11.2567 28.7974 11.4475 27.8308 11.5666 26.872C11.7701 25.3219 12.0942 23.8172 12.6333 22.2893C12.9367 21.5726 13.2475 20.928 13.5697 20.253C13.8155 19.9646 14.0124 19.6233 14.277 19.3765C15.0936 18.5757 16.0455 17.9641 17.0651 17.4471C17.3974 17.295 17.6808 17.0899 18.0245 16.9074C18.3755 16.797 18.7265 16.6865 19.0287 16.5231C19.7877 16.1505 20.607 15.8005 21.3171 15.375C22.5296 14.619 23.6557 13.7267 24.9922 13.1902C25.5623 12.9543 26.1813 12.7714 26.7742 12.4749C28.4811 11.593 30.3791 11.3019 32.2281 10.9578C34.1904 10.587 36.1486 10.3185 38.1109 9.94775C40.5863 9.49275 43.0356 8.92412 45.5513 9.00331C47.2222 9.04222 48.8247 9.26312 50.4079 9.71897C51.8289 10.1486 53.1361 10.8815 54.4245 11.5727C55.5133 12.1545 56.6703 12.5542 57.8542 12.7909C59.1586 13.0729 60.4597 13.1807 61.7755 13.4324C62.8689 13.6352 63.9811 13.8796 65.0705 14.1847C65.9977 14.4636 66.921 14.8447 67.814 15.2146C67.8743 15.2372 67.9534 15.3015 67.9909 15.3848C67.2621 15.7687 66.5144 16.1109 65.8459 16.5175C64.7995 17.1975 63.7719 17.9191 62.7255 18.5991C62.1701 18.9789 61.8031 19.4986 61.696 20.1505C61.5848 20.9047 61.8134 21.5788 62.3514 22.1614C62.5169 22.3619 62.724 22.5435 62.8593 22.7327C63.9086 24.0609 65.0939 25.3018 66.3549 26.4326C67.6762 27.5861 69.0277 28.7509 70.4019 29.855C71.8438 31.0537 73.4986 31.5019 75.3182 30.8699C75.9599 30.6263 76.6131 30.3524 77.1986 29.9839C78.3053 29.3266 79.4421 28.6806 80.4624 27.8869C81.6186 27.006 82.677 26.0191 83.7843 25.0851C84.6433 25.546 85.4721 25.9955 86.3009 26.445C86.4704 26.5432 86.6814 26.6225 86.8737 26.66C88.0502 26.8248 89.1771 27.2132 90.2357 27.7836C91.3057 28.3237 92.3643 28.8941 93.4343 29.4341C94.0145 29.7211 94.5873 29.9361 95.1562 30.2535C97.5333 31.5265 99.2299 33.5129 100.496 35.8221C101.525 37.6619 102.037 39.6882 102.168 41.8137C102.216 42.4198 102.275 42.9957 102.364 43.5828C102.545 45.208 102.839 46.8065 102.734 48.4625C102.659 49.5766 102.585 50.6907 102.5 51.8352C102.278 53.067 102.026 54.2875 101.846 55.5003C101.766 55.9892 101.776 56.5121 101.756 57.0236C101.725 57.2889 101.694 57.5542 101.747 57.7814C101.989 58.8761 102.221 60.001 102.505 61.0767C102.583 61.4175 102.745 61.7204 102.895 62.0536C102.992 62.4361 103.059 62.8073 103.168 63.1595C103.463 64.2048 103.759 65.2501 103.786 66.3679C103.811 67.0347 103.806 67.6902 103.819 68.3874C103.783 69.3082 103.747 70.229 103.681 71.1385C103.717 72.0516 103.47 72.8931 103.132 73.7008L103.162 73.7121Z" fill="#FEAF53"/>
<path d="M68.074 15.3468C68.074 15.3468 67.946 15.2295 67.8857 15.2069C66.9812 14.8674 66.0694 14.4559 65.1421 14.177C64.0527 13.8719 62.9707 13.6388 61.8472 13.4247C60.5615 13.1843 59.2303 13.0652 57.9259 12.7832C56.742 12.5465 55.5963 12.1164 54.4962 11.565C53.1964 10.9041 51.9006 10.1409 50.4796 9.71128C48.8964 9.25542 47.2939 9.03453 45.623 8.99561C43.0959 8.94676 40.658 9.48506 38.1826 9.94006C36.2203 10.3108 34.2621 10.5793 32.2998 10.9501C30.4508 11.2942 28.5528 11.5853 26.8459 12.4672C26.2832 12.775 25.6755 12.9276 25.0639 13.1825C23.7575 13.7303 22.6201 14.6529 21.3888 15.3673C20.6673 15.8232 19.8594 16.1428 19.1004 16.5154C18.7681 16.6675 18.4472 16.7893 18.0774 16.8581C16.7989 15.1324 15.7281 13.3116 15.0009 11.3084C14.7161 10.5094 14.5143 9.67237 14.3012 8.86566C14.204 8.48312 14.1483 8.08157 14.0625 7.66871C14.9869 5.93937 16.4418 4.72067 18.0811 3.74416C20.472 2.32309 23.133 1.55708 25.8235 1.07899C29.0687 0.497674 32.3206 0.26494 35.6094 0.392106C38.1553 0.482612 40.6783 0.633781 43.1974 0.887262C45.8672 1.19733 48.5518 1.65135 51.1948 2.12439C52.654 2.36069 54.0677 2.7183 55.4927 3.04559C56.2806 3.23753 57.0873 3.47111 57.8638 3.69338C58.9532 3.99849 60.0653 4.24293 61.1547 4.54804C62.3345 4.8871 63.5331 5.26781 64.7317 5.64852C65.4064 5.86716 66.0811 6.08581 66.7859 6.31577C67.0271 6.40631 67.2495 6.4552 67.4606 6.53442L69.2092 7.19082C69.2092 7.19082 69.4317 7.23971 69.5637 7.25465C70.9505 7.77524 72.3073 8.28451 73.6526 8.82412C74.0331 9.00157 74.3949 9.13738 74.7266 9.26187C75.2579 9.49591 75.7704 9.6883 76.3017 9.92234C77.0253 10.194 77.7603 10.4352 78.4611 10.7675C79.3127 11.1564 80.1528 11.5756 80.9629 11.9834C81.5431 12.2704 82.1648 12.5384 82.7451 12.8254C83.9959 13.4334 85.2281 13.9997 86.4676 14.638C87.8464 15.3632 89.1838 16.1075 90.5398 16.8933C91.8658 17.6679 93.1502 18.4615 94.4232 19.2854C96.8111 20.8046 99.1233 22.4339 101.296 24.2528C102.944 25.6331 104.559 27.1044 106.091 28.6136C107.939 30.3801 109.522 32.3932 110.864 34.5924C112.168 36.7084 113.091 38.9234 113.319 41.4314C113.418 42.5414 113.487 43.6402 113.27 44.7697C112.868 45.657 112.5 46.4533 112.121 47.2799C111.95 47.7349 111.67 48.1143 111.251 48.4067C110.034 49.2651 108.712 49.9455 107.316 50.4593C105.753 51.0492 104.168 51.4232 102.526 51.6722C102.601 50.5581 102.705 49.4553 102.749 48.3299C102.843 46.7042 102.56 45.0754 102.379 43.4502C102.32 42.8743 102.231 42.2872 102.183 41.681C102.053 39.5556 101.54 37.5293 100.511 35.6895C99.2151 33.3689 97.5487 31.3938 95.1716 30.1208C94.6215 29.8452 94.0299 29.5885 93.4497 29.3015C92.3797 28.7614 91.3097 28.2214 90.2511 27.651C89.1811 27.1109 88.0957 26.7035 86.8891 26.5274C86.6968 26.4898 86.4858 26.4106 86.3163 26.3124C85.4875 25.8628 84.6587 25.4133 83.8111 24.9221C83.9364 24.5885 84.1407 24.3191 84.2545 24.0158C84.4367 23.5305 84.6604 23.0262 84.3334 22.5228C84.0553 22.0724 83.7772 21.6219 83.3933 21.2702C82.4298 20.3548 81.3906 19.5495 80.4385 18.6038C78.8163 17.0605 77.1714 15.578 75.292 14.3534C74.4371 13.7903 73.4683 13.5304 72.4345 13.6269C70.9024 13.9515 69.4674 14.6586 68.074 15.3468Z" fill="#FFCE97"/>
<path d="M22.1516 72.4406C22.1516 72.4406 22.4497 72.3795 22.6045 72.3338C22.9555 72.2233 23.3179 72.0825 23.6991 71.9834C23.937 71.8996 24.1822 71.8878 24.42 71.8041C24.8655 71.6253 25.0852 71.2233 25.0637 70.7307C25.0127 69.9503 24.6635 69.2309 24.2802 68.6026C23.5023 67.3762 23.279 66.0466 23.5274 64.6518C23.5769 64.4282 23.5849 64.2236 23.676 63.9809C24.4559 64.3775 25.213 64.8347 25.9815 65.2616C27.56 66.0963 29.1385 66.9311 30.7285 67.7356C32.2581 68.5174 33.8292 69.2801 35.3816 70.0013C36.4328 70.4997 37.4954 70.9678 38.558 71.4359C39.9824 72.0397 41.4068 72.6436 42.8239 73.1755C45.3866 74.1375 47.9493 75.0995 50.5649 76.0121C51.5598 76.3855 52.5775 76.6984 53.6254 77.0225C55.0464 77.4521 56.456 77.912 57.9186 78.3226C59.1587 78.6843 60.4404 79.027 61.6919 79.3583C63.3883 79.7875 65.0545 80.2053 66.7435 80.5624C68.9076 81.0287 71.0528 81.4533 73.2208 81.8173C76.4936 82.3537 79.812 82.7687 83.131 82.9072C86.5404 83.0797 89.9277 83.0362 93.3236 82.5114C95.1084 82.247 96.8596 81.797 98.5397 81.0781C99.7744 80.538 100.881 79.8807 101.807 78.8788C101.819 78.8485 101.909 78.8824 101.97 78.9051C101.654 80.2052 101.368 81.5167 101.052 82.8169C100.606 84.553 99.487 85.7939 98.0098 86.7967C96.5742 87.7804 94.9436 88.2757 93.3244 88.7406C90.2595 89.6665 87.094 90.0355 83.8876 90.1469C78.2707 90.357 72.7046 89.7903 67.1546 88.8143C63.5086 88.1724 59.9082 87.4092 56.3271 86.4111C54.1785 85.8122 52.0413 85.1829 49.9154 84.5234C46.5193 83.4908 43.1499 82.2953 39.8676 80.9594C37.1582 79.8385 34.43 78.676 31.7775 77.4035C29.0044 76.0857 26.2996 74.5859 23.5606 73.1772C23.0179 72.9734 22.5998 72.7127 22.1516 72.4406Z" fill="#D79853"/>
<path d="M101.879 78.8711C101.879 78.8711 101.717 78.8449 101.706 78.8752C100.779 79.877 99.6424 80.5231 98.4379 81.0745C96.7879 81.8047 95.0179 82.2131 93.2218 82.5078C89.856 83.0439 86.4386 83.076 83.0291 82.9036C79.7215 82.7348 76.3918 82.35 73.119 81.8136C70.951 81.4497 68.7756 81.0138 66.6417 80.5588C64.9527 80.2017 63.2563 79.7725 61.5901 79.3547C60.3386 79.0233 59.0871 78.692 57.8168 78.319C56.3957 77.8894 54.9747 77.4598 53.5235 77.0188C52.5058 76.706 51.4881 76.3932 50.463 76.0085C47.9003 75.0465 45.3149 74.1452 42.722 73.1719C41.2748 72.6287 39.8504 72.0248 38.4562 71.4322C37.3936 70.9641 36.331 70.4961 35.2798 69.9977C33.7274 69.2765 32.1562 68.5137 30.6266 67.7319C29.0367 66.9275 27.4582 66.0927 25.8797 65.258C25.0998 64.8614 24.3842 64.3852 23.5856 63.947C23.5519 62.2041 23.5369 60.5028 23.5937 58.7938C23.6063 58.2103 23.702 57.5887 23.7864 56.9975C26.4678 58.8345 29.1605 60.6412 31.9518 62.2773C33.5565 63.2257 35.1913 64.1854 36.8602 65.0541C38.4388 65.8889 40.0588 66.7046 41.6601 67.4787C43.2614 68.2528 44.8741 68.9966 46.5169 69.7517C47.6398 70.2424 48.7326 70.7218 49.8782 71.1519C51.838 71.8875 53.8278 72.6344 55.8103 73.3094C57.6722 73.939 59.5756 74.5497 61.4603 75.1187C62.3875 75.3976 63.3148 75.6764 64.2233 75.9137C65.6671 76.2826 67.1524 76.6325 68.6076 76.9711C70.2966 77.3283 71.9441 77.7045 73.6371 77.9593C76.3143 78.3413 79.0028 78.6931 81.7142 78.9841C84.5274 79.2788 87.3787 79.3802 90.2012 78.917C90.3513 79.2502 90.49 79.6137 90.6401 79.9469C91.1695 81.0107 91.9943 81.5626 93.1252 81.8487C94.358 82.1384 95.46 81.86 96.5399 81.3656C98.4995 80.5439 100.072 79.1962 101.222 77.4134C101.537 76.9431 101.802 76.4197 102.127 75.919C102.084 76.7679 101.999 77.6357 101.914 78.5035C101.94 78.6172 101.895 78.7385 101.879 78.8711Z" fill="#FFCE97"/>
<path d="M17.2808 59.8501C16.8937 60.8813 16.9025 61.9574 17.1566 63.0217C17.3282 63.8474 17.6056 64.5745 18.0151 65.3165C18.2818 65.7972 18.3596 66.4147 18.4186 66.9906C18.5373 67.8656 18.5541 68.7371 18.6427 69.6009C18.6534 69.8471 18.7359 70.0857 18.8069 70.3546C17.5339 69.5307 16.2006 68.6842 14.9503 67.7996C11.7946 65.5769 8.79017 63.1341 6.13746 60.3043C4.38396 58.4695 2.75907 56.4754 1.58368 54.2001C0.438445 51.9361 -0.193614 49.588 0.295131 47.003C0.627217 45.2936 1.04975 43.6181 1.66457 41.9802C1.86951 41.4343 2.20643 40.9032 2.5132 40.3609C2.51256 40.6375 2.47039 40.9331 2.43961 41.1984C2.17857 43.1767 2.84205 44.983 3.74336 46.7055C3.80639 47.1791 3.78636 47.6906 3.93246 48.1261C4.28096 49.1221 5.03406 49.6816 6.01761 50.0854C7.26321 51.3489 8.34268 52.6884 9.63383 53.8306C11.4369 55.4417 13.3572 56.9239 15.2359 58.425C15.8269 58.9583 16.5652 59.3738 17.2808 59.8501Z" fill="#D79854"/>
<path d="M103.008 62.0269C102.888 61.705 102.696 61.3908 102.618 61.05C102.345 59.944 102.102 58.8494 101.86 57.7547C101.808 57.5275 101.868 57.2735 101.911 56.9779C102.56 56.8063 103.186 56.6954 103.786 56.4708C104.779 56.1168 105.802 55.7741 106.758 55.3368C107.411 55.0629 108.045 54.7473 108.593 54.2955C109.459 53.5476 110.196 52.6825 110.994 51.84C111.14 53.8328 110.992 55.7844 110.66 57.7705C110.591 58.229 110.473 58.6347 110.362 59.1123C109.486 59.6139 108.67 60.1381 107.84 60.5184C106.261 61.2409 104.623 61.6642 103.008 62.0269Z" fill="#FECE97"/>
<path d="M110.994 51.84C110.196 52.6825 109.447 53.578 108.582 54.3259C108.064 54.789 107.399 55.0932 106.746 55.3671C105.761 55.7931 104.768 56.1471 103.775 56.5012C103.186 56.6954 102.56 56.8063 101.911 56.9779C101.919 56.4967 101.879 55.9625 101.959 55.4736C102.139 54.2608 102.391 53.0403 102.613 51.8085C104.266 51.5291 105.851 51.1552 107.414 50.5653C108.81 50.0514 110.121 49.4013 111.349 48.5126C111.768 48.2202 112.018 47.8295 112.219 47.3859C112.598 46.5592 112.947 45.7213 113.367 44.8756C113.027 47.0662 112.301 49.1817 111.275 51.1841C111.195 51.3964 111.115 51.6087 111.024 51.8513L110.994 51.84Z" fill="#D79854"/>
<path d="M14.017 7.79003C14.1142 8.17257 14.1698 8.57412 14.267 8.95665C14.4802 9.76337 14.6819 10.6004 14.9668 11.3994C15.6939 13.4026 16.7761 15.1931 18.0131 16.9378C17.7297 17.1429 17.4048 17.3669 17.0725 17.5191C16.0529 18.0361 15.101 18.6477 14.2844 19.4485C14.0198 19.6953 13.8343 20.0063 13.5583 20.2833C13.4792 20.219 13.4002 20.1548 13.3626 20.0715C12.5678 17.9736 12.388 15.7952 12.5666 13.5783C12.7024 11.9337 12.94 10.2926 13.5207 8.7457C13.6647 8.4537 13.8502 8.14269 14.017 7.79003Z" fill="#D79854"/>
<path d="M103.008 62.0269C104.665 61.6452 106.273 61.2106 107.798 60.5374C108.67 60.1381 109.486 59.6139 110.321 59.1313C109.757 61.5496 108.862 63.8435 107.296 65.8164C106.781 66.4538 106.157 67.0156 105.552 67.6191C105.428 67.6761 105.315 67.7029 105.232 67.7409C104.816 67.931 104.401 68.1212 103.944 68.3303C103.919 67.6635 103.924 67.008 103.911 66.3108C103.883 65.1931 103.588 64.1478 103.292 63.1025C103.172 62.7806 103.094 62.4397 103.008 62.0269Z" fill="#D79854"/>
<path d="M3.72459 46.6639C2.8119 44.9717 2.16719 43.2071 2.40946 41.1871C2.45163 40.8915 2.48242 40.6262 2.49444 40.3193C3.12611 39.5528 3.75778 38.7864 4.44976 38.0426C4.84844 38.5383 5.18683 39.0114 5.55536 39.4957C5.16088 40.455 4.79654 41.4256 4.38329 42.3433C3.98143 43.2306 3.77185 44.1555 3.81485 45.1405C3.82496 45.6634 3.74463 46.1523 3.72459 46.6639Z" fill="#FFCD97"/>
<path d="M10.881 29.7983C10.7296 30.0183 10.597 30.28 10.4268 30.4583C9.33764 31.7105 8.40657 33.0913 7.75423 34.6459C7.64037 34.9492 7.42468 35.2489 7.22038 35.5183C6.88263 34.7686 6.61656 34.0112 6.30896 33.2729C6.27143 33.1896 6.19237 33.1253 6.14346 33.0723C7.23793 31.1646 8.56959 29.4497 10.1987 27.9504C10.4387 28.5941 10.6598 29.1962 10.881 29.7983Z" fill="#FECE97"/>
<path d="M6.09054 33.1217C6.09054 33.1217 6.26005 33.2199 6.29757 33.3032C6.60518 34.0416 6.87124 34.7989 7.20899 35.5486C7.01945 35.9619 6.79975 36.3639 6.64036 36.7886C6.48096 37.2132 6.41201 37.6718 6.28276 38.1077C6.11198 38.5627 5.86951 39.0254 5.6572 39.4994C5.28866 39.015 4.92013 38.5306 4.55159 38.0462C4.59376 37.7506 4.65469 37.4966 4.66671 37.1897C4.78311 35.78 5.3216 34.5287 6.02222 33.3036C6.02222 33.3036 6.05638 33.2127 6.09054 33.1217Z" fill="#D79854"/>
<path d="M10.8924 29.768C10.6598 29.1962 10.4387 28.5941 10.1987 27.9504C10.1302 26.5751 10.6346 25.4148 11.1804 24.2355C11.5709 23.3785 12.082 22.5668 12.5857 21.6831C12.638 21.9104 12.6601 22.1263 12.6708 22.3726C12.1545 23.8398 11.7889 25.3636 11.6156 26.925C11.4964 27.8838 11.2868 28.8087 10.8924 29.768Z" fill="#D79854"/>
<path d="M103.951 68.4023C104.378 68.1818 104.793 67.9917 105.239 67.8129C105.322 67.7748 105.435 67.7481 105.56 67.6911C105.54 67.926 105.449 68.1687 105.377 68.453L104.523 70.7278C104.293 70.8836 104.074 71.009 103.855 71.1344C103.849 70.2326 103.885 69.3118 103.951 68.4023Z" fill="#FFCD97"/>
<path d="M103.813 71.1534C104.044 70.9977 104.263 70.8723 104.493 70.7165C104.504 70.6862 104.565 70.7088 104.565 70.7088C104.099 71.6758 103.663 72.6541 103.185 73.6514C103.5 72.9045 103.777 72.0742 103.813 71.1534Z" fill="#D79854"/>
<path d="M12.6822 22.3422C12.6601 22.1263 12.638 21.9104 12.5971 21.6528C12.8509 21.1598 13.1162 20.6364 13.3928 20.0828C13.4531 20.1054 13.5208 20.2 13.5884 20.2946C13.3266 20.9923 13.0044 21.6672 12.6822 22.3422Z" fill="#FECE97"/>
<path d="M69.5107 7.30399C69.5107 7.30399 69.4618 7.25103 69.4317 7.23971C70.8788 7.78293 72.326 8.32616 73.7317 8.8884L69.5107 7.30399Z" fill="#FFF3B8"/>
<path d="M69.4431 7.20938C69.4431 7.20938 69.492 7.26234 69.5221 7.27366C69.4203 7.27004 69.3185 7.26642 69.1979 7.22115L67.4492 6.56475C67.2381 6.48553 67.0157 6.43664 66.8047 6.35742C67.3889 6.54212 68.0033 6.73813 68.5875 6.92283C68.8588 7.02468 69.1416 7.09621 69.4431 7.20938Z" fill="#FECE97"/>
<path d="M73.6298 8.88478C73.6298 8.88478 73.7317 8.8884 73.792 8.91104C74.5457 9.19397 75.2693 9.46558 75.9815 9.76752C76.1021 9.81279 76.1811 9.87707 76.279 9.983C75.7664 9.79061 75.2351 9.55657 74.6924 9.35286C74.342 9.18672 73.9802 9.05092 73.6298 8.88478Z" fill="#FECE97"/>
<path d="M104.565 70.7088C104.565 70.7088 104.553 70.7392 104.493 70.7165C104.766 69.9886 105.04 69.2606 105.324 68.5023C105.301 68.563 105.328 68.6766 105.293 68.7676C105.066 69.3742 104.815 70.0415 104.565 70.7088Z" fill="#FECE97"/>
<path d="M90.2541 78.8677C87.4202 79.3611 84.5689 79.2598 81.7557 78.9651C79.0745 78.6854 76.3558 78.3223 73.6786 77.9403C71.9856 77.6854 70.308 77.2979 68.6491 76.9521C67.1826 76.6438 65.7388 76.2749 64.2648 75.8946C63.3262 75.6461 62.3989 75.3673 61.5018 75.0997C59.6285 74.5004 57.7439 73.9314 55.8518 73.2903C53.8693 72.6154 51.8795 71.8685 49.9198 71.1328C48.7741 70.7028 47.6813 70.2234 46.5584 69.7327C44.9458 68.9889 43.3029 68.2338 41.7016 67.4597C40.1003 66.6856 38.4803 65.8699 36.9018 65.0351C35.2442 64.136 33.6395 63.1876 31.9933 62.2583C29.2021 60.6222 26.5093 58.8155 23.8279 56.9785C24.0147 56.1143 24.16 55.2691 24.4674 54.4501C24.7065 53.8132 25.0662 53.2215 25.4373 52.5995C27.5203 53.8312 29.5618 55.082 31.6375 56.2418C33.1932 57.1373 34.8247 57.9227 36.4447 58.7384C37.6842 59.3767 38.9351 59.9847 40.186 60.5927C41.467 61.2119 42.7708 61.7706 44.0633 62.3595C45.0957 62.8163 46.1396 63.2427 47.1834 63.6691C48.2574 64.1069 49.3314 64.5446 50.4469 64.9634C51.5625 65.3821 52.6894 65.7705 53.8163 66.1589C54.8528 66.5134 55.8778 66.8982 56.9143 67.2526C58.3541 67.7239 59.7939 68.1951 61.2451 68.636C62.4437 69.0167 63.6838 69.3784 64.9052 69.6985C66.1453 70.0602 67.3854 70.4219 68.6484 70.7229C70.4164 71.1443 72.2146 71.5771 74.0169 71.9075C76.69 72.3919 79.3632 72.8763 82.0518 73.228C85.2268 73.6585 88.4513 73.8653 91.6651 73.8259C92.2158 73.825 92.7363 73.8127 93.287 73.8118C92.8824 74.2482 92.508 74.696 92.0846 75.0907C91.404 75.8042 90.7838 76.5403 90.4422 77.4502C90.2225 77.8522 90.3043 78.3674 90.2541 78.8677Z" fill="#D79853"/>
<path d="M37.6569 33.5165C37.6569 33.5165 37.7781 33.2851 37.884 33.1864C39.3771 31.7744 40.8026 30.2678 42.5102 29.1093C44.0402 28.0572 45.7204 27.3383 47.5279 27.0132C48.6675 26.8181 49.7535 26.9489 50.7706 27.5383C51.2302 27.7801 51.7313 28.0028 52.2097 28.2862C52.2829 29.2826 52.7305 29.8312 53.5371 30.0648C54.0309 30.2156 54.5139 30.12 54.9896 29.9525C56.0897 30.5039 57.1671 31.1159 58.2786 31.637C59.6501 32.2902 61.0671 32.8221 62.5712 33.2137C63.9433 33.5903 65.2899 33.5767 66.6781 33.5441C67.4023 33.5391 68.1453 33.5758 68.8655 33.6731C69.7478 33.7967 70.3462 34.402 70.9104 35.0982C70.8703 36.1213 71.3554 36.7533 72.207 37.1421C72.3679 37.7216 72.51 38.2594 72.6708 38.8389C72.7231 39.0661 72.7754 39.2934 72.8277 39.5206C72.8538 39.6343 72.8612 39.7063 72.8686 39.7782C72.8759 39.8502 72.8947 39.8919 72.8947 39.8919C72.9116 40.7633 73.0115 41.5967 72.9265 42.4646C72.8563 43.4764 72.6729 44.5149 72.4104 45.4891C72.1479 46.4633 71.7232 47.4113 71.2872 48.3896C70.1677 48.0732 69.0783 47.7681 68.0003 47.4326C66.862 47.0745 65.7237 46.7165 64.6383 46.3091C61.744 45.2226 58.861 44.1058 56.0082 43.0004L55.9177 42.9664C54.565 42.3548 53.2123 41.7432 51.8897 41.143C51.268 40.875 50.6576 40.5767 50.0473 40.2783C49.0865 39.8139 48.1371 39.3191 47.1877 38.8243C46.2685 38.3408 45.3378 37.8877 44.43 37.3739C43.1529 36.6523 41.8458 35.9193 40.5687 35.1978C39.5778 34.722 38.6023 34.1136 37.6569 33.5165ZM64.1351 40.4103C64.8667 40.4773 65.6057 40.6163 66.3487 40.6529C67.7027 40.7113 69.0533 40.5954 70.3181 40.0666C70.5258 39.9716 70.7448 39.8462 70.6135 39.5546C70.5009 39.3047 70.2745 39.3582 70.0782 39.4229C69.2702 39.7425 68.4174 39.9069 67.58 39.9386C63.589 40.0323 59.9973 38.7879 56.7852 36.4402C55.6555 35.6009 54.6244 34.5909 54.107 33.2202C54.0245 32.9816 53.8021 32.9327 53.5944 33.0278C53.3868 33.1228 53.3372 33.3465 53.4726 33.5357C53.8371 34.1224 54.1487 34.7584 54.6077 35.2768C55.9994 36.9758 57.7923 38.064 59.7554 38.974C61.0968 39.6159 62.5667 40.0984 64.1351 40.4103ZM52.2055 31.7797C52.0098 31.5678 51.8483 31.265 51.5997 31.1024C50.6282 30.3917 49.4711 29.992 48.2987 29.7249C47.8237 29.6158 47.2844 29.5864 46.8127 29.6516C46.1977 29.7322 46.0229 30.2895 46.4216 30.7852C46.5871 30.9857 46.7828 31.1976 47.0126 31.3184C47.8943 31.7186 48.7948 32.1604 49.7408 32.4809C50.325 32.6656 50.9775 32.6684 51.6113 32.6294C52.1017 32.6059 52.2457 32.3139 52.2055 31.7797Z" fill="#FFCD97"/>
<path d="M93.2381 73.7588C92.6874 73.7598 92.1669 73.772 91.6162 73.7729C88.4024 73.8123 85.1966 73.6471 82.0029 73.175C79.3257 72.793 76.6411 72.3389 73.9679 71.8546C72.1657 71.5241 70.3976 71.1027 68.5994 70.6699C67.3365 70.3689 66.0964 70.0072 64.8563 69.6455C63.6463 69.2951 62.4363 68.9447 61.1962 68.5831C59.745 68.1421 58.3052 67.6709 56.8654 67.1997C55.8289 66.8452 54.7925 66.4907 53.7674 66.106C52.6405 65.7175 51.5136 65.3291 50.398 64.9104C49.2825 64.4917 48.2386 64.0652 47.1345 63.6162C46.0907 63.1897 45.0468 62.7633 44.0144 62.3065C42.7106 61.7479 41.4181 61.159 40.1371 60.5397C38.8862 59.9317 37.6353 59.3238 36.3958 58.6855C34.7758 57.8697 33.1557 57.054 31.5886 56.1889C29.5129 55.0291 27.4714 53.7783 25.4299 52.5275C25.7327 52.0874 26.0468 51.6171 26.44 51.211C27.4267 50.2318 28.4624 49.3055 29.5396 48.3603C29.6903 48.4169 29.7694 48.4811 29.8484 48.5454C32.5606 50.1172 35.25 51.7496 38.0151 53.272C40.0606 54.4205 42.1818 55.459 44.2615 56.5164C45.6819 57.2227 47.1552 57.8795 48.5984 58.525C49.9813 59.1479 51.4057 59.7518 52.7999 60.3444C54.2658 60.9293 55.7318 61.5142 57.2091 62.0687C57.8121 62.295 58.4265 62.4911 59.0408 62.6871C60.1979 63.0868 61.3664 63.4562 62.5234 63.8559C63.8426 64.2819 65.2034 64.6888 66.5225 65.1148C66.6003 65.7323 66.6781 66.3498 66.7861 66.9786C67.0871 68.9257 68.5672 69.9311 70.1168 70.2014C71.1198 70.3702 71.9317 69.9483 72.5332 69.1705C72.9304 68.6621 73.2185 68.0781 73.5668 67.5168C73.6538 67.3764 73.7108 67.2248 73.8394 67.0654C74.4879 67.1704 75.1251 67.3058 75.7321 67.4298C77.5229 67.7906 79.291 68.2121 81.0858 68.4705C83.5593 68.8453 86.0141 69.1785 88.4916 69.451C90.0868 69.5999 91.6974 69.6162 93.308 69.6324C94.1642 69.6424 95.0318 69.622 95.888 69.632C95.5578 70.5116 95.2276 71.3912 94.6488 72.1083C94.2101 72.6357 93.7224 73.1101 93.2421 73.6565C93.2495 73.7285 93.2381 73.7588 93.2381 73.7588Z" fill="#FFCE97"/>
<path d="M68.0325 15.3658C69.4674 14.6586 70.8722 13.9402 72.4908 13.7518C73.5246 13.6554 74.4632 13.9039 75.3483 14.4784C77.2277 15.7029 78.9027 17.1968 80.4947 18.7287C81.4583 19.6441 82.4861 20.4798 83.4496 21.3951C83.8335 21.7469 84.1116 22.1973 84.3897 22.6478C84.7167 23.1512 84.493 23.6555 84.3108 24.1408C84.197 24.4441 84.0228 24.7248 83.8373 25.0358C82.7186 26 81.6789 27.0286 80.5341 27.8793C79.4837 28.6615 78.377 29.3189 77.2703 29.9762C76.6848 30.3447 76.0316 30.6186 75.3899 30.8622C73.5589 31.5245 71.9155 31.046 70.4736 29.8473C69.1108 28.7128 67.7479 27.5784 66.4266 26.4249C65.1656 25.2941 63.9689 24.0836 62.931 22.725C62.7655 22.5245 62.5886 22.3542 62.4231 22.1537C61.9152 21.5824 61.6565 20.897 61.7676 20.1428C61.8747 19.4909 62.2117 18.9599 62.7972 18.5914C63.8436 17.9114 64.841 17.1784 65.9176 16.5098C66.5861 16.1032 67.3338 15.761 68.0325 15.3658Z" fill="#FFF3B8"/>
<path d="M37.6455 33.5468C38.6324 34.1249 39.5778 34.722 40.5647 35.3001C41.8304 36.052 43.1074 36.7736 44.426 37.4762C45.3338 37.99 46.2644 38.4431 47.1837 38.9266C48.1331 39.4214 49.0939 39.8858 50.0432 40.3806C50.6536 40.679 51.2754 40.947 51.8857 41.2453C53.2384 41.8569 54.5912 42.4684 55.9137 43.0687L56.0042 43.1027C58.8871 44.2194 61.7701 45.3362 64.6343 46.4114C65.7498 46.8301 66.8881 47.1882 67.9963 47.5349C69.0743 47.8704 70.1523 48.2058 71.2718 48.5222C70.5598 49.7776 69.7687 50.9687 69.117 52.2467C68.8518 52.77 68.8351 53.4558 68.6791 54.0548C68.5357 54.0702 68.4754 54.0475 68.3736 54.0439C67.1938 53.7048 66.0025 53.3961 64.8341 53.0267C63.2322 52.5292 61.6115 51.9901 59.9908 51.4509C58.894 51.0738 57.7785 50.6551 56.7045 50.2174C54.7863 49.4627 52.8681 48.7081 50.9613 47.9231C49.5068 47.3079 48.0636 46.6624 46.662 45.9978C45.8104 45.609 44.9287 45.2088 44.0885 44.7896C42.7586 44.1174 41.4099 43.4035 40.0913 42.7009C38.7426 41.987 37.4468 41.2237 36.1397 40.4908C35.4616 40.0979 34.7534 39.6936 34.0754 39.3007C34.8348 37.0942 36.0613 35.2014 37.6455 33.5468Z" fill="#D79853"/>
<path d="M66.6244 65.1184C65.2938 64.7228 63.9331 64.3158 62.6139 63.8899C61.4454 63.5205 60.2884 63.1207 59.1313 62.721C58.5169 62.525 57.9025 62.329 57.2996 62.1026C55.8222 61.5481 54.3563 60.9632 52.8904 60.3784C51.4847 59.8161 50.0717 59.1819 48.6888 58.559C47.2457 57.9135 45.7724 57.2566 44.352 56.5504C42.2723 55.4929 40.1511 54.4544 38.1056 53.306C35.3405 51.7835 32.6511 50.1511 29.9389 48.5794C29.8598 48.5151 29.7694 48.4811 29.6602 48.4055C29.8229 48.1552 30.0272 47.8858 30.2503 47.6581C31.0936 46.6943 31.7789 45.6019 32.3663 44.4036C32.9351 44.7209 33.4738 45.027 34.0125 45.333C35.6888 46.2737 37.335 47.2031 39.0341 48.0831C40.153 48.6761 41.2947 49.2085 42.4364 49.7409C43.7777 50.3828 45.119 51.0247 46.4416 51.625C47.4138 52.0591 48.3973 52.4629 49.3507 52.8554C50.485 53.3157 51.5892 53.7648 52.7348 54.1949C54.5438 54.8739 56.334 55.5113 58.1544 56.16C58.7573 56.3863 59.3416 56.571 59.9559 56.767C61.377 57.1966 62.798 57.6262 64.219 58.0558C64.8334 58.2518 65.4592 58.4175 66.0849 58.5832C66.9934 58.8204 67.9321 59.0689 68.8405 59.3061C68.9679 59.7 68.7408 60.03 68.5968 60.322C68.2746 60.997 67.9109 61.691 67.5586 62.3547C67.0134 63.2574 66.8755 64.1745 66.6244 65.1184Z" fill="#D79853"/>
<path d="M78.393 50.261C78.7192 49.4837 79.0567 48.6761 79.3527 47.8874C79.9448 46.3102 80.0806 44.6655 80.0241 42.9833C79.963 41.6799 80.0151 40.3499 80.0256 39.0389C80.0182 38.9669 80.1469 38.8075 80.2487 38.8112C81.9242 38.4712 83.5059 37.9229 85.099 37.3443C85.9786 37.017 86.9293 36.9586 87.8645 37.0328C88.9619 37.1333 90.0366 37.2945 91.0389 37.7399C92.6026 38.4307 93.8904 39.3986 94.6751 40.9735C95.2159 42.007 95.6736 43.0786 95.852 44.2529C95.9445 45.0144 95.9654 45.7835 95.9863 46.5526C96.0132 47.947 96.0402 49.3413 96.037 50.7243C96.0471 51.2472 95.9253 51.7551 95.8637 52.2857C89.8964 52.3297 84.1159 51.5095 78.393 50.261Z" fill="#FFCE97"/>
<path d="M68.799 59.3252C67.8791 59.1183 66.9405 58.8698 66.0434 58.6022C65.4176 58.4365 64.8033 58.2405 64.1775 58.0748C62.7565 57.6453 61.3354 57.2157 59.9144 56.7861C59.3 56.59 58.7158 56.4053 58.1128 56.179C56.2925 55.5303 54.5023 54.8929 52.6933 54.2139C51.5476 53.7838 50.4435 53.3348 49.3092 52.8744C48.3256 52.4706 47.3421 52.0668 46.4001 51.644C45.0474 51.0324 43.706 50.3905 42.3948 49.7599C41.2532 49.2275 40.1115 48.6951 38.9926 48.1021C37.3049 47.1917 35.6587 46.2624 33.9709 45.352C33.4323 45.046 32.9237 44.7513 32.3663 44.4036C32.5712 43.8576 32.8063 43.323 32.9999 42.8074C33.239 42.1704 33.4064 41.5411 33.6153 40.8929C33.7787 40.3659 33.9307 39.8693 34.1055 39.312C34.795 39.6746 35.5031 40.0789 36.1812 40.4718C37.4884 41.2047 38.8143 41.9793 40.1329 42.6819C41.4514 43.3844 42.77 44.087 44.1301 44.7706C44.9703 45.1898 45.852 45.59 46.7035 45.9788C48.1467 46.6244 49.5785 47.3002 51.0029 47.9041C52.9097 48.6891 54.8279 49.4437 56.746 50.1983C57.82 50.6361 58.9356 51.0548 60.0323 51.4319C61.6416 52.0014 63.2436 52.4989 64.8756 53.0077C66.0441 53.3771 67.2353 53.6858 68.4151 54.0249C68.5056 54.0589 68.6074 54.0625 68.7093 54.0661C68.8239 55.0435 68.9802 56.0018 68.993 56.9756C68.9837 57.7334 68.8612 58.518 68.799 59.3252Z" fill="#FFCE97"/>
<path d="M95.9784 69.6659C95.1108 69.6863 94.2432 69.7067 93.387 69.6967C91.7878 69.6501 90.1659 69.6642 88.5707 69.5153C86.0818 69.2731 83.627 68.9399 81.1649 68.5348C79.3814 68.246 77.602 67.8549 75.8111 67.4941C75.2041 67.3701 74.567 67.2347 73.9298 67.0994C74.4991 65.5828 74.6309 64.0404 74.4384 62.4456C74.3794 61.8697 74.392 61.2862 74.4349 60.714C75.0231 60.7964 75.5886 60.9394 76.1768 61.0218C78.7106 61.4192 81.2632 61.8583 83.8084 62.2254C85.5429 62.4613 87.2701 62.6251 88.9899 62.717C91.249 62.8383 93.4934 62.8156 95.7565 62.8346C95.9321 63.558 96.1379 64.2928 96.2418 65.0239C96.5287 66.5504 96.3969 68.0928 95.9784 69.6659Z" fill="#D79853"/>
<path d="M22.5057 21.7386C22.5057 21.7386 22.6042 21.568 22.6873 21.5299C23.469 21.0967 24.2508 20.6634 25.0326 20.2302C27.2232 18.9762 29.635 18.3243 32.1212 18.1155C33.4001 18.0073 34.5993 18.1114 35.7939 18.5944C37.1393 19.134 38.4732 19.704 39.7388 20.4559C40.3566 20.8262 40.9857 21.1662 41.6336 21.5478C41.8333 21.6574 41.98 21.8162 42.1683 21.9561C42.6688 22.4555 42.7051 23.092 42.1946 23.6271C41.707 24.1015 41.2079 24.6063 40.6526 24.9861C39.436 25.8444 38.1706 26.6498 36.9427 27.5385C35.9867 28.2524 35.0683 29.0497 34.1613 29.8165C33.8967 30.0633 33.7111 30.3743 33.4238 30.6817C32.2526 29.8614 31.1116 29.0524 29.9819 28.2131C27.346 26.2548 24.8502 24.1067 22.5057 21.7386Z" fill="#FFCE97"/>
<path d="M78.3515 50.28C84.1159 51.5095 89.8964 52.3297 95.7806 52.3237C95.7191 52.8543 95.6273 53.3735 95.5658 53.9041C95.3629 55.1776 95.1902 56.4623 94.9459 57.7548C91.7998 57.8889 88.7146 57.7689 85.6488 57.4141C83.2128 57.1226 80.7808 56.7287 78.379 56.3462C77.4665 56.2113 76.558 55.9741 75.6268 55.7976C76.1914 54.6599 76.7259 53.511 77.2905 52.3733C77.6241 51.668 77.9878 50.974 78.3515 50.28Z" fill="#D79853"/>
<path d="M22.4642 21.7577C24.82 24.0954 27.3461 26.2548 29.9705 28.2435C31.1002 29.0827 32.2412 29.8917 33.3709 30.731C32.5524 32.3617 32.0541 34.1471 30.8477 35.5284C30.5604 35.8357 30.2917 36.1848 29.993 36.5225C29.1454 36.0313 28.2979 35.5402 27.522 35.0413C24.6899 33.1477 22.0393 31.0453 19.6459 28.6243C19.2733 28.2422 18.8894 27.8905 18.5169 27.5084C18.5643 26.5573 18.9132 25.7193 19.3037 24.8623C19.8081 23.7021 20.6588 22.8102 21.7353 22.1416C21.9959 21.9971 22.215 21.8717 22.4642 21.7577Z" fill="#D79853"/>
<path d="M75.6268 55.7976C76.558 55.9741 77.4779 56.181 78.3904 56.3159C80.8224 56.7097 83.2242 57.0922 85.6602 57.3837C88.726 57.7386 91.8413 57.8698 94.9459 57.7548C95.035 58.342 95.0639 58.9065 95.1645 59.4633C95.3281 60.4937 95.5747 61.486 95.7383 62.5164C95.7156 62.577 95.7531 62.6603 95.719 62.7513C93.4558 62.7323 91.2115 62.755 88.941 62.664C87.2212 62.5722 85.4639 62.397 83.7595 62.1725C81.2029 61.8357 78.6617 61.3663 76.1279 60.9688C75.5698 60.8978 75.0043 60.7547 74.3973 60.6307C74.2304 59.426 74.3575 58.2626 74.9409 57.1666C75.2135 56.7152 75.4145 56.2716 75.6268 55.7976Z" fill="#FFCE97"/>
<path d="M17.2922 59.8197C16.5954 59.3852 15.8684 58.9393 15.2058 58.4137C13.327 56.9125 11.4067 55.4304 9.60368 53.8192C8.34268 52.6884 7.23307 51.3376 6.01761 50.0854C6.34588 50.0356 6.69292 50.0274 7.03258 49.9473C7.72328 49.7567 8.06421 49.1234 8.35222 48.5394C8.95838 47.3827 9.4741 46.1921 10.0314 44.9825C10.1218 45.0164 10.1821 45.039 10.231 45.092C11.4089 46.2609 12.5527 47.5207 13.7836 48.6403C15.5752 50.2817 17.4614 51.8549 19.3059 53.447C19.1647 54.1899 19.0536 54.9441 18.852 55.6644C18.6276 56.4453 18.343 57.2036 18.0584 57.9618C17.8193 58.5988 17.5614 59.1941 17.2922 59.8197Z" fill="#FFCE97"/>
<path d="M18.547 27.5197C18.9309 27.8715 19.3149 28.2232 19.6874 28.6053C22.0694 31.0567 24.72 33.159 27.5635 35.0223C28.3582 35.5628 29.187 36.0123 30.0231 36.5338C29.5161 37.2432 28.9976 37.9829 28.4604 38.681C27.9346 39.3488 27.3786 40.0052 26.7811 40.6806C25.9074 40.0758 25.094 39.4937 24.2732 38.8395C21.6715 36.7902 19.2172 34.6231 17.0616 32.1183C17.3804 31.269 17.7293 30.4311 18.018 29.5705C18.2082 28.8806 18.3568 28.2097 18.547 27.5197Z" fill="#FFCE97"/>
<path d="M11.5819 41.5849C11.949 41.0652 12.3046 40.5758 12.6416 40.0448C13.2812 39.0737 13.872 38.0497 14.5117 37.0786C14.5231 37.0483 14.5646 37.0293 14.6175 36.9799C15.8223 37.9858 16.9137 39.0184 18.0997 39.9827C19.888 41.4499 21.7406 42.8374 23.5818 44.2552C22.9689 45.0633 22.2957 45.8488 21.7317 46.7098C21.2548 47.4305 20.9058 48.2685 20.4664 49.0725C19.9391 48.7362 19.4232 48.3695 18.9073 48.0028C16.8966 46.4867 14.9615 44.8606 13.1437 43.1055C12.6432 42.6062 12.1125 42.0955 11.5819 41.5849Z" fill="#FFCE97"/>
<path d="M23.6119 44.2666C21.7707 42.8487 19.9181 41.4612 18.1298 39.994C16.9439 39.0298 15.8223 37.9858 14.6591 36.9609C14.9699 36.3163 15.2693 35.702 15.6102 35.0686C15.9853 34.3443 16.3416 33.5783 16.7281 32.8236C16.8078 32.6113 16.8988 32.3687 17.0315 32.107C19.1984 34.5815 21.6413 36.7788 24.2544 38.7979C25.0564 39.4104 25.8886 40.0342 26.7321 40.6277C26.1079 41.4661 25.4534 42.2932 24.7802 43.0786C24.4058 43.5264 23.9938 43.8908 23.6119 44.2666Z" fill="#D79853"/>
<path d="M11.5705 41.6152C12.1125 42.0955 12.6318 42.6365 13.1625 43.1472C14.9803 44.9023 16.9267 46.498 18.9261 48.0444C19.442 48.4111 19.9277 48.7665 20.4738 49.1445C19.9728 50.4791 19.6226 51.8702 19.4044 53.2763L19.3361 53.4583C17.4801 51.8965 15.594 50.3234 13.8023 48.6819C12.5715 47.5624 11.4465 46.3442 10.2498 45.1337C10.2009 45.0807 10.1406 45.0581 10.0615 44.9938C10.4339 43.8186 10.8665 42.666 11.5705 41.6152Z" fill="#D79853"/>
<path d="M72.2258 37.1838C71.3327 36.8139 70.8589 36.1516 70.9178 35.1702C71.207 34.033 71.895 33.3915 73.0232 33.2267C73.8532 33.123 74.7122 33.5839 75.0312 34.2919C75.3689 35.0416 75.2123 35.9171 74.596 36.5509C73.9382 37.2037 73.1343 37.421 72.2258 37.1838Z" fill="#020201"/>
<path d="M55.0197 29.9638C54.5441 30.1314 54.061 30.2269 53.5559 30.1065C52.7492 29.8729 52.313 29.2939 52.2586 28.3391C52.4916 27.077 53.3799 26.2684 54.4511 26.2553C55.2169 26.2313 55.8386 26.4993 56.1992 27.1883C56.5597 27.8773 56.46 28.6012 55.9984 29.1893C55.7224 29.4663 55.3372 29.6678 55.0197 29.9638Z" fill="#020201"/>
<path d="M72.8458 39.8389C72.8458 39.8389 72.831 39.6949 72.7935 39.6116C72.9757 39.1263 73.3006 38.9022 73.8701 38.943C74.5112 38.976 75.1711 39.0507 75.7667 39.2051C76.5131 39.416 77.2139 39.7483 77.9147 40.0806C78.0655 40.1372 78.2122 40.2961 78.3402 40.4133C78.5774 40.6062 78.7087 40.8977 78.5761 41.1594C78.4663 41.3604 78.1715 41.5958 77.9678 41.5885C77.3341 41.6275 76.6815 41.6248 76.0859 41.4704C75.2377 41.2558 74.4049 40.9086 73.5721 40.5614C73.3008 40.4595 73.1279 40.187 72.8606 39.9829C72.8606 39.9829 72.8543 39.969 72.8418 39.9412C72.8418 39.9412 72.8646 39.8805 72.8759 39.8502L72.8458 39.8389Z" fill="#FD528C"/>
<path d="M93.2381 73.7588C93.2381 73.7588 93.2495 73.7285 93.2609 73.6982C93.2797 73.7398 93.2495 73.7285 93.2381 73.7588Z" fill="#D79853"/>
<path d="M64.105 40.399C62.5667 40.0984 61.1155 39.6575 59.7139 38.993C57.7508 38.0831 55.9579 36.9948 54.5662 35.2958C54.1186 34.7471 53.7956 34.1414 53.431 33.5547C53.2957 33.3655 53.3452 33.1419 53.5529 33.0468C53.7606 32.9517 53.983 33.0006 54.0654 33.2392C54.5714 34.6403 55.5839 35.6086 56.7437 36.4592C59.9443 38.8372 63.506 40.0704 67.5384 39.9576C68.406 39.9372 69.2589 39.7728 70.0366 39.4419C70.2443 39.3468 70.4707 39.2934 70.5719 39.5736C70.7033 39.8652 70.4842 39.9906 70.2766 40.0857C69.0117 40.6144 67.6611 40.7303 66.3071 40.672C65.6057 40.6163 64.8667 40.4773 64.105 40.399Z" fill="#080605"/>
<path d="M52.1941 31.81C52.2343 32.3442 52.1017 32.6059 51.6113 32.6294C50.9889 32.638 50.325 32.6656 49.7408 32.4809C48.8135 32.2021 47.913 31.7603 47.0126 31.3184C46.7828 31.1976 46.5871 30.9857 46.4216 30.7852C46.0229 30.2895 46.1977 29.7322 46.8127 29.6516C47.3145 29.5977 47.8237 29.6158 48.2987 29.7249C49.4825 29.9617 50.5981 30.3804 51.5997 31.1024C51.8483 31.265 51.991 31.5262 52.1941 31.81Z" fill="#FD528C"/>
<path d="M72.8458 39.8389C72.8458 39.8389 72.8947 39.8919 72.8719 39.9525C72.8719 39.9525 72.8532 39.9109 72.8458 39.8389Z" fill="#FEAF53"/>
</svg>
