<svg width="42" height="41" viewBox="0 0 42 41" fill="none" xmlns="http://www.w3.org/2000/svg">
<path d="M30.2671 23.9711C30.0678 23.9711 29.8768 23.8605 29.7846 23.6734L24.4518 12.823C24.4403 12.7986 24.4304 12.7742 24.4222 12.7498C24.4156 12.7303 23.7897 10.7454 23.1985 8.74581C21.9353 4.47823 22.0358 4.32366 22.2037 4.0666C22.3026 3.91366 22.5084 3.59315 27.7127 1.41462C27.7802 1.38696 27.8511 1.37231 27.9219 1.37231C28.0355 1.37231 28.1492 1.40811 28.243 1.47807C28.3962 1.59196 28.4753 1.77581 28.4538 1.96454C28.4489 2.00684 27.968 6.27767 30.0283 8.60426C30.888 9.57557 32.0952 10.0799 33.617 10.106C33.7932 10.1092 33.9579 10.1971 34.055 10.3435C34.1522 10.4883 34.172 10.6722 34.1045 10.8349C34.0336 11.0154 32.4229 15.3806 40.4978 18.9421C40.6938 19.0283 40.819 19.222 40.8157 19.4351C40.8124 19.6466 40.6806 19.837 40.4814 19.9167L30.468 23.9353C30.4022 23.9614 30.333 23.9744 30.2671 23.9744V23.9711Z" fill="#9C662B"/>
<path d="M27.9219 1.8995C27.9219 1.8995 26.8844 10.5209 33.6088 10.6331C33.6088 10.6331 31.5798 15.5857 40.2805 19.4221L30.2672 23.4408L24.9344 12.5904C24.9344 12.5904 22.4377 4.6849 22.6551 4.34974C22.8708 4.01458 27.9219 1.8995 27.9219 1.8995ZM27.9219 0.840332C27.7803 0.840332 27.6387 0.867991 27.5036 0.924935C22.1445 3.16855 21.9452 3.48093 21.7509 3.78192C21.4544 4.24073 21.545 4.73696 21.8826 6.04017C22.0655 6.74954 22.3356 7.70946 22.6863 8.89228C23.2792 10.8967 23.9067 12.8849 23.9133 12.906C23.9298 12.9565 23.9495 13.0053 23.9726 13.0525L29.3054 23.9028C29.4898 24.277 29.8703 24.4999 30.2705 24.4999C30.4055 24.4999 30.5422 24.4739 30.674 24.4218L40.6873 20.4032C41.0858 20.2437 41.3477 19.8647 41.3559 19.44C41.3625 19.0154 41.1138 18.6282 40.7219 18.4557C33.0554 15.0748 34.5904 11.0708 34.6068 11.0301C34.7386 10.7064 34.7023 10.3403 34.5064 10.0491C34.312 9.75783 33.9843 9.58049 33.6302 9.57561C32.2451 9.55283 31.1993 9.12006 30.4335 8.25287C29.4602 7.15303 29.1176 5.53255 29.0007 4.36926C28.8689 3.05466 28.9875 2.03617 28.9891 2.0264C29.0336 1.6522 28.8739 1.28124 28.5692 1.05509C28.3798 0.915173 28.1542 0.843586 27.9252 0.843586L27.9219 0.840332Z" fill="#9C662B"/>
<path d="M20.7628 40.6235C19.7351 40.6235 18.7074 40.5291 17.7094 40.342C16.4198 40.1679 15.1484 39.8506 13.9297 39.3983C12.3239 38.8029 10.784 38.0317 9.3512 37.1043C7.82449 36.1151 6.46413 34.9746 5.30799 33.7169C4.50758 32.8318 3.79281 31.8768 3.1818 30.8762C2.55267 29.8447 2.02401 28.7497 1.60898 27.619C-0.49744 22.0596 0.13004 15.8542 3.33332 10.6007C6.5086 5.39437 11.6569 1.98421 17.459 1.24393C18.9791 1.02917 20.5569 0.806274 22.1198 0.806274C23.411 0.806274 24.5622 0.957584 25.6426 1.26834C26.3459 1.45219 27.0771 1.69623 27.8083 1.99072C27.9236 2.0379 28.0093 2.13715 28.0373 2.25754C28.0653 2.37794 28.0307 2.50322 27.9483 2.59596L27.6799 2.88719C27.1512 3.64536 26.8366 4.49302 26.7411 5.40738V5.57659L26.8037 7.06528C26.9783 7.99917 27.3801 8.84032 27.9994 9.56596C28.9052 10.6186 30.2194 11.2954 31.6062 11.4256C31.6193 11.4256 31.6342 11.4256 31.649 11.4272C31.677 11.4272 31.7033 11.4272 31.7313 11.4305C31.8515 11.4402 31.9619 11.5053 32.0261 11.6062C32.0904 11.7071 32.1035 11.8323 32.0591 11.9446C31.8763 12.4099 31.7593 12.8866 31.7149 13.3617C31.5798 14.7788 32.0327 16.2122 32.9583 17.2958L34.014 18.2459C34.7798 18.7682 35.6378 19.0789 36.5651 19.1733H36.7363L38.2433 19.1115C38.7802 19.0139 39.2957 18.8398 39.7766 18.5925C39.8326 18.5632 39.8935 18.5502 39.9528 18.5502C40.0121 18.5502 40.078 18.5648 40.1356 18.5957C40.2476 18.6559 40.3217 18.7666 40.3349 18.8902C40.3991 19.5247 40.4337 20.1072 40.4419 20.6718C40.6198 25.5299 38.5578 30.5378 34.7814 34.4067C30.9243 38.3587 25.8156 40.6251 20.7661 40.6251H20.7644L20.7628 40.6235Z" fill="#D4A97E"/>
<path d="M22.1198 1.18534C23.2595 1.18534 24.3975 1.30411 25.5339 1.63276C26.252 1.81986 26.9618 2.05903 27.6634 2.34212C27.5695 2.44462 27.474 2.54875 27.3785 2.65125C26.7988 3.47613 26.4579 4.38724 26.3574 5.38784V5.57657C26.3788 6.08744 26.4002 6.59669 26.4216 7.10756C26.6061 8.1228 27.0343 9.02252 27.7062 9.80998C28.6763 10.9375 30.0778 11.6631 31.5699 11.8014C31.6144 11.8047 31.6589 11.803 31.7033 11.8079C31.5123 12.2928 31.3838 12.8036 31.3344 13.3275C31.1895 14.8488 31.6803 16.396 32.6816 17.5609C33.0456 17.888 33.4095 18.2166 33.7752 18.5436C34.6102 19.1163 35.5341 19.4531 36.5453 19.5524H36.7363C37.2535 19.5312 37.769 19.5101 38.2845 19.4889C38.879 19.3832 39.434 19.1944 39.9511 18.9276C40.0088 19.5036 40.0483 20.086 40.0566 20.6766C40.4304 30.868 30.9375 40.246 20.7611 40.246C19.768 40.246 18.7667 40.1565 17.7687 39.9694C16.5269 39.8018 15.2867 39.4992 14.0631 39.0453C12.5331 38.4774 11.0014 37.7225 9.56036 36.7886C8.11929 35.8547 6.76552 34.7419 5.58961 33.4631C4.81555 32.6073 4.11561 31.6799 3.50789 30.6809C2.89853 29.6836 2.38139 28.6179 1.96801 27.4888C-2.39141 15.9844 5.64396 3.13121 17.5084 1.61812C19.0467 1.40173 20.5849 1.18371 22.1215 1.18371M22.1215 0.427164C20.5322 0.427164 18.9429 0.651688 17.4063 0.868077C14.4023 1.25205 11.5861 2.3226 9.03663 4.05208C6.63212 5.68395 4.5471 7.87875 3.00887 10.4038C-0.256989 15.7582 -0.897645 22.0791 1.2516 27.7507C1.67486 28.9026 2.2134 30.0204 2.85406 31.0714C3.4766 32.0932 4.20619 33.0661 5.01977 33.9658C6.20062 35.2511 7.58569 36.4128 9.14039 37.4183C10.5963 38.3619 12.1625 39.1461 13.7946 39.7514C15.0364 40.2118 16.3325 40.5356 17.6468 40.7129C18.6662 40.9033 19.7153 40.9993 20.7628 40.9993C25.916 40.9993 31.1269 38.6906 35.0565 34.6638C38.9004 30.7249 41.0035 25.6194 40.8224 20.6555C40.8141 20.0844 40.7779 19.4938 40.7137 18.8511C40.689 18.6006 40.5391 18.3809 40.3168 18.2605C40.2031 18.2003 40.078 18.1694 39.9528 18.1694C39.8276 18.1694 39.7107 18.1987 39.5987 18.2557C39.1606 18.4818 38.6896 18.6429 38.1988 18.734L36.906 18.7861L36.7199 18.7942H36.5832C35.7268 18.7047 34.9626 18.4281 34.2511 17.9482L33.7439 17.491L33.235 17.0338C32.3868 16.0283 31.9718 14.7056 32.0969 13.3959C32.1398 12.9566 32.2468 12.514 32.4181 12.0796C32.5054 11.8567 32.4823 11.6045 32.3522 11.4028C32.2238 11.1994 32.0047 11.0693 31.7626 11.0514C31.728 11.0481 31.6934 11.0481 31.6605 11.0465H31.6358C30.3545 10.9261 29.1325 10.2964 28.2909 9.31701C27.7145 8.64181 27.3521 7.88851 27.1858 7.0197L27.166 6.56252C27.1529 6.22736 27.138 5.8922 27.1249 5.55705V5.42201C27.2154 4.57597 27.4954 3.82105 27.9813 3.1182L28.034 3.06125L28.2332 2.84486C28.4012 2.66264 28.4671 2.41046 28.4128 2.16966C28.3568 1.92887 28.1871 1.73038 27.9549 1.63764C27.2122 1.33828 26.4677 1.08935 25.7414 0.89899C24.6298 0.580101 23.4456 0.425537 22.1215 0.425537V0.427164Z" fill="#D4A97E"/>
<path d="M39.9512 18.9259C39.434 19.1927 38.879 19.3815 38.2845 19.4872C38.0226 19.4986 37.7607 19.5084 37.4989 19.5198C37.0064 30.17 25.9967 39.5056 15.2242 37.4882C13.9824 37.3206 12.7422 37.018 11.5186 36.564C9.98692 35.9962 8.45692 35.2413 7.01421 34.3074C6.36368 33.886 5.7329 33.4223 5.12683 32.9277C5.27835 33.1083 5.43151 33.2889 5.58962 33.463C6.76553 34.7418 8.11766 35.8547 9.56037 36.7886C11.0014 37.7225 12.5331 38.479 14.0631 39.0452C15.2884 39.4991 16.5285 39.8017 17.7687 39.9693C28.9875 42.0698 40.4666 31.8621 40.0566 20.6765C40.0483 20.0859 40.0088 19.5035 39.9512 18.9275V18.9259Z" fill="#D4A97E"/>
<path d="M26.3952 6.82929C26.331 6.82929 26.2667 6.81302 26.2091 6.78211C25.9505 6.63894 25.7331 6.48437 25.5619 6.3233C24.4946 5.31294 24.3678 3.40775 25.2852 2.16148C25.7331 1.55298 26.3162 1.24548 27.0177 1.24548C27.3784 1.24548 27.7704 1.32358 28.248 1.48953C28.3699 1.53183 28.4605 1.63108 28.4917 1.7531C28.523 1.87675 28.4917 2.00691 28.4028 2.09965L27.6782 2.88548C27.1495 3.64366 26.8349 4.49132 26.7394 5.40568V5.56838L26.7756 6.43719C26.7822 6.57386 26.7114 6.70239 26.5945 6.7756C26.5335 6.81302 26.4644 6.83092 26.3936 6.83092L26.3952 6.82929Z" fill="#725739"/>
<path d="M27.0177 1.62292C27.3685 1.62292 27.7391 1.7124 28.1212 1.84419C27.8741 2.11264 27.6255 2.3811 27.3784 2.64955C26.7987 3.47443 26.4578 4.38554 26.3573 5.38614V5.57487C26.3705 5.86772 26.382 6.15895 26.3936 6.45181C26.1762 6.33141 25.9818 6.19963 25.8237 6.04994C24.8454 5.12419 24.8191 3.43213 25.5915 2.38435C26.0049 1.82467 26.4891 1.62292 27.0161 1.62292M27.0161 0.866373C26.186 0.866373 25.4976 1.22756 24.9739 1.93856C23.9314 3.3524 24.0747 5.44308 25.2951 6.59661C25.4927 6.78371 25.7298 6.95129 26.0214 7.11236C26.1366 7.17582 26.2667 7.20836 26.3936 7.20836C26.5335 7.20836 26.6719 7.17094 26.7954 7.0961C27.0309 6.95292 27.1709 6.69423 27.1594 6.4209L27.1511 6.19963C27.1429 5.98649 27.133 5.77336 27.1231 5.5586V5.42518C27.2137 4.57915 27.4937 3.82423 27.9796 3.12137L28.4555 2.60399L28.6861 2.35344C28.859 2.16633 28.9249 1.90602 28.8623 1.65871C28.7997 1.41304 28.6153 1.21455 28.3732 1.12994C27.8527 0.949349 27.4212 0.864746 27.0161 0.864746V0.866373Z" fill="#725739"/>
<path d="M7.47032 15.3368C6.50193 15.3368 5.7921 14.7283 5.57306 13.7114C5.40672 12.937 5.56812 12.2016 6.02926 11.6403C6.47064 11.1034 7.14258 10.7812 7.82771 10.7812C8.78622 10.7812 9.5504 11.4044 9.82214 12.4082C10.0099 13.1046 9.87319 13.7977 9.43676 14.3606C8.96903 14.9626 8.21474 15.3368 7.47032 15.3368Z" fill="#725739"/>
<path d="M7.82775 11.1588C8.52276 11.1588 9.19964 11.5671 9.45327 12.5043C9.83371 13.9067 8.59193 14.9578 7.47037 14.9578C6.78854 14.9578 6.14953 14.5673 5.9486 13.6318C5.62745 12.135 6.75231 11.1588 7.82775 11.1588ZM7.82775 10.4022C7.02899 10.4022 6.24505 10.7748 5.73286 11.4012C5.19761 12.052 5.00985 12.9013 5.19925 13.788C5.45453 14.9757 6.3241 15.7127 7.47037 15.7127C8.33171 15.7127 9.20129 15.2815 9.73984 14.5885C10.2504 13.9312 10.4118 13.1209 10.1911 12.309C9.87324 11.1327 8.96743 10.4022 7.8261 10.4022H7.82775Z" fill="#725739"/>
<path d="M3.63952 29.6934C2.85722 29.6934 2.04364 29.3143 1.40628 28.6553C0.729391 27.9541 0.36542 27.0528 0.406593 26.1807C0.487292 24.4838 2.22974 23.2993 3.74163 23.2993C4.66391 23.2993 5.41985 23.7061 5.86946 24.4447C6.46894 25.4323 6.41294 27.0398 5.73441 28.2698C5.24362 29.1597 4.52556 29.6657 3.71527 29.6901C3.68892 29.6901 3.66422 29.6901 3.63952 29.6901V29.6934Z" fill="#725739"/>
<path d="M3.74165 23.6588C4.46301 23.6588 5.14484 23.9517 5.55657 24.6301C6.48544 26.1595 5.54175 29.2735 3.70213 29.3321C3.68072 29.3321 3.65931 29.3321 3.6379 29.3321C2.19354 29.3321 0.69154 27.806 0.768946 26.1953C0.839764 24.7245 2.36153 23.6572 3.74001 23.6572M3.74001 22.9397C2.88854 22.9397 2.00085 23.2602 1.30585 23.8183C0.533435 24.4381 0.0854703 25.2695 0.0426501 26.1628C-0.00346392 27.1324 0.39674 28.1298 1.14115 28.901C1.84604 29.6315 2.75514 30.0496 3.63625 30.0496C3.6659 30.0496 3.69554 30.0496 3.72518 30.0496C4.6557 30.0203 5.50387 29.433 6.05065 28.4422C6.78683 27.108 6.83953 25.3493 6.17746 24.2608C5.66691 23.4213 4.77922 22.9413 3.73836 22.9413L3.74001 22.9397Z" fill="#725739"/>
<path d="M14.2327 38.8076C13.3351 38.8076 12.5775 38.5359 12.1576 38.0624C11.843 37.7077 11.7146 37.2473 11.7837 36.7267C11.9665 35.3584 13.0584 34.3285 14.3233 34.3285C15.0875 34.3285 15.7808 34.7141 16.2716 35.4121C16.7476 36.0889 16.8546 36.8894 16.5615 37.5548C16.2716 38.2121 15.6392 38.653 14.8289 38.7669C14.6346 38.7946 14.4336 38.8076 14.2344 38.8076H14.2327Z" fill="#725739"/>
<path d="M14.3233 34.7076C14.9096 34.7076 15.5057 34.9875 15.9587 35.6285C16.7854 36.8032 16.2337 38.191 14.7762 38.3928C14.6016 38.4172 14.4188 38.4302 14.2343 38.4302C13.149 38.4302 12.0027 37.9844 12.1641 36.7772C12.3288 35.539 13.312 34.7076 14.3249 34.7076M14.3249 33.9511C12.869 33.9511 11.6141 35.1241 11.4065 36.6779C11.3225 37.3092 11.4839 37.8737 11.8726 38.3114C12.5479 39.0728 13.6431 39.1851 14.236 39.1851C14.4534 39.1851 14.6724 39.1705 14.8849 39.1412C15.8302 39.0094 16.5697 38.4871 16.9155 37.7062C17.263 36.9187 17.1411 35.9816 16.5894 35.1957C16.0229 34.392 15.2192 33.9495 14.3265 33.9495L14.3249 33.9511Z" fill="#725739"/>
<path d="M30.4534 36.1898C29.3977 36.1898 28.5017 35.7294 28.118 34.9891C27.7491 34.2797 27.787 33.4711 28.2185 32.7731C28.7241 31.9564 29.6925 31.4081 30.6312 31.4081C30.9903 31.4081 31.3295 31.4845 31.6408 31.6375C32.6125 32.1109 33.207 32.913 33.2317 33.7867C33.2548 34.6116 32.7607 35.3665 31.8763 35.8579C31.4876 36.0743 30.982 36.193 30.4517 36.193L30.4534 36.1898Z" fill="#725739"/>
<path d="M30.6312 31.7856C30.9177 31.7856 31.2043 31.8441 31.4728 31.9759C33.1427 32.7878 33.3898 34.5823 31.6885 35.526C31.3542 35.7115 30.9095 35.8123 30.4517 35.8123C29.6529 35.8123 28.8146 35.5065 28.4572 34.8183C27.6832 33.3263 29.1671 31.7872 30.6312 31.7872M30.6312 31.0306C29.5475 31.0306 28.4721 31.6375 27.8923 32.5763C27.3884 33.3898 27.3472 34.3334 27.777 35.1632C28.2267 36.0304 29.251 36.5689 30.4517 36.5689C31.0462 36.5689 31.6193 36.4339 32.064 36.1866C33.0769 35.6252 33.6418 34.7467 33.6154 33.7754C33.5874 32.7601 32.9138 31.8344 31.8104 31.2975C31.4464 31.1201 31.0495 31.0306 30.6312 31.0306Z" fill="#725739"/>
<path d="M15.7593 6.42091C14.2293 6.42091 12.9085 5.67088 12.398 4.51084C11.7606 3.06445 13.2017 1.47163 14.3265 0.754129C14.7119 0.508455 15.2076 0.378296 15.7593 0.378296C16.8331 0.378296 17.9942 0.846867 18.6497 1.54484C19.0944 2.0183 19.2887 2.65282 19.2129 3.38334C19.1158 4.32699 18.5575 5.30806 17.8246 5.82381C17.2778 6.20778 16.5449 6.41929 15.761 6.41929L15.7593 6.42091Z" fill="#725739"/>
<path d="M15.7593 0.757402C16.7228 0.757402 17.7949 1.19181 18.368 1.80355C19.3644 2.86435 18.6464 4.78256 17.6006 5.51796C17.0999 5.86939 16.4378 6.04347 15.7593 6.04347C14.5274 6.04347 13.2379 5.4724 12.7487 4.36117C12.2102 3.13768 13.5261 1.71732 14.534 1.07304C14.8766 0.853394 15.3064 0.757402 15.7593 0.757402ZM15.7593 0.000854492C15.1318 0.000854492 14.5653 0.152164 14.1173 0.436886C13.4454 0.864783 12.8278 1.46677 12.4193 2.08665C11.8281 2.98312 11.6996 3.8747 12.0471 4.66216C12.6203 5.9605 14.0761 6.80002 15.7593 6.80002C16.6223 6.80002 17.4342 6.56411 18.0452 6.13458C18.8753 5.5505 19.483 4.48808 19.5934 3.42566C19.679 2.59589 19.4435 1.83772 18.9297 1.29105C18.2066 0.519862 16.9319 0.00248148 15.7593 0.00248148V0.000854492Z" fill="#725739"/>
<path d="M38.4459 24.0819C37.0345 24.0819 35.8207 23.3319 35.353 22.1702C34.8292 20.8735 35.88 19.5931 36.3559 19.1033C36.4251 19.0317 36.5206 18.9927 36.6194 18.9927C36.6359 18.9927 36.654 18.9927 36.6705 18.996L36.7117 19.0025C36.771 19.0106 36.8303 19.0187 36.8912 19.0252H37.0641L38.5727 18.9634C39.0404 18.8788 39.49 18.7373 39.9067 18.5453C39.9561 18.5225 40.0088 18.5111 40.0615 18.5111C40.1241 18.5111 40.1851 18.5258 40.241 18.5567C40.5885 18.7503 40.8899 18.9878 41.1106 19.2449C41.5174 19.72 41.692 20.3561 41.6162 21.0866C41.5191 22.0108 41.0118 22.9723 40.3547 23.4767C39.8491 23.8655 39.1722 24.0786 38.4459 24.0786V24.0819Z" fill="#725739"/>
<path d="M40.0631 18.8739C40.3645 19.0414 40.633 19.2481 40.8323 19.4807C41.743 20.5415 41.0859 22.4597 40.1307 23.1951C39.6728 23.5482 39.0668 23.7207 38.4459 23.7207C37.3194 23.7207 36.1402 23.1496 35.6938 22.0384C35.3216 21.1175 35.9129 20.0843 36.6211 19.3555C36.7051 19.3668 36.7891 19.3799 36.8747 19.388H37.0657C37.5829 19.3668 38.0984 19.3457 38.6139 19.3245C39.126 19.2334 39.6086 19.0838 40.0615 18.8739M40.0615 18.1515C39.9561 18.1515 39.849 18.1743 39.7519 18.2198C39.3698 18.3955 38.9597 18.5257 38.5315 18.6054L37.2403 18.6575L37.0493 18.6656H36.9109C36.8615 18.6607 36.8121 18.6526 36.7643 18.6461L36.7215 18.6396C36.6869 18.6347 36.6524 18.6331 36.6194 18.6331C36.4218 18.6331 36.2307 18.7128 36.0908 18.856C34.9807 19.9981 34.5888 21.2558 35.012 22.3068C35.5357 23.6051 36.8829 24.4447 38.4442 24.4447C39.2512 24.4447 40.0088 24.2039 40.5786 23.7662C41.3214 23.1951 41.8715 22.1588 41.9802 21.1272C42.0675 20.2959 41.8632 19.5653 41.3906 19.0138C41.1369 18.7193 40.8109 18.4606 40.4205 18.2442C40.3102 18.1824 40.1867 18.1515 40.0615 18.1515Z" fill="#725739"/>
<path d="M14.2689 22.9414C14.2689 23.3579 13.35 23.6947 12.2169 23.6947C11.0838 23.6947 10.1648 23.3579 10.1648 22.9414C10.1648 22.5249 11.0838 22.1897 12.2169 22.1897C13.35 22.1897 14.2689 22.5265 14.2689 22.9414Z" fill="#ED6F81"/>
<path d="M29.9181 22.9414C29.9181 23.3579 28.9991 23.6947 27.866 23.6947C26.733 23.6947 25.814 23.3579 25.814 22.9414C25.814 22.5249 26.733 22.1897 27.866 22.1897C28.9991 22.1897 29.9181 22.5265 29.9181 22.9414Z" fill="#ED6F81"/>
<path d="M15.7379 21.4592C16.4947 21.4592 17.1082 20.3512 17.1082 18.9845C17.1082 17.6178 16.4947 16.5099 15.7379 16.5099C14.9812 16.5099 14.3677 17.6178 14.3677 18.9845C14.3677 20.3512 14.9812 21.4592 15.7379 21.4592Z" fill="black"/>
<path d="M24.6709 21.4592C25.4277 21.4592 26.0411 20.3512 26.0411 18.9845C26.0411 17.6178 25.4277 16.5099 24.6709 16.5099C23.9141 16.5099 23.3007 17.6178 23.3007 18.9845C23.3007 20.3512 23.9141 21.4592 24.6709 21.4592Z" fill="black"/>
<path d="M24.6709 22.8746C24.6709 24.3438 22.6287 25.5331 20.1105 25.5331C17.5924 25.5331 15.5502 24.3422 15.5502 22.8746" stroke="#1D1D1B" stroke-miterlimit="10"/>
</svg>
