<svg width="50" height="50" viewBox="0 0 50 50" fill="none" xmlns="http://www.w3.org/2000/svg">
<rect width="50" height="50" rx="7" fill="#FEFEC0"/>
<g clip-path="url(#clip0_13_257)">
<path d="M28.95 32.67C28.55 33.02 28.13 33.28 27.68 33.5C26.77 33.93 25.82 34.19 24.8 34.19C23.7 34.19 22.7 33.84 21.76 33.31C21.58 33.21 21.42 33.1 21.23 32.97C20.91 32.62 20.76 32.2 20.51 31.84C20.45 31.75 20.41 31.65 20.35 31.56C19.42 30.34 18.74 28.98 17.98 27.66C17.46 26.74 17.01 25.78 16.53 24.83C16.42 24.61 16.3 24.38 16.16 24.18C15.63 23.41 15.27 22.55 14.95 21.68C14.72 21.06 14.39 20.5 14.14 19.89C13.97 19.46 13.79 19.03 13.75 18.53C13.75 18.49 13.76 18.48 13.77 18.45C13.79 18.42 13.79 18.41 13.81 18.38C13.96 18.09 14.09 17.81 14.23 17.53C14.54 16.94 15.03 16.52 15.61 16.23C16.53 15.77 17.51 15.49 18.5 15.22C18.86 15.12 19.22 15.04 19.59 15.05C19.71 15.06 19.82 15.01 19.94 14.97C20.88 14.63 21.85 14.36 22.83 14.19C23.7 14.04 24.57 13.95 25.46 14.04C26.18 14.11 26.91 14.1 27.64 14.13C28.76 14.18 29.87 14.28 30.96 14.56C31.65 14.74 32.27 15.05 32.83 15.5C33.07 15.69 33.38 15.83 33.54 16.09C33.78 16.47 34.14 16.73 34.48 17.04C34.62 17.47 34.54 17.89 34.48 18.29C34.18 20.24 33.66 22.13 32.91 23.96C32.52 24.91 32.07 25.83 31.56 26.72C31.05 27.59 30.75 28.55 30.42 29.49C30.07 30.5 29.6 31.47 29.16 32.45C29.14 32.57 29.09 32.65 28.96 32.67H28.95Z" fill="#E78D3D"/>
<path d="M28.95 32.69C28.96 32.62 29.03 32.58 29.07 32.49C29.41 31.65 29.84 30.86 30.15 30.01C30.33 29.52 30.51 29.03 30.67 28.53C30.91 27.82 31.25 27.15 31.61 26.49C31.94 25.89 32.26 25.27 32.52 24.63C32.66 24.29 32.8499 23.97 32.9699 23.62C33.4599 22.26 33.91 20.88 34.18 19.46C34.29 18.86 34.48 18.26 34.42 17.63C34.42 17.47 34.51 17.31 34.49 17.11C34.7 17.28 34.9699 17.27 35.2199 17.28C35.6299 17.29 36.02 17.39 36.38 17.58C37.43 18.13 38.4699 18.7 39.4199 19.43C40.2699 20.08 40.85 20.91 41.18 21.92C41.21 22.01 41.24 22.1 41.27 22.22C41.33 22.32 41.29 22.41 41.33 22.51L41.3499 22.53C41.4399 22.99 41.38 23.38 41.07 23.78C40.12 24.99 39.3499 26.32 38.4399 27.56C37.3799 29 36.3 30.42 35.19 31.82C35.12 31.91 35.05 32.01 34.93 32.1C34.2 32.39 33.4699 32.57 32.7199 32.69C32.4299 32.74 32.13 32.77 31.85 32.85C31.06 33.05 30.28 32.97 29.49 32.81C29.33 32.76 29.15 32.73 28.95 32.69Z" fill="#F09948"/>
<path d="M13.72 18.54C13.72 18.54 13.8 18.58 13.81 18.61C13.96 19.37 14.27 20.08 14.62 20.76C14.97 21.45 15.21 22.19 15.52 22.89C15.69 23.26 15.9 23.6 16.11 23.94C16.47 24.53 16.77 25.15 17.08 25.76C17.63 26.85 18.2 27.93 18.82 28.98C19.13 29.51 19.39 30.08 19.76 30.58C20.3 31.31 20.77 32.07 21.18 32.88C21.19 32.89 21.19 32.9 21.19 32.94C20.69 33.1 20.21 33.31 19.68 33.38C18.5 33.56 17.33 33.53 16.16 33.33C15.96 33.3 15.78 33.2 15.59 33.12C15.4 33.03 15.2 32.94 14.99 32.84C14.48 32.31 13.85 31.99 13.31 31.54C12.95 31.24 12.63 30.9 12.38 30.51C11.75 29.55 11.01 28.68 10.32 27.77C9.57004 26.79 8.84004 25.78 8.17004 24.72C8.39004 23.92 8.51004 23.12 8.96004 22.42C9.24004 21.97 9.60004 21.6 10.03 21.28C10.72 20.77 11.43 20.28 12.18 19.88C12.8 19.53 13.29 19.09 13.72 18.54Z" fill="#F09948"/>
<path d="M34.95 32.11C34.95 31.91 35.1099 31.78 35.2299 31.64C35.7599 30.98 36.2599 30.3 36.7799 29.64C37.3499 28.91 37.8899 28.16 38.4399 27.42C38.7999 26.93 39.1399 26.43 39.4799 25.93C40.07 25.08 40.5999 24.19 41.2599 23.39C41.3399 23.29 41.3699 23.19 41.3699 23.06C41.3699 22.91 41.3699 22.75 41.3699 22.56C41.4199 22.57 41.4399 22.63 41.4399 22.69C41.3999 23.02 41.56 23.24 41.81 23.44C42.2 23.76 42.4999 24.17 42.7299 24.61C43.3799 25.83 44.03 27.05 44.45 28.37C44.74 29.28 44.9299 30.21 45.0299 31.16C45.1099 31.92 45.08 32.68 45.07 33.44C45.07 33.99 44.96 34.53 44.82 35.06C44.6399 35.72 44.13 36.06 43.5 36.24C43.05 36.37 42.61 36.32 42.16 36.2C41.55 36.03 40.97 35.76 40.43 35.45C40.07 35.24 39.68 35.1 39.31 34.89C38.58 34.46 37.9299 33.91 37.2299 33.44C36.6299 33.03 36.03 32.63 35.42 32.22C35.3 32.14 35.1499 32.09 34.9599 32.11H34.95Z" fill="#F9BA81"/>
<path d="M8.16 24.69C8.33 24.76 8.41 24.92 8.5 25.05C9.08 25.86 9.65 26.68 10.23 27.49C10.53 27.9 10.86 28.29 11.19 28.68C11.72 29.32 12.16 30.03 12.65 30.69C13.05 31.23 13.57 31.64 14.13 32C14.45 32.21 14.75 32.43 14.97 32.78C14.85 32.9 14.71 32.97 14.61 33.09C14.25 33.49 13.79 33.74 13.32 33.96C12.71 34.23 12.11 34.53 11.55 34.89C11.08 35.2 10.55 35.4 10.03 35.59C9.54 35.77 9.07 36 8.59 36.22C8.03 36.48 7.45 36.71 6.81 36.69C6.62 36.69 6.43 36.66 6.27 36.54C6.21 36.49 6.15 36.48 6.08 36.46C5.18 36.23 4.63 35.63 4.32 34.79C3.83 33.45 3.94 32.12 4.44 30.81C4.89 29.63 5.49 28.52 6.18 27.46C6.58 26.84 7 26.23 7.42 25.63C7.64 25.32 7.9 25.02 8.16 24.69Z" fill="#F9BA81"/>
<path d="M41.36 22.51C41.27 22.48 41.29 22.39 41.28 22.28C41.36 22.31 41.36 22.4 41.36 22.51Z" fill="#F9BA81"/>
<path d="M13.81 18.39C13.81 18.39 13.81 18.42 13.79 18.44C13.78 18.43 13.78 18.41 13.81 18.39Z" fill="#F09948"/>
<path d="M27.45 26.77C27.5 26.62 27.52 26.54 27.33 26.57C26.42 26.72 25.5 26.7 24.59 26.64C24.32 26.62 24.04 26.61 23.77 26.55C23.61 26.51 23.49 26.53 23.47 26.73C23.47 26.8 23.43 26.87 23.41 26.93C23.36 27.05 23.27 27.14 23.13 27.09C22.99 27.04 22.96 26.93 23 26.8C23.07 26.6 23.09 26.41 23.08 26.2C23.07 26.03 23.04 25.87 22.96 25.72C22.89 25.59 22.89 25.46 23.05 25.39C23.2 25.33 23.3 25.42 23.36 25.55C23.4 25.65 23.45 25.75 23.47 25.85C23.49 26.03 23.6 26.08 23.76 26.11C24.89 26.27 26.01 26.28 27.15 26.17C27.21 26.16 27.27 26.15 27.32 26.13C27.46 26.09 27.51 26 27.44 25.86C27.4 25.78 27.35 25.69 27.31 25.61C27.27 25.52 27.29 25.45 27.36 25.38C27.44 25.3 27.53 25.31 27.62 25.37C27.7 25.42 27.75 25.51 27.8 25.59C28.04 26.03 28.04 26.48 27.86 26.93C27.77 27.15 27.66 27.24 27.53 27.18C27.33 27.1 27.39 26.94 27.45 26.77Z" fill="#080402"/>
<path d="M22.66 24.42C22.42 24.16 22.35 23.89 22.49 23.58C22.63 23.28 22.86 23.13 23.19 23.1C23.42 23.08 23.61 23.16 23.76 23.34C24 23.63 23.98 24.08 23.71 24.38C23.43 24.69 23.06 24.71 22.66 24.42Z" fill="#080402"/>
<path d="M27.77 23.11C28.12 23.13 28.33 23.3 28.42 23.61C28.5 23.91 28.41 24.17 28.18 24.38C27.96 24.58 27.64 24.62 27.39 24.48C27.13 24.34 26.99 24.11 27 23.81C27.01 23.5 27.22 23.23 27.5 23.14C27.57 23.12 27.66 23.12 27.77 23.11Z" fill="#080402"/>
<path d="M30.61 24.84C30.86 25.16 30.82 25.35 30.5 25.5C30.2 25.64 29.87 25.64 29.56 25.59C29.4 25.56 29.23 25.56 29.08 25.48C28.93 25.39 28.79 25.27 28.81 25.1C28.82 24.93 28.94 24.81 29.12 24.75C29.62 24.58 30.11 24.63 30.61 24.84Z" fill="#FD5E8C"/>
<path d="M20.2801 25.62C20.2101 25.57 20.1601 25.54 20.1201 25.5C19.9201 25.28 19.9501 25.11 20.2101 24.97C20.4201 24.86 20.6601 24.82 20.9001 24.83C21.1801 24.84 21.4301 24.91 21.6801 25.04C21.8201 25.11 21.8401 25.23 21.8401 25.37C21.8401 25.51 21.7801 25.59 21.6601 25.65C21.3501 25.8 21.0201 25.79 20.6801 25.75C20.5501 25.72 20.4301 25.66 20.2801 25.62Z" fill="#FD5E8C"/>
</g>
<defs>
<clipPath id="clip0_13_257">
<rect width="41.07" height="22.69" fill="white" transform="translate(4 14)"/>
</clipPath>
</defs>
</svg>
