<svg width="80" height="66" viewBox="0 0 80 66" fill="none" xmlns="http://www.w3.org/2000/svg">
<path d="M1.17 25.0226V53.5726C1.17 56.4926 3.07 59.0826 5.87 59.9426C16.81 63.3126 45.28 70.0426 74.2 60.0126C76.87 59.0826 78.65 56.5526 78.65 53.7226V25.0226C78.65 25.0226 39.03 32.8426 1.17 25.0226Z" fill="#FFEDDC"/>
<path d="M74.2 41.0826C45.28 51.1026 16.81 44.3826 5.87 41.0126C3.08 40.1526 1.17 37.5726 1.17 34.6426V43.7126C1.17 46.6326 3.07 49.2226 5.87 50.0826C16.81 53.4526 45.28 60.1826 74.2 50.1526C76.87 49.2226 78.65 46.6926 78.65 43.8626V34.7926C78.65 37.6226 76.87 40.1526 74.2 41.0826Z" fill="#E54C5C"/>
<path d="M79.44 21.2226C79.44 18.5826 61.66 16.4426 39.72 16.4426C17.78 16.4426 0 18.5826 0 21.2226V21.4126L0.04 34.6226C0.04 35.1126 0.2 36.1026 1.13 36.0926C1.89 36.0926 2.1 35.1526 2.1 34.6626L1.97 27.2226C1.97 27.2226 2.27 24.7226 4.38 26.4826C6.49 28.2526 7.14 37.8226 6.97 40.6826C6.8 43.5426 8.99 45.3926 11.01 43.7126C13.03 42.0326 11.18 30.5926 14.21 30.0826C17.24 29.5726 18.92 33.1126 24.64 33.4426C30.36 33.7826 33.73 30.0826 37.43 30.7526C41.13 31.4226 41.8 38.1526 42.81 40.0026C43.82 41.8526 47.86 42.8626 49.37 38.9926C50.88 35.1226 52.9 30.9126 56.27 30.4126C59.63 29.9126 66.74 35.6326 71.96 34.9526C77.18 34.2826 77.68 33.4026 78.82 31.3026C80.01 29.1026 79.44 21.2226 79.44 21.2226Z" fill="#FEFEC0"/>
<path d="M39.72 25.6526L44.78 25.4926C46.47 25.4426 48.16 25.3826 49.84 25.3126C53.21 25.1726 56.58 25.0126 59.95 24.7626C63.32 24.5526 66.68 24.2426 70.02 23.8326C71.69 23.6226 73.36 23.3826 75.01 23.0426C75.83 22.8726 76.66 22.6826 77.45 22.4226C77.85 22.2926 78.24 22.1426 78.61 21.9426C78.79 21.8426 78.97 21.7326 79.13 21.5926C79.28 21.4526 79.41 21.2726 79.42 21.0626C79.42 21.2726 79.3 21.4726 79.15 21.6226C79 21.7726 78.83 21.9026 78.64 22.0126C78.27 22.2326 77.88 22.4026 77.49 22.5526C76.7 22.8526 75.88 23.0826 75.06 23.2926C73.41 23.6826 71.74 23.9726 70.07 24.2326C66.72 24.7326 63.35 25.0326 59.98 25.2826C56.6 25.4926 53.23 25.6526 49.85 25.7126C48.16 25.7426 46.47 25.7526 44.78 25.7526C43.09 25.7326 41.4 25.7226 39.71 25.6626L39.72 25.6526Z" fill="#EFD9A5"/>
<path d="M0 21.0526C0.02 21.3226 0.22 21.5326 0.43 21.6826C0.64 21.8426 0.88 21.9626 1.12 22.0726C1.6 22.2826 2.11 22.4426 2.62 22.5726C3.64 22.8626 4.69 23.0626 5.73 23.2426C7.83 23.5926 9.94 23.8726 12.06 24.1026C14.18 24.3526 16.3 24.5426 18.42 24.7426L24.8 25.3226C23.73 25.3226 22.66 25.3026 21.6 25.2726C20.53 25.2326 19.47 25.1826 18.4 25.1326C16.27 25.0226 14.14 24.8426 12.01 24.6026C9.89 24.3526 7.76 24.0626 5.67 23.6126C4.62 23.3826 3.58 23.1426 2.56 22.8026C2.05 22.6326 1.55 22.4326 1.07 22.1826C0.83 22.0526 0.6 21.9126 0.39 21.7326C0.19 21.5626 0 21.3226 0.01 21.0426L0 21.0526Z" fill="#EFD9A5"/>
<path d="M38.15 11.4226C38.07 11.4226 37.99 11.4526 37.92 11.5126C37.72 11.6926 37.52 11.8626 37.32 12.0326C36.96 12.3326 36.55 12.4626 36.14 12.4626C35.86 12.4626 35.58 12.4026 35.33 12.2826L36.32 12.7426C36.57 12.8526 36.85 12.9226 37.13 12.9226C37.53 12.9226 37.95 12.7926 38.31 12.4926C38.51 12.3226 38.71 12.1526 38.91 11.9726C38.98 11.9126 39.06 11.8826 39.14 11.8826C39.19 11.8826 39.24 11.8926 39.28 11.9126L38.29 11.4526C38.29 11.4526 38.2 11.4226 38.15 11.4226Z" fill="#D79853"/>
<path d="M44.27 5.71257C44.29 4.77257 43.69 3.99257 42.91 3.63257L41.92 3.17257C42.7 3.53257 43.31 4.32257 43.28 5.25257C43.16 10.1026 43.01 14.9426 42.83 19.7926C42.77 21.3426 41.57 22.1226 40.39 22.1326C40.11 22.1326 39.84 22.0926 39.58 22.0026C39.49 21.9726 39.41 21.9426 39.33 21.9026L40.32 22.3626C40.65 22.5126 41.01 22.5826 41.38 22.5826C42.56 22.5826 43.76 21.7926 43.82 20.2426" fill="#D79853"/>
<path d="M40.98 2.97257C42.15 2.97257 43.31 3.97257 43.27 5.26257C43.15 10.1126 43 14.9526 42.82 19.8026C42.76 21.3526 41.56 22.1326 40.38 22.1426C39.19 22.1426 38.06 21.3726 38.12 19.8326C38.23 17.1526 38.35 14.4726 38.48 11.7926C38.48 11.5726 38.32 11.4226 38.14 11.4226C38.06 11.4226 37.98 11.4526 37.91 11.5126C37.71 11.6926 37.51 11.8626 37.31 12.0326C36.95 12.3326 36.54 12.4626 36.13 12.4626C34.89 12.4626 33.76 11.2526 34.65 9.89257C36.1 7.69257 37.77 5.65257 39.5 3.66257C39.92 3.18257 40.44 2.97257 40.97 2.97257H40.98Z" fill="#FFCE97"/>
<path d="M42.8 17.1526C42.71 16.8026 42.37 16.5826 42.1 16.3826C41.77 16.1326 41.43 15.9026 41.09 15.6926C40.73 15.4726 40.36 15.2626 40.06 14.9726C39.77 14.6926 39.64 14.3626 39.49 13.9926C39.47 13.9526 39.44 13.9226 39.41 13.9026C39.41 13.8326 39.41 13.7726 39.46 13.7426C39.55 13.6826 39.79 13.8326 39.87 13.8726C40.18 14.0026 40.49 14.1426 40.8 14.2726C41.06 14.3826 41.32 14.5226 41.6 14.5626C41.82 14.6026 42.07 14.5826 42.24 14.4226C42.43 14.2426 42.46 13.9826 42.37 13.7426C42.19 13.2726 41.68 12.9526 41.25 12.7326C40.79 12.4926 40.29 12.3226 39.84 12.0626C39.72 11.9926 39.61 11.9226 39.51 11.8226C39.47 11.7826 39.32 11.5926 39.36 11.5426C39.4 11.4826 39.64 11.5126 39.69 11.5226C39.88 11.5326 40.06 11.5826 40.24 11.6426C40.78 11.8026 41.37 12.0126 41.93 11.7826C42.15 11.6926 42.36 11.5426 42.39 11.2826C42.42 10.9926 42.2 10.7426 42 10.5726C41.18 9.89257 39.94 9.89257 39.25 9.00257C39.22 8.97257 39.15 8.89257 39.14 8.84257C39.16 8.84257 39.18 8.82257 39.2 8.82257C39.33 8.78257 39.47 8.80257 39.6 8.82257C39.93 8.90257 40.21 9.10257 40.52 9.24257C41.01 9.46257 41.69 9.63257 42.22 9.47257C42.78 9.30257 42.71 8.65257 42.41 8.29257C42.06 7.86257 41.55 7.60257 41.06 7.36257C40.58 7.12257 40.06 6.87257 39.73 6.42257C39.61 6.25257 39.46 6.00257 39.5 5.79257C39.52 5.69257 39.52 5.68257 39.6 5.71257C39.72 5.76257 39.84 5.88257 39.95 5.96257C40.48 6.31257 41.13 6.64257 41.77 6.72257C42.39 6.80257 42.87 6.40257 42.76 5.75257C42.67 5.18257 42.22 4.68257 41.78 4.33257C41.3 3.95257 40.76 3.71257 40.18 3.54257C39.89 3.46257 39.78 3.89257 40.06 3.98257C40.56 4.14257 41.07 4.39257 41.48 4.72257C41.68 4.88257 41.86 5.06257 42 5.27257C42.14 5.47257 42.32 5.75257 42.28 6.00257C42.19 6.53257 41.15 6.03257 40.9 5.92257C40.63 5.80257 40.38 5.65257 40.14 5.49257C39.93 5.35257 39.72 5.14257 39.45 5.20257C38.97 5.31257 38.95 5.91257 39.09 6.28257C39.28 6.78257 39.69 7.15257 40.14 7.43257C40.6 7.72257 41.11 7.91257 41.56 8.21257C41.76 8.35257 42.06 8.55257 42.14 8.79257C42.25 9.10257 41.78 9.04257 41.6 9.02257C41.32 9.00257 41.03 8.93257 40.77 8.82257C40.47 8.69257 40.19 8.50257 39.87 8.39257C39.49 8.26257 38.6 8.22257 38.63 8.83257C38.64 9.08257 38.86 9.32257 39.02 9.49257C39.2 9.68257 39.42 9.84257 39.64 9.97257C40.1 10.2526 40.62 10.4026 41.11 10.6226C41.33 10.7226 41.55 10.8426 41.73 11.0126C41.77 11.0526 41.84 11.1126 41.86 11.1626C41.88 11.2426 41.88 11.2326 41.8 11.2726C41.67 11.3326 41.54 11.3626 41.4 11.3626C40.79 11.3626 40.24 11.0126 39.63 11.0026C39.41 11.0026 39.14 11.0226 38.98 11.2026C38.8 11.4226 38.86 11.7526 38.99 11.9726C39.25 12.4026 39.79 12.6226 40.22 12.8226C40.74 13.0526 41.31 13.2626 41.71 13.6826C41.86 13.8426 42.04 14.1226 41.68 14.0626C41.37 14.0126 41.06 13.8326 40.78 13.7126C40.43 13.5626 40.07 13.3826 39.7 13.2826C39.43 13.2126 39.17 13.3126 39.05 13.5626C38.9 13.8626 39.01 14.1826 39.2 14.4626C39.33 14.9326 39.77 15.3426 40.15 15.6226C40.78 16.0726 41.46 16.4326 42.07 16.9126C42.18 17.0026 42.33 17.1026 42.38 17.2426C42.45 17.4526 42.27 17.4726 42.11 17.4426C41.75 17.3726 41.39 17.2326 41.06 17.0926C40.72 16.9426 40.39 16.7826 40.06 16.6226C39.82 16.5126 39.42 16.2326 39.14 16.3426C38.85 16.4526 38.86 16.7926 38.94 17.0426C39.04 17.3226 39.22 17.5526 39.44 17.7526C39.94 18.1926 40.57 18.4726 41.08 18.9026C41.32 19.1026 41.63 19.3426 41.79 19.6226C41.81 19.6526 41.88 19.7726 41.85 19.8126C41.82 19.8526 41.7 19.8426 41.66 19.8426C41.48 19.8426 41.3 19.8226 41.12 19.7826C40.48 19.6226 39.91 19.2626 39.24 19.2226C38.89 19.1926 38.61 19.4226 38.7 19.8026C38.78 20.1326 39.03 20.4326 39.29 20.6426C39.59 20.8926 39.93 21.0826 40.29 21.2426C40.65 21.3926 41.04 21.5426 41.44 21.5126C41.53 21.5126 41.59 21.3726 41.49 21.3226C41.18 21.1726 40.84 21.0826 40.52 20.9326C40.21 20.7826 39.9 20.6126 39.63 20.3926C39.54 20.3226 38.97 19.7626 39.14 19.6526C39.22 19.6026 39.53 19.7126 39.61 19.7326C39.77 19.7726 39.92 19.8326 40.07 19.8926C40.64 20.1126 41.29 20.4226 41.91 20.2626C42.2 20.1926 42.34 19.9226 42.27 19.6326C42.2 19.3426 41.96 19.1126 41.75 18.9126C41.26 18.4426 40.7 18.0926 40.13 17.7226C39.89 17.5626 39.63 17.3926 39.47 17.1426C39.4 17.0326 39.38 16.9126 39.33 16.8026C39.35 16.8026 39.38 16.8226 39.4 16.8326C39.5 16.8726 39.59 16.9126 39.69 16.9626C40.33 17.2526 40.95 17.5926 41.63 17.8026C41.91 17.8926 42.27 18.0026 42.55 17.8626C42.81 17.7326 42.9 17.4326 42.83 17.1626L42.8 17.1526Z" fill="white"/>
<path d="M36.88 11.9826C36.56 11.5726 36.29 11.1026 36.05 10.6526C35.93 10.4226 35.82 10.1926 35.72 9.96257C35.67 9.84257 35.62 9.72257 35.58 9.60257C35.55 9.51257 35.48 9.38257 35.48 9.28257C35.48 9.17257 35.41 9.10257 35.31 9.06257C35.31 9.06257 35.31 9.06257 35.3 9.06257C35.2 9.02257 35.07 9.09257 35.02 9.17257C34.92 9.33257 34.99 9.47257 35.04 9.63257C35.09 9.77257 35.14 9.90257 35.19 10.0326C35.3 10.3026 35.43 10.5726 35.58 10.8226C35.87 11.3326 36.23 11.7626 36.64 12.1826C36.76 12.3026 37 12.1326 36.89 11.9926L36.88 11.9826Z" fill="white"/>
<path d="M37.67 11.0326C37.6 10.9026 37.54 10.7626 37.47 10.6326C37.32 10.3326 37.18 10.0426 37.05 9.73257C36.79 9.13257 36.59 8.52257 36.41 7.89257C36.32 7.57257 35.83 7.71257 35.91 8.03257C36.09 8.69257 36.33 9.33257 36.61 9.95257C36.75 10.2626 36.9 10.5626 37.07 10.8626C37.15 11.0126 37.25 11.1526 37.34 11.2926C37.41 11.3926 37.49 11.5526 37.62 11.5826C37.72 11.6026 37.8 11.5426 37.81 11.4326C37.82 11.3026 37.71 11.1426 37.66 11.0326H37.67Z" fill="white"/>
<path d="M38.3 10.7226C37.88 9.20257 37.63 7.65257 37.77 6.06257C37.77 5.97257 37.72 5.89257 37.65 5.84257C37.56 5.78257 37.49 5.80257 37.4 5.84257C37.32 5.88257 37.28 5.97257 37.28 6.06257C37.17 7.67257 37.38 9.35257 38.09 10.8126C38.15 10.9426 38.36 10.8526 38.32 10.7126L38.3 10.7226Z" fill="white"/>
<path d="M35.47 11.1126C35.47 11.1126 35.44 11.0526 35.42 11.0326C35.39 11.0026 35.35 10.9726 35.3 10.9626C35.29 10.9626 35.28 10.9626 35.27 10.9626C35.26 10.9626 35.25 10.9626 35.24 10.9626C35.22 10.9626 35.2 10.9626 35.18 10.9626H35.15C35.15 10.9626 35.08 10.9926 35.05 11.0226C35.03 11.0426 35.01 11.0626 35 11.0926C34.99 11.1226 34.98 11.1426 34.98 11.1826C34.98 11.2226 34.99 11.2626 35.01 11.2926C35.01 11.2926 35.02 11.3126 35.03 11.3226L35.07 11.3726C35.07 11.3726 35.1 11.4026 35.12 11.4126C35.15 11.4326 35.18 11.4426 35.21 11.4426C35.23 11.4426 35.24 11.4426 35.25 11.4426C35.27 11.4426 35.29 11.4426 35.31 11.4426C35.33 11.4426 35.35 11.4226 35.37 11.4226L35.42 11.3826C35.42 11.3826 35.46 11.3326 35.47 11.3026C35.48 11.2826 35.49 11.2626 35.49 11.2426C35.49 11.2226 35.49 11.2026 35.49 11.1826C35.49 11.1626 35.49 11.1426 35.47 11.1226V11.1126Z" fill="white"/>
<path d="M42.31 15.3326C42.31 15.3326 42.28 15.2526 42.24 15.2226C42.22 15.2126 42.2 15.1926 42.19 15.1826C42.15 15.1626 42.11 15.1426 42.06 15.1426C42.02 15.1426 41.99 15.1426 41.96 15.1626C41.93 15.1726 41.9 15.1926 41.88 15.2126C41.85 15.2326 41.84 15.2626 41.83 15.2926C41.81 15.3226 41.81 15.3526 41.81 15.3926C41.81 15.4126 41.81 15.4426 41.81 15.4626C41.82 15.5026 41.84 15.5426 41.88 15.5726C41.9 15.5826 41.92 15.6026 41.93 15.6126C41.97 15.6326 42.01 15.6526 42.06 15.6526C42.1 15.6526 42.13 15.6526 42.16 15.6326C42.19 15.6226 42.22 15.6026 42.24 15.5826C42.27 15.5626 42.28 15.5326 42.29 15.5026C42.31 15.4726 42.31 15.4426 42.31 15.4026C42.31 15.3826 42.31 15.3526 42.31 15.3326Z" fill="white"/>
<path d="M39.38 15.5526C39.38 15.5526 39.38 15.5726 39.38 15.5826C39.38 15.5826 39.38 15.5626 39.39 15.5626C39.39 15.5626 39.39 15.5426 39.39 15.5326C39.39 15.5326 39.39 15.5526 39.39 15.5626L39.38 15.5526Z" fill="white"/>
<path d="M39.37 15.5926C39.37 15.5926 39.37 15.5626 39.38 15.5526C39.38 15.5326 39.39 15.5126 39.39 15.4926C39.39 15.4926 39.39 15.5126 39.39 15.5226C39.39 15.5226 39.39 15.5226 39.39 15.5126C39.39 15.5126 39.39 15.5126 39.39 15.5026C39.39 15.5026 39.39 15.4526 39.39 15.4226C39.39 15.3926 39.37 15.3626 39.35 15.3426C39.33 15.3126 39.31 15.2926 39.28 15.2826C39.26 15.2826 39.24 15.2626 39.22 15.2626C39.18 15.2526 39.13 15.2526 39.09 15.2626C39.07 15.2626 39.05 15.2826 39.03 15.2826C38.99 15.3026 38.96 15.3326 38.94 15.3726C38.94 15.3826 38.92 15.4226 38.91 15.4326C38.9 15.4726 38.9 15.5226 38.91 15.5626C38.91 15.5926 38.93 15.6226 38.95 15.6426C38.97 15.6726 38.99 15.6926 39.02 15.7026C39.02 15.7026 39.04 15.7026 39.05 15.7026C39.06 15.7026 39.08 15.7226 39.09 15.7226C39.09 15.7226 39.14 15.7226 39.15 15.7226C39.15 15.7226 39.2 15.7226 39.21 15.7226C39.21 15.7226 39.23 15.7226 39.24 15.7126C39.24 15.7126 39.26 15.7126 39.26 15.7026C39.27 15.6926 39.29 15.6826 39.3 15.6726C39.31 15.6626 39.32 15.6426 39.33 15.6326C39.33 15.6226 39.33 15.6126 39.34 15.6026C39.34 15.6026 39.34 15.6026 39.34 15.5826C39.34 15.5826 39.34 15.5826 39.34 15.5726C39.34 15.5726 39.34 15.5826 39.34 15.5926H39.37Z" fill="white"/>
<path d="M39.38 15.5626C39.38 15.5626 39.38 15.5626 39.38 15.5526V15.5626Z" fill="white"/>
<path d="M42.46 18.5426C42.46 18.5426 42.46 18.5326 42.45 18.5226C42.45 18.5226 42.45 18.5226 42.45 18.5126C42.44 18.4926 42.42 18.4826 42.41 18.4726C42.38 18.4526 42.35 18.4426 42.31 18.4426C42.27 18.4426 42.24 18.4426 42.21 18.4726C42.18 18.4926 42.16 18.5126 42.14 18.5426C42.14 18.5426 42.14 18.5426 42.14 18.5526C42.14 18.5526 42.14 18.5526 42.13 18.5626L42.11 18.6126C42.11 18.6126 42.1 18.6726 42.11 18.7026C42.11 18.7326 42.11 18.7626 42.14 18.7826C42.15 18.7926 42.16 18.8126 42.17 18.8226C42.19 18.8426 42.21 18.8626 42.24 18.8626C42.27 18.8726 42.29 18.8826 42.32 18.8826C42.34 18.8826 42.36 18.8826 42.38 18.8826C42.41 18.8826 42.43 18.8626 42.45 18.8426C42.47 18.8226 42.49 18.8026 42.51 18.7826C42.51 18.7626 42.52 18.7526 42.53 18.7326C42.53 18.7026 42.54 18.6726 42.53 18.6426C42.53 18.6126 42.53 18.5826 42.5 18.5626L42.46 18.5426Z" fill="white"/>
<path d="M39.34 18.3326C39.34 18.3326 39.33 18.3026 39.31 18.2826C39.31 18.2626 39.29 18.2526 39.27 18.2426C39.26 18.2326 39.24 18.2226 39.22 18.2126C39.19 18.2026 39.17 18.1926 39.14 18.1926C39.12 18.1926 39.1 18.1926 39.07 18.2026C39.07 18.2026 39.07 18.2026 39.06 18.2026C39.06 18.2026 39.05 18.2026 39.04 18.2026C39 18.2126 38.97 18.2326 38.94 18.2626C38.93 18.2726 38.92 18.2926 38.91 18.3026C38.89 18.3326 38.88 18.3726 38.88 18.4126C38.88 18.4426 38.88 18.4726 38.9 18.4926C38.9 18.5226 38.92 18.5426 38.95 18.5626C38.97 18.5826 38.99 18.6026 39.02 18.6126C39.05 18.6226 39.07 18.6326 39.1 18.6326C39.14 18.6326 39.18 18.6226 39.21 18.6026C39.21 18.6026 39.22 18.6026 39.23 18.5926C39.25 18.5826 39.28 18.5626 39.29 18.5426C39.3 18.5326 39.31 18.5126 39.32 18.5026C39.32 18.4826 39.33 18.4726 39.34 18.4526C39.34 18.4326 39.34 18.4126 39.34 18.3926C39.34 18.3626 39.34 18.3326 39.32 18.3126L39.34 18.3326Z" fill="white"/>
<path d="M42.32 12.3726C42.32 12.3726 42.29 12.3026 42.26 12.2726C42.23 12.2426 42.2 12.2226 42.16 12.2126C42.09 12.1926 42 12.2126 41.95 12.2726C41.9 12.3326 41.87 12.4126 41.89 12.4826C41.9 12.5226 41.92 12.5526 41.95 12.5826C41.98 12.6126 42.01 12.6326 42.05 12.6426C42.05 12.6426 42.06 12.6426 42.07 12.6426C42.11 12.6426 42.14 12.6426 42.18 12.6426C42.21 12.6426 42.25 12.6126 42.27 12.5926C42.3 12.5626 42.31 12.5326 42.32 12.5026C42.32 12.4626 42.32 12.4326 42.32 12.3926V12.3726Z" fill="white"/>
<path d="M39.41 10.2226C39.41 10.2226 39.39 10.1726 39.37 10.1626C39.36 10.1526 39.34 10.1426 39.33 10.1326C39.31 10.1326 39.3 10.1226 39.28 10.1126C39.25 10.1126 39.23 10.1126 39.2 10.1126C39.17 10.1126 39.15 10.1126 39.13 10.1326C39.1 10.1526 39.08 10.1726 39.06 10.2026C39.04 10.2326 39.03 10.2626 39.03 10.3026V10.3526C39.03 10.3526 39.06 10.4126 39.09 10.4426C39.11 10.4626 39.13 10.4726 39.15 10.4826C39.17 10.4926 39.2 10.5026 39.23 10.5026C39.3 10.5026 39.37 10.4626 39.4 10.4026C39.4 10.3826 39.41 10.3726 39.42 10.3526C39.42 10.3226 39.42 10.3026 39.42 10.2726C39.42 10.2526 39.42 10.2426 39.41 10.2226Z" fill="white"/>
<path d="M42.62 9.98257C42.62 9.98257 42.62 9.95257 42.61 9.94257C42.61 9.92257 42.61 9.91257 42.59 9.89257C42.59 9.87257 42.57 9.86257 42.56 9.85257C42.54 9.83257 42.51 9.81257 42.48 9.80257C42.48 9.80257 42.47 9.80257 42.46 9.80257C42.43 9.80257 42.4 9.80257 42.37 9.80257C42.34 9.80257 42.32 9.82257 42.29 9.84257C42.27 9.86257 42.25 9.89257 42.25 9.92257C42.25 9.95257 42.25 9.98257 42.25 10.0126C42.25 10.0126 42.25 10.0226 42.25 10.0326C42.25 10.0326 42.25 10.0326 42.25 10.0426C42.25 10.0626 42.26 10.0726 42.27 10.0926C42.29 10.1226 42.31 10.1426 42.34 10.1626C42.35 10.1626 42.37 10.1726 42.38 10.1826C42.39 10.1826 42.41 10.1926 42.42 10.2026C42.43 10.2026 42.45 10.2026 42.46 10.2026H42.5C42.5 10.2026 42.54 10.1826 42.56 10.1626C42.57 10.1626 42.58 10.1426 42.59 10.1326C42.6 10.1226 42.61 10.1126 42.61 10.0926C42.61 10.0826 42.62 10.0626 42.62 10.0526C42.62 10.0326 42.62 10.0126 42.62 9.98257Z" fill="white"/>
<path d="M39.34 7.53257C39.34 7.53257 39.34 7.51257 39.34 7.50257C39.34 7.47257 39.34 7.45257 39.34 7.42257C39.34 7.40257 39.33 7.39257 39.32 7.37257C39.28 7.30257 39.2 7.26257 39.12 7.28257C39.12 7.28257 39.11 7.28257 39.1 7.28257C39.07 7.28257 39.05 7.28257 39.02 7.31257C39.02 7.31257 39 7.32257 38.99 7.33257C38.97 7.34257 38.95 7.36257 38.93 7.39257C38.91 7.41257 38.9 7.43257 38.89 7.46257C38.89 7.49257 38.88 7.52257 38.89 7.55257C38.89 7.58257 38.89 7.60257 38.92 7.63257C38.93 7.64257 38.94 7.66257 38.95 7.67257C38.98 7.70257 39.01 7.71257 39.04 7.72257C39.06 7.72257 39.08 7.72257 39.1 7.72257C39.14 7.72257 39.17 7.72257 39.21 7.69257C39.21 7.69257 39.23 7.68257 39.23 7.67257C39.25 7.66257 39.27 7.64257 39.29 7.62257C39.29 7.62257 39.29 7.60257 39.31 7.59257C39.31 7.59257 39.31 7.59257 39.32 7.58257C39.32 7.58257 39.32 7.57257 39.32 7.56257C39.32 7.56257 39.32 7.56257 39.32 7.55257C39.32 7.55257 39.32 7.55257 39.32 7.54257L39.34 7.53257Z" fill="white"/>
<path d="M42.76 7.41257C42.76 7.41257 42.76 7.41257 42.76 7.40257C42.76 7.37257 42.76 7.34257 42.74 7.32257C42.74 7.30257 42.73 7.29257 42.71 7.27257C42.7 7.25257 42.68 7.23257 42.65 7.22257C42.62 7.20257 42.6 7.20257 42.57 7.20257C42.55 7.20257 42.53 7.20257 42.52 7.20257C42.52 7.20257 42.5 7.20257 42.49 7.20257C42.45 7.20257 42.42 7.23257 42.4 7.25257C42.37 7.28257 42.36 7.31257 42.35 7.34257C42.35 7.36257 42.35 7.39257 42.34 7.41257C42.34 7.41257 42.34 7.41257 42.34 7.42257C42.34 7.44257 42.34 7.46257 42.34 7.48257C42.34 7.48257 42.34 7.49257 42.34 7.50257C42.34 7.52257 42.36 7.55257 42.37 7.57257C42.38 7.59257 42.4 7.61257 42.42 7.63257C42.44 7.65257 42.46 7.66257 42.49 7.67257C42.52 7.67257 42.55 7.67257 42.57 7.67257C42.6 7.67257 42.62 7.67257 42.65 7.65257C42.66 7.64257 42.68 7.63257 42.69 7.62257C42.72 7.59257 42.73 7.56257 42.74 7.53257C42.74 7.51257 42.74 7.49257 42.74 7.47257C42.74 7.45257 42.74 7.43257 42.73 7.42257L42.76 7.41257Z" fill="white"/>
<path d="M40.63 4.76257C40.63 4.78257 40.63 4.79257 40.63 4.81257C40.63 4.78257 40.63 4.74257 40.6 4.71257C40.58 4.68257 40.56 4.66257 40.53 4.64257C40.51 4.64257 40.5 4.62257 40.48 4.62257C40.46 4.62257 40.42 4.62257 40.42 4.62257C40.4 4.62257 40.38 4.62257 40.36 4.62257C40.36 4.62257 40.34 4.62257 40.33 4.63257C40.32 4.63257 40.31 4.63257 40.3 4.64257C40.28 4.65257 40.27 4.66257 40.25 4.68257C40.24 4.70257 40.22 4.71257 40.21 4.73257C40.21 4.75257 40.2 4.76257 40.19 4.78257C40.19 4.81257 40.18 4.84257 40.19 4.87257C40.19 4.87257 40.19 4.89257 40.19 4.90257C40.19 4.92257 40.2 4.94257 40.21 4.96257C40.23 4.99257 40.25 5.01257 40.28 5.03257C40.3 5.04257 40.33 5.05257 40.35 5.05257C40.38 5.05257 40.4 5.05257 40.43 5.05257C40.43 5.05257 40.44 5.05257 40.45 5.04257C40.46 5.04257 40.47 5.04257 40.49 5.03257C40.49 5.03257 40.49 5.03257 40.5 5.03257C40.5 5.03257 40.5 5.02257 40.51 5.02257L40.49 5.04257H40.45C40.45 5.04257 40.49 5.04257 40.51 5.02257C40.53 5.01257 40.54 4.99257 40.55 4.98257C40.55 4.98257 40.56 4.97257 40.57 4.96257C40.57 4.96257 40.57 4.96257 40.57 4.95257C40.57 4.95257 40.56 4.96257 40.55 4.97257C40.55 4.97257 40.56 4.96257 40.57 4.95257C40.57 4.94257 40.58 4.92257 40.59 4.91257C40.59 4.92257 40.58 4.94257 40.57 4.95257C40.57 4.95257 40.57 4.95257 40.57 4.94257C40.59 4.92257 40.59 4.89257 40.6 4.86257C40.6 4.82257 40.6 4.83257 40.6 4.78257L40.63 4.76257Z" fill="white"/>
<path d="M40.54 5.00257V5.01257H40.53L40.54 5.00257Z" fill="white"/>
<path d="M40.61 4.92257C40.61 4.92257 40.61 4.92257 40.61 4.93257C40.61 4.93257 40.61 4.92257 40.62 4.91257L40.61 4.92257Z" fill="white"/>
<path d="M42.18 3.71257C42.18 3.71257 42.18 3.70257 42.18 3.69257C42.18 3.66257 42.15 3.63257 42.13 3.60257C42.11 3.58257 42.08 3.56257 42.04 3.55257C41.97 3.53257 41.9 3.55257 41.85 3.60257C41.8 3.65257 41.78 3.72257 41.8 3.79257C41.8 3.82257 41.83 3.85257 41.85 3.88257C41.87 3.90257 41.9 3.92257 41.94 3.93257C41.94 3.93257 41.95 3.93257 41.96 3.93257C42.02 3.95257 42.09 3.93257 42.14 3.88257C42.19 3.83257 42.21 3.76257 42.19 3.70257L42.18 3.71257Z" fill="white"/>
<path d="M44.86 4.86257C44.67 4.21257 44.46 3.55257 44.02 3.02257C43.74 2.68257 43.39 2.43257 43 2.25257C43 2.25257 42.99 2.25257 42.98 2.25257C42.12 1.85257 41.07 1.82257 40.19 2.11257C40.04 2.16257 39.89 2.22257 39.74 2.29257C38.73 2.76257 37.97 3.60257 37.32 4.51257C37.18 4.71257 36.98 4.96257 36.82 5.21257C36.57 5.36257 36.4 5.65257 36.39 5.95257C36.39 6.02257 36.39 6.09257 36.4 6.16257C36.41 6.24257 36.43 6.33257 36.46 6.41257C36.46 6.43257 36.46 6.44257 36.47 6.46257C36.65 7.06257 37.34 7.17257 37.73 6.85257C37.82 6.83257 37.91 6.82257 37.98 6.86257C37.99 6.86257 38 6.87257 38.01 6.89257C37.99 6.93257 37.97 6.98257 37.95 7.03257C37.92 7.14257 37.92 7.27257 37.91 7.38257C37.91 7.57257 37.93 7.75257 37.97 7.93257C37.97 7.93257 37.98 7.98257 37.98 8.00257C38.07 8.40257 38.27 8.75257 38.53 9.07257C38.61 9.17257 38.7 9.25257 38.8 9.32257C38.8 9.32257 38.81 9.32257 38.81 9.33257C38.84 9.35257 38.87 9.37257 38.89 9.38257C38.96 9.42257 39.03 9.46257 39.11 9.49257C39.35 9.58257 39.62 9.57257 39.87 9.51257C40.25 9.44257 40.61 9.19257 40.86 8.90257C41 8.73257 41.12 8.55257 41.22 8.37257C41.25 8.41257 41.29 8.46257 41.33 8.50257C41.34 8.51257 41.36 8.52257 41.37 8.54257C41.41 8.58257 41.46 8.62257 41.51 8.65257C41.51 8.65257 41.51 8.65257 41.52 8.66257C41.7 8.78257 41.91 8.85257 42.14 8.87257C42.5 8.91257 42.82 8.79257 43.08 8.59257C43.45 8.84257 43.89 8.97257 44.34 8.73257C44.95 8.41257 45.18 7.70257 45.23 7.05257C45.28 6.32257 45.06 5.56257 44.86 4.86257Z" fill="#E0C2FF"/>
<path d="M44.86 4.86257C44.67 4.21257 44.46 3.55257 44.02 3.02257C43.99 2.98257 43.96 2.95257 43.92 2.92257C44.27 3.56257 44.51 4.26257 44.55 5.01257C44.59 5.68257 44.63 6.43257 44.48 7.09257C44.42 7.36257 44.3 7.64257 44.05 7.79257C43.91 7.88257 43.75 7.91257 43.59 7.89257C43.53 7.99257 43.46 8.09257 43.38 8.18257C43.15 8.44257 42.77 8.66257 42.44 8.75257C41.96 8.88257 41.38 8.72257 41.16 8.23257C41.14 8.19257 41.12 8.14257 41.11 8.10257C41.01 8.21257 40.91 8.31257 40.82 8.42257C40.49 8.80257 40.1 9.05257 39.62 9.20257C39.32 9.30257 38.99 9.31257 38.7 9.23257C38.73 9.26257 38.76 9.28257 38.79 9.31257C38.79 9.31257 38.8 9.31257 38.8 9.32257C38.83 9.33257 38.86 9.34257 38.89 9.36257C38.89 9.36257 38.89 9.36257 38.89 9.37257C38.96 9.42257 39.04 9.45257 39.12 9.48257C39.36 9.57257 39.63 9.56257 39.88 9.50257C40.26 9.42257 40.63 9.18257 40.87 8.89257C41.01 8.72257 41.13 8.54257 41.23 8.36257C41.26 8.41257 41.3 8.45257 41.34 8.49257C41.35 8.50257 41.36 8.51257 41.37 8.52257C41.4 8.55257 41.47 8.60257 41.52 8.63257C41.52 8.63257 41.52 8.63257 41.53 8.64257C41.71 8.76257 41.92 8.83257 42.14 8.86257C42.5 8.90257 42.82 8.78257 43.08 8.58257C43.45 8.83257 43.89 8.96257 44.33 8.72257C44.94 8.40257 45.17 7.69257 45.22 7.04257C45.27 6.31257 45.05 5.55257 44.85 4.85257L44.86 4.86257Z" fill="#CDAAF2"/>
<path d="M38.05 6.58257C37.84 6.67257 37.68 6.71257 37.45 6.73257C37.21 6.75257 36.96 6.71257 36.74 6.64257C36.66 6.61257 36.58 6.58257 36.51 6.54257C36.73 7.06257 37.37 7.15257 37.73 6.84257C37.82 6.82257 37.91 6.82257 37.98 6.86257C38.05 6.76257 38.09 6.64257 38.14 6.54257C38.11 6.56257 38.08 6.58257 38.05 6.59257V6.58257Z" fill="#CDAAF2"/>
<path d="M42.6 1.06257C42.6 1.06257 42.62 1.11257 42.63 1.13257C42.91 1.97257 42.49 2.88257 41.66 3.21257C40.81 3.54257 39.84 3.12257 39.51 2.26257C39.4 1.98257 39.37 1.69257 39.42 1.42257C39.5 0.852573 39.88 0.342573 40.46 0.112573C41.32 -0.217427 42.28 0.202572 42.61 1.05257L42.6 1.06257Z" fill="#FEFEC0"/>
<path d="M39.53 2.34257C39.89 3.15257 40.82 3.53257 41.65 3.21257C42.5 2.88257 42.93 1.91257 42.6 1.06257C42.51 0.822572 42.34 0.532573 42.12 0.402573C42.3 0.632573 42.63 1.57257 41.8 2.37257C40.94 3.20257 39.86 3.03257 39.54 2.33257L39.53 2.34257Z" fill="#E8D864"/>
<path d="M40.71 1.15257C40.71 1.15257 40.71 1.16257 40.71 1.17257C40.79 1.41257 40.67 1.67257 40.43 1.76257C40.19 1.85257 39.92 1.73257 39.82 1.49257C39.79 1.41257 39.78 1.33257 39.79 1.25257C39.81 1.09257 39.92 0.942573 40.08 0.882573C40.32 0.792573 40.59 0.912573 40.69 1.15257H40.71Z" fill="white"/>
</svg>
