<svg width="78" height="60" viewBox="0 0 78 60" fill="none" xmlns="http://www.w3.org/2000/svg">
<path d="M1.14682 20.4378V48.4853C1.14682 51.3539 3.00918 53.8983 5.75371 54.7431C16.477 58.0538 44.383 64.6654 72.7301 54.8119C75.3472 53.8983 77.0919 51.4128 77.0919 48.6326V20.4378C77.0919 20.4378 38.2568 28.1201 1.14682 20.4378Z" fill="#FFEDDC"/>
<path d="M72.7301 36.2151C44.383 46.0587 16.477 39.457 5.75371 36.1463C3.01898 35.3015 1.14682 32.7669 1.14682 29.8884V38.7988C1.14682 41.6674 3.00918 44.2118 5.75371 45.0567C16.477 48.3674 44.383 54.9789 72.7301 45.1255C75.3472 44.2118 77.0919 41.7264 77.0919 38.9462V30.0358C77.0919 32.816 75.3472 35.3015 72.7301 36.2151Z" fill="#E54C5C"/>
<path d="M77.8663 16.7046C77.8663 14.1111 60.4385 12.0088 38.9331 12.0088C17.4278 12.0088 0 14.1111 0 16.7046V16.8913L0.0392076 29.8688C0.0392076 30.3502 0.196038 31.3227 1.10761 31.3129C1.85256 31.3129 2.0584 30.3895 2.0584 29.9081L1.93097 22.599C1.93097 22.599 2.22503 20.143 4.29323 21.8721C6.36143 23.6109 6.99855 33.0125 6.83192 35.8221C6.66529 38.6318 8.8119 40.4492 10.7919 38.7988C12.7719 37.1484 10.9585 25.9097 13.9285 25.4087C16.8985 24.9077 18.5452 28.3854 24.1519 28.7096C29.7586 29.0436 33.0618 25.4087 36.6885 26.0669C40.3152 26.7251 40.9719 33.3367 41.9619 35.1541C42.9519 36.9715 46.9119 37.9638 48.392 34.1619C49.872 30.36 51.852 26.2241 55.1553 25.7329C58.4487 25.2417 65.4179 30.861 70.5344 30.193C75.651 29.5348 76.1411 28.6703 77.2585 26.6072C78.425 24.4459 77.8663 16.7046 77.8663 16.7046Z" fill="#FEFEC0"/>
<path d="M38.9331 21.0567L43.8929 20.8995C45.5494 20.8504 47.2059 20.7914 48.8526 20.7226C52.1559 20.5851 55.4591 20.4279 58.7624 20.1823C62.0656 19.976 65.359 19.6715 68.6329 19.2687C70.2698 19.0624 71.9067 18.8266 73.524 18.4926C74.3278 18.3256 75.1413 18.1389 75.9157 17.8835C76.3078 17.7558 76.69 17.6084 77.0527 17.412C77.2291 17.3137 77.4056 17.2057 77.5624 17.0681C77.7094 16.9306 77.8368 16.7538 77.8466 16.5474C77.8466 16.7538 77.729 16.9502 77.582 17.0976C77.435 17.245 77.2683 17.3727 77.0821 17.4807C76.7194 17.6969 76.3372 17.8639 75.9549 18.0112C75.1805 18.3059 74.3768 18.5319 73.573 18.7382C71.9557 19.1213 70.3188 19.4062 68.6819 19.6617C65.3982 20.1529 62.095 20.4476 58.7918 20.6932C55.4787 20.8995 52.1755 21.0567 48.8624 21.1156C47.2059 21.1451 45.5494 21.1549 43.8929 21.1549C42.2364 21.1353 40.5798 21.1254 38.9233 21.0665L38.9331 21.0567Z" fill="#EFD9A5"/>
<path d="M0 16.5278C0.0196038 16.793 0.215642 16.9994 0.421482 17.1467C0.627321 17.3039 0.862567 17.4218 1.09781 17.5299C1.5683 17.7362 2.0682 17.8933 2.5681 18.021C3.56789 18.3059 4.59709 18.5024 5.61649 18.6793C7.67488 19.0231 9.74308 19.2982 11.8211 19.5241C13.8991 19.7697 15.9771 19.9564 18.0551 20.1529L24.3087 20.7226C23.2599 20.7226 22.2111 20.703 21.1721 20.6735C20.1233 20.6342 19.0843 20.5851 18.0355 20.536C15.9477 20.4279 13.8599 20.2511 11.7721 20.0153C9.69407 19.7697 7.60627 19.4848 5.55767 19.0427C4.52848 18.8168 3.50908 18.581 2.50929 18.247C2.00939 18.08 1.51929 17.8835 1.0488 17.6379C0.813557 17.5102 0.588114 17.3727 0.382274 17.1958C0.186236 17.0288 0 16.793 0.0098019 16.518L0 16.5278Z" fill="#EFD9A5"/>
<path d="M36.5513 7.80409L36.9237 7.46025C37.0512 7.34236 37.1492 7.21465 37.2178 7.07712C37.8647 6.34032 38.6097 5.43651 39.4918 5.17126C39.7467 5.10249 39.9525 5.07302 40.1094 5.09267C40.2074 5.10249 40.2858 5.13197 40.3544 5.17126L39.482 4.63094C39.4134 4.59165 39.335 4.56217 39.237 4.55235C39.0704 4.5327 38.8645 4.55235 38.6195 4.63094C37.7373 4.88637 36.9924 5.79017 36.3454 6.5368C36.2768 6.67433 36.1788 6.80204 36.0514 6.91993L35.6789 7.26377C35.3652 7.54867 34.983 7.63708 34.6105 7.59779C34.3752 7.56832 34.14 7.48972 33.9342 7.36201L34.8065 7.90233C35.0124 8.03005 35.2476 8.10864 35.4829 8.13811C35.8553 8.1774 36.2474 8.08899 36.5513 7.80409Z" fill="#D79853"/>
<path d="M43.9419 2.77421C45.1279 5.59369 43.4812 9.03209 41.2562 11.606C41.0797 11.8025 41.1386 12.0874 41.3248 12.2052L42.1972 12.7456C42.0011 12.6277 41.9521 12.3428 42.1285 12.1463C44.3536 9.57241 46.0003 6.13401 44.8143 3.31453C44.432 2.41072 43.8145 1.72304 43.0499 1.25149L42.1776 0.711167C42.9421 1.17289 43.5596 1.8704 43.9419 2.77421Z" fill="#D79853"/>
<path d="M45.0299 15.2016C45.0201 14.4058 44.6476 13.5904 43.9517 13.168L43.0793 12.6277C44.6672 13.6003 44.5692 16.5966 42.3148 16.793C40.0113 16.9895 37.7863 16.4983 35.4437 16.8127C35.2574 16.8422 35.0712 16.8422 34.8947 16.8127C34.5713 16.7734 34.2674 16.6653 33.993 16.4983L34.8653 17.0386C35.13 17.2057 35.4339 17.3137 35.7671 17.353C35.9436 17.3727 36.1298 17.3727 36.316 17.353C38.6587 17.0387 40.8837 17.5298 43.1872 17.3334C44.4614 17.2253 45.0397 16.2331 45.0299 15.2016Z" fill="#D79853"/>
<path d="M40.178 0.0234871C41.8149 0.219967 43.2656 1.15325 43.9419 2.76438C45.1279 5.58387 43.4812 9.02227 41.2562 11.5962C41.0405 11.8418 41.168 12.2151 41.4816 12.2544C41.6385 12.2642 41.7659 12.274 41.8933 12.2838C42.305 12.333 42.6873 12.4214 42.9421 12.5491C44.6672 13.4332 44.628 16.5867 42.3148 16.793C40.0113 16.9895 37.7863 16.4983 35.4437 16.8127C35.2574 16.8422 35.0712 16.8422 34.8947 16.8127C32.9736 16.5867 31.8856 13.8655 33.7577 12.5491C36.0122 10.9674 38.3548 8.80614 39.4722 6.2126C39.8153 5.41686 39.8937 4.64077 39.237 4.56217C39.0704 4.54253 38.8645 4.56217 38.6195 4.64077C37.7373 4.89619 36.9924 5.8 36.3454 6.54662C36.2768 6.68416 36.1788 6.81187 36.0514 6.92976L35.6789 7.2736C35.3652 7.55849 34.983 7.64691 34.6105 7.60761C33.7969 7.50937 33.0422 6.76275 33.248 5.87859C33.8165 3.39312 35.326 1.12377 37.8255 0.288735C38.5999 0.0333111 39.4134 -0.0551049 40.1878 0.0333111L40.178 0.0234871Z" fill="#FFCE97"/>
<path d="M38.9135 16.184C38.6587 16.0268 38.3254 16.0071 38.0314 15.9777C37.7079 15.9482 37.3844 15.9384 37.0708 15.9384C36.7571 15.9384 36.4434 15.9482 36.1396 15.9777C35.9828 15.9875 35.8357 15.9973 35.6789 16.0268C35.5515 16.0464 35.4142 16.0464 35.3358 16.1643C35.3162 16.2036 35.3064 16.2429 35.3358 16.2822C35.4142 16.3804 35.5319 16.3903 35.6495 16.4001C35.8063 16.4099 35.9534 16.4099 36.1102 16.4099C36.414 16.4099 36.7081 16.4001 37.012 16.4099C37.3158 16.4099 37.6099 16.4099 37.9137 16.4492C38.2078 16.4787 38.5312 16.5769 38.8253 16.5474C38.9821 16.5278 39.0508 16.292 38.9135 16.2036V16.184Z" fill="white"/>
<path d="M40.3838 16.1545C40.2956 16.0857 40.1878 16.0955 40.08 16.1054H39.8839C39.8251 16.1152 39.7565 16.125 39.6977 16.125C39.6683 16.125 39.6487 16.125 39.6193 16.1348C39.5899 16.1348 39.5703 16.1348 39.5408 16.1348C39.482 16.1348 39.433 16.1938 39.4232 16.2527C39.4232 16.2626 39.4232 16.3117 39.4232 16.3117V16.2822C39.4232 16.2822 39.4232 16.3117 39.4232 16.3215C39.4232 16.3411 39.4232 16.351 39.4428 16.3706C39.4722 16.4197 39.5212 16.4689 39.5703 16.4885C39.6585 16.5082 39.7369 16.518 39.8251 16.518C39.9035 16.518 39.9721 16.518 40.0505 16.518C40.1584 16.518 40.2858 16.5278 40.3838 16.459C40.472 16.3903 40.4818 16.2331 40.3838 16.1643V16.1545Z" fill="white"/>
<path d="M43.0303 15.8499C42.8343 16.0857 42.55 16.2036 42.256 16.2527C42.0697 16.2822 41.8835 16.292 41.6973 16.2822C41.5992 16.2822 41.4914 16.2724 41.3934 16.2626C41.2954 16.2626 41.1876 16.2429 41.0993 16.292C41.0307 16.3313 40.9915 16.4197 41.0503 16.4885C41.1974 16.6457 41.4816 16.6653 41.6875 16.685C41.9129 16.7046 42.1383 16.7046 42.3638 16.6653C42.7559 16.5966 43.1185 16.4099 43.3734 16.1054C43.5596 15.8892 43.2068 15.624 43.0205 15.8401L43.0303 15.8499Z" fill="white"/>
<path d="M35.9435 13.9834C35.9141 13.9343 35.8553 13.895 35.8063 13.8655C35.7769 13.8557 35.7573 13.8458 35.7279 13.836C35.7083 13.8262 35.6887 13.8164 35.6691 13.7967C35.6005 13.7673 35.5319 13.7574 35.4633 13.7574C35.3848 13.7574 35.3162 13.8262 35.2672 13.8851C35.2476 13.9048 35.2476 13.9343 35.228 13.9539C35.179 14.003 35.1594 14.062 35.1496 14.1209C35.1496 14.1406 35.1496 14.1602 35.1496 14.17C35.1496 14.1995 35.1496 14.2388 35.1496 14.2683C35.1594 14.3272 35.1888 14.396 35.228 14.4451C35.2672 14.4942 35.326 14.5335 35.3848 14.563C35.4142 14.5728 35.4535 14.5827 35.4927 14.5827C35.4927 14.5827 35.5025 14.5827 35.5123 14.5827C35.6299 14.6121 35.7573 14.563 35.8455 14.4942C35.9337 14.4255 36.0122 14.3076 36.0122 14.1897C36.0122 14.1013 35.9926 14.0325 35.9435 13.9637V13.9834Z" fill="white"/>
<path d="M35.5613 5.28915C35.5613 5.28915 35.5711 5.28915 35.5711 5.27933C35.5907 5.24985 35.5711 5.21056 35.5515 5.19091C35.5319 5.17126 35.5025 5.15161 35.4731 5.14179C35.4731 5.14179 35.4731 5.14179 35.4633 5.14179C35.4535 5.13197 35.4339 5.11232 35.4142 5.11232C35.3554 5.08285 35.2868 5.07302 35.2182 5.08285C35.228 5.08285 35.2378 5.08285 35.2574 5.08285C35.2574 5.08285 35.2574 5.08285 35.2476 5.08285H35.2084C35.2084 5.08285 35.179 5.08285 35.1692 5.09267C35.179 5.09267 35.1888 5.09267 35.2084 5.08285C35.1594 5.09267 35.1202 5.11232 35.081 5.14179C35.0516 5.16144 35.0222 5.19091 35.0026 5.21056C34.983 5.24003 34.9634 5.2695 34.9536 5.29897C34.9536 5.31862 34.9438 5.34809 34.934 5.36774C34.934 5.39721 34.9143 5.43651 34.934 5.46598C34.934 5.47581 34.934 5.49545 34.9438 5.50528C34.9536 5.54457 34.9732 5.57405 35.0026 5.59369C35.0026 5.60352 35.0124 5.61334 35.0222 5.63299C35.0614 5.67229 35.0908 5.70176 35.1398 5.72141C35.1888 5.74105 35.2378 5.75088 35.2868 5.74105C35.2966 5.74105 35.3064 5.74105 35.3162 5.74105C35.3358 5.74105 35.3652 5.73123 35.3848 5.72141C35.4338 5.69193 35.4633 5.67229 35.5025 5.63299C35.5319 5.60352 35.5417 5.57405 35.5613 5.54457C35.5613 5.54457 35.5613 5.52493 35.5711 5.5151C35.5711 5.49545 35.5907 5.46598 35.5907 5.43651C35.5907 5.38739 35.5907 5.33827 35.5711 5.28915H35.5613Z" fill="white"/>
<path d="M42.3246 4.49341C42.1678 4.16921 41.8541 4.06115 41.5698 3.89414C41.2464 3.69766 41.2072 3.344 41.1778 3.00016C41.1484 2.66614 41.1091 2.33213 40.9425 2.02758C40.7857 1.74269 40.521 1.52656 40.1976 1.51673C39.9035 1.51673 39.6683 1.67392 39.4722 1.8704C39.2272 2.10617 39.0311 2.3616 38.6587 2.26336C38.4332 2.20441 38.2176 2.09635 37.9823 2.06688C37.7765 2.04723 37.5805 2.06688 37.3942 2.14547C37.0512 2.28301 36.7571 2.58755 36.6493 2.94121C36.5415 3.3047 36.7081 3.75661 36.4238 4.01203C36.4042 4.01203 36.3846 4.01203 36.365 4.02185C36.365 4.02185 36.2964 4.06115 36.2768 4.07097C36.2768 4.07097 36.267 4.07097 36.2572 4.07097C36.2474 4.07097 36.2278 4.0808 36.218 4.09062C36.218 4.09062 36.218 4.09062 36.2082 4.09062C36.1886 4.09062 36.169 4.09062 36.1494 4.10045C36.1102 4.10045 36.071 4.10045 36.0318 4.11027C36.0024 4.11027 35.9828 4.11027 35.9534 4.11027C35.9043 4.11027 35.8553 4.10045 35.8063 4.09062C35.6985 4.07097 35.6005 4.0415 35.4927 4.05133C35.4339 4.05133 35.3848 4.11027 35.375 4.15939C35.3554 4.21833 35.3848 4.27728 35.4339 4.31657C35.5221 4.39517 35.6397 4.45411 35.7475 4.48358C35.8553 4.52288 35.973 4.55235 36.0808 4.56217C36.169 4.56217 36.2474 4.56217 36.3258 4.55235C36.3748 4.572 36.4238 4.572 36.4827 4.55235C36.8159 4.43446 37.061 4.13974 37.1198 3.78608C37.1786 3.40294 37.0414 3.0591 37.355 2.76438C37.6491 2.48931 37.9823 2.53843 38.3352 2.65632C38.6685 2.76438 39.0017 2.82333 39.3154 2.65632C39.6487 2.45984 40.1584 1.6248 40.5308 2.22406C40.8837 2.79385 40.5995 3.54048 41.0601 4.06115C41.1778 4.18886 41.315 4.27728 41.462 4.35587C41.609 4.43446 41.7757 4.49341 41.8835 4.62112C42.0795 4.88637 41.9325 5.25968 41.7561 5.48563C41.3052 6.06524 40.4818 6.44838 40.521 7.30307C40.5406 7.65673 40.7563 7.95145 40.7171 8.31494C40.6681 8.65878 40.4426 8.93385 40.1192 9.07139C39.7859 9.20892 39.4232 9.26787 39.1194 9.47417C38.8351 9.66083 38.6489 9.96537 38.6783 10.319C38.7077 10.6531 39.0311 11.0165 38.7861 11.3309C38.5214 11.6551 38.051 11.6747 37.6687 11.7632C37.2962 11.8516 36.9433 11.9891 36.7277 12.3231C36.5513 12.5982 36.5317 12.9126 36.7277 13.1778C36.8355 13.3252 37.0904 13.1778 37.0022 13.0108C36.8355 12.7063 37.1394 12.4017 37.4236 12.2838C37.7863 12.1365 38.198 12.1463 38.5705 12.0088C38.8743 11.8909 39.1782 11.6747 39.2958 11.3702C39.433 11.0165 39.2664 10.7316 39.1782 10.3976C39.0704 10.0047 39.4428 9.79836 39.7663 9.68048C40.129 9.56259 40.4916 9.47417 40.7759 9.1991C41.0111 8.97315 41.1582 8.6686 41.1974 8.34441C41.217 8.1774 41.1974 8.0104 41.1582 7.85321C41.1091 7.66656 41.0111 7.4799 41.0013 7.2736C41.0013 6.85116 41.364 6.5368 41.6483 6.28137C41.9227 6.03577 42.207 5.78035 42.354 5.42669C42.4716 5.13197 42.501 4.7783 42.354 4.48358L42.3246 4.49341Z" fill="white"/>
<path d="M34.6497 16.0464C34.5713 16.0268 34.5125 15.9875 34.4341 15.9482C34.3654 15.9187 34.3066 15.8794 34.2478 15.8303C34.1106 15.7321 34.0126 15.6338 33.9244 15.4865C33.895 15.4373 33.8557 15.3587 33.8165 15.29C33.7773 15.2114 33.7479 15.1328 33.7185 15.0542C33.7087 15.0149 33.6891 14.9756 33.6793 14.9363C33.6793 14.9167 33.6695 14.897 33.6597 14.8774C33.6597 14.8774 33.6597 14.8577 33.6597 14.8479C33.6499 14.8086 33.6401 14.7693 33.6303 14.7398C33.6205 14.6612 33.5911 14.6121 33.5421 14.563C33.5127 14.5335 33.4343 14.5139 33.3951 14.5237C33.0716 14.6121 33.2382 14.9854 33.3166 15.2016C33.3853 15.398 33.4833 15.5749 33.6009 15.7419C33.7283 15.9089 33.8753 16.0562 34.0616 16.1447C34.1498 16.1938 34.2478 16.2233 34.3458 16.2331C34.4439 16.2429 34.5419 16.2331 34.6301 16.2134C34.7281 16.1938 34.7183 16.0661 34.6301 16.0464H34.6497Z" fill="white"/>
<path d="M35.6887 11.5667C35.4829 11.4095 35.2378 11.7042 35.1202 11.8418C34.8065 12.1954 34.3654 12.3821 34.0322 12.7161C33.8263 12.9224 33.6891 13.1778 33.5911 13.4529C33.5029 13.7181 33.3951 14.0129 33.5127 14.2781C33.5421 14.3567 33.6695 14.3371 33.6793 14.2486C33.6891 14.1209 33.7577 14.003 33.7969 13.8851C33.8459 13.7476 33.895 13.6199 33.9538 13.4824C34.0518 13.2564 34.189 13.0599 34.3851 12.9027C34.5713 12.7456 34.7967 12.6277 34.9928 12.4901C35.179 12.3526 35.326 12.1856 35.4829 12.0186C35.5711 11.9203 35.8847 11.6846 35.6887 11.547V11.5667Z" fill="white"/>
<path d="M39.7761 6.96905C39.7761 6.91993 39.7271 6.86099 39.6781 6.84134C39.6683 6.84134 39.6487 6.84134 39.6389 6.83152C39.5801 6.83152 39.5212 6.85116 39.4918 6.89046C39.3742 7.06729 39.3252 7.28342 39.2272 7.47008C39.1194 7.67638 38.9821 7.86304 38.8449 8.03987C38.5509 8.423 38.247 8.79632 37.9235 9.14998C37.6001 9.51347 37.2668 9.85731 36.9335 10.1913C36.6003 10.5155 36.218 10.8299 35.9632 11.2228C35.9239 11.2916 35.9828 11.38 36.0612 11.3506C36.5121 11.1541 36.8747 10.7808 37.2276 10.4566C37.5903 10.1127 37.9333 9.74924 38.2666 9.37593C38.5901 9.01244 38.9135 8.62931 39.2076 8.23635C39.4526 7.91216 39.8545 7.40131 39.7761 6.96905Z" fill="white"/>
<path d="M36.3258 5.56422C36.169 5.60352 36.0514 5.75088 35.9534 5.86876C35.8455 6.0063 35.7377 6.13401 35.6201 6.27155C35.4535 6.46803 35.277 6.71363 35.0026 6.76275C34.8457 6.79222 34.6693 6.76275 34.5125 6.7431C34.385 6.72345 34.2674 6.67433 34.1694 6.58592C34.0812 6.4975 34.0126 6.37961 33.9734 6.26172C33.9342 6.13401 33.9146 6.01612 33.8165 5.90806C33.7675 5.84912 33.6793 5.84912 33.6303 5.90806C33.4245 6.17331 33.6303 6.59574 33.8263 6.81187C34.1008 7.11641 34.4831 7.16553 34.8653 7.16553C35.2476 7.16553 35.5319 6.95923 35.7769 6.67433C35.9043 6.52697 36.0122 6.35996 36.1298 6.20278C36.2376 6.06525 36.4238 5.86876 36.4238 5.68211C36.4238 5.62317 36.3748 5.5544 36.3062 5.56422H36.3258Z" fill="white"/>
<path d="M37.257 0.770111C37.0414 0.730815 36.7963 0.917471 36.6199 1.03536C36.414 1.16307 36.218 1.31043 36.0318 1.46761C35.6593 1.78198 35.3162 2.15529 35.032 2.55808C34.4145 3.42259 33.944 4.45411 33.8263 5.50528C33.8165 5.63299 33.993 5.68211 34.042 5.56422C34.4145 4.61129 34.7379 3.63872 35.3456 2.79385C35.6201 2.42054 35.9239 2.0767 36.2768 1.78198C36.4532 1.63462 36.6395 1.49709 36.8355 1.36937C37.0218 1.25149 37.2668 1.18272 37.3746 0.976415C37.4236 0.878175 37.3354 0.789759 37.257 0.770111Z" fill="white"/>
<path d="M38.9527 0.386975C38.9331 0.298559 38.8743 0.249439 38.7861 0.229791C38.6979 0.210143 38.5901 0.229791 38.492 0.249439C38.4038 0.269087 38.3156 0.288735 38.2274 0.308383C38.149 0.328031 38.0706 0.357503 38.0019 0.396799C37.9137 0.445919 37.8255 0.495039 37.7765 0.583455C37.7863 0.573631 37.7961 0.553983 37.8059 0.544159C37.7961 0.544159 37.7765 0.563807 37.7667 0.573631C37.6883 0.632575 37.7471 0.760287 37.8353 0.740639C37.8549 0.740639 37.8647 0.740639 37.8843 0.740639H37.8255C37.9137 0.760287 38.0019 0.740639 38.0804 0.720991C38.1588 0.711167 38.2372 0.691519 38.3156 0.681695C38.394 0.671871 38.4724 0.652223 38.5509 0.642399C38.6391 0.632575 38.7273 0.632575 38.8253 0.603103C38.9037 0.573631 38.9527 0.475391 38.9331 0.396799L38.9527 0.386975Z" fill="white"/>
<path d="M43.5204 3.03945C43.4126 2.78403 43.2656 2.53843 43.1185 2.30265C42.8245 1.85075 42.4422 1.45779 42.0207 1.12377C41.5992 0.799583 41.1091 0.524511 40.5994 0.367327C40.3936 0.308383 39.2468 -0.0452808 39.335 0.445919C39.3448 0.514687 39.4428 0.563807 39.5016 0.514687C39.5212 0.495039 39.7663 0.583455 39.8055 0.593279C39.9133 0.622751 40.0211 0.642399 40.1192 0.681695C40.3348 0.750463 40.5504 0.829055 40.7563 0.927295C41.1778 1.11395 41.56 1.36937 41.9129 1.66409C42.256 1.95881 42.5598 2.31248 42.8049 2.70544C42.9225 2.89209 43.0205 3.08857 43.1087 3.28505C43.1872 3.45206 43.2656 3.75661 43.4616 3.81555C43.5204 3.8352 43.5694 3.81555 43.6086 3.77625C43.7753 3.5896 43.6086 3.23593 43.5204 3.03945Z" fill="white"/>
<path d="M43.8831 4.18886C43.8635 4.10045 43.7165 4.09062 43.7066 4.18886C43.638 4.91584 43.5988 5.65264 43.393 6.35996C43.295 6.69398 43.1774 7.028 43.0303 7.35219C42.8735 7.70585 42.6677 8.02022 42.4716 8.34441C42.4128 8.44265 42.4226 8.54089 42.5108 8.62931C42.5206 8.63913 42.5402 8.64896 42.5598 8.65878C42.6382 8.69808 42.7461 8.65878 42.7951 8.59001C43.2558 7.98092 43.5596 7.21465 43.7557 6.47785C43.9517 5.74105 44.0595 4.94531 43.8929 4.18886H43.8831Z" fill="white"/>
<path d="M41.1974 11.1835C41.5992 10.4959 42.0305 9.82784 42.3736 9.11068C42.4226 9.00262 42.2658 8.92403 42.1972 9.01244C41.5796 9.73942 41.0895 10.5843 40.6093 11.4095C40.423 11.7337 40.2564 12.1463 40.5112 12.4803C40.6191 12.6277 40.7857 12.7063 40.9523 12.7652C41.1484 12.834 41.3542 12.942 41.56 12.8635C41.6287 12.834 41.6679 12.7456 41.6287 12.6768C41.5404 12.5196 41.4032 12.4705 41.2366 12.4115C41.1091 12.3624 40.9327 12.333 40.8445 12.2151C40.7367 12.0677 40.8249 11.8712 40.8935 11.7239C40.9817 11.5372 41.0993 11.3604 41.2072 11.1835H41.1974Z" fill="white"/>
<path d="M43.9419 14.6023C43.9125 14.2879 43.8145 13.9736 43.6674 13.6985C43.5204 13.4136 43.3244 13.1189 43.0499 12.9519C42.9029 12.8635 42.7461 12.8143 42.5892 12.7554C42.4324 12.7063 42.207 12.608 42.0501 12.667C41.9913 12.6964 41.9521 12.775 41.9815 12.834C42.0501 12.9715 42.2168 13.0305 42.354 13.0894C42.4912 13.1483 42.6382 13.1975 42.7755 13.2761C43.0107 13.4038 43.1675 13.6297 43.2852 13.8655C43.4028 14.1013 43.4812 14.3469 43.5106 14.6023C43.5302 14.73 43.5302 14.8577 43.5106 14.9854C43.491 15.123 43.4224 15.2703 43.442 15.4079C43.4616 15.5454 43.6478 15.6338 43.7557 15.5356C43.8831 15.4177 43.9125 15.2409 43.9419 15.0739C43.9615 14.9167 43.9713 14.7595 43.9517 14.5925L43.9419 14.6023Z" fill="white"/>
<path d="M38.5313 3.90397C38.3156 3.81555 38.0902 3.98256 37.9137 4.09062C37.7373 4.19869 37.5609 4.30675 37.3942 4.43446C37.2374 4.55235 37.0904 4.68006 36.9531 4.80777C36.8159 4.94531 36.6199 5.11232 36.6003 5.3088C36.6003 5.37756 36.6493 5.44633 36.7277 5.43651C36.9041 5.40704 37.0512 5.24003 37.1884 5.13197C37.3256 5.01408 37.4726 4.90601 37.6099 4.79795C37.9039 4.59165 38.2078 4.42464 38.5313 4.26745C38.6783 4.19869 38.6881 3.96291 38.5313 3.90397Z" fill="white"/>
<path d="M40.4328 4.70953C40.3348 4.41481 40.1192 4.15939 39.8545 4.00221C39.5899 3.8352 39.188 3.72713 38.9625 4.00221C38.9135 4.06115 38.9625 4.14957 39.0311 4.15939C39.4722 4.22816 39.8643 4.44429 40.0211 4.89619C40.0996 5.12214 40.0799 5.37757 40.0211 5.61334C39.9917 5.74105 39.9525 5.86877 39.9133 5.98665C39.8937 6.0456 39.8741 6.11437 39.8447 6.17331C39.8251 6.22243 39.7859 6.2519 39.7565 6.31084C39.7075 6.41891 39.7761 6.52697 39.8643 6.57609C40.0897 6.68416 40.227 6.43856 40.2858 6.27155C40.3446 6.10454 40.4034 5.93753 40.4426 5.7607C40.5308 5.41686 40.5406 5.05337 40.423 4.70953H40.4328Z" fill="white"/>
<path d="M42.0599 14.5237C42.0599 14.5237 42.0207 14.5139 42.0011 14.5041C41.9227 14.4844 41.8345 14.5335 41.7855 14.5925C41.6581 14.7398 41.5502 14.8381 41.3444 14.8086C41.1091 14.7791 40.9033 14.5925 40.7269 14.4451C40.3446 14.1209 39.9623 13.8066 39.433 13.8655C38.9429 13.9146 38.5607 14.2388 38.1196 14.4353C37.7765 14.5925 37.1492 14.6514 37.0316 14.1504C37.0022 14.0227 36.8061 14.0129 36.7865 14.1504C36.7277 14.6416 37.1982 14.9756 37.6491 14.9756C38.2862 14.9756 38.7371 14.4942 39.3252 14.3567C39.9917 14.1995 40.3642 14.9167 40.8935 15.1819C41.315 15.398 42.1089 15.3489 42.1874 14.7497C42.1972 14.6514 42.1383 14.5335 42.0403 14.5041L42.0599 14.5237Z" fill="white"/>
</svg>
