<svg width="80" height="63" viewBox="0 0 80 63" fill="none" xmlns="http://www.w3.org/2000/svg">
<path d="M1.17 21.8233V50.3733C1.17 53.2933 3.07 55.8833 5.87 56.7433C16.81 60.1133 45.28 66.8433 74.2 56.8133C76.87 55.8833 78.65 53.3533 78.65 50.5233V21.8233C78.65 21.8233 39.03 29.6433 1.17 21.8233Z" fill="#FFEDDC"/>
<path d="M74.2 37.8833C45.28 47.9033 16.81 41.1833 5.87 37.8133C3.08 36.9533 1.17 34.3733 1.17 31.4433V40.5133C1.17 43.4333 3.07 46.0233 5.87 46.8833C16.81 50.2533 45.28 56.9833 74.2 46.9533C76.87 46.0233 78.65 43.4933 78.65 40.6633V31.5933C78.65 34.4233 76.87 36.9533 74.2 37.8833Z" fill="#E54C5C"/>
<path d="M79.44 18.0233C79.44 15.3833 61.66 13.2433 39.72 13.2433C17.78 13.2433 0 15.3833 0 18.0233V18.2133L0.04 31.4233C0.04 31.9133 0.2 32.9033 1.13 32.8933C1.89 32.8933 2.1 31.9533 2.1 31.4633L1.97 24.0233C1.97 24.0233 2.27 21.5233 4.38 23.2833C6.49 25.0533 7.14 34.6233 6.97 37.4833C6.8 40.3433 8.99 42.1933 11.01 40.5133C13.03 38.8333 11.18 27.3933 14.21 26.8833C17.24 26.3733 18.92 29.9133 24.64 30.2433C30.36 30.5833 33.73 26.8833 37.43 27.5533C41.13 28.2233 41.8 34.9533 42.81 36.8033C43.82 38.6533 47.86 39.6633 49.37 35.7933C50.88 31.9233 52.9 27.7133 56.27 27.2133C59.63 26.7133 66.74 32.4333 71.96 31.7533C77.18 31.0833 77.68 30.2033 78.82 28.1033C80.01 25.9033 79.44 18.0233 79.44 18.0233Z" fill="#FEFEC0"/>
<path d="M39.72 22.4533L44.78 22.2933C46.47 22.2433 48.16 22.1833 49.84 22.1133C53.21 21.9733 56.58 21.8133 59.95 21.5633C63.32 21.3533 66.68 21.0433 70.02 20.6333C71.69 20.4233 73.36 20.1833 75.01 19.8433C75.83 19.6733 76.66 19.4833 77.45 19.2233C77.85 19.0933 78.24 18.9433 78.61 18.7433C78.79 18.6433 78.97 18.5333 79.13 18.3933C79.28 18.2533 79.41 18.0733 79.42 17.8633C79.42 18.0733 79.3 18.2733 79.15 18.4233C79 18.5733 78.83 18.7033 78.64 18.8133C78.27 19.0333 77.88 19.2033 77.49 19.3533C76.7 19.6533 75.88 19.8833 75.06 20.0933C73.41 20.4833 71.74 20.7733 70.07 21.0333C66.72 21.5333 63.35 21.8333 59.98 22.0833C56.6 22.2933 53.23 22.4533 49.85 22.5133C48.16 22.5433 46.47 22.5533 44.78 22.5533C43.09 22.5333 41.4 22.5233 39.71 22.4633L39.72 22.4533Z" fill="#EFD9A5"/>
<path d="M0 17.8533C0.02 18.1233 0.22 18.3333 0.43 18.4833C0.64 18.6433 0.88 18.7633 1.12 18.8733C1.6 19.0833 2.11 19.2433 2.62 19.3733C3.64 19.6633 4.69 19.8633 5.73 20.0433C7.83 20.3933 9.94 20.6733 12.06 20.9033C14.18 21.1533 16.3 21.3433 18.42 21.5433L24.8 22.1233C23.73 22.1233 22.66 22.1033 21.6 22.0733C20.53 22.0333 19.47 21.9833 18.4 21.9333C16.27 21.8233 14.14 21.6433 12.01 21.4033C9.89 21.1533 7.76 20.8633 5.67 20.4133C4.62 20.1833 3.58 19.9433 2.56 19.6033C2.05 19.4333 1.55 19.2333 1.07 18.9833C0.83 18.8533 0.6 18.7133 0.39 18.5333C0.19 18.3633 0 18.1233 0.01 17.8433L0 17.8533Z" fill="#EFD9A5"/>
<path d="M40.66 4.58333L39.76 4.00333C39.53 3.85333 39.29 3.76333 39.05 3.73333C37.68 3.53333 36.23 4.94333 35.29 5.42333C35.01 5.57333 34.75 5.61333 34.52 5.58333C34.36 5.56333 34.22 5.50333 34.09 5.41333L34.99 5.99333C35.12 6.07333 35.26 6.13333 35.42 6.16333C35.65 6.19333 35.91 6.15333 36.19 6.00333C37.13 5.51333 38.57 4.11333 39.95 4.31333C40.19 4.35333 40.43 4.43333 40.66 4.58333Z" fill="#B87C66"/>
<path d="M37.84 13.5333L36.94 12.9533C36.94 12.9533 36.97 12.9733 36.99 12.9833C37.02 13.0033 37.06 13.0233 37.09 13.0533L37.99 13.6333C37.99 13.6333 37.92 13.5833 37.89 13.5633C37.87 13.5533 37.86 13.5433 37.84 13.5333Z" fill="#D46A50"/>
<path d="M39.42 10.6433C39.08 10.5933 38.77 10.4833 38.48 10.2933L39.38 10.8733C39.67 11.0633 39.98 11.1733 40.32 11.2233C40.41 11.2333 40.5 11.2433 40.59 11.2433C40.65 11.2433 40.71 11.2433 40.79 11.2633C41.04 11.3033 41.27 11.3833 41.48 11.5233L40.58 10.9433C40.38 10.8133 40.14 10.7233 39.89 10.6833C39.81 10.6733 39.75 10.6633 39.69 10.6633C39.6 10.6633 39.51 10.6533 39.42 10.6433Z" fill="#B87C66"/>
<path d="M45.24 10.0633C44.92 9.54333 44.9 8.88333 45.2 8.32333C46.38 6.11333 45.84 3.29333 43.77 1.73333C43.66 1.65333 43.56 1.57333 43.44 1.50333L42.54 0.923328C42.65 0.993328 42.76 1.07333 42.87 1.15333C44.94 2.72333 45.48 5.53333 44.3 7.74333C44 8.30333 44.02 8.96333 44.34 9.48333C45.06 10.6233 45.41 12.0533 45.18 13.3433C44.57 16.7433 41.21 18.8433 38.09 18.3933C37.44 18.2933 36.83 18.1033 36.25 17.8033C36.13 17.7433 36.01 17.6733 35.9 17.5933L36.8 18.1733C36.92 18.2533 37.04 18.3233 37.15 18.3833C37.73 18.6833 38.34 18.8833 38.99 18.9733C42.12 19.4233 45.47 17.3233 46.08 13.9233C46.31 12.6333 45.96 11.2033 45.24 10.0633Z" fill="#B87C66"/>
<path d="M40.28 0.0733282C41.23 0.213328 42.1 0.573328 42.86 1.15333C44.93 2.72333 45.47 5.53333 44.29 7.74333C43.99 8.30333 44.01 8.96333 44.33 9.48333C45.05 10.6233 45.4 12.0533 45.17 13.3433C44.56 16.7433 41.2 18.8433 38.08 18.3933C37.43 18.2933 36.82 18.1033 36.24 17.8033C34.8 17.0533 33.34 15.1533 33.81 13.3733C34.06 12.3933 34.66 12.1533 35.33 12.2533C35.9 12.3433 36.51 12.6633 36.98 12.9733C37.54 13.3533 38.29 13.7633 39.03 13.8733C39.71 13.9733 40.36 13.8233 40.87 13.1733C41.41 12.4933 41.34 11.8733 40.99 11.3433C40.74 10.9733 40.33 10.7433 39.89 10.6733C39.81 10.6633 39.75 10.6533 39.69 10.6533C39.6 10.6533 39.51 10.6433 39.42 10.6333C39 10.5733 38.62 10.4233 38.29 10.1433C37.38 9.40333 37.95 8.12333 38.44 7.61333C38.93 7.11333 41.73 5.82333 40.12 4.25333C39.78 3.92333 39.43 3.75333 39.07 3.70333C37.7 3.50333 36.25 4.91333 35.31 5.39333C35.03 5.54333 34.77 5.58333 34.54 5.55333C33.55 5.40333 33.06 3.88333 33.8 3.10333C35.11 1.72333 36.27 0.563328 38.17 0.143328C38.89 -0.0166718 39.61 -0.0366718 40.3 0.0533282L40.28 0.0733282Z" fill="#FFCE97"/>
<path d="M37.76 2.18333C37.74 2.11333 37.71 2.05333 37.66 2.00333C37.66 1.99333 37.65 1.98333 37.64 1.97333C37.63 1.95333 37.61 1.94333 37.59 1.92333C37.56 1.89333 37.53 1.87333 37.5 1.85333C37.46 1.83333 37.41 1.81333 37.36 1.80333C37.33 1.80333 37.29 1.79333 37.26 1.79333C37.21 1.79333 37.16 1.79333 37.11 1.79333C36.99 1.80333 36.9 1.92333 36.92 2.04333C36.92 2.09333 36.94 2.13333 36.95 2.18333C36.95 2.18333 36.95 2.18333 36.95 2.19333C36.95 2.24333 36.94 2.28333 36.95 2.33333C36.96 2.40333 36.99 2.47333 37.04 2.52333C37.09 2.57333 37.14 2.62333 37.21 2.65333C37.28 2.68333 37.35 2.69333 37.43 2.68333C37.57 2.66333 37.7 2.56333 37.74 2.42333C37.76 2.34333 37.78 2.27333 37.76 2.19333V2.18333Z" fill="#E0C2FF"/>
<path d="M40.53 2.06333C40.53 2.06333 40.53 2.03333 40.52 2.01333C40.52 1.97333 40.52 1.93333 40.5 1.89333C40.44 1.77333 40.34 1.70333 40.21 1.68333C40.19 1.68333 40.17 1.68333 40.14 1.68333C40.12 1.68333 40.09 1.68333 40.07 1.68333C40.03 1.68333 39.98 1.70333 39.94 1.72333C39.88 1.75333 39.84 1.78333 39.79 1.83333C39.78 1.84333 39.77 1.85333 39.76 1.86333C39.74 1.89333 39.73 1.91333 39.71 1.94333C39.69 2.00333 39.68 2.07333 39.69 2.14333C39.69 2.21333 39.72 2.26333 39.76 2.32333C39.78 2.36333 39.82 2.40333 39.85 2.43333C39.87 2.45333 39.9 2.47333 39.93 2.48333C39.94 2.48333 39.96 2.49333 39.98 2.50333C40.01 2.50333 40.04 2.52333 40.07 2.52333C40.1 2.52333 40.14 2.52333 40.17 2.52333C40.23 2.51333 40.28 2.49333 40.34 2.45333C40.41 2.40333 40.47 2.32333 40.5 2.24333C40.52 2.17333 40.53 2.13333 40.53 2.06333Z" fill="#E0C2FF"/>
<path d="M42.62 3.88333C42.62 3.88333 42.62 3.87333 42.62 3.86333C42.62 3.84333 42.61 3.81333 42.6 3.79333C42.6 3.76333 42.6 3.74333 42.58 3.71333C42.58 3.68333 42.56 3.66333 42.54 3.64333C42.52 3.61333 42.5 3.59333 42.48 3.57333C42.46 3.55333 42.43 3.53333 42.4 3.52333C42.37 3.51333 42.34 3.50333 42.31 3.49333C42.27 3.49333 42.23 3.49333 42.19 3.49333C42.15 3.49333 42.11 3.51333 42.08 3.52333C42.04 3.54333 42.01 3.56333 41.98 3.58333C41.96 3.60333 41.94 3.62333 41.92 3.64333C41.9 3.66333 41.89 3.69333 41.87 3.72333C41.85 3.76333 41.84 3.80333 41.83 3.84333C41.83 3.85333 41.83 3.86333 41.83 3.87333C41.83 3.90333 41.83 3.93333 41.83 3.96333C41.83 3.99333 41.85 4.01333 41.86 4.04333V4.06333C41.86 4.06333 41.86 4.06333 41.86 4.07333C41.86 4.08333 41.87 4.09333 41.88 4.10333C41.92 4.17333 41.99 4.24333 42.07 4.26333C42.1 4.26333 42.13 4.28333 42.16 4.28333C42.19 4.28333 42.22 4.28333 42.25 4.28333C42.26 4.28333 42.27 4.28333 42.28 4.28333C42.29 4.28333 42.31 4.28333 42.32 4.27333C42.33 4.27333 42.35 4.27333 42.37 4.26333C42.39 4.26333 42.41 4.24333 42.43 4.23333C42.46 4.21333 42.48 4.19333 42.5 4.16333C42.5 4.16333 42.52 4.14333 42.53 4.14333C42.55 4.11333 42.58 4.08333 42.59 4.04333C42.59 4.01333 42.61 3.98333 42.61 3.95333C42.61 3.93333 42.61 3.90333 42.61 3.88333H42.62Z" fill="#E0C2FF"/>
<path d="M42.45 7.03333C42.45 7.03333 42.45 7.01333 42.45 7.00333C42.45 6.97333 42.45 6.94333 42.44 6.92333C42.44 6.91333 42.42 6.90333 42.42 6.89333C42.42 6.87333 42.4 6.84333 42.39 6.82333C42.32 6.71333 42.19 6.66333 42.06 6.67333C41.99 6.67333 41.93 6.70333 41.88 6.74333C41.82 6.78333 41.78 6.83333 41.74 6.89333C41.67 7.01333 41.69 7.18333 41.78 7.29333C41.83 7.35333 41.89 7.40333 41.96 7.43333C42.02 7.45333 42.06 7.46333 42.13 7.45333C42.17 7.45333 42.21 7.44333 42.24 7.42333C42.3 7.39333 42.33 7.37333 42.37 7.32333C42.4 7.29333 42.42 7.26333 42.43 7.22333C42.46 7.16333 42.46 7.09333 42.45 7.02333V7.03333Z" fill="#E0C2FF"/>
<path d="M43.09 11.1033C43.09 11.1033 43.09 11.0633 43.09 11.0433C43.09 11.0133 43.08 10.9933 43.07 10.9633C43.07 10.9533 43.07 10.9433 43.06 10.9333C43.03 10.8733 43 10.8433 42.96 10.7933C42.94 10.7733 42.91 10.7633 42.89 10.7433C42.89 10.7433 42.87 10.7333 42.86 10.7333C42.82 10.7233 42.78 10.7033 42.74 10.7033C42.71 10.7033 42.68 10.7033 42.65 10.7033C42.62 10.7033 42.59 10.7133 42.56 10.7233C42.53 10.7233 42.5 10.7433 42.47 10.7633C42.44 10.7833 42.42 10.7933 42.39 10.8133C42.37 10.8333 42.35 10.8533 42.33 10.8733C42.31 10.8933 42.3 10.9233 42.28 10.9533C42.26 10.9833 42.25 11.0333 42.24 11.0633C42.24 11.0933 42.24 11.1233 42.24 11.1533C42.24 11.1633 42.24 11.1733 42.24 11.1833C42.25 11.2433 42.27 11.2933 42.3 11.3433C42.3 11.3433 42.31 11.3533 42.32 11.3633C42.34 11.3833 42.36 11.4033 42.38 11.4233C42.44 11.4733 42.52 11.5033 42.59 11.5133C42.63 11.5133 42.67 11.5133 42.71 11.5133C42.75 11.5133 42.79 11.5033 42.82 11.4833C42.84 11.4833 42.85 11.4633 42.87 11.4533C42.89 11.4533 42.9 11.4333 42.92 11.4233C42.97 11.3833 43 11.3433 43.03 11.2933C43.05 11.2633 43.06 11.2233 43.07 11.1833C43.07 11.1533 43.07 11.1233 43.07 11.0933L43.09 11.1033Z" fill="#E0C2FF"/>
<path d="M42.98 13.9233C42.98 13.9233 42.96 13.9033 42.96 13.8933C42.96 13.8833 42.96 13.8633 42.96 13.8533C42.96 13.8433 42.96 13.8333 42.95 13.8233C42.94 13.7933 42.92 13.7733 42.9 13.7433C42.86 13.6933 42.82 13.6633 42.76 13.6333C42.73 13.6233 42.7 13.6133 42.67 13.6033C42.66 13.6033 42.64 13.6033 42.63 13.6033C42.6 13.6033 42.57 13.6033 42.53 13.6033C42.5 13.6033 42.47 13.6133 42.43 13.6233C42.41 13.6233 42.39 13.6433 42.37 13.6533C42.35 13.6633 42.33 13.6733 42.31 13.6933C42.26 13.7333 42.23 13.7633 42.2 13.8133C42.17 13.8633 42.15 13.9133 42.14 13.9733C42.14 14.0033 42.14 14.0433 42.14 14.0733C42.14 14.0833 42.14 14.1033 42.14 14.1133C42.16 14.1833 42.18 14.2333 42.22 14.2933C42.25 14.3333 42.28 14.3633 42.32 14.3933C42.37 14.4333 42.43 14.4633 42.5 14.4633C42.53 14.4633 42.57 14.4633 42.6 14.4633C42.63 14.4633 42.66 14.4533 42.69 14.4433C42.7 14.4433 42.71 14.4233 42.72 14.4233C42.74 14.4233 42.75 14.4233 42.77 14.4233C42.87 14.3933 42.96 14.3233 42.99 14.2233C43.03 14.1333 43.03 14.0233 42.99 13.9333L42.98 13.9233Z" fill="#E0C2FF"/>
<path d="M40.74 15.9533C40.74 15.9533 40.74 15.8833 40.74 15.8533C40.73 15.7933 40.72 15.7733 40.69 15.7133C40.67 15.6833 40.65 15.6633 40.63 15.6433C40.6 15.6133 40.56 15.5833 40.52 15.5633C40.46 15.5333 40.38 15.5233 40.31 15.5233C40.29 15.5233 40.27 15.5233 40.25 15.5333C40.23 15.5333 40.21 15.5333 40.19 15.5533C40.16 15.5633 40.13 15.5833 40.1 15.6033C40.09 15.6033 40.08 15.6133 40.07 15.6233C40.02 15.6633 39.98 15.7133 39.96 15.7733C39.94 15.8333 39.92 15.9033 39.94 15.9733C39.95 16.0433 39.97 16.0933 40.02 16.1533C40.06 16.2133 40.11 16.2433 40.17 16.2833C40.27 16.3433 40.41 16.3533 40.51 16.3033H40.53C40.59 16.2733 40.64 16.2433 40.67 16.1933C40.71 16.1333 40.73 16.0833 40.75 16.0233C40.75 16.0033 40.75 15.9933 40.75 15.9733L40.74 15.9533Z" fill="#E0C2FF"/>
<path d="M40.61 15.6333C40.62 15.6433 40.63 15.6533 40.64 15.6733C40.63 15.6633 40.62 15.6433 40.6 15.6333H40.61Z" fill="#00B74E"/>
<path d="M37.96 15.9233C37.96 15.9233 37.95 15.8533 37.94 15.8133C37.93 15.7733 37.91 15.7433 37.89 15.7133C37.89 15.7333 37.91 15.7433 37.92 15.7633C37.88 15.6633 37.79 15.5833 37.69 15.5433C37.66 15.5433 37.63 15.5233 37.6 15.5233C37.57 15.5233 37.54 15.5233 37.5 15.5233C37.45 15.5233 37.41 15.5333 37.37 15.5533C37.31 15.5733 37.26 15.6133 37.22 15.6633C37.2 15.6833 37.18 15.7133 37.17 15.7433C37.15 15.7733 37.14 15.8033 37.14 15.8433C37.12 15.9133 37.14 15.9733 37.15 16.0333C37.16 16.0833 37.19 16.1233 37.22 16.1633C37.24 16.1833 37.25 16.1933 37.26 16.2033C37.26 16.2133 37.26 16.2333 37.28 16.2433C37.32 16.2933 37.37 16.3333 37.43 16.3533C37.49 16.3733 37.56 16.3833 37.62 16.3733C37.75 16.3533 37.86 16.2633 37.92 16.1433C37.95 16.0733 37.96 16.0033 37.96 15.9333V15.9233Z" fill="#E0C2FF"/>
<path d="M42.86 5.05333C42.79 4.89333 42.57 4.89333 42.5 5.05333C42.45 5.14333 42.46 5.26333 42.45 5.37333C42.45 5.47333 42.43 5.56333 42.42 5.66333C42.41 5.76333 42.39 5.85333 42.37 5.95333C42.37 5.96333 42.37 5.97333 42.37 5.99333C42.37 5.99333 42.37 5.99333 42.37 6.00333C42.37 6.00333 42.37 6.02333 42.36 6.03333C42.34 6.06333 42.33 6.10333 42.34 6.14333C42.34 6.15333 42.35 6.16333 42.36 6.17333C42.38 6.20333 42.39 6.20333 42.38 6.19333C42.41 6.22333 42.44 6.23333 42.48 6.24333C42.54 6.24333 42.61 6.23333 42.66 6.19333C42.77 6.10333 42.79 5.96333 42.83 5.83333C42.86 5.71333 42.88 5.59333 42.89 5.47333C42.91 5.33333 42.95 5.16333 42.89 5.03333L42.86 5.05333Z" fill="white"/>
<path d="M42.12 2.80333C42.1 2.76333 42.08 2.72333 42.04 2.69333C42.02 2.68333 42.01 2.67333 41.99 2.65333C41.96 2.63333 41.92 2.60333 41.89 2.58333C41.82 2.53333 41.75 2.49333 41.68 2.44333C41.6 2.39333 41.52 2.34333 41.43 2.30333C41.39 2.28333 41.35 2.27333 41.31 2.25333C41.25 2.23333 41.19 2.23333 41.13 2.25333C41.08 2.26333 41.04 2.33333 41.05 2.38333C41.06 2.44333 41.09 2.49333 41.14 2.53333C41.17 2.56333 41.2 2.59333 41.24 2.61333C41.31 2.66333 41.37 2.71333 41.44 2.75333C41.51 2.80333 41.57 2.84333 41.64 2.89333C41.72 2.95333 41.81 3.04333 41.92 3.06333C42.04 3.08333 42.15 2.98333 42.15 2.87333C42.15 2.84333 42.15 2.82333 42.13 2.79333L42.12 2.80333Z" fill="white"/>
<path d="M39.03 1.68333C38.9 1.68333 38.77 1.66333 38.64 1.68333C38.57 1.68333 38.51 1.70333 38.44 1.72333C38.38 1.74333 38.31 1.76333 38.26 1.80333C38.22 1.83333 38.2 1.87333 38.21 1.93333C38.21 1.97333 38.25 2.02333 38.29 2.04333C38.31 2.04333 38.32 2.05333 38.34 2.06333C38.37 2.06333 38.4 2.06333 38.43 2.06333C38.44 2.06333 38.46 2.06333 38.47 2.06333C38.51 2.06333 38.55 2.06333 38.59 2.06333C38.61 2.06333 38.62 2.06333 38.64 2.06333C38.64 2.06333 38.66 2.06333 38.67 2.06333C38.7 2.06333 38.73 2.06333 38.76 2.06333C38.78 2.06333 38.79 2.06333 38.81 2.06333C38.87 2.06333 38.92 2.06333 38.98 2.07333C39.08 2.07333 39.19 2.01333 39.2 1.91333C39.21 1.81333 39.15 1.70333 39.04 1.69333L39.03 1.68333Z" fill="white"/>
<path d="M36.65 2.52333C36.6 2.46333 36.51 2.43333 36.44 2.46333C36.39 2.48333 36.35 2.52333 36.31 2.55333C36.27 2.58333 36.23 2.62333 36.19 2.66333C36.18 2.67333 36.16 2.69333 36.15 2.70333C36.14 2.72333 36.13 2.73333 36.12 2.75333C36.1 2.78333 36.07 2.82333 36.07 2.86333C36.07 2.92333 36.08 2.99333 36.14 3.01333C36.15 3.01333 36.17 3.01333 36.19 3.02333C36.22 3.02333 36.24 3.02333 36.27 3.02333C36.29 3.02333 36.3 3.00333 36.31 3.00333C36.33 2.99333 36.35 2.98333 36.37 2.96333C36.36 2.96333 36.35 2.97333 36.33 2.98333C36.35 2.97333 36.38 2.96333 36.4 2.94333C36.41 2.94333 36.42 2.92333 36.43 2.92333C36.45 2.90333 36.47 2.89333 36.5 2.87333C36.52 2.85333 36.54 2.84333 36.57 2.82333C36.58 2.82333 36.59 2.81333 36.6 2.80333C36.62 2.78333 36.64 2.76333 36.66 2.74333L36.68 2.70333C36.68 2.70333 36.7 2.65333 36.69 2.63333C36.69 2.59333 36.69 2.55333 36.66 2.52333H36.65Z" fill="white"/>
<path d="M41.03 8.01333C41.03 8.01333 41.05 7.99333 41.06 7.98333L41.03 8.01333Z" fill="white"/>
<path d="M41.69 7.79333C41.69 7.79333 41.67 7.72333 41.64 7.69333C41.58 7.62333 41.48 7.62333 41.4 7.67333C41.37 7.69333 41.35 7.72333 41.32 7.75333C41.32 7.75333 41.3 7.77333 41.29 7.78333C41.25 7.82333 41.21 7.85333 41.17 7.88333C41.13 7.92333 41.09 7.95333 41.05 7.99333C41.03 8.01333 41.01 8.03333 40.99 8.06333C40.98 8.08333 40.97 8.09333 40.96 8.11333C40.96 8.13333 40.95 8.14333 40.94 8.16333C40.94 8.19333 40.94 8.23333 40.96 8.25333C40.98 8.27333 41.01 8.29333 41.04 8.30333C41.08 8.30333 41.12 8.30333 41.16 8.28333C41.18 8.28333 41.2 8.26333 41.23 8.25333C41.29 8.22333 41.34 8.19333 41.39 8.15333C41.43 8.12333 41.47 8.09333 41.5 8.05333C41.52 8.03333 41.54 8.02333 41.55 8.00333C41.55 8.00333 41.57 7.98333 41.58 7.97333C41.6 7.95333 41.62 7.94333 41.64 7.91333C41.67 7.87333 41.69 7.83333 41.68 7.77333L41.69 7.79333Z" fill="white"/>
<path d="M42.05 9.96333C41.92 9.81333 41.75 9.70333 41.59 9.60333C41.51 9.55333 41.42 9.50333 41.32 9.47333C41.25 9.45333 41.18 9.43333 41.12 9.47333C41.05 9.52333 41.04 9.61333 41.1 9.67333C41.06 9.63333 41.1 9.67333 41.12 9.69333C41.13 9.70333 41.15 9.71333 41.16 9.72333C41.19 9.75333 41.22 9.77333 41.25 9.79333C41.31 9.84333 41.37 9.88333 41.43 9.93333C41.49 9.98333 41.55 10.0333 41.6 10.0833C41.66 10.1333 41.71 10.1933 41.77 10.2433C41.85 10.3033 41.96 10.2933 42.03 10.2333C42.1 10.1733 42.12 10.0433 42.05 9.97333V9.96333Z" fill="white"/>
<path d="M43.18 12.5533C43.18 12.4833 43.18 12.4033 43.18 12.3333C43.17 12.1933 43.13 12.0633 43.08 11.9333C43.06 11.8733 42.99 11.8433 42.93 11.8533C42.86 11.8733 42.83 11.9233 42.83 11.9933C42.83 11.9933 42.83 12.0533 42.83 12.0233C42.83 12.0333 42.83 12.0533 42.83 12.0633C42.83 12.0933 42.83 12.1233 42.83 12.1533C42.83 12.1733 42.83 12.2033 42.83 12.2233C42.83 12.2233 42.83 12.2233 42.83 12.2333C42.83 12.2633 42.83 12.2933 42.83 12.3233C42.83 12.3833 42.83 12.4433 42.82 12.5033C42.82 12.5333 42.82 12.5633 42.81 12.5933C42.81 12.6033 42.81 12.6233 42.81 12.6333C42.81 12.6833 42.81 12.7133 42.82 12.7533C42.86 12.8833 43.06 12.9033 43.14 12.8033C43.2 12.7333 43.2 12.6333 43.2 12.5433L43.18 12.5533Z" fill="white"/>
<path d="M42.22 14.8133C42.22 14.8133 42.19 14.7933 42.18 14.7933C42.11 14.7733 42.03 14.7833 41.98 14.8433C41.98 14.8433 41.97 14.8633 41.96 14.8633C41.96 14.8633 41.95 14.8833 41.94 14.8833C41.92 14.9033 41.92 14.9133 41.94 14.8833C41.94 14.8833 41.91 14.9233 41.91 14.9333C41.89 14.9633 41.87 14.9933 41.84 15.0233C41.79 15.0833 41.74 15.1533 41.68 15.2033C41.65 15.2333 41.63 15.2533 41.6 15.2833C41.6 15.2833 41.59 15.2933 41.58 15.3033C41.56 15.3133 41.55 15.3333 41.53 15.3433C41.5 15.3733 41.47 15.3933 41.44 15.4133C41.42 15.4333 41.4 15.4533 41.38 15.4733C41.38 15.4733 41.37 15.4833 41.36 15.4933C41.38 15.4733 41.35 15.5033 41.35 15.5033C41.31 15.5433 41.28 15.6033 41.32 15.6633C41.35 15.7133 41.41 15.7333 41.47 15.7133C41.51 15.7033 41.55 15.6933 41.59 15.6733C41.64 15.6533 41.68 15.6233 41.72 15.5933C41.8 15.5433 41.87 15.4833 41.94 15.4233C42 15.3633 42.06 15.3033 42.11 15.2433C42.17 15.1733 42.23 15.0933 42.27 15.0033C42.3 14.9333 42.27 14.8533 42.22 14.8033V14.8133Z" fill="white"/>
<path d="M39.49 16.0633C39.49 16.0633 39.41 15.9933 39.37 15.9933C39.31 15.9933 39.25 16.0133 39.21 16.0533C39.2 16.0533 39.19 16.0533 39.17 16.0633C39.14 16.0733 39.11 16.0833 39.08 16.0933C39.06 16.0933 39.04 16.1033 39.03 16.1133C39 16.1133 38.96 16.1233 38.93 16.1333C38.9 16.1333 38.87 16.1433 38.84 16.1433C38.82 16.1433 38.81 16.1433 38.79 16.1433C38.76 16.1433 38.74 16.1433 38.71 16.1433H38.68C38.66 16.1433 38.64 16.1433 38.63 16.1433C38.61 16.1433 38.6 16.1433 38.58 16.1533C38.57 16.1533 38.57 16.1533 38.58 16.1533C38.54 16.1533 38.52 16.1733 38.5 16.2133C38.48 16.2433 38.47 16.2833 38.5 16.3133C38.51 16.3333 38.52 16.3533 38.54 16.3733C38.56 16.4033 38.59 16.4233 38.63 16.4433C38.67 16.4733 38.72 16.4833 38.77 16.4933C38.86 16.5033 38.96 16.5033 39.05 16.4933C39.14 16.4733 39.23 16.4533 39.32 16.4233C39.43 16.3933 39.58 16.3433 39.59 16.2033C39.59 16.1533 39.59 16.1033 39.56 16.0633H39.49Z" fill="white"/>
<path d="M36.81 15.5133C36.81 15.5133 36.76 15.4633 36.73 15.4533C36.73 15.4533 36.75 15.4533 36.75 15.4633C36.73 15.4433 36.71 15.4133 36.68 15.4033C36.64 15.3733 36.6 15.3633 36.56 15.3433C36.5 15.3233 36.44 15.3033 36.39 15.2733C36.37 15.2633 36.36 15.2533 36.34 15.2433C36.35 15.2433 36.36 15.2533 36.37 15.2633C36.36 15.2633 36.35 15.2433 36.34 15.2333C36.32 15.2133 36.28 15.2033 36.25 15.2033C36.22 15.2033 36.19 15.2033 36.16 15.2333C36.14 15.2533 36.12 15.2733 36.11 15.2933C36.09 15.3333 36.1 15.3733 36.11 15.4033C36.16 15.5733 36.35 15.6033 36.48 15.6733C36.49 15.6733 36.51 15.6933 36.52 15.7033C36.54 15.7233 36.56 15.7433 36.59 15.7533C36.66 15.7833 36.76 15.7733 36.8 15.7033C36.82 15.6733 36.83 15.6433 36.83 15.6033C36.83 15.5633 36.83 15.5333 36.8 15.5033L36.81 15.5133Z" fill="white"/>
<path d="M36.76 15.4733C36.77 15.4833 36.78 15.4933 36.79 15.5033L36.76 15.4733Z" fill="white"/>
<path d="M39.98 17.4233C39.55 17.4433 39.14 17.5533 38.71 17.5633C38.33 17.5633 37.95 17.4833 37.58 17.3733C37.25 17.2733 36.92 17.1333 36.61 16.9633C36.45 16.8733 36.29 16.7633 36.14 16.6533C36.02 16.5533 35.91 16.4233 35.75 16.4133C35.7 16.4133 35.65 16.4333 35.64 16.4933C35.6 16.8133 36.06 17.1433 36.29 17.3033C36.63 17.5433 37.01 17.7233 37.41 17.8533C38.27 18.1433 39.23 18.1933 40.11 17.9233C40.41 17.8333 40.26 17.4133 39.98 17.4233Z" fill="white"/>
<path d="M42.21 16.9733C42.19 16.8933 42.12 16.8133 42.03 16.8133C41.95 16.8133 41.89 16.8133 41.81 16.8433C41.76 16.8633 41.72 16.8733 41.67 16.8933C41.58 16.9233 41.49 16.9633 41.39 16.9933C41.2 17.0633 41 17.1433 40.85 17.2633C40.8 17.3033 40.77 17.3833 40.8 17.4533C40.83 17.5233 40.9 17.5533 40.97 17.5533C41.15 17.5533 41.37 17.4933 41.56 17.4333C41.65 17.4033 41.74 17.3733 41.83 17.3433C41.93 17.3133 42.05 17.2833 42.13 17.2133C42.2 17.1533 42.23 17.0733 42.21 16.9833V16.9733Z" fill="white"/>
<path d="M44.94 12.0633C44.92 11.8133 44.86 11.5533 44.77 11.3233C44.7 11.1433 44.57 10.8333 44.35 10.8133C44.24 10.7333 44.07 10.8333 44.13 10.9733C44.11 11.1533 44.27 11.3333 44.33 11.4833C44.42 11.7033 44.46 11.9333 44.48 12.1733C44.52 12.6633 44.43 13.1633 44.3 13.6233C44.16 14.1133 43.95 14.5833 43.68 15.0133C43.42 15.4533 43.04 15.8033 42.78 16.2433C42.73 16.3333 42.84 16.4433 42.93 16.4033C43.42 16.1833 43.8 15.6633 44.08 15.2133C44.39 14.7333 44.61 14.1933 44.76 13.6433C44.9 13.1233 44.98 12.5733 44.93 12.0333L44.94 12.0633Z" fill="white"/>
<path d="M44.05 10.2633C44.01 10.2033 43.98 10.1433 43.94 10.0833C43.9 10.0233 43.86 9.96333 43.82 9.91333C43.72 9.79333 43.62 9.67333 43.51 9.56333C43.31 9.36333 43.1 9.16333 42.88 8.97333C42.78 8.89333 42.61 8.90333 42.54 9.01333C42.46 9.12333 42.47 9.26333 42.58 9.35333C42.8 9.53333 43.01 9.72333 43.22 9.91333C43.32 10.0133 43.43 10.1033 43.53 10.1933C43.58 10.2433 43.64 10.2833 43.69 10.3233C43.75 10.3633 43.81 10.3933 43.86 10.4433C43.97 10.5433 44.13 10.3833 44.05 10.2633Z" fill="white"/>
<path d="M43.6 7.47333C43.6 7.47333 43.51 7.43333 43.46 7.44333C43.4 7.45333 43.36 7.48333 43.31 7.52333C43.26 7.57333 43.22 7.64333 43.18 7.71333C43.14 7.77333 43.11 7.83333 43.07 7.89333C43.03 7.96333 42.99 8.04333 42.96 8.11333C42.92 8.21333 42.9 8.40333 43.05 8.42333C43.15 8.43333 43.24 8.36333 43.31 8.29333C43.36 8.24333 43.4 8.19333 43.44 8.13333C43.48 8.07333 43.52 8.02333 43.56 7.96333C43.61 7.89333 43.66 7.82333 43.69 7.74333C43.73 7.64333 43.69 7.52333 43.6 7.46333V7.47333Z" fill="white"/>
<path d="M44.4 5.52333C44.47 5.04333 44.44 4.55333 44.33 4.09333C44.23 3.68333 44.07 3.28333 43.84 2.92333C43.72 2.73333 43.59 2.55333 43.44 2.38333C43.3 2.22333 43.17 2.03333 42.94 2.04333C42.83 2.04333 42.77 2.16333 42.77 2.26333C42.77 2.45333 42.96 2.56333 43.08 2.69333C43.21 2.83333 43.32 2.99333 43.43 3.15333C43.64 3.47333 43.79 3.84333 43.88 4.21333C43.98 4.62333 44 5.04333 43.95 5.45333C43.93 5.67333 43.88 5.89333 43.82 6.10333C43.76 6.30333 43.68 6.49333 43.69 6.70333C43.69 6.80333 43.83 6.85333 43.9 6.79333C44.25 6.53333 44.35 5.92333 44.4 5.52333Z" fill="white"/>
<path d="M42.38 1.47333C42.35 1.41333 42.32 1.36333 42.25 1.33333C42.23 1.33333 42.22 1.32333 42.2 1.31333C42.17 1.29333 42.13 1.28333 42.1 1.26333C42.03 1.23333 41.97 1.20333 41.91 1.16333C41.85 1.12333 41.78 1.09333 41.72 1.05333C41.7 1.05333 41.69 1.03333 41.67 1.02333C41.67 1.02333 41.67 1.02333 41.66 1.02333C41.66 1.02333 41.65 1.02333 41.63 1.00333C41.59 0.983328 41.53 0.973328 41.48 0.983328C41.47 0.983328 41.46 0.983328 41.44 0.983328C41.44 0.983328 41.44 0.983328 41.43 0.983328C41.38 1.00333 41.34 1.05333 41.33 1.11333C41.31 1.17333 41.35 1.25333 41.38 1.30333C41.41 1.34333 41.45 1.37333 41.49 1.41333C41.55 1.46333 41.61 1.50333 41.67 1.54333C41.74 1.59333 41.82 1.63333 41.9 1.68333C41.93 1.70333 41.97 1.72333 42 1.73333C42.02 1.73333 42.03 1.75333 42.05 1.75333C42.12 1.78333 42.18 1.78333 42.25 1.75333C42.36 1.71333 42.42 1.56333 42.38 1.46333V1.47333Z" fill="white"/>
<path d="M40.88 0.853328C40.66 0.683328 40.36 0.603328 40.1 0.513328C39.84 0.423328 39.57 0.333328 39.29 0.293328C38.76 0.203328 38.22 0.373328 37.71 0.503328C36.84 0.733328 35.7 1.18333 35.46 2.16333C35.44 2.26333 35.56 2.29333 35.62 2.23333C35.91 1.94333 36.23 1.65333 36.58 1.44333C36.98 1.20333 37.44 1.05333 37.89 0.933328C38.34 0.813328 38.83 0.673328 39.29 0.773328C39.52 0.823328 39.75 0.903328 39.98 0.973328C40.22 1.05333 40.46 1.17333 40.71 1.24333C40.93 1.30333 41.05 0.973328 40.88 0.843328V0.853328Z" fill="white"/>
<path d="M38.39 3.29333C38.38 3.18333 38.29 3.12333 38.2 3.09333C38.1 3.06333 37.98 3.09333 37.89 3.10333C37.79 3.12333 37.69 3.14333 37.59 3.17333C37.39 3.23333 37.21 3.32333 37.04 3.42333C36.87 3.52333 36.71 3.63333 36.56 3.75333C36.48 3.81333 36.4 3.88333 36.34 3.96333C36.31 4.00333 36.28 4.04333 36.27 4.09333C36.27 4.11333 36.27 4.13333 36.27 4.15333C36.27 4.13333 36.24 4.19333 36.24 4.19333C36.23 4.22333 36.25 4.26333 36.28 4.25333L36.33 4.24333C36.33 4.24333 36.36 4.24333 36.37 4.24333C36.41 4.24333 36.46 4.24333 36.5 4.22333C36.59 4.19333 36.68 4.14333 36.76 4.09333C36.92 4.00333 37.07 3.90333 37.23 3.82333C37.39 3.74333 37.56 3.67333 37.73 3.62333C37.8 3.60333 37.87 3.58333 37.96 3.57333C38.06 3.55333 38.17 3.56333 38.27 3.53333C38.37 3.50333 38.42 3.38333 38.41 3.29333H38.39Z" fill="white"/>
<path d="M41.49 5.25333C41.45 4.71333 41.13 4.22333 40.73 3.88333C40.49 3.67333 40.22 3.51333 39.94 3.36333C39.68 3.23333 39.27 3.01333 38.98 3.14333C38.9 3.18333 38.89 3.27333 38.95 3.32333C39.04 3.41333 39.18 3.46333 39.3 3.51333C39.45 3.57333 39.59 3.64333 39.73 3.71333C39.97 3.84333 40.21 3.99333 40.42 4.17333C40.8 4.49333 41.12 4.98333 41.04 5.50333C41.02 5.63333 40.91 5.74333 40.93 5.87333C40.95 6.02333 41.11 6.09333 41.24 6.02333C41.49 5.89333 41.51 5.47333 41.49 5.23333V5.25333Z" fill="white"/>
<path d="M40.98 6.63333C40.95 6.57333 40.9 6.52333 40.84 6.50333C40.79 6.48333 40.73 6.49333 40.68 6.51333C40.61 6.54333 40.56 6.61333 40.53 6.68333C40.51 6.72333 40.49 6.76333 40.47 6.80333C40.47 6.80333 40.46 6.82333 40.45 6.83333C40.44 6.85333 40.43 6.86333 40.42 6.88333C40.37 6.95333 40.32 7.02333 40.26 7.09333C40.23 7.12333 40.21 7.16333 40.18 7.19333C40.18 7.20333 40.14 7.26333 40.15 7.23333C40.16 7.21333 40.15 7.23333 40.15 7.24333C40.13 7.27333 40.12 7.29333 40.1 7.32333C40.07 7.41333 40.13 7.50333 40.23 7.50333C40.32 7.50333 40.41 7.44333 40.48 7.39333C40.55 7.34333 40.61 7.27333 40.67 7.20333C40.72 7.14333 40.76 7.08333 40.8 7.02333C40.83 6.97333 40.86 6.93333 40.88 6.88333C40.9 6.88333 40.91 6.86333 40.93 6.85333C40.99 6.80333 41.02 6.70333 40.98 6.63333Z" fill="white"/>
<path d="M41.96 11.4433C41.94 11.3433 41.91 11.2433 41.87 11.1433C41.8 10.9633 41.7 10.7933 41.58 10.6433C41.46 10.4933 41.32 10.3533 41.16 10.2433C41.08 10.1833 40.99 10.1333 40.89 10.0933C40.79 10.0633 40.67 10.0233 40.57 10.0533C40.49 10.0833 40.47 10.1833 40.51 10.2533C40.55 10.3233 40.65 10.3733 40.72 10.4133C40.79 10.4633 40.86 10.5033 40.92 10.5533C40.99 10.6033 41.05 10.6533 41.11 10.7133C41.11 10.7133 41.12 10.7233 41.13 10.7333C41.14 10.7433 41.16 10.7633 41.17 10.7733C41.2 10.8033 41.22 10.8433 41.25 10.8733C41.27 10.9033 41.3 10.9333 41.32 10.9733C41.33 10.9933 41.34 11.0033 41.35 11.0233C41.35 11.0333 41.36 11.0433 41.37 11.0533C41.37 11.0333 41.37 11.0333 41.37 11.0533C41.41 11.1233 41.44 11.2033 41.47 11.2833C41.49 11.3233 41.5 11.3633 41.51 11.4033C41.51 11.4033 41.52 11.4433 41.52 11.4533C41.52 11.4633 41.52 11.4833 41.52 11.4933C41.54 11.6033 41.54 11.7033 41.6 11.8033C41.68 11.9333 41.89 11.8933 41.94 11.7633C41.99 11.6533 41.96 11.5333 41.94 11.4233L41.96 11.4433Z" fill="white"/>
<path d="M41.96 12.7533C41.96 12.6733 41.87 12.5833 41.79 12.5733C41.69 12.5733 41.62 12.6133 41.57 12.6933C41.55 12.7333 41.54 12.7733 41.53 12.8133C41.53 12.8233 41.53 12.8433 41.52 12.8533C41.52 12.8533 41.52 12.8533 41.52 12.8733C41.5 12.9333 41.48 12.9933 41.46 13.0533C41.42 13.1733 41.37 13.2833 41.32 13.3933C41.27 13.4933 41.23 13.5733 41.18 13.6433C41.15 13.6833 41.15 13.6933 41.16 13.6733C41.16 13.6733 41.15 13.6933 41.14 13.7033C41.13 13.7233 41.11 13.7333 41.1 13.7533C41.08 13.7733 41.03 13.8033 41.01 13.8433C40.99 13.8833 41.01 13.9333 41.04 13.9633C41.14 14.0533 41.3 13.9733 41.4 13.9133C41.51 13.8433 41.59 13.7133 41.65 13.5933C41.72 13.4733 41.78 13.3433 41.83 13.2233C41.89 13.0833 41.97 12.9133 41.96 12.7533Z" fill="white"/>
<path d="M40.43 14.0833C40.16 14.0633 39.88 14.2233 39.62 14.2833C39.38 14.3433 39.14 14.3633 38.9 14.3433C38.66 14.3233 38.43 14.2733 38.2 14.1733C38.08 14.1233 37.97 14.0733 37.86 14.0033C37.75 13.9333 37.65 13.8433 37.53 13.7833C37.46 13.7433 37.37 13.7633 37.31 13.8033C37.28 13.8233 37.26 13.8533 37.24 13.8933C37.21 13.9633 37.22 14.0533 37.26 14.1133C37.43 14.3333 37.73 14.4833 37.98 14.5833C38.25 14.6933 38.53 14.7633 38.82 14.7933C39.1 14.8133 39.39 14.7933 39.66 14.7233C39.94 14.6533 40.32 14.5433 40.51 14.3233C40.58 14.2433 40.53 14.0833 40.41 14.0833H40.43Z" fill="white"/>
<path d="M36.03 4.56333C36.03 4.56333 36.07 4.50333 36.07 4.46333C36.08 4.32333 35.98 4.16333 35.91 4.04333C35.85 3.92333 35.78 3.80333 35.71 3.68333C35.58 3.44333 35.45 3.19333 35.33 2.94333C35.3 2.88333 35.28 2.82333 35.25 2.76333C35.19 2.66333 35.08 2.59333 34.96 2.61333C34.9 2.62333 34.85 2.65333 34.81 2.70333C34.74 2.68333 34.66 2.68333 34.6 2.72333C34.07 3.04333 33.64 3.58333 33.77 4.23333C33.81 4.45333 33.94 4.67333 34.12 4.81333C34.31 5.06333 34.61 5.23333 34.93 5.20333C35.14 5.18333 35.33 5.09333 35.46 4.94333C35.7 4.89333 35.92 4.79333 36.03 4.56333Z" fill="white"/>
<path d="M36.7 13.3933C36.7 13.3933 36.68 13.3833 36.67 13.3733C36.62 13.3133 36.56 13.2533 36.5 13.2033C36.48 13.1833 36.46 13.1733 36.45 13.1533C36.38 13.0733 36.29 13.0033 36.21 12.9533C36.18 12.9333 36.14 12.9233 36.11 12.9033C36.03 12.8533 35.94 12.8133 35.85 12.7733C35.79 12.7533 35.73 12.7333 35.67 12.7133C35.67 12.7133 35.65 12.7133 35.64 12.7133C35.49 12.6333 35.34 12.5833 35.17 12.5633C34.9 12.5333 34.61 12.6133 34.42 12.8133C34.32 12.9133 34.25 13.0433 34.22 13.1733C33.88 13.6833 34.14 14.5233 34.36 15.0333C34.51 15.3833 34.78 15.8733 35.21 15.9133C35.27 15.9133 35.3 15.8733 35.32 15.8333C35.42 15.7633 35.45 15.6733 35.5 15.5633C35.54 15.4633 35.59 15.3733 35.64 15.2733C35.73 15.0833 35.84 14.8933 35.96 14.7133C36.07 14.5533 36.19 14.4033 36.34 14.2533C36.42 14.1733 36.49 14.1033 36.58 14.0333C36.67 13.9633 36.75 13.9133 36.85 13.8233C37 13.6733 36.9 13.4333 36.72 13.3833L36.7 13.3933Z" fill="white"/>
<path d="M40.53 9.23333C40.42 9.78333 39.87 10.1433 39.32 10.0333C38.77 9.92333 38.41 9.37333 38.52 8.82333C38.63 8.27333 39.18 7.91333 39.73 8.02333C40.28 8.13333 40.64 8.68333 40.53 9.23333Z" fill="#29559E"/>
<path d="M40.38 8.69333C40.38 8.69333 40.38 8.72333 40.38 8.74333C40.45 9.28333 40.08 9.78333 39.53 9.87333C38.97 9.96333 38.45 9.59333 38.35 9.03333C38.32 8.85333 38.34 8.67333 38.4 8.51333C38.52 8.18333 38.81 7.92333 39.19 7.85333C39.75 7.76333 40.28 8.13333 40.37 8.69333H40.38Z" fill="#FFF280"/>
<path d="M38.37 9.08333C38.49 9.61333 39 9.96333 39.54 9.87333C40.1 9.78333 40.47 9.25333 40.38 8.69333C40.35 8.54333 40.29 8.34333 40.17 8.23333C40.25 8.39333 40.33 9.00333 39.73 9.38333C39.11 9.77333 38.48 9.53333 38.37 9.08333Z" fill="#E8D864"/>
<path d="M39.24 8.51333C39.24 8.51333 39.24 8.51333 39.24 8.52333C39.26 8.67333 39.15 8.81333 39 8.84333C38.84 8.87333 38.69 8.76333 38.67 8.60333C38.67 8.55333 38.67 8.50333 38.68 8.45333C38.71 8.36333 38.8 8.28333 38.9 8.26333C39.06 8.23333 39.21 8.34333 39.23 8.50333L39.24 8.51333Z" fill="white"/>
</svg>
