<svg width="80" height="67" viewBox="0 0 80 67" fill="none" xmlns="http://www.w3.org/2000/svg">
<path d="M1.17 26.1215V54.6715C1.17 57.5915 3.07 60.1815 5.87 61.0415C16.81 64.4115 45.28 71.1415 74.2 61.1115C76.87 60.1815 78.65 57.6515 78.65 54.8215V26.1215C78.65 26.1215 39.03 33.9415 1.17 26.1215Z" fill="#FFEDDC"/>
<path d="M74.2 42.1915C45.28 52.2115 16.81 45.4915 5.87 42.1215C3.08 41.2615 1.17 38.6815 1.17 35.7515V44.8215C1.17 47.7415 3.07 50.3315 5.87 51.1915C16.81 54.5615 45.28 61.2915 74.2 51.2615C76.87 50.3315 78.65 47.8015 78.65 44.9715V35.9015C78.65 38.7315 76.87 41.2615 74.2 42.1915Z" fill="#E54C5C"/>
<path d="M79.44 22.3215C79.44 19.6815 61.66 17.5415 39.72 17.5415C17.78 17.5415 0 19.6815 0 22.3215V22.5115L0.04 35.7215C0.04 36.2115 0.2 37.2015 1.13 37.1915C1.89 37.1915 2.1 36.2515 2.1 35.7615L1.97 28.3215C1.97 28.3215 2.27 25.8215 4.38 27.5815C6.49 29.3515 7.14 38.9215 6.97 41.7815C6.8 44.6415 8.99 46.4915 11.01 44.8115C13.03 43.1315 11.18 31.6915 14.21 31.1815C17.24 30.6715 18.92 34.2115 24.64 34.5415C30.36 34.8815 33.73 31.1815 37.43 31.8515C41.13 32.5215 41.8 39.2515 42.81 41.1015C43.82 42.9515 47.86 43.9615 49.37 40.0915C50.88 36.2215 52.9 32.0115 56.27 31.5115C59.63 31.0115 66.74 36.7315 71.96 36.0515C77.18 35.3815 77.68 34.5015 78.82 32.4015C80.01 30.2015 79.44 22.3215 79.44 22.3215Z" fill="#FEFEC0"/>
<path d="M39.72 26.7515L44.78 26.5915C46.47 26.5415 48.16 26.4815 49.84 26.4115C53.21 26.2715 56.58 26.1115 59.95 25.8615C63.32 25.6515 66.68 25.3415 70.02 24.9315C71.69 24.7215 73.36 24.4815 75.01 24.1415C75.83 23.9715 76.66 23.7815 77.45 23.5215C77.85 23.3915 78.24 23.2415 78.61 23.0415C78.79 22.9415 78.97 22.8315 79.13 22.6915C79.28 22.5515 79.41 22.3715 79.42 22.1615C79.42 22.3715 79.3 22.5715 79.15 22.7215C79 22.8715 78.83 23.0015 78.64 23.1115C78.27 23.3315 77.88 23.5015 77.49 23.6515C76.7 23.9515 75.88 24.1815 75.06 24.3915C73.41 24.7815 71.74 25.0715 70.07 25.3315C66.72 25.8315 63.35 26.1315 59.98 26.3815C56.6 26.5915 53.23 26.7515 49.85 26.8115C48.16 26.8415 46.47 26.8515 44.78 26.8515C43.09 26.8315 41.4 26.8215 39.71 26.7615L39.72 26.7515Z" fill="#EFD9A5"/>
<path d="M0 22.1515C0.02 22.4215 0.22 22.6315 0.43 22.7815C0.64 22.9415 0.88 23.0615 1.12 23.1715C1.6 23.3815 2.11 23.5415 2.62 23.6715C3.64 23.9615 4.69 24.1615 5.73 24.3415C7.83 24.6915 9.94 24.9715 12.06 25.2015C14.18 25.4515 16.3 25.6415 18.42 25.8415L24.8 26.4215C23.73 26.4215 22.66 26.4015 21.6 26.3715C20.53 26.3315 19.47 26.2815 18.4 26.2315C16.27 26.1215 14.14 25.9415 12.01 25.7015C9.89 25.4515 7.76 25.1615 5.67 24.7115C4.62 24.4815 3.58 24.2415 2.56 23.9015C2.05 23.7315 1.55 23.5315 1.07 23.2815C0.83 23.1515 0.6 23.0115 0.39 22.8315C0.19 22.6615 0 22.4215 0.01 22.1415L0 22.1515Z" fill="#EFD9A5"/>
<path d="M31.83 19.0315C31.83 19.0315 31.82 19.0515 31.81 19.0515C31.81 19.0515 31.81 19.0415 31.82 19.0315H31.83Z" fill="#D46A50"/>
<path d="M36.48 9.29148C36.48 9.52148 36.48 10.8815 36.42 11.9915C36.41 12.2315 36.54 12.4215 36.73 12.5115L37.84 13.0215C37.65 12.9315 37.52 12.7415 37.53 12.5015C37.6 11.4015 37.58 10.0315 37.59 9.80148C37.64 8.30148 37.68 6.99148 36.67 5.86148C36.54 5.71148 36.38 5.60148 36.22 5.52148L35.11 5.01148C35.27 5.08148 35.42 5.20148 35.56 5.35148C36.56 6.48148 36.53 7.79148 36.48 9.29148Z" fill="#B87C66"/>
<path d="M39.07 17.6115H39C38.41 17.6815 37.82 17.7515 37.23 17.8015C36.65 17.8615 36.05 17.9215 35.47 17.9215C34.7 17.9215 33.97 17.8315 33.32 17.5315L34.43 18.0415C35.08 18.3415 35.81 18.4315 36.58 18.4315C37.17 18.4315 37.76 18.3715 38.34 18.3115C38.93 18.2515 39.52 18.1815 40.11 18.1215H40.18C40.25 18.1215 40.33 18.1315 40.39 18.1615L39.28 17.6515C39.22 17.6215 39.15 17.6015 39.07 17.6015V17.6115Z" fill="#B87C66"/>
<path d="M46.83 12.3415L46.19 12.0415C46.11 11.9515 46.05 11.8315 46.06 11.6915C46.14 9.18148 46.51 6.15148 44.99 4.20148C44.89 4.06148 44.75 3.96148 44.59 3.89148L43.48 3.38148C43.64 3.45148 43.77 3.56148 43.88 3.69148C45.39 5.64148 45.03 8.68148 44.95 11.1815C44.95 11.4015 45.07 11.5715 45.26 11.6615L46.11 12.0515C46.81 12.5515 47.28 13.4515 47.24 14.2915C47.19 15.5915 46.34 16.4715 45.24 16.8215C45.01 16.8915 44.85 17.1015 44.84 17.3515C44.8 18.6215 44.76 19.8915 44.7 21.1615C44.62 22.9015 43.26 23.7815 41.95 23.7815C41.54 23.7815 41.13 23.7015 40.77 23.5315L41.88 24.0415C42.24 24.2115 42.65 24.2915 43.06 24.2915C44.37 24.2915 45.73 23.4115 45.81 21.6715C45.87 20.4015 45.91 19.1315 45.95 17.8615C45.95 17.6215 46.12 17.4015 46.35 17.3315C47.45 16.9815 48.3 16.1015 48.35 14.8015C48.39 13.8215 47.74 12.7515 46.84 12.3315L46.83 12.3415Z" fill="#B87C66"/>
<path d="M42.86 3.26148C43.27 3.26148 43.65 3.40148 43.88 3.70148C45.39 5.65148 45.03 8.69148 44.95 11.1915C44.95 11.4515 45.12 11.6515 45.37 11.7115C46.46 11.9715 47.29 13.1915 47.24 14.3115C47.19 15.6115 46.34 16.4915 45.24 16.8415C45.01 16.9115 44.85 17.1215 44.84 17.3715C44.8 18.6415 44.76 19.9115 44.7 21.1815C44.62 22.9215 43.26 23.8015 41.95 23.8015C40.62 23.8015 39.35 22.9415 39.43 21.2115C39.48 20.2015 39.53 19.1915 39.59 18.1815C39.61 17.8715 39.37 17.6115 39.08 17.6115H39.01C38.42 17.6815 37.83 17.7515 37.24 17.8015C36.66 17.8615 36.06 17.9215 35.48 17.9215C34.12 17.9215 32.88 17.6315 32.02 16.4415C30.95 14.9515 31.22 13.1615 31.44 11.4115C31.68 9.49148 31.67 6.66148 33.31 5.36148C33.67 5.08148 34.11 4.89148 34.54 4.89148C34.93 4.89148 35.28 5.03148 35.57 5.35148C36.57 6.48148 36.54 7.79148 36.49 9.29148C36.49 9.52148 36.49 10.8815 36.43 11.9915C36.41 12.3115 36.65 12.5615 36.95 12.5615H37.02C37.47 12.5015 38.23 12.5615 38.85 12.4315C39.43 12.3015 39.89 12.1815 39.91 11.7215C40.07 9.15148 39.96 5.77148 41.78 3.71148C42.04 3.42148 42.46 3.26148 42.87 3.26148H42.86Z" fill="#FFCE97"/>
<path d="M34.17 16.7615C33.88 16.7115 33.66 16.4615 33.48 16.2415C33.24 15.9715 33.01 15.6915 32.78 15.4215C32.56 15.1615 32.5 14.8515 32.41 14.5215C32.36 14.3415 32.32 14.1515 32.26 13.9615C32.23 13.8715 32.2 13.7715 32.15 13.6915C32.1 13.6015 32.03 13.5715 31.95 13.5115C31.89 13.4715 31.78 13.5015 31.75 13.5615C31.7 13.6515 31.66 13.7215 31.66 13.8215C31.66 13.9415 31.68 14.0615 31.71 14.1815C31.76 14.4015 31.82 14.6215 31.88 14.8315C31.93 15.0215 31.99 15.2115 32.07 15.4015C32.15 15.5815 32.28 15.7315 32.41 15.8715C32.68 16.1515 32.94 16.4615 33.24 16.7115C33.52 16.9415 33.82 17.0915 34.19 17.0215C34.32 17.0015 34.32 16.7815 34.19 16.7515L34.17 16.7615Z" fill="white"/>
<path d="M32.41 10.5915C32.36 10.4715 32.25 10.3915 32.12 10.4215C31.86 10.4915 31.81 10.7915 31.79 11.0215C31.77 11.2315 31.77 11.4415 31.76 11.6515C31.76 11.8715 31.76 12.1015 31.76 12.3215C31.76 12.5415 31.76 12.7715 31.84 12.9815C31.89 13.1015 32.07 13.0815 32.12 12.9815C32.22 12.7915 32.24 12.5715 32.26 12.3615C32.28 12.1515 32.3 11.9415 32.31 11.7415C32.33 11.5415 32.34 11.3415 32.35 11.1315C32.36 10.9615 32.47 10.7515 32.41 10.5815V10.5915Z" fill="white"/>
<path d="M33.37 5.98148C33.05 5.99148 32.77 6.31148 32.61 6.56148C32.4 6.88148 32.36 7.26148 32.31 7.63148C32.26 8.03148 32.21 8.43148 32.17 8.83148C32.15 9.03148 32.13 9.23148 32.11 9.43148C32.09 9.65148 32.13 9.85148 32.14 10.0715C32.14 10.2415 32.39 10.2815 32.43 10.1115C32.48 9.93148 32.56 9.76148 32.59 9.57148C32.62 9.38148 32.65 9.20148 32.68 9.01148C32.73 8.66148 32.77 8.31148 32.82 7.96148C32.86 7.64148 32.87 7.29148 33 6.99148C33.05 6.87148 33.13 6.76148 33.23 6.66148C33.35 6.55148 33.49 6.48148 33.58 6.35148C33.69 6.19148 33.54 5.96148 33.36 5.97148L33.37 5.98148Z" fill="white"/>
<path d="M34.91 5.67148C34.91 5.67148 34.84 5.59148 34.8 5.56148C34.77 5.54148 34.74 5.53148 34.71 5.52148C34.67 5.51148 34.61 5.50148 34.57 5.49148C34.53 5.48148 34.47 5.49148 34.43 5.51148C34.4 5.51148 34.38 5.52148 34.35 5.53148C34.21 5.58148 34.09 5.69148 34 5.81148C33.98 5.84148 33.98 5.88148 33.98 5.92148C33.98 5.96148 34 5.99148 34.03 6.02148C34.08 6.07148 34.17 6.09148 34.24 6.05148C34.26 6.04148 34.27 6.03148 34.29 6.02148C34.3 6.02148 34.31 6.02148 34.33 6.02148C34.35 6.02148 34.37 6.02148 34.39 6.02148C34.38 6.02148 34.36 6.02148 34.35 6.02148C34.37 6.02148 34.4 6.02148 34.42 6.02148C34.45 6.02148 34.48 6.04148 34.52 6.04148C34.58 6.05148 34.64 6.08148 34.7 6.08148C34.79 6.08148 34.88 6.03148 34.93 5.95148C34.95 5.91148 34.97 5.86148 34.97 5.82148C34.97 5.77148 34.96 5.73148 34.93 5.69148L34.91 5.67148Z" fill="white"/>
<path d="M36.03 8.49148C36.02 8.04148 36 7.59148 35.94 7.14148C35.89 6.80148 35.79 6.38148 35.42 6.26148C35.3 6.22148 35.21 6.34148 35.23 6.45148C35.26 6.61148 35.32 6.76148 35.36 6.92148C35.4 7.10148 35.41 7.27148 35.42 7.45148C35.44 7.87148 35.46 8.30148 35.46 8.72148C35.46 9.14148 35.46 9.57148 35.43 9.99148C35.42 10.2115 35.4 10.4315 35.39 10.6515C35.37 10.8615 35.33 11.0715 35.39 11.2815C35.44 11.4815 35.75 11.5415 35.85 11.3415C35.96 11.1315 35.96 10.8815 35.97 10.6515C35.99 10.4015 36.01 10.1515 36.02 9.90148C36.04 9.43148 36.05 8.96148 36.04 8.48148L36.03 8.49148Z" fill="white"/>
<path d="M36.93 12.7915C36.84 12.7915 36.75 12.7915 36.67 12.7915C36.63 12.7915 36.58 12.7915 36.54 12.7915C36.52 12.7915 36.5 12.7915 36.48 12.7915C36.48 12.7915 36.48 12.7915 36.47 12.7915C36.47 12.7915 36.47 12.7915 36.46 12.7915C36.38 12.7715 36.3 12.7615 36.22 12.7315C36.22 12.7315 36.2 12.7315 36.19 12.7215C36.17 12.7215 36.16 12.7015 36.14 12.6915C36.11 12.6715 36.07 12.6515 36.04 12.6315C36.04 12.6315 36.03 12.6315 36.02 12.6215C36.01 12.6215 36 12.6015 35.99 12.5915C35.97 12.5715 35.94 12.5415 35.92 12.5215C35.92 12.5215 35.88 12.4615 35.91 12.5115C35.91 12.5015 35.89 12.4815 35.88 12.4715C35.86 12.4415 35.84 12.4115 35.83 12.3815C35.83 12.3715 35.82 12.3515 35.81 12.3415C35.8 12.3015 35.79 12.2715 35.77 12.2315C35.77 12.2215 35.77 12.2015 35.76 12.1915C35.76 12.1415 35.74 12.1015 35.74 12.0615C35.72 11.9515 35.57 11.9215 35.5 12.0015C35.36 12.1515 35.34 12.3715 35.39 12.5615C35.44 12.7515 35.57 12.9315 35.71 13.0515C35.88 13.1915 36.08 13.2815 36.29 13.3315C36.5 13.3815 36.73 13.4015 36.95 13.3815C37.09 13.3615 37.23 13.2715 37.22 13.1115C37.22 12.9615 37.1 12.8415 36.95 12.8415L36.93 12.7915Z" fill="white"/>
<path d="M41.38 12.3215C40.79 12.3215 40.19 12.3615 39.61 12.4415C39.33 12.4815 39.04 12.5315 38.76 12.5915C38.49 12.6415 38.19 12.6715 37.93 12.7615C37.81 12.8015 37.78 12.9615 37.89 13.0315C38.14 13.1915 38.45 13.1415 38.73 13.1115C39.01 13.0715 39.3 13.0215 39.58 12.9915C40.18 12.9215 40.78 12.8915 41.38 12.8815C41.74 12.8815 41.74 12.3215 41.38 12.3215Z" fill="white"/>
<path d="M43.71 12.4115C43.68 12.2915 43.57 12.2015 43.45 12.2115C43.4 12.2115 43.36 12.2315 43.32 12.2515C43.28 12.2515 43.23 12.2515 43.19 12.2615C43.11 12.2715 43.03 12.2815 42.94 12.3015C42.77 12.3315 42.6 12.3615 42.43 12.3915C42.34 12.4115 42.29 12.5115 42.3 12.5915C42.31 12.6815 42.39 12.7415 42.48 12.7515C42.7 12.7615 42.93 12.7815 43.15 12.7915C43.27 12.7915 43.41 12.8115 43.53 12.7615C43.66 12.7015 43.75 12.5715 43.71 12.4215V12.4115Z" fill="white"/>
<path d="M46.59 13.1315C46.38 12.7715 46.01 12.5015 45.63 12.3315C45.25 12.1715 44.75 12.0515 44.37 12.2615C44.24 12.3315 44.29 12.5115 44.41 12.5515C44.7 12.6615 45.02 12.6615 45.31 12.7815C45.6 12.9015 45.89 13.0815 46.07 13.3415C46.29 13.6515 46.18 14.0115 46.1 14.3615C46.06 14.5515 46.02 14.7415 45.98 14.9315C45.96 15.0115 45.96 15.1015 45.92 15.1715C45.9 15.2215 45.85 15.2615 45.82 15.3115C45.71 15.4815 45.85 15.6915 46.04 15.6915C46.28 15.6915 46.41 15.4615 46.47 15.2615C46.53 15.0315 46.57 14.8015 46.62 14.5715C46.72 14.0915 46.85 13.5915 46.58 13.1415L46.59 13.1315Z" fill="white"/>
<path d="M45.12 16.0415C45.02 16.2715 44.62 16.2715 44.41 16.3015C44.06 16.3515 43.71 16.4115 43.36 16.4615C43.01 16.5215 42.66 16.5715 42.31 16.6315C42.13 16.6615 41.95 16.6915 41.77 16.7215C41.63 16.7415 41.48 16.7415 41.34 16.7715C41.21 16.8015 41.14 17.0015 41.25 17.0915C41.54 17.3415 41.99 17.1715 42.33 17.1115C42.76 17.0415 43.18 16.9715 43.61 16.8915C44.01 16.8215 44.42 16.7615 44.82 16.6715C45.1 16.6115 45.39 16.4715 45.44 16.1615C45.47 15.9915 45.22 15.8415 45.13 16.0315L45.12 16.0415Z" fill="white"/>
<path d="M40.5 16.6715C40.21 16.6015 39.92 16.6915 39.64 16.7115C39.5 16.7215 39.36 16.7315 39.22 16.7315C39.15 16.7315 39.08 16.7315 39.01 16.7315C38.89 16.7315 38.81 16.7515 38.72 16.8315C38.63 16.9015 38.63 17.0815 38.72 17.1615C38.87 17.2815 39.06 17.2615 39.24 17.2515C39.39 17.2515 39.53 17.2315 39.68 17.2115C39.99 17.1715 40.33 17.1415 40.58 16.9415C40.68 16.8615 40.62 16.6915 40.51 16.6715H40.5Z" fill="white"/>
<path d="M38.04 16.8215C37.78 16.7615 37.51 16.8415 37.25 16.8715C37 16.9015 36.75 16.9315 36.49 16.9515C35.96 16.9915 35.43 16.9915 34.91 16.9515C34.55 16.9315 34.55 17.4915 34.91 17.5015C35.46 17.5315 36.01 17.5215 36.55 17.4615C36.83 17.4315 37.1 17.3915 37.37 17.3315C37.63 17.2815 37.9 17.2315 38.1 17.0615C38.19 16.9915 38.14 16.8315 38.03 16.8115L38.04 16.8215Z" fill="white"/>
<path d="M40.79 8.05148C40.74 7.88148 40.46 7.80148 40.37 8.00148C40.25 8.28148 40.28 8.63148 40.27 8.93148C40.26 9.26148 40.25 9.60148 40.24 9.93148C40.24 10.2515 40.24 10.5715 40.24 10.9015C40.24 11.2215 40.24 11.5615 40.34 11.8715C40.38 12.0215 40.61 12.0315 40.65 11.8715C40.72 11.5715 40.72 11.2515 40.72 10.9415C40.72 10.6215 40.73 10.3015 40.74 9.97148C40.74 9.65148 40.76 9.33148 40.77 9.01148C40.77 8.86148 40.78 8.71148 40.79 8.57148C40.79 8.40148 40.83 8.23148 40.79 8.06148V8.05148Z" fill="white"/>
<path d="M41.25 5.24148C41.1 5.20148 40.97 5.29148 40.92 5.43148C40.81 5.73148 40.72 6.03148 40.65 6.34148C40.61 6.50148 40.57 6.67148 40.55 6.84148C40.53 7.00148 40.54 7.15148 40.56 7.31148C40.56 7.38148 40.6 7.44148 40.67 7.46148C40.73 7.48148 40.81 7.46148 40.84 7.39148C40.91 7.24148 40.97 7.10148 41.02 6.94148C41.06 6.79148 41.1 6.63148 41.14 6.48148C41.23 6.17148 41.33 5.87148 41.44 5.57148C41.49 5.43148 41.38 5.27148 41.25 5.24148Z" fill="white"/>
<path d="M44.62 6.59148C44.54 6.30148 44.44 6.01148 44.35 5.72148C44.25 5.40148 44.15 5.07148 44.04 4.75148C43.96 4.49148 43.9 4.19148 43.71 3.97148C43.36 3.56148 42.74 3.63148 42.27 3.75148C41.79 3.87148 41.21 4.20148 41.31 4.77148C41.33 4.90148 41.51 4.90148 41.57 4.80148C41.67 4.65148 41.8 4.48148 41.96 4.39148C42.15 4.27148 42.38 4.23148 42.59 4.20148C42.77 4.17148 42.97 4.15148 43.15 4.20148C43.34 4.26148 43.39 4.42148 43.44 4.59148C43.59 5.09148 43.75 5.58148 43.9 6.08148C43.97 6.32148 44.05 6.55148 44.11 6.79148C44.14 6.91148 44.16 7.03148 44.18 7.15148C44.19 7.28148 44.19 7.40148 44.26 7.51148C44.35 7.66148 44.55 7.65148 44.64 7.51148C44.8 7.27148 44.67 6.85148 44.6 6.59148H44.62Z" fill="white"/>
<path d="M44.67 10.7015C44.67 10.4415 44.67 10.1715 44.67 9.91148C44.66 9.37148 44.63 8.84148 44.56 8.30148C44.54 8.16148 44.31 8.09148 44.28 8.26148C44.21 8.79148 44.17 9.31148 44.15 9.85148C44.15 10.1115 44.14 10.3815 44.14 10.6415C44.14 10.9115 44.11 11.2015 44.14 11.4615C44.16 11.5915 44.23 11.7015 44.36 11.7115C44.47 11.7215 44.62 11.6515 44.64 11.5315C44.68 11.2615 44.66 10.9815 44.66 10.7015H44.67Z" fill="white"/>
<path d="M40.34 18.1215C40.34 17.9815 40.34 17.8315 40.23 17.7215C40.18 17.6715 40.11 17.6815 40.06 17.7215C39.95 17.8115 39.94 17.9515 39.92 18.0815C39.9 18.2215 39.88 18.3715 39.86 18.5215C39.84 18.7915 39.81 19.0615 39.8 19.3215C39.8 19.4515 39.92 19.5815 40.05 19.5715C40.2 19.5715 40.29 19.4615 40.3 19.3215C40.33 19.0615 40.33 18.7815 40.33 18.5215C40.33 18.3915 40.33 18.2615 40.33 18.1315L40.34 18.1215Z" fill="white"/>
<path d="M42.39 22.7915C42.24 22.7715 42.09 22.8015 41.95 22.7815C41.8 22.7615 41.65 22.7215 41.52 22.6615C41.24 22.5415 40.98 22.3515 40.79 22.1115C40.58 21.8415 40.47 21.5015 40.43 21.1615C40.38 20.7615 40.46 20.3615 40.35 19.9715C40.32 19.8715 40.16 19.8315 40.11 19.9415C39.92 20.3415 39.91 20.8615 39.96 21.3015C40.01 21.7315 40.15 22.1315 40.42 22.4815C40.65 22.7715 40.95 23.0015 41.29 23.1515C41.47 23.2315 41.66 23.2915 41.85 23.3215C42.04 23.3515 42.28 23.3815 42.46 23.3215C42.75 23.2215 42.68 22.8515 42.39 22.8115V22.7915Z" fill="white"/>
<path d="M43.75 22.2415C43.75 22.2415 43.75 22.2215 43.75 22.2115C43.75 22.2115 43.75 22.2015 43.75 22.1915C43.75 22.1415 43.72 22.1015 43.69 22.0615C43.68 22.0515 43.66 22.0415 43.65 22.0315C43.63 22.0115 43.6 22.0115 43.57 22.0115C43.52 22.0115 43.48 22.0115 43.44 22.0315C43.4 22.0515 43.37 22.0815 43.35 22.1215C43.35 22.1215 43.35 22.1215 43.35 22.1315C43.34 22.1515 43.32 22.1815 43.31 22.2115C43.31 22.2315 43.3 22.2415 43.29 22.2615C43.29 22.2415 43.31 22.2215 43.31 22.2115C43.3 22.2415 43.28 22.2715 43.27 22.3115C43.27 22.3115 43.27 22.3315 43.26 22.3415C43.25 22.3715 43.24 22.3915 43.22 22.4215C43.22 22.4015 43.23 22.3915 43.24 22.3715C43.23 22.4015 43.21 22.4315 43.19 22.4615C43.13 22.5215 43.12 22.6115 43.18 22.6815C43.23 22.7515 43.32 22.7615 43.4 22.7215C43.43 22.7015 43.47 22.6815 43.5 22.6615C43.54 22.6315 43.59 22.6015 43.62 22.5615C43.64 22.5315 43.66 22.5115 43.68 22.4815C43.69 22.4615 43.7 22.4515 43.71 22.4315C43.74 22.3615 43.77 22.2915 43.76 22.2215L43.75 22.2415Z" fill="white"/>
<path d="M44.47 18.4015C44.46 18.2215 44.45 18.0415 44.43 17.8515C44.41 17.6415 44.42 17.4815 44.23 17.3515C44.16 17.3015 44.03 17.3215 43.97 17.3815C43.83 17.5415 43.87 17.6815 43.89 17.8815C43.91 18.0715 43.92 18.2715 43.93 18.4715C43.95 18.8315 43.95 19.2015 43.93 19.5715C43.92 19.9315 43.89 20.3015 43.85 20.6615C43.82 20.9515 43.67 21.4315 43.88 21.6715C43.92 21.7115 43.98 21.7115 44.02 21.6915C44.31 21.5415 44.32 21.0115 44.36 20.7315C44.41 20.3415 44.45 19.9615 44.46 19.5715C44.47 19.1815 44.46 18.7915 44.45 18.4015H44.47Z" fill="white"/>
<path d="M34.57 7.63148C34.57 7.63148 34.57 7.56148 34.56 7.53148C34.56 7.52148 34.56 7.51148 34.56 7.50148C34.55 7.47148 34.53 7.43148 34.51 7.39148C34.49 7.37148 34.47 7.34148 34.45 7.32148C34.45 7.32148 34.45 7.32148 34.44 7.31148C34.42 7.29148 34.4 7.28148 34.37 7.26148C34.33 7.24148 34.29 7.22148 34.25 7.22148C34.22 7.22148 34.19 7.22148 34.16 7.22148C34.12 7.22148 34.07 7.24148 34.04 7.26148C34.02 7.27148 34 7.29148 33.98 7.31148C33.97 7.31148 33.96 7.33148 33.94 7.34148C33.94 7.34148 33.93 7.36148 33.91 7.37148C33.87 7.40148 33.84 7.43148 33.81 7.47148C33.8 7.49148 33.78 7.54148 33.78 7.55148C33.78 7.55148 33.78 7.56148 33.78 7.57148C33.77 7.63148 33.76 7.69148 33.78 7.74148C33.79 7.77148 33.8 7.80148 33.82 7.83148C33.82 7.83148 33.82 7.84148 33.83 7.85148C33.85 7.88148 33.87 7.91148 33.89 7.93148C33.92 7.95148 33.94 7.98148 33.97 8.00148C33.97 8.00148 33.98 8.00148 33.99 8.01148C34.02 8.03148 34.06 8.04148 34.09 8.05148C34.17 8.07148 34.23 8.07148 34.31 8.05148C34.34 8.05148 34.39 8.02148 34.41 8.01148C34.43 8.01148 34.44 7.99148 34.45 7.98148C34.46 7.98148 34.47 7.96148 34.48 7.95148C34.52 7.91148 34.55 7.86148 34.56 7.81148C34.56 7.81148 34.56 7.81148 34.56 7.80148C34.56 7.80148 34.56 7.78148 34.56 7.77148C34.56 7.74148 34.57 7.69148 34.57 7.65148C34.57 7.65148 34.57 7.64148 34.57 7.63148Z" fill="#FFF280"/>
<path d="M34.3 10.6215C34.28 10.5615 34.25 10.5115 34.21 10.4615L34.14 10.4015C34.08 10.3715 34.02 10.3515 33.96 10.3515C33.91 10.3515 33.87 10.3515 33.82 10.3815C33.78 10.3915 33.74 10.4215 33.71 10.4515C33.68 10.4815 33.65 10.5215 33.64 10.5615C33.62 10.6015 33.61 10.6515 33.61 10.7015V10.7915C33.64 10.8515 33.67 10.9015 33.71 10.9515C33.73 10.9715 33.76 10.9915 33.78 11.0115C33.84 11.0415 33.9 11.0615 33.96 11.0615C34.01 11.0615 34.05 11.0615 34.1 11.0315C34.14 11.0215 34.18 10.9915 34.21 10.9615C34.24 10.9315 34.27 10.8915 34.28 10.8515C34.3 10.8115 34.31 10.7615 34.31 10.7115C34.31 10.6815 34.31 10.6515 34.3 10.6215Z" fill="#FFF280"/>
<path d="M34.5 13.7015C34.48 13.6415 34.45 13.5915 34.41 13.5515C34.38 13.5215 34.34 13.4915 34.3 13.4815C34.26 13.4615 34.22 13.4515 34.17 13.4515C34.11 13.4515 34.05 13.4715 34 13.5015C33.95 13.5315 33.91 13.5715 33.88 13.6215C33.87 13.6515 33.85 13.6715 33.85 13.7015C33.85 13.7315 33.85 13.7615 33.84 13.7915C33.84 13.8215 33.84 13.8515 33.85 13.8815C33.87 13.9415 33.89 13.9915 33.93 14.0315C33.97 14.0715 34.02 14.1015 34.07 14.1115C34.09 14.1115 34.1 14.1115 34.12 14.1115C34.17 14.1215 34.21 14.1115 34.26 14.1115C34.29 14.1115 34.32 14.0915 34.34 14.0815C34.39 14.0515 34.43 14.0115 34.46 13.9615C34.49 13.9115 34.51 13.8515 34.51 13.7915C34.51 13.7615 34.51 13.7315 34.5 13.7015Z" fill="#FFF280"/>
<path d="M36.87 15.0815C36.87 15.0815 36.87 15.0115 36.86 15.0015C36.86 14.9815 36.84 14.9515 36.83 14.9315C36.81 14.9015 36.79 14.8715 36.76 14.8515C36.74 14.8315 36.72 14.8215 36.7 14.8115C36.67 14.7915 36.63 14.7815 36.59 14.7915C36.56 14.7915 36.54 14.7915 36.51 14.8015C36.54 14.8015 36.56 14.8015 36.59 14.7915C36.56 14.7915 36.53 14.7915 36.5 14.8015C36.5 14.8015 36.5 14.8015 36.49 14.8015C36.51 14.8015 36.54 14.8015 36.56 14.8015C36.51 14.8015 36.45 14.8115 36.41 14.8415C36.36 14.8715 36.33 14.9015 36.3 14.9515C36.24 15.0515 36.24 15.1715 36.3 15.2615C36.35 15.3515 36.46 15.4115 36.57 15.4115C36.63 15.4115 36.68 15.4015 36.73 15.3715C36.78 15.3415 36.81 15.3115 36.84 15.2615C36.84 15.2615 36.84 15.2515 36.85 15.2415L36.88 15.1715C36.88 15.1715 36.89 15.1115 36.89 15.0915L36.87 15.0815Z" fill="#FFF280"/>
<path d="M40.05 15.0215C40.05 15.0215 40.07 14.9615 40.07 14.9315C40.07 14.9015 40.06 14.8715 40.05 14.8415C40.05 14.8415 40.05 14.8515 40.06 14.8615C40.06 14.8615 40.05 14.8415 40.05 14.8315C40.05 14.8215 40.05 14.8015 40.04 14.7915C40.04 14.7815 40.02 14.7715 40.01 14.7615C40 14.7415 40 14.7215 39.98 14.7115C39.94 14.6715 39.89 14.6415 39.84 14.6315H39.82C39.77 14.6315 39.75 14.6215 39.71 14.6215C39.71 14.6215 39.69 14.6215 39.68 14.6215C39.64 14.6215 39.6 14.6215 39.56 14.6515C39.52 14.6615 39.49 14.6815 39.46 14.7115C39.43 14.7415 39.41 14.7715 39.4 14.8115C39.38 14.8515 39.37 14.8915 39.37 14.9315C39.37 14.9615 39.37 14.9815 39.38 15.0115C39.39 15.0615 39.42 15.1115 39.46 15.1515C39.48 15.1715 39.5 15.1815 39.52 15.2015C39.57 15.2315 39.62 15.2415 39.68 15.2415C39.68 15.2415 39.7 15.2415 39.71 15.2415C39.75 15.2415 39.77 15.2415 39.82 15.2415H39.84C39.89 15.2415 39.95 15.2015 39.98 15.1615C39.99 15.1515 40 15.1315 40.01 15.1115C40.01 15.1015 40.03 15.0915 40.04 15.0815C40.04 15.0715 40.04 15.0515 40.05 15.0415C40.05 15.0415 40.06 15.0215 40.06 15.0115C40.06 15.0115 40.06 15.0215 40.05 15.0315V15.0215Z" fill="#FFF280"/>
<path d="M42.6 14.5315C42.6 14.5315 42.6 14.5215 42.6 14.5115C42.59 14.4615 42.57 14.4415 42.54 14.4015C42.54 14.3915 42.52 14.3815 42.51 14.3715C42.51 14.3715 42.51 14.3715 42.51 14.3615H42.5C42.49 14.3515 42.48 14.3415 42.46 14.3315C42.46 14.3315 42.46 14.3315 42.46 14.3415C42.45 14.3415 42.43 14.3215 42.42 14.3115C42.39 14.2915 42.35 14.2815 42.31 14.2915C42.27 14.2915 42.23 14.2915 42.19 14.3215C42.17 14.3215 42.15 14.3415 42.13 14.3615C42.13 14.3615 42.14 14.3615 42.15 14.3515C42.15 14.3515 42.15 14.3515 42.14 14.3515C42.12 14.3715 42.1 14.3815 42.07 14.4015C42.05 14.4215 42.04 14.4415 42.02 14.4715C42.01 14.5015 42 14.5215 41.99 14.5515C41.99 14.5815 41.99 14.6115 41.98 14.6415C41.98 14.6715 41.98 14.7015 41.99 14.7315C42 14.7615 42.01 14.7815 42.02 14.8115C42.04 14.8315 42.05 14.8515 42.07 14.8815C42.1 14.9115 42.14 14.9415 42.18 14.9515C42.21 14.9615 42.23 14.9715 42.26 14.9715C42.29 14.9715 42.32 14.9715 42.35 14.9715C42.38 14.9715 42.41 14.9715 42.43 14.9515C42.46 14.9515 42.48 14.9315 42.5 14.9115C42.52 14.9015 42.54 14.8815 42.56 14.8515C42.58 14.8315 42.59 14.8015 42.6 14.7815C42.61 14.7515 42.62 14.7315 42.62 14.7015C42.62 14.6615 42.62 14.6115 42.62 14.5715L42.6 14.5315Z" fill="#FFF280"/>
<path d="M44.96 14.6715V14.6615H44.95L44.96 14.6715Z" fill="#F22236"/>
<path d="M44.92 14.6115C44.92 14.6115 44.95 14.6415 44.96 14.6615C44.96 14.6615 44.98 14.6715 44.99 14.6815C44.97 14.6615 44.95 14.6415 44.93 14.6215L44.92 14.6115Z" fill="#F22236"/>
<path d="M45.28 14.0715C45.27 14.0515 45.24 14.0215 45.23 14.0015C45.21 13.9815 45.18 13.9615 45.16 13.9415C45.12 13.9215 45.08 13.9015 45.04 13.9015C45 13.9015 44.95 13.9015 44.91 13.9015C44.87 13.9115 44.83 13.9315 44.8 13.9615C44.76 13.9815 44.74 14.0115 44.71 14.0515C44.7 14.0815 44.69 14.1015 44.68 14.1315C44.66 14.1915 44.66 14.2515 44.68 14.3115C44.69 14.3415 44.7 14.3615 44.71 14.3915C44.71 14.4015 44.73 14.4115 44.74 14.4215C44.74 14.4215 44.74 14.4215 44.75 14.4215C44.77 14.4515 44.8 14.4815 44.83 14.5015C44.83 14.5015 44.82 14.4915 44.81 14.4815C44.81 14.4815 44.81 14.4915 44.82 14.5015C44.82 14.5015 44.82 14.5015 44.83 14.5015C44.86 14.5215 44.89 14.5415 44.92 14.5515C44.96 14.5615 45.01 14.5715 45.05 14.5515C45.09 14.5515 45.13 14.5315 45.17 14.5115C45.19 14.4915 45.21 14.4815 45.24 14.4615C45.28 14.4215 45.31 14.3715 45.32 14.3115C45.32 14.2815 45.32 14.2515 45.33 14.2215C45.33 14.1615 45.31 14.1115 45.29 14.0515L45.28 14.0715Z" fill="#FFF280"/>
<path d="M42.59 11.1915C42.57 11.1315 42.54 11.0815 42.5 11.0415C42.48 11.0215 42.45 11.0015 42.43 10.9915C42.38 10.9615 42.32 10.9415 42.26 10.9415C42.21 10.9415 42.17 10.9415 42.13 10.9715C42.09 10.9815 42.05 11.0115 42.02 11.0415C41.99 11.0715 41.96 11.1115 41.95 11.1515C41.93 11.1915 41.92 11.2315 41.92 11.2815C41.92 11.3115 41.92 11.3415 41.93 11.3715C41.95 11.4315 41.98 11.4815 42.02 11.5215L42.09 11.5715C42.14 11.6015 42.2 11.6215 42.26 11.6215C42.31 11.6215 42.35 11.6215 42.39 11.5915C42.43 11.5815 42.47 11.5515 42.5 11.5215C42.53 11.4915 42.56 11.4515 42.57 11.4115C42.59 11.3715 42.6 11.3315 42.6 11.2815C42.6 11.2515 42.6 11.2215 42.59 11.1915Z" fill="#FFF280"/>
<path d="M42.73 8.54148C42.73 8.54148 42.7 8.47148 42.67 8.44148C42.65 8.42148 42.63 8.41148 42.61 8.39148C42.56 8.36148 42.51 8.35148 42.46 8.35148C42.43 8.35148 42.41 8.35148 42.38 8.36148C42.33 8.37148 42.29 8.40148 42.25 8.44148C42.25 8.44148 42.23 8.46148 42.23 8.47148C42.2 8.50148 42.19 8.53148 42.18 8.57148C42.18 8.60148 42.18 8.62148 42.17 8.65148C42.17 8.69148 42.17 8.73148 42.2 8.76148C42.21 8.80148 42.23 8.83148 42.26 8.85148C42.28 8.87148 42.3 8.88148 42.32 8.90148C42.37 8.93148 42.41 8.94148 42.47 8.94148C42.5 8.94148 42.53 8.94148 42.55 8.93148C42.57 8.92148 42.6 8.91148 42.62 8.90148C42.64 8.89148 42.66 8.87148 42.68 8.85148C42.71 8.82148 42.73 8.79148 42.74 8.75148C42.76 8.71148 42.77 8.68148 42.77 8.63148C42.77 8.59148 42.77 8.55148 42.74 8.51148L42.73 8.54148Z" fill="#FFF280"/>
<path d="M42.62 5.44148C42.19 5.44148 42.19 6.11148 42.62 6.11148C43.05 6.11148 43.05 5.44148 42.62 5.44148Z" fill="#FFF280"/>
<path d="M42.42 21.7515C42.42 21.7515 42.4 21.7015 42.39 21.6815C42.37 21.6415 42.34 21.6215 42.31 21.5915C42.29 21.5715 42.27 21.5615 42.24 21.5515C42.2 21.5315 42.16 21.5215 42.12 21.5215C42.09 21.5215 42.07 21.5215 42.04 21.5315C42.02 21.5415 41.99 21.5515 41.97 21.5615C41.93 21.5815 41.91 21.6115 41.88 21.6415C41.85 21.6715 41.84 21.7015 41.83 21.7415C41.83 21.7415 41.83 21.7515 41.83 21.7615C41.82 21.8115 41.82 21.8715 41.83 21.9215C41.84 21.9715 41.87 22.0215 41.91 22.0615C41.93 22.0815 41.95 22.0915 41.97 22.1115C42.02 22.1415 42.07 22.1515 42.13 22.1515C42.17 22.1515 42.21 22.1515 42.25 22.1215C42.29 22.1115 42.32 22.0915 42.35 22.0615C42.39 22.0215 42.41 21.9815 42.43 21.9215C42.44 21.8715 42.44 21.8115 42.43 21.7615C42.43 21.7615 42.43 21.7515 42.43 21.7415L42.42 21.7515Z" fill="#FFF280"/>
<path d="M42.47 19.4315C42.45 19.3715 42.43 19.3215 42.38 19.2815C42.37 19.2815 42.34 19.2515 42.35 19.2515C42.33 19.2415 42.33 19.2315 42.32 19.2215C42.31 19.2215 42.22 19.1815 42.28 19.2015C42.24 19.1815 42.2 19.1715 42.16 19.1715C42.14 19.1715 42.11 19.1715 42.09 19.1715C42.09 19.1715 42.08 19.1715 42.07 19.1715C42.03 19.1815 41.99 19.2015 41.96 19.2315C41.92 19.2515 41.9 19.2815 41.87 19.3215C41.84 19.3715 41.82 19.4315 41.82 19.4915C41.82 19.5415 41.82 19.5815 41.85 19.6215C41.86 19.6615 41.89 19.7015 41.92 19.7315C41.96 19.7715 42.01 19.8015 42.07 19.8215C42.1 19.8215 42.13 19.8215 42.16 19.8315C42.22 19.8315 42.28 19.8115 42.33 19.7815C42.38 19.7515 42.42 19.7115 42.45 19.6615C42.46 19.6315 42.47 19.6115 42.48 19.5815C42.5 19.5215 42.5 19.4615 42.48 19.4015L42.47 19.4315Z" fill="#FFF280"/>
<path d="M34.35 8.96148C34.2 8.95148 34.06 8.94148 33.91 8.94148C33.84 8.94148 33.76 8.94148 33.69 8.95148C33.6 8.95148 33.52 8.98148 33.44 9.00148C33.37 9.02148 33.32 9.08148 33.31 9.15148C33.31 9.22148 33.33 9.30148 33.4 9.33148C33.48 9.36148 33.55 9.40148 33.63 9.42148C33.7 9.44148 33.77 9.46148 33.85 9.47148C34.02 9.50148 34.18 9.52148 34.35 9.54148C34.42 9.54148 34.51 9.50148 34.56 9.45148C34.61 9.40148 34.65 9.31148 34.65 9.24148C34.65 9.07148 34.52 8.95148 34.35 8.94148V8.96148Z" fill="white"/>
<path d="M34.32 12.1515C34.22 12.1215 34.11 12.1315 34 12.1315C33.92 12.1315 33.83 12.1315 33.75 12.1315C33.67 12.1315 33.58 12.1315 33.5 12.1415C33.38 12.1515 33.26 12.1615 33.18 12.2615C33.15 12.2815 33.13 12.3115 33.12 12.3515C33.12 12.3915 33.13 12.4315 33.16 12.4615C33.22 12.5715 33.33 12.6015 33.45 12.6215C33.53 12.6415 33.61 12.6515 33.69 12.6615C33.79 12.6715 33.88 12.6915 33.98 12.7015C34.06 12.7015 34.16 12.7315 34.24 12.7215C34.32 12.7215 34.39 12.7015 34.44 12.6415C34.48 12.5915 34.51 12.5415 34.52 12.4815C34.54 12.3415 34.45 12.2015 34.31 12.1715L34.32 12.1515Z" fill="white"/>
<path d="M35.62 14.2015C35.48 14.1315 35.33 14.1715 35.24 14.3015C35.11 14.4815 34.98 14.6515 34.87 14.8415C34.81 14.9315 34.75 15.0215 34.7 15.1215C34.63 15.2515 34.55 15.3715 34.6 15.5215C34.61 15.6115 34.7 15.6815 34.79 15.6315C34.86 15.6215 34.92 15.5915 34.98 15.5415C35.02 15.5115 35.05 15.4715 35.08 15.4315C35.16 15.3515 35.22 15.2615 35.29 15.1715C35.44 14.9915 35.57 14.7915 35.71 14.6015C35.8 14.4815 35.73 14.2915 35.61 14.2215L35.62 14.2015Z" fill="white"/>
<path d="M38.44 14.4615C38.35 14.3815 38.21 14.3515 38.1 14.4215C38.03 14.4615 37.97 14.5215 37.96 14.6015C37.96 14.6415 37.95 14.6815 37.95 14.7215C37.95 14.7615 37.95 14.8115 37.95 14.8515C37.95 14.9315 37.95 15.0215 37.94 15.1015C37.94 15.1815 37.94 15.2715 37.94 15.3515C37.94 15.4615 37.96 15.5815 38.02 15.6715C38.09 15.7715 38.22 15.8015 38.31 15.7115C38.39 15.6315 38.43 15.5315 38.45 15.4215C38.47 15.3215 38.49 15.2215 38.5 15.1215C38.51 15.0415 38.52 14.9515 38.53 14.8715C38.55 14.7315 38.58 14.5715 38.46 14.4615H38.44Z" fill="white"/>
<path d="M41.22 14.5415C41.22 14.5415 41.22 14.4515 41.22 14.4115C41.22 14.3915 41.22 14.3715 41.22 14.3515C41.22 14.2915 41.2 14.2415 41.18 14.1915C41.14 14.1015 41.02 14.0615 40.93 14.0715C40.84 14.0815 40.75 14.1515 40.73 14.2515C40.71 14.3615 40.73 14.4915 40.75 14.6015C40.76 14.6915 40.78 14.7815 40.79 14.8715C40.82 15.0415 40.88 15.2115 40.93 15.3815C40.95 15.4515 41.02 15.4915 41.09 15.4815C41.16 15.4715 41.21 15.4115 41.22 15.3415C41.23 15.1615 41.26 14.9915 41.25 14.8115C41.25 14.7215 41.25 14.6415 41.24 14.5515L41.22 14.5415Z" fill="white"/>
<path d="M43.77 13.9115C43.75 13.8415 43.73 13.7815 43.67 13.7315C43.62 13.6915 43.54 13.6715 43.48 13.6815C43.33 13.7115 43.25 13.8315 43.25 13.9715C43.25 14.0715 43.28 14.1715 43.29 14.2615C43.31 14.3615 43.32 14.4615 43.34 14.5615C43.36 14.6615 43.38 14.7515 43.41 14.8515C43.44 14.9615 43.49 15.0515 43.54 15.1615C43.61 15.2815 43.77 15.2715 43.81 15.1315C43.84 15.0215 43.86 14.9315 43.86 14.8115C43.86 14.7115 43.86 14.6015 43.84 14.5015C43.84 14.4015 43.82 14.3015 43.81 14.2115C43.8 14.1115 43.8 14.0015 43.77 13.9115Z" fill="white"/>
<path d="M43.21 9.78148C43.16 9.64148 43.03 9.57148 42.89 9.60148C42.71 9.63148 42.52 9.66148 42.33 9.69148C42.31 9.69148 42.29 9.69148 42.26 9.69148C42.25 9.69148 42.25 9.69148 42.24 9.69148C42.24 9.69148 42.24 9.69148 42.23 9.69148C42.17 9.69148 42.12 9.70148 42.06 9.71148C42.02 9.71148 41.97 9.72148 41.93 9.73148C41.86 9.75148 41.8 9.78148 41.75 9.83148C41.7 9.89148 41.7 9.97148 41.75 10.0215C41.8 10.0715 41.86 10.1015 41.93 10.1215C41.99 10.1215 42.04 10.1315 42.1 10.1415C42.2 10.1415 42.3 10.1415 42.39 10.1415C42.6 10.1415 42.81 10.1115 43.02 10.0815C43.15 10.0615 43.24 9.88148 43.2 9.76148L43.21 9.78148Z" fill="white"/>
<path d="M43.18 7.01148C43.08 6.97148 42.95 7.00148 42.85 7.00148C42.75 7.00148 42.65 7.00148 42.55 7.00148C42.45 7.00148 42.34 7.00148 42.24 7.02148C42.19 7.02148 42.13 7.03148 42.08 7.04148C42.02 7.04148 41.97 7.06148 41.91 7.09148C41.78 7.16148 41.78 7.37148 41.91 7.43148C41.94 7.45148 41.97 7.46148 42.01 7.47148C42.05 7.47148 42.09 7.48148 42.12 7.48148C42.16 7.48148 42.21 7.49148 42.25 7.50148C42.35 7.51148 42.45 7.51148 42.55 7.51148C42.65 7.51148 42.74 7.51148 42.84 7.51148C42.89 7.51148 42.94 7.51148 42.98 7.51148C43.05 7.51148 43.12 7.51148 43.18 7.49148C43.29 7.45148 43.38 7.36148 43.37 7.24148C43.37 7.12148 43.29 7.03148 43.18 6.99148V7.01148Z" fill="white"/>
<path d="M42.78 20.5515C42.71 20.5015 42.64 20.4915 42.56 20.5015C42.36 20.5315 42.17 20.5715 41.97 20.6015C41.87 20.6215 41.78 20.6415 41.68 20.6715C41.59 20.7015 41.45 20.7315 41.39 20.8115C41.34 20.8815 41.35 20.9615 41.42 21.0115C41.5 21.0715 41.64 21.0715 41.74 21.0715C41.84 21.0715 41.94 21.0715 42.04 21.0615C42.24 21.0515 42.44 21.0315 42.64 21.0115C42.71 21.0115 42.77 20.9815 42.82 20.9315C42.88 20.8815 42.9 20.7915 42.89 20.7115C42.89 20.6415 42.85 20.5915 42.79 20.5415L42.78 20.5515Z" fill="white"/>
<path d="M42.81 17.9715C42.7 17.9315 42.57 17.9715 42.46 17.9715C42.35 17.9815 42.25 17.9915 42.14 18.0015C41.93 18.0215 41.71 18.0415 41.5 18.0715C41.43 18.0715 41.37 18.1215 41.36 18.1915C41.36 18.2615 41.39 18.3215 41.46 18.3415C41.68 18.4015 41.91 18.4315 42.14 18.4415C42.25 18.4415 42.35 18.4415 42.46 18.4415C42.59 18.4415 42.76 18.4415 42.87 18.3715C43.03 18.2615 43 18.0315 42.82 17.9715H42.81Z" fill="white"/>
<path d="M47.34 3.63148L46.39 3.95148C46.28 3.99148 46.19 4.08148 46.16 4.19148L45.89 5.15148C45.74 5.67148 45.07 5.79148 44.75 5.36148L44.63 5.20148L44.35 4.83148L44.15 4.56148C44.08 4.47148 43.97 4.41148 43.85 4.42148L42.85 4.46148C42.55 4.47148 42.32 4.29148 42.23 4.06148C42.15 3.87148 42.17 3.64148 42.3 3.45148L42.87 2.63148C42.94 2.53148 42.95 2.41148 42.92 2.30148L42.57 1.37148C42.39 0.871481 42.86 0.371481 43.37 0.531481L44.32 0.821481C44.43 0.861481 44.55 0.831481 44.65 0.761481L45.43 0.141481C45.57 0.0314806 45.74 -0.00851942 45.89 0.00148058C46.19 0.0414806 46.46 0.291481 46.47 0.641481V1.64148C46.48 1.75148 46.54 1.85148 46.62 1.92148C46.62 1.92148 46.62 1.93148 46.64 1.93148L47.47 2.48148C47.47 2.48148 47.5 2.50148 47.52 2.52148C47.91 2.83148 47.81 3.46148 47.32 3.63148H47.34Z" fill="#E0C2FF"/>
</svg>
