<svg width="80" height="63" viewBox="0 0 80 63" fill="none" xmlns="http://www.w3.org/2000/svg">
<path d="M1.17 21.84V50.39C1.17 53.31 3.07 55.9 5.87 56.76C16.81 60.13 45.28 66.86 74.2 56.83C76.87 55.9 78.65 53.37 78.65 50.54V21.84C78.65 21.84 39.03 29.66 1.17 21.84Z" fill="#FFEDDC"/>
<path d="M74.2 37.9C45.28 47.92 16.81 41.2 5.87 37.83C3.08 36.97 1.17 34.39 1.17 31.46V40.53C1.17 43.45 3.07 46.04 5.87 46.9C16.81 50.27 45.28 57 74.2 46.97C76.87 46.04 78.65 43.51 78.65 40.68V31.61C78.65 34.44 76.87 36.97 74.2 37.9Z" fill="#E54C5C"/>
<path d="M79.44 18.04C79.44 15.4 61.66 13.26 39.72 13.26C17.78 13.26 0 15.4 0 18.04V18.23L0.04 31.44C0.04 31.93 0.2 32.92 1.13 32.91C1.89 32.91 2.1 31.97 2.1 31.48L1.97 24.04C1.97 24.04 2.27 21.54 4.38 23.3C6.49 25.07 7.14 34.64 6.97 37.5C6.8 40.36 8.99 42.21 11.01 40.53C13.03 38.85 11.18 27.41 14.21 26.9C17.24 26.39 18.92 29.93 24.64 30.26C30.36 30.6 33.73 26.9 37.43 27.57C41.13 28.24 41.8 34.97 42.81 36.82C43.82 38.67 47.86 39.68 49.37 35.81C50.88 31.94 52.9 27.73 56.27 27.23C59.63 26.73 66.74 32.45 71.96 31.77C77.18 31.1 77.68 30.22 78.82 28.12C80.01 25.92 79.44 18.04 79.44 18.04Z" fill="#FEFEC0"/>
<path d="M39.72 22.47L44.78 22.31C46.47 22.26 48.16 22.2 49.84 22.13C53.21 21.99 56.58 21.83 59.95 21.58C63.32 21.37 66.68 21.06 70.02 20.65C71.69 20.44 73.36 20.2 75.01 19.86C75.83 19.69 76.66 19.5 77.45 19.24C77.85 19.11 78.24 18.96 78.61 18.76C78.79 18.66 78.97 18.55 79.13 18.41C79.28 18.27 79.41 18.09 79.42 17.88C79.42 18.09 79.3 18.29 79.15 18.44C79 18.59 78.83 18.72 78.64 18.83C78.27 19.05 77.88 19.22 77.49 19.37C76.7 19.67 75.88 19.9 75.06 20.11C73.41 20.5 71.74 20.79 70.07 21.05C66.72 21.55 63.35 21.85 59.98 22.1C56.6 22.31 53.23 22.47 49.85 22.53C48.16 22.56 46.47 22.57 44.78 22.57C43.09 22.55 41.4 22.54 39.71 22.48L39.72 22.47Z" fill="#EFD9A5"/>
<path d="M0 17.87C0.02 18.14 0.22 18.35 0.43 18.5C0.64 18.66 0.88 18.78 1.12 18.89C1.6 19.1 2.11 19.26 2.62 19.39C3.64 19.68 4.69 19.88 5.73 20.06C7.83 20.41 9.94 20.69 12.06 20.92C14.18 21.17 16.3 21.36 18.42 21.56L24.8 22.14C23.73 22.14 22.66 22.12 21.6 22.09C20.53 22.05 19.47 22 18.4 21.95C16.27 21.84 14.14 21.66 12.01 21.42C9.89 21.17 7.76 20.88 5.67 20.43C4.62 20.2 3.58 19.96 2.56 19.62C2.05 19.45 1.55 19.25 1.07 19C0.83 18.87 0.6 18.73 0.39 18.55C0.19 18.38 0 18.14 0.01 17.86L0 17.87Z" fill="#EFD9A5"/>
<path d="M36.7 10.79C37.29 10.91 37.91 10.86 38.51 10.9C39.15 10.95 39.78 11.02 40.4 11.18C40.67 11.25 40.99 11.33 41.28 11.47L40.11 10.94C39.81 10.8 39.49 10.72 39.23 10.65C38.61 10.5 37.97 10.42 37.34 10.37C36.74 10.33 36.13 10.37 35.53 10.26C35.33 10.22 35.14 10.16 34.98 10.09L36.15 10.62C36.31 10.69 36.5 10.75 36.7 10.79Z" fill="#B87C66"/>
<path d="M38.54 5.96L39.71 6.49C39.57 6.42 39.46 6.31 39.47 6.11C39.48 5.72 40.14 5.64 40.59 5.6C42.35 5.45 44.01 5.46 45.67 4.61C46.65 4.11 46.82 2.25 45.77 1.53C45.55 1.38 45.33 1.26 45.1 1.15L43.93 0.62C44.16 0.72 44.38 0.85 44.6 1C45.65 1.72 45.48 3.58 44.5 4.08C42.84 4.93 41.18 4.92 39.42 5.07C38.96 5.11 38.31 5.19 38.3 5.58C38.3 5.78 38.4 5.89 38.54 5.96Z" fill="#B87C66"/>
<path d="M43.35 7.27L42.18 6.74C44.84 7.96 46.6 10.67 45.4 14.13C44.45 16.87 41.99 18.85 39.27 19.47C38.68 19.6 37.99 19.68 37.29 19.69C36.31 19.69 35.32 19.54 34.49 19.16L35.66 19.69C36.48 20.07 37.48 20.22 38.46 20.22C39.16 20.22 39.85 20.13 40.44 20C43.16 19.39 45.62 17.4 46.57 14.66C47.77 11.21 46.01 8.49 43.35 7.27Z" fill="#B87C66"/>
<path d="M45.41 14.12C44.46 16.86 42 18.85 39.28 19.46C38.69 19.59 38 19.67 37.3 19.68C35.21 19.68 33.03 19 32.66 16.86C32.48 15.79 33.02 14.96 34 14.56C34.42 14.39 34.86 14.33 35.31 14.33C35.76 14.33 36.23 14.38 36.7 14.44C37.15 14.49 37.6 14.55 38.03 14.55C39.02 14.55 39.9 14.28 40.62 13.17C40.85 12.83 41.05 12.43 41.03 12.02C40.99 11.14 39.93 10.81 39.24 10.64C38.62 10.49 37.98 10.41 37.35 10.37C36.75 10.32 36.14 10.37 35.55 10.26C33.94 9.95 33.68 8.46 33.53 7.03C33.52 6.89 33.5 6.74 33.49 6.6C33.46 6.3 33.42 6.01 33.39 5.71C33.29 4.88 33.18 4.04 33.2 3.2C33.22 2.36 33.34 1.2 34.16 0.73C35.17 0.14 36.27 0 37.39 0C37.44 0 37.49 0 37.54 0C38.21 0 38.89 0.04 39.56 0.06C40.18 0.06 40.81 0.06 41.42 0.09C42.25 0.13 43.06 0.25 43.83 0.58C44.09 0.69 44.35 0.83 44.6 1C45.65 1.72 45.48 3.58 44.5 4.08C42.84 4.93 41.17 4.92 39.42 5.07C38.97 5.11 38.31 5.19 38.3 5.57C38.29 5.95 38.68 6.03 38.97 6.03C43.13 6.03 47.07 9.38 45.42 14.11L45.41 14.12Z" fill="#FFCE97"/>
<path d="M34.75 15.29C34.71 15.13 34.52 15.01 34.36 15.07C33.71 15.29 33.23 15.88 33.19 16.58C33.17 16.9 33.27 17.24 33.44 17.51C33.53 17.65 33.65 17.78 33.78 17.88C33.91 17.98 34.07 18.02 34.23 18.07C34.39 18.12 34.46 17.9 34.34 17.81C34.25 17.74 34.18 17.64 34.12 17.55C34.05 17.45 33.98 17.34 33.92 17.23C33.81 17.03 33.78 16.82 33.8 16.6C33.81 16.43 33.91 16.21 34.01 16.07C34.07 15.99 34.18 15.89 34.24 15.84C34.33 15.77 34.43 15.72 34.52 15.69C34.68 15.63 34.79 15.47 34.74 15.3L34.75 15.29Z" fill="white"/>
<path d="M37.35 15.02C37.04 14.97 36.72 14.95 36.41 14.96C36.25 14.96 36.09 14.98 35.94 15.01C35.78 15.04 35.61 15.06 35.47 15.15C35.32 15.25 35.32 15.52 35.52 15.56C35.67 15.59 35.82 15.56 35.97 15.56C36.11 15.56 36.25 15.55 36.39 15.55C36.53 15.55 36.67 15.55 36.81 15.57C36.97 15.58 37.06 15.59 37.19 15.62C37.35 15.65 37.53 15.58 37.57 15.4C37.6 15.25 37.53 15.05 37.35 15.02Z" fill="white"/>
<path d="M41.88 11C41.7 10.74 41.38 10.45 41.04 10.53C40.82 10.58 40.79 10.84 40.92 10.99C41 11.09 41.11 11.12 41.21 11.2C41.3 11.27 41.38 11.38 41.42 11.48C41.55 11.76 41.51 12.09 41.44 12.38C41.32 12.86 41.09 13.31 40.76 13.68C40.43 14.06 40.04 14.36 39.59 14.58C39.38 14.68 39.16 14.76 38.93 14.83C38.7 14.89 38.43 14.92 38.26 15.1C38.21 15.15 38.2 15.25 38.26 15.3C38.49 15.5 38.84 15.45 39.12 15.39C39.43 15.33 39.74 15.21 40.02 15.07C40.57 14.79 41.05 14.37 41.42 13.88C41.81 13.36 42.09 12.72 42.13 12.06C42.16 11.69 42.08 11.3 41.87 10.99L41.88 11Z" fill="white"/>
<path d="M40.42 10.42C40.2 10.24 39.97 10.16 39.71 10.08C39.45 10 39.19 9.93 38.92 9.88C38.66 9.82 38.39 9.77 38.12 9.73C37.99 9.71 37.86 9.69 37.72 9.67C37.56 9.65 37.41 9.62 37.28 9.76C37.21 9.84 37.19 9.95 37.24 10.05C37.38 10.29 37.77 10.25 38.02 10.28C38.27 10.31 38.52 10.36 38.77 10.4C39.02 10.45 39.27 10.5 39.51 10.56C39.78 10.63 40.03 10.7 40.31 10.68C40.43 10.68 40.52 10.51 40.42 10.42Z" fill="white"/>
<path d="M36.47 9.45C36.33 9.41 36.18 9.43 36.04 9.4C35.9 9.37 35.78 9.31 35.67 9.23C35.42 9.06 35.26 8.79 35.13 8.52C34.99 8.22 34.89 7.89 34.81 7.57C34.76 7.38 34.72 7.2 34.68 7.01C34.64 6.81 34.64 6.62 34.5 6.45C34.4 6.33 34.16 6.36 34.1 6.5C34 6.72 34.07 6.96 34.11 7.19C34.15 7.41 34.2 7.62 34.26 7.83C34.37 8.22 34.51 8.61 34.7 8.96C34.88 9.29 35.14 9.59 35.48 9.76C35.78 9.91 36.28 10.04 36.55 9.76C36.65 9.65 36.61 9.48 36.46 9.43L36.47 9.45Z" fill="white"/>
<path d="M36.59 0.52C36.32 0.46 36.01 0.52 35.73 0.55C35.45 0.59 35.17 0.65 34.91 0.76C34.4 0.98 34.04 1.38 33.85 1.9C33.4 3.09 33.96 4.33 34.06 5.53C34.07 5.67 34.29 5.73 34.33 5.57C34.45 4.99 34.39 4.45 34.32 3.88C34.26 3.37 34.2 2.86 34.32 2.36C34.43 1.91 34.68 1.53 35.12 1.33C35.34 1.23 35.58 1.19 35.82 1.16C36.08 1.13 36.35 1.16 36.6 1.09C36.86 1.02 36.88 0.59 36.6 0.54L36.59 0.52Z" fill="white"/>
<path d="M43.71 0.98C43.6 0.75 43.34 0.72 43.12 0.67C42.87 0.61 42.62 0.57 42.37 0.54C41.84 0.47 41.3 0.45 40.77 0.44C40.25 0.44 39.72 0.44 39.2 0.44C38.66 0.44 38.13 0.38 37.6 0.4C37.38 0.4 37.36 0.69 37.55 0.77C38.03 0.97 38.54 1 39.06 1.03C39.58 1.06 40.11 1.06 40.63 1.07C41.15 1.07 41.67 1.09 42.19 1.15C42.45 1.18 42.71 1.23 42.96 1.29C43.2 1.35 43.4 1.46 43.63 1.33C43.75 1.26 43.77 1.12 43.72 1L43.71 0.98Z" fill="white"/>
<path d="M44.2 1.63C44.05 1.51 43.86 1.63 43.89 1.81C43.92 1.98 43.98 2.16 44 2.33C44.02 2.5 44.02 2.68 43.98 2.84C43.91 3.14 43.72 3.41 43.48 3.58C43.36 3.67 43.29 3.83 43.38 3.97C43.39 3.99 43.41 4.01 43.42 4.03C43.49 4.12 43.67 4.14 43.77 4.07C44.14 3.81 44.42 3.43 44.52 2.98C44.62 2.54 44.58 1.93 44.2 1.62V1.63Z" fill="white"/>
<path d="M42.7 3.96C42.7 3.96 42.6 3.91 42.55 3.9C42.49 3.89 42.43 3.89 42.37 3.89C42.22 3.89 42.07 3.91 41.91 3.93C41.62 3.96 41.32 4 41.03 4.04C40.74 4.08 40.44 4.12 40.15 4.16C40 4.18 39.84 4.2 39.69 4.22C39.54 4.24 39.39 4.26 39.28 4.38C39.18 4.49 39.19 4.66 39.33 4.74C39.58 4.89 39.97 4.74 40.24 4.7C40.54 4.65 40.84 4.59 41.15 4.54C41.45 4.49 41.75 4.43 42.05 4.38C42.2 4.35 42.35 4.32 42.49 4.27C42.54 4.25 42.6 4.23 42.65 4.2C42.67 4.19 42.69 4.17 42.71 4.14C42.71 4.1 42.72 4.09 42.74 4.11C42.83 4.07 42.77 3.96 42.7 3.95V3.96Z" fill="white"/>
<path d="M41.91 7.25C41.8 6.94 41.41 6.96 41.13 6.9L40.13 6.7C39.48 6.57 38.82 6.45 38.17 6.3C37.94 6.25 37.71 6.18 37.57 5.98C37.45 5.8 37.4 5.56 37.47 5.35C37.62 4.86 38.12 4.88 38.54 4.86C38.68 4.86 38.73 4.7 38.65 4.6C38.27 4.13 37.47 4.43 37.15 4.82C36.76 5.3 36.84 6.04 37.27 6.47C37.51 6.71 37.84 6.8 38.17 6.87C38.59 6.96 39.01 7.04 39.42 7.13C39.84 7.22 40.26 7.3 40.67 7.39C40.87 7.43 41.07 7.47 41.28 7.51C41.49 7.55 41.69 7.63 41.85 7.45C41.9 7.4 41.93 7.32 41.9 7.25H41.91Z" fill="white"/>
<path d="M44.93 9.97C44.7 9.41 44.38 8.9 43.97 8.45C43.58 8.02 43.08 7.65 42.52 7.48C42.39 7.44 42.27 7.62 42.38 7.72C42.78 8.08 43.19 8.42 43.54 8.82C43.88 9.2 44.16 9.66 44.35 10.13C44.41 10.28 44.55 10.39 44.72 10.34C44.86 10.3 44.99 10.12 44.93 9.97Z" fill="white"/>
<path d="M45.03 11.31C44.92 10.97 44.44 11.04 44.41 11.39C44.4 11.52 44.43 11.65 44.44 11.78C44.44 11.91 44.45 12.04 44.44 12.18C44.44 12.42 44.42 12.65 44.39 12.88C44.36 13.13 44.3 13.36 44.24 13.61C44.19 13.82 44.04 14.17 44.16 14.37C44.2 14.44 44.28 14.46 44.35 14.44C44.35 14.44 44.37 14.44 44.38 14.44C44.38 14.44 44.38 14.44 44.39 14.44C44.62 14.35 44.73 13.98 44.8 13.77C44.89 13.52 44.95 13.26 44.99 13C45.03 12.73 45.06 12.45 45.07 12.18C45.07 11.91 45.1 11.57 45.01 11.31H45.03Z" fill="white"/>
<path d="M43.2 15.65C43.2 15.65 43.24 15.62 43.26 15.61L43.2 15.65Z" fill="white"/>
<path d="M43.96 15.25C43.96 15.25 43.93 15.15 43.9 15.11C43.86 15.05 43.81 15.01 43.73 15.01C43.71 15.01 43.7 15.01 43.68 15.02C43.69 15.01 43.68 15.01 43.65 15.02C43.65 15.02 43.65 15.02 43.64 15.02C43.64 15.02 43.63 15.02 43.62 15.03C43.61 15.03 43.6 15.04 43.59 15.05C43.58 15.06 43.57 15.07 43.57 15.08C43.57 15.08 43.57 15.09 43.56 15.1C43.54 15.13 43.53 15.16 43.52 15.2C43.52 15.18 43.54 15.16 43.54 15.15C43.52 15.19 43.5 15.22 43.49 15.26V15.28C43.46 15.35 43.42 15.41 43.38 15.47C43.35 15.51 43.32 15.54 43.28 15.57C43.28 15.57 43.22 15.62 43.19 15.65C43.17 15.68 43.14 15.72 43.14 15.75C43.13 15.82 43.13 15.9 43.17 15.96C43.21 16.02 43.26 16.07 43.34 16.09C43.5 16.14 43.65 16.03 43.75 15.91C43.81 15.84 43.87 15.77 43.91 15.69C43.93 15.64 43.96 15.59 43.97 15.54C43.98 15.49 43.99 15.43 44 15.37C44 15.32 44 15.27 43.99 15.21L43.96 15.25Z" fill="white"/>
<path d="M42.41 16.49C42.09 16.81 41.76 17.08 41.39 17.32C41.2 17.44 41.01 17.55 40.81 17.65C40.6 17.76 40.39 17.84 40.2 17.98C40.03 18.1 40.07 18.4 40.31 18.39C40.56 18.39 40.79 18.3 41.02 18.2C41.25 18.1 41.48 17.99 41.7 17.86C42.13 17.61 42.52 17.3 42.87 16.95C43.17 16.66 42.7 16.19 42.41 16.49Z" fill="white"/>
<path d="M39.26 18.37C39.2 18.36 39.14 18.35 39.08 18.35C39.03 18.35 38.98 18.35 38.94 18.36C38.83 18.37 38.72 18.39 38.61 18.41C38.52 18.43 38.42 18.44 38.33 18.46C38.18 18.49 38.04 18.51 37.95 18.65C37.87 18.78 37.93 18.94 38.05 19.02C38.18 19.11 38.35 19.05 38.49 19.02C38.58 19 38.66 18.97 38.75 18.95C38.94 18.9 39.15 18.85 39.31 18.74C39.38 18.69 39.42 18.63 39.41 18.54C39.41 18.47 39.34 18.39 39.27 18.37H39.26Z" fill="white"/>
<path d="M37.53 18.62C37.32 18.63 37.11 18.63 36.9 18.64C36.7 18.65 36.5 18.64 36.31 18.62C36.1 18.59 35.9 18.54 35.7 18.46C35.5 18.38 35.32 18.22 35.12 18.17C34.89 18.12 34.63 18.38 34.79 18.6C34.95 18.82 35.23 18.93 35.48 19.03C35.71 19.12 35.96 19.18 36.21 19.21C36.44 19.24 36.67 19.24 36.9 19.21C37.04 19.19 37.16 19.17 37.29 19.12C37.42 19.07 37.51 19.01 37.62 18.93C37.75 18.84 37.71 18.6 37.53 18.62Z" fill="white"/>
<path d="M39.46 2.57C39.46 2.5 39.44 2.44 39.42 2.39C39.4 2.35 39.37 2.32 39.34 2.3C39.33 2.29 39.32 2.28 39.3 2.27C39.25 2.24 39.19 2.23 39.14 2.23C39.08 2.23 39.03 2.24 38.98 2.27C38.93 2.3 38.89 2.34 38.86 2.39C38.84 2.43 38.82 2.47 38.82 2.51C38.82 2.53 38.82 2.55 38.82 2.56C38.82 2.56 38.82 2.57 38.82 2.58C38.82 2.6 38.82 2.61 38.82 2.63C38.82 2.65 38.82 2.66 38.82 2.68C38.82 2.68 38.82 2.69 38.82 2.7C38.83 2.73 38.84 2.75 38.85 2.78C38.87 2.82 38.9 2.85 38.93 2.87C38.95 2.89 38.97 2.9 39 2.91C39.04 2.93 39.08 2.94 39.12 2.94C39.15 2.94 39.18 2.94 39.2 2.93C39.23 2.92 39.25 2.91 39.28 2.9C39.32 2.88 39.35 2.85 39.37 2.82C39.4 2.79 39.42 2.75 39.43 2.71C39.43 2.71 39.43 2.7 39.43 2.69C39.44 2.65 39.45 2.63 39.45 2.58C39.45 2.58 39.45 2.57 39.45 2.56L39.46 2.57Z" fill="white"/>
<path d="M35.94 4.93C35.94 4.93 35.92 4.88 35.91 4.86C35.89 4.83 35.87 4.8 35.83 4.78C35.8 4.75 35.77 4.74 35.73 4.73C35.73 4.73 35.73 4.73 35.72 4.73C35.67 4.72 35.61 4.72 35.56 4.73C35.51 4.74 35.47 4.77 35.43 4.81C35.41 4.83 35.4 4.85 35.38 4.87C35.35 4.92 35.34 4.97 35.34 5.02C35.34 5.06 35.34 5.1 35.37 5.14C35.38 5.18 35.4 5.21 35.43 5.24C35.47 5.28 35.51 5.3 35.56 5.32C35.61 5.33 35.67 5.33 35.72 5.32C35.72 5.32 35.72 5.32 35.73 5.32C35.75 5.32 35.78 5.3 35.8 5.29C35.83 5.27 35.86 5.25 35.88 5.21C35.9 5.19 35.91 5.17 35.92 5.14C35.94 5.1 35.95 5.07 35.95 5.03C35.95 5 35.95 4.98 35.94 4.95V4.93Z" fill="white"/>
<path d="M38.83 8.34C38.83 8.34 38.83 8.27 38.81 8.23C38.8 8.2 38.78 8.17 38.75 8.14L38.69 8.1C38.69 8.1 38.62 8.07 38.59 8.07C38.57 8.07 38.54 8.07 38.52 8.07C38.48 8.07 38.45 8.08 38.42 8.1C38.4 8.11 38.38 8.13 38.36 8.14C38.33 8.17 38.3 8.21 38.29 8.26V8.28C38.29 8.3 38.29 8.33 38.29 8.35C38.29 8.39 38.29 8.4 38.3 8.43C38.3 8.43 38.3 8.43 38.3 8.44C38.3 8.46 38.32 8.48 38.33 8.51C38.35 8.54 38.37 8.57 38.4 8.59C38.42 8.61 38.44 8.62 38.46 8.62C38.49 8.64 38.53 8.64 38.56 8.64C38.58 8.64 38.61 8.64 38.63 8.64C38.65 8.64 38.67 8.62 38.7 8.61C38.73 8.59 38.76 8.57 38.78 8.54C38.8 8.51 38.82 8.48 38.83 8.45C38.83 8.45 38.84 8.38 38.84 8.36V8.34H38.83Z" fill="white"/>
<path d="M43.19 10.07C42.8 10.07 42.8 10.67 43.19 10.67C43.58 10.67 43.58 10.07 43.19 10.07Z" fill="white"/>
<path d="M42.62 14.93C42.61 14.88 42.58 14.84 42.54 14.8C42.52 14.78 42.5 14.77 42.48 14.75C42.43 14.72 42.38 14.71 42.33 14.71C42.29 14.71 42.25 14.71 42.22 14.74C42.18 14.75 42.15 14.77 42.12 14.8C42.09 14.83 42.07 14.86 42.06 14.9C42.04 14.94 42.03 14.97 42.03 15.01V15.09C42.05 15.14 42.08 15.18 42.12 15.22C42.14 15.24 42.16 15.25 42.18 15.27C42.23 15.3 42.28 15.31 42.33 15.31C42.37 15.31 42.41 15.31 42.44 15.28C42.48 15.27 42.51 15.25 42.54 15.22C42.57 15.19 42.59 15.16 42.6 15.12C42.62 15.08 42.63 15.05 42.63 15.01V14.93H42.62Z" fill="white"/>
<path d="M37.75 17.29H37.74C37.76 17.29 37.76 17.29 37.75 17.29Z" fill="white"/>
<path d="M38.22 16.88C38.22 16.88 38.19 16.81 38.16 16.78C38.16 16.78 38.14 16.78 38.14 16.77C38.14 16.77 38.13 16.76 38.12 16.75C38.11 16.74 38.1 16.73 38.1 16.73C38.07 16.72 38.05 16.71 38.02 16.7C38.02 16.7 37.94 16.69 37.93 16.69C37.9 16.69 37.87 16.69 37.84 16.7L37.76 16.73C37.76 16.73 37.69 16.78 37.67 16.81C37.65 16.83 37.64 16.85 37.63 16.88C37.62 16.91 37.61 16.93 37.61 16.96C37.61 16.99 37.61 17.02 37.61 17.05C37.61 17.09 37.62 17.13 37.65 17.17C37.65 17.17 37.69 17.23 37.7 17.24C37.71 17.26 37.77 17.29 37.78 17.3C37.8 17.3 37.84 17.33 37.84 17.33L37.93 17.34C37.94 17.34 37.97 17.34 37.97 17.34C37.97 17.34 38 17.34 38.01 17.34C38.01 17.34 38.08 17.31 38.09 17.31C38.1 17.31 38.11 17.29 38.12 17.28C38.12 17.28 38.14 17.26 38.15 17.25L38.2 17.19C38.23 17.14 38.24 17.09 38.24 17.04C38.24 17 38.24 16.96 38.21 16.92L38.22 16.88Z" fill="white"/>
<path d="M37.67 3.06L37.23 3.27C37.18 3.3 37.14 3.34 37.13 3.4L37.06 3.88C37.02 4.14 36.7 4.24 36.52 4.05L36.45 3.98L36.29 3.82L36.18 3.7C36.18 3.7 36.08 3.64 36.03 3.65L35.55 3.73C35.41 3.75 35.28 3.68 35.22 3.57C35.17 3.48 35.16 3.37 35.22 3.27L35.45 2.84C35.48 2.79 35.48 2.73 35.45 2.68L35.22 2.25C35.1 2.02 35.3 1.75 35.56 1.79L36.04 1.87C36.1 1.88 36.15 1.87 36.19 1.82L36.53 1.47C36.59 1.41 36.67 1.38 36.75 1.37C36.9 1.37 37.05 1.47 37.07 1.64L37.14 2.12C37.14 2.17 37.18 2.22 37.23 2.25L37.67 2.47C37.67 2.47 37.69 2.47 37.7 2.49C37.91 2.62 37.9 2.93 37.67 3.04V3.06Z" fill="#FFF280"/>
<path d="M36.15 2.19C36.17 2.29 36.11 2.39 36.01 2.42C35.91 2.45 35.8 2.39 35.77 2.29C35.77 2.26 35.77 2.22 35.77 2.19C35.79 2.12 35.84 2.07 35.9 2.05C36 2.02 36.11 2.08 36.14 2.18L36.15 2.19Z" fill="white"/>
<path d="M36.3 3.82L36.19 3.7C36.19 3.7 36.09 3.64 36.04 3.65L35.56 3.73C35.42 3.75 35.29 3.68 35.23 3.57C35.25 3.57 35.26 3.57 35.28 3.57C35.35 3.57 35.43 3.59 35.5 3.57C35.65 3.55 35.78 3.48 35.93 3.48C36.08 3.48 36.19 3.58 36.26 3.7C36.28 3.73 36.29 3.76 36.31 3.8L36.3 3.82Z" fill="#E5D873"/>
<path d="M37.67 3.06L37.23 3.27C37.18 3.3 37.14 3.34 37.13 3.4L37.06 3.88C37.02 4.14 36.7 4.24 36.52 4.05L36.45 3.98C36.45 3.98 36.47 3.98 36.47 3.99C36.53 4.05 36.63 4.08 36.71 4.04C36.76 4.01 36.8 3.96 36.83 3.9C36.88 3.74 36.85 3.56 36.87 3.39C36.89 3.17 37.06 3.06 37.26 3.01C37.36 2.99 37.47 2.98 37.56 2.92C37.64 2.87 37.69 2.77 37.71 2.68C37.72 2.63 37.73 2.56 37.71 2.51C37.71 2.51 37.71 2.5 37.71 2.49C37.92 2.62 37.91 2.93 37.68 3.04L37.67 3.06Z" fill="#E5D873"/>
<path d="M37.23 2.27C37.23 2.27 37.22 2.27 37.21 2.27C37.17 2.25 37.13 2.22 37.1 2.19C37.04 2.15 37 2.1 36.97 2.04C36.92 1.93 36.94 1.8 36.94 1.68C36.94 1.58 36.92 1.49 36.84 1.44C36.81 1.42 36.79 1.41 36.75 1.4C36.9 1.4 37.05 1.5 37.07 1.67L37.14 2.15C37.14 2.2 37.18 2.25 37.23 2.28V2.27Z" fill="#E5D873"/>
<path d="M36.95 17.21L36.51 17.42C36.46 17.45 36.42 17.49 36.41 17.55L36.34 18.03C36.3 18.29 35.98 18.39 35.8 18.2L35.73 18.13L35.57 17.97L35.46 17.85C35.46 17.85 35.36 17.79 35.31 17.8L34.83 17.88C34.69 17.9 34.56 17.83 34.5 17.72C34.45 17.63 34.44 17.52 34.5 17.42L34.73 16.99C34.76 16.94 34.76 16.88 34.73 16.83L34.5 16.4C34.38 16.17 34.58 15.9 34.84 15.94L35.32 16.02C35.38 16.03 35.43 16.02 35.47 15.97L35.81 15.62C35.87 15.56 35.95 15.53 36.03 15.52C36.18 15.52 36.33 15.62 36.35 15.79L36.42 16.27C36.42 16.32 36.46 16.37 36.51 16.4L36.95 16.62C36.95 16.62 36.97 16.62 36.98 16.64C37.19 16.77 37.18 17.08 36.95 17.19V17.21Z" fill="#FFF280"/>
<path d="M35.44 16.35C35.46 16.45 35.4 16.55 35.3 16.58C35.2 16.61 35.09 16.55 35.06 16.45C35.06 16.42 35.06 16.38 35.06 16.35C35.08 16.28 35.13 16.23 35.19 16.21C35.29 16.18 35.4 16.24 35.43 16.34L35.44 16.35Z" fill="white"/>
<path d="M35.58 17.98L35.47 17.86C35.47 17.86 35.37 17.8 35.32 17.81L34.84 17.89C34.7 17.91 34.57 17.84 34.51 17.73C34.53 17.73 34.54 17.73 34.56 17.73C34.63 17.73 34.71 17.75 34.78 17.73C34.93 17.71 35.06 17.64 35.21 17.64C35.36 17.64 35.47 17.74 35.54 17.86C35.56 17.89 35.57 17.92 35.59 17.96L35.58 17.98Z" fill="#E5D873"/>
<path d="M36.95 17.21L36.51 17.42C36.46 17.45 36.42 17.49 36.41 17.55L36.34 18.03C36.3 18.29 35.98 18.39 35.8 18.2L35.73 18.13C35.73 18.13 35.75 18.13 35.75 18.14C35.81 18.2 35.91 18.23 35.99 18.19C36.04 18.16 36.08 18.11 36.11 18.05C36.16 17.89 36.13 17.71 36.15 17.54C36.17 17.32 36.34 17.21 36.54 17.16C36.64 17.14 36.75 17.13 36.84 17.07C36.92 17.02 36.97 16.92 36.99 16.83C37 16.78 37.01 16.71 36.99 16.66C36.99 16.66 36.99 16.65 36.99 16.64C37.2 16.77 37.19 17.08 36.96 17.19L36.95 17.21Z" fill="#E5D873"/>
<path d="M36.51 16.42C36.51 16.42 36.5 16.42 36.49 16.42C36.45 16.4 36.41 16.37 36.38 16.34C36.32 16.3 36.28 16.25 36.25 16.19C36.2 16.08 36.22 15.95 36.22 15.83C36.22 15.73 36.2 15.64 36.12 15.59C36.09 15.57 36.07 15.56 36.03 15.55C36.18 15.55 36.33 15.65 36.35 15.82L36.42 16.3C36.42 16.35 36.46 16.4 36.51 16.43V16.42Z" fill="#E5D873"/>
<path d="M42.77 1.9L42.61 2.36C42.59 2.41 42.61 2.47 42.64 2.52L42.93 2.91C43.09 3.12 42.93 3.42 42.67 3.42H42.57H42.34H42.18C42.12 3.42 42.07 3.44 42.03 3.49L41.75 3.89C41.67 4.01 41.53 4.04 41.41 4.01C41.31 3.98 41.23 3.91 41.19 3.8L41.05 3.33C41.03 3.27 40.99 3.23 40.94 3.21L40.47 3.06C40.22 2.98 40.17 2.65 40.38 2.5L40.78 2.22C40.78 2.22 40.86 2.13 40.85 2.08V1.59C40.85 1.5 40.88 1.42 40.93 1.37C41.04 1.26 41.21 1.23 41.35 1.34L41.74 1.63C41.74 1.63 41.84 1.67 41.89 1.66C41.89 1.66 41.89 1.66 41.9 1.66L42.36 1.5C42.36 1.5 42.38 1.5 42.39 1.5C42.63 1.44 42.84 1.67 42.76 1.91L42.77 1.9Z" fill="#FFF280"/>
<path d="M41.08 2.36C41.17 2.41 41.2 2.53 41.15 2.62C41.1 2.71 40.98 2.75 40.89 2.7C40.86 2.68 40.84 2.66 40.82 2.63C40.78 2.57 40.78 2.5 40.82 2.44C40.87 2.35 40.99 2.31 41.08 2.36Z" fill="white"/>
<path d="M42.34 3.41H42.18C42.12 3.41 42.07 3.43 42.03 3.48L41.75 3.88C41.67 4 41.53 4.03 41.41 4C41.42 3.99 41.43 3.98 41.45 3.97C41.51 3.92 41.57 3.88 41.61 3.82C41.7 3.7 41.74 3.56 41.85 3.46C41.96 3.36 42.1 3.34 42.24 3.38C42.27 3.38 42.31 3.4 42.34 3.42V3.41Z" fill="#E5D873"/>
<path d="M42.77 1.9L42.61 2.36C42.59 2.41 42.61 2.47 42.64 2.52L42.93 2.91C43.09 3.12 42.93 3.42 42.67 3.42H42.57C42.57 3.42 42.58 3.42 42.59 3.42C42.68 3.42 42.77 3.37 42.8 3.29C42.82 3.23 42.8 3.17 42.78 3.11C42.7 2.96 42.55 2.85 42.45 2.72C42.31 2.55 42.35 2.36 42.45 2.18C42.5 2.09 42.57 2.01 42.6 1.91C42.62 1.82 42.59 1.72 42.53 1.63C42.5 1.58 42.46 1.53 42.41 1.51C42.41 1.51 42.4 1.51 42.39 1.51C42.63 1.45 42.84 1.68 42.76 1.92L42.77 1.9Z" fill="#E5D873"/>
<path d="M41.89 1.65C41.89 1.65 41.89 1.65 41.88 1.65C41.84 1.67 41.79 1.67 41.74 1.67C41.67 1.68 41.61 1.67 41.54 1.65C41.43 1.6 41.35 1.5 41.26 1.42C41.19 1.35 41.11 1.31 41.02 1.32C40.99 1.32 40.96 1.34 40.93 1.35C41.04 1.24 41.21 1.21 41.35 1.32L41.74 1.61C41.74 1.61 41.84 1.65 41.89 1.64V1.65Z" fill="#E5D873"/>
<path d="M41.13 15.59L40.97 16.05C40.95 16.1 40.97 16.16 41 16.21L41.29 16.6C41.45 16.81 41.29 17.11 41.03 17.11H40.93H40.7H40.54C40.48 17.11 40.43 17.13 40.39 17.18L40.11 17.58C40.03 17.7 39.89 17.73 39.77 17.7C39.67 17.67 39.59 17.6 39.55 17.49L39.41 17.02C39.39 16.96 39.35 16.92 39.3 16.9L38.83 16.75C38.58 16.67 38.53 16.34 38.74 16.19L39.14 15.91C39.14 15.91 39.22 15.82 39.21 15.77V15.28C39.21 15.19 39.24 15.11 39.29 15.06C39.4 14.95 39.57 14.92 39.71 15.03L40.1 15.32C40.1 15.32 40.2 15.36 40.25 15.35C40.25 15.35 40.25 15.35 40.26 15.35L40.72 15.19C40.72 15.19 40.74 15.19 40.75 15.19C40.99 15.13 41.2 15.36 41.12 15.6L41.13 15.59Z" fill="#FFF280"/>
<path d="M39.44 16.06C39.53 16.11 39.56 16.23 39.51 16.32C39.46 16.41 39.34 16.45 39.25 16.4C39.22 16.38 39.2 16.36 39.18 16.33C39.14 16.27 39.14 16.2 39.18 16.14C39.23 16.05 39.35 16.01 39.44 16.06Z" fill="white"/>
<path d="M40.7 17.11H40.54C40.48 17.11 40.43 17.13 40.39 17.18L40.11 17.58C40.03 17.7 39.89 17.73 39.77 17.7C39.78 17.69 39.79 17.68 39.81 17.67C39.87 17.62 39.93 17.58 39.97 17.52C40.06 17.4 40.1 17.26 40.21 17.16C40.32 17.06 40.46 17.04 40.6 17.08C40.63 17.08 40.67 17.1 40.7 17.12V17.11Z" fill="#E5D873"/>
<path d="M41.13 15.59L40.97 16.05C40.95 16.1 40.97 16.16 41 16.21L41.29 16.6C41.45 16.81 41.29 17.11 41.03 17.11H40.93C40.93 17.11 40.94 17.11 40.95 17.11C41.04 17.11 41.13 17.06 41.16 16.98C41.18 16.92 41.16 16.86 41.14 16.8C41.06 16.65 40.91 16.54 40.81 16.41C40.67 16.24 40.71 16.05 40.81 15.87C40.86 15.78 40.93 15.7 40.96 15.6C40.98 15.51 40.95 15.41 40.89 15.32C40.86 15.27 40.82 15.22 40.77 15.2C40.77 15.2 40.76 15.2 40.75 15.2C40.99 15.14 41.2 15.37 41.12 15.61L41.13 15.59Z" fill="#E5D873"/>
<path d="M40.26 15.35C40.26 15.35 40.26 15.35 40.25 15.35C40.21 15.37 40.16 15.37 40.11 15.37C40.05 15.38 39.98 15.37 39.91 15.35C39.8 15.3 39.72 15.2 39.63 15.12C39.56 15.05 39.48 15.01 39.39 15.02C39.36 15.02 39.33 15.04 39.3 15.05C39.41 14.94 39.58 14.91 39.72 15.02L40.11 15.31C40.11 15.31 40.21 15.35 40.26 15.34V15.35Z" fill="#E5D873"/>
<path d="M41.91 7.91L41.75 8.37C41.73 8.42 41.75 8.48 41.78 8.53L42.07 8.92C42.23 9.13 42.07 9.43 41.81 9.43H41.71H41.32C41.26 9.43 41.21 9.45 41.17 9.5L40.89 9.9C40.81 10.02 40.67 10.05 40.55 10.02C40.45 9.99 40.37 9.92 40.33 9.81L40.19 9.34C40.17 9.28 40.13 9.24 40.08 9.22L39.61 9.07C39.36 8.99 39.31 8.66 39.52 8.51L39.92 8.23C39.92 8.23 40 8.14 39.99 8.09V7.6C39.99 7.51 40.02 7.43 40.07 7.38C40.18 7.27 40.35 7.24 40.49 7.35L40.88 7.64C40.88 7.64 40.98 7.68 41.03 7.67C41.03 7.67 41.03 7.67 41.04 7.67L41.5 7.51C41.5 7.51 41.52 7.51 41.53 7.51C41.77 7.45 41.98 7.68 41.9 7.92L41.91 7.91Z" fill="#FFF280"/>
<path d="M40.23 8.38C40.32 8.43 40.35 8.55 40.3 8.64C40.25 8.73 40.13 8.77 40.04 8.72C40.01 8.7 39.99 8.68 39.97 8.65C39.93 8.59 39.93 8.52 39.97 8.46C40.02 8.37 40.14 8.33 40.23 8.38Z" fill="white"/>
<path d="M41.49 9.43H41.33C41.27 9.43 41.22 9.45 41.18 9.5L40.9 9.9C40.82 10.02 40.68 10.05 40.56 10.02C40.57 10.01 40.58 10 40.6 9.99C40.66 9.94 40.72 9.9 40.76 9.84C40.85 9.72 40.89 9.58 41 9.48C41.11 9.38 41.25 9.36 41.39 9.4C41.42 9.4 41.46 9.42 41.49 9.44V9.43Z" fill="#E5D873"/>
<path d="M41.91 7.91L41.75 8.37C41.73 8.42 41.75 8.48 41.78 8.53L42.07 8.92C42.23 9.13 42.07 9.43 41.81 9.43H41.71C41.71 9.43 41.72 9.43 41.73 9.43C41.82 9.43 41.91 9.38 41.94 9.3C41.96 9.24 41.94 9.18 41.92 9.12C41.84 8.97 41.69 8.86 41.59 8.73C41.45 8.56 41.49 8.37 41.59 8.19C41.64 8.1 41.71 8.02 41.74 7.92C41.76 7.83 41.73 7.73 41.67 7.64C41.64 7.59 41.6 7.54 41.55 7.52C41.55 7.52 41.54 7.52 41.53 7.52C41.77 7.46 41.98 7.69 41.9 7.93L41.91 7.91Z" fill="#E5D873"/>
<path d="M41.04 7.67C41.04 7.67 41.04 7.67 41.03 7.67C40.99 7.69 40.94 7.69 40.89 7.69C40.82 7.7 40.76 7.69 40.69 7.67C40.58 7.62 40.5 7.52 40.41 7.44C40.34 7.37 40.26 7.33 40.17 7.34C40.14 7.34 40.11 7.36 40.08 7.37C40.19 7.26 40.36 7.23 40.5 7.34L40.89 7.63C40.89 7.63 40.99 7.67 41.04 7.66V7.67Z" fill="#E5D873"/>
<path d="M44.43 13.16L43.98 13.34C43.93 13.36 43.89 13.41 43.88 13.46L43.77 13.94C43.71 14.2 43.39 14.28 43.22 14.07L43.16 13.99L43.01 13.82L42.91 13.7C42.91 13.7 42.82 13.63 42.76 13.64L42.27 13.69C42.13 13.7 42.01 13.62 41.95 13.51C41.91 13.42 41.91 13.31 41.97 13.21L42.23 12.8C42.23 12.8 42.27 12.69 42.24 12.64L42.05 12.19C41.95 11.95 42.16 11.69 42.42 11.76L42.89 11.88C42.95 11.89 43.01 11.88 43.05 11.84L43.42 11.52C43.49 11.46 43.57 11.44 43.64 11.44C43.79 11.45 43.93 11.56 43.94 11.74L43.97 12.23C43.97 12.28 44 12.33 44.05 12.36L44.47 12.61C44.47 12.61 44.49 12.62 44.49 12.63C44.69 12.77 44.66 13.08 44.42 13.18L44.43 13.16Z" fill="#FFF280"/>
<path d="M42.98 12.19C43 12.29 42.93 12.39 42.83 12.41C42.73 12.43 42.62 12.37 42.6 12.26C42.6 12.23 42.6 12.19 42.6 12.16C42.62 12.1 42.67 12.04 42.74 12.03C42.84 12.01 42.95 12.07 42.97 12.18L42.98 12.19Z" fill="white"/>
<path d="M43.01 13.83L42.91 13.71C42.91 13.71 42.82 13.64 42.76 13.65L42.27 13.7C42.13 13.71 42.01 13.63 41.95 13.52C41.97 13.52 41.98 13.52 42 13.52C42.07 13.53 42.15 13.55 42.22 13.54C42.37 13.53 42.5 13.47 42.65 13.48C42.8 13.5 42.9 13.6 42.96 13.73C42.97 13.76 42.99 13.79 43 13.83H43.01Z" fill="#E5D873"/>
<path d="M44.43 13.16L43.98 13.34C43.93 13.36 43.89 13.41 43.88 13.46L43.77 13.94C43.71 14.2 43.39 14.28 43.22 14.07L43.16 13.99C43.16 13.99 43.18 13.99 43.18 14C43.24 14.06 43.33 14.11 43.42 14.07C43.47 14.05 43.51 13.99 43.55 13.93C43.61 13.77 43.6 13.59 43.63 13.43C43.67 13.21 43.84 13.12 44.04 13.08C44.14 13.06 44.25 13.06 44.34 13.01C44.43 12.96 44.48 12.87 44.51 12.78C44.53 12.73 44.54 12.67 44.53 12.61C44.53 12.61 44.53 12.6 44.53 12.59C44.73 12.73 44.7 13.04 44.46 13.14L44.43 13.16Z" fill="#E5D873"/>
<path d="M44.05 12.34C44.05 12.34 44.04 12.34 44.03 12.34C43.99 12.32 43.95 12.29 43.93 12.25C43.88 12.21 43.84 12.15 43.82 12.09C43.78 11.97 43.8 11.85 43.82 11.73C43.82 11.63 43.82 11.54 43.73 11.48C43.7 11.46 43.68 11.45 43.65 11.43C43.8 11.43 43.94 11.55 43.95 11.73L43.98 12.22C43.98 12.27 44.01 12.32 44.06 12.35L44.05 12.34Z" fill="#E5D873"/>
<path d="M37.47 7.23L37.18 7.62C37.18 7.62 37.14 7.73 37.16 7.78L37.32 8.24C37.4 8.49 37.17 8.73 36.92 8.64L36.83 8.61L36.47 8.49C36.42 8.47 36.36 8.49 36.31 8.52L35.92 8.81C35.8 8.9 35.66 8.89 35.56 8.82C35.48 8.76 35.42 8.67 35.42 8.55V8.06C35.42 8 35.4 7.95 35.35 7.91L34.95 7.63C34.74 7.48 34.79 7.15 35.04 7.07L35.51 6.92C35.56 6.9 35.61 6.86 35.62 6.81L35.77 6.34C35.8 6.25 35.85 6.19 35.92 6.16C36.05 6.09 36.23 6.12 36.33 6.26L36.61 6.66C36.61 6.66 36.69 6.73 36.74 6.73C36.74 6.73 36.74 6.73 36.75 6.73H37.24C37.24 6.73 37.26 6.73 37.27 6.73C37.51 6.75 37.65 7.03 37.5 7.23H37.47Z" fill="#FFF280"/>
<path d="M35.72 7.16C35.79 7.24 35.78 7.36 35.71 7.43C35.63 7.5 35.51 7.5 35.44 7.43C35.42 7.4 35.4 7.37 35.39 7.34C35.37 7.27 35.39 7.2 35.45 7.15C35.53 7.08 35.65 7.08 35.72 7.15V7.16Z" fill="white"/>
<path d="M36.59 8.55L36.44 8.5C36.39 8.48 36.33 8.5 36.28 8.53L35.89 8.82C35.77 8.91 35.63 8.9 35.53 8.83C35.55 8.83 35.56 8.82 35.58 8.81C35.65 8.78 35.72 8.76 35.78 8.72C35.9 8.63 35.98 8.51 36.12 8.45C36.26 8.39 36.4 8.42 36.52 8.5C36.55 8.52 36.58 8.54 36.6 8.56L36.59 8.55Z" fill="#E5D873"/>
<path d="M37.47 7.23L37.18 7.62C37.18 7.62 37.14 7.73 37.16 7.78L37.32 8.24C37.4 8.49 37.17 8.73 36.92 8.64L36.83 8.61C36.83 8.61 36.85 8.61 36.86 8.61C36.94 8.63 37.04 8.62 37.1 8.55C37.13 8.5 37.14 8.43 37.14 8.37C37.11 8.21 37 8.06 36.94 7.9C36.86 7.7 36.95 7.52 37.11 7.39C37.19 7.32 37.28 7.27 37.33 7.18C37.38 7.1 37.38 6.99 37.35 6.9C37.34 6.85 37.32 6.79 37.28 6.75C37.28 6.75 37.28 6.75 37.27 6.74C37.51 6.76 37.65 7.04 37.5 7.24L37.47 7.23Z" fill="#E5D873"/>
<path d="M36.71 6.73C36.71 6.73 36.7 6.73 36.69 6.73C36.64 6.73 36.6 6.73 36.55 6.71C36.48 6.71 36.42 6.68 36.37 6.63C36.28 6.55 36.23 6.43 36.18 6.32C36.13 6.23 36.07 6.17 35.98 6.15C35.95 6.15 35.92 6.15 35.88 6.15C36.01 6.08 36.19 6.11 36.29 6.25L36.57 6.65C36.57 6.65 36.65 6.72 36.7 6.72L36.71 6.73Z" fill="#E5D873"/>
</svg>
